<svg width="145" height="199" viewBox="0 0 145 199" fill="none" xmlns="http://www.w3.org/2000/svg">
<path d="M144.712 194.073L137.095 70.2073C137.017 68.9384 136.331 67.7892 135.26 67.1331L129.365 63.5228V39.4821C129.365 37.3443 127.66 35.6113 125.557 35.6113H19.1634C17.0601 35.6113 15.3551 37.3443 15.3551 39.4821V64.5455L11.3433 67.207C10.3546 67.8628 9.72129 68.9477 9.62836 70.1438L0.0117808 194.009C-0.0716231 195.085 0.290556 196.148 1.01149 196.941C1.73241 197.734 2.74621 198.184 3.80837 198.184H140.911C141.963 198.184 142.967 197.743 143.687 196.964C144.407 196.185 144.778 195.139 144.712 194.073ZM121.748 58.8581L113.916 54.0618L121.748 47.6057V58.8581ZM119.595 66.5777H111.11V61.3815L119.595 66.5777ZM114.815 43.3529L104.903 51.5238C104.011 52.2588 103.494 53.3632 103.494 54.5302V66.5777H41.2263V54.5302C41.2263 53.3635 40.7083 52.2588 39.8168 51.5238L29.9047 43.3529H114.815ZM33.6095 66.5777H26.2265L33.6095 61.6796V66.5777ZM22.9718 47.6057L30.9611 54.1919L22.9718 59.4926V47.6057ZM7.92906 190.443L8.53041 182.701H27.4254C29.5288 182.701 31.2338 180.968 31.2338 178.83C31.2338 176.692 29.5288 174.959 27.4254 174.959H9.13137L16.9447 74.3192H129.717L136.857 190.443H7.92906Z" fill="url(#paint0_linear)"/>
<path d="M72.3584 16.6444C74.4618 16.6444 76.1668 14.9114 76.1668 12.7736V3.87079C76.1668 1.73295 74.4614 0 72.3584 0C70.2554 0 68.55 1.73295 68.55 3.87079V12.7736C68.55 14.9114 70.2551 16.6444 72.3584 16.6444Z" fill="url(#paint1_linear)"/>
<path d="M49.1131 20.142C49.8184 21.3837 51.0984 22.0781 52.4146 22.0781C53.0605 22.0781 53.7155 21.9105 54.3153 21.5587C56.1369 20.4899 56.7611 18.1226 55.7092 16.2712L51.3296 8.56133C50.2781 6.70954 47.9485 6.07512 46.1273 7.14462C44.3057 8.21335 43.6815 10.5807 44.7334 12.4321L49.1131 20.142Z" fill="url(#paint2_linear)"/>
<path d="M90.4057 21.5588C91.0055 21.911 91.6602 22.0782 92.3061 22.0782C93.6222 22.0782 94.9026 21.3838 95.608 20.142L99.9876 12.4322C101.039 10.5808 100.415 8.21343 98.5937 7.14471C96.7718 6.07482 94.443 6.71002 93.3915 8.56142L89.0118 16.2713C87.9603 18.1223 88.5841 20.49 90.4057 21.5588Z" fill="url(#paint3_linear)"/>
<path d="M107.635 85.9329H92.4015C90.2985 85.9329 88.5931 87.6658 88.5931 89.8037C88.5931 91.9415 90.2985 93.6744 92.4015 93.6744H96.2099V116.899C96.2099 129.705 85.9592 140.124 73.3591 140.124C60.7594 140.124 50.5087 129.705 50.5087 116.899V93.6744H54.3171C56.4205 93.6744 58.1255 91.9415 58.1255 89.8037C58.1255 87.6658 56.4205 85.9329 54.3171 85.9329H39.0835C36.9802 85.9329 35.2751 87.6658 35.2751 89.8037C35.2751 91.9415 36.9802 93.6744 39.0835 93.6744H42.8919V116.899C42.8919 133.974 56.5595 147.865 73.3591 147.865C90.1587 147.865 103.827 133.974 103.827 116.899V93.6744H107.635C109.738 93.6744 111.443 91.9415 111.443 89.8037C111.443 87.6658 109.738 85.9329 107.635 85.9329Z" fill="url(#paint4_linear)"/>
<path d="M44.5618 174.959C42.4584 174.959 40.7534 176.692 40.7534 178.83C40.7534 180.968 42.4584 182.701 44.5618 182.701H44.5645C46.6679 182.701 48.3718 180.968 48.3718 178.83C48.3718 176.692 46.6652 174.959 44.5618 174.959Z" fill="url(#paint5_linear)"/>
<defs>
<linearGradient id="paint0_linear" x1="-1.39008" y1="35.6113" x2="174.257" y2="79.8824" gradientUnits="userSpaceOnUse">
<stop stop-color="#FFEA00"/>
<stop offset="0.322695" stop-color="#81F46F"/>
<stop offset="0.645612" stop-color="#42FAA7"/>
<stop offset="1" stop-color="#00FFE1"/>
</linearGradient>
<linearGradient id="paint1_linear" x1="68.4769" y1="-4.92438e-07" x2="78.1464" y2="1.25288" gradientUnits="userSpaceOnUse">
<stop stop-color="#FFEA00"/>
<stop offset="0.322695" stop-color="#81F46F"/>
<stop offset="0.645612" stop-color="#42FAA7"/>
<stop offset="1" stop-color="#00FFE1"/>
</linearGradient>
<linearGradient id="paint2_linear" x1="44.1072" y1="6.625" x2="58.8801" y2="9.87253" gradientUnits="userSpaceOnUse">
<stop stop-color="#FFEA00"/>
<stop offset="0.322695" stop-color="#81F46F"/>
<stop offset="0.645612" stop-color="#42FAA7"/>
<stop offset="1" stop-color="#00FFE1"/>
</linearGradient>
<linearGradient id="paint3_linear" x1="88.3857" y1="6.625" x2="103.158" y2="9.87243" gradientUnits="userSpaceOnUse">
<stop stop-color="#FFEA00"/>
<stop offset="0.322695" stop-color="#81F46F"/>
<stop offset="0.645612" stop-color="#42FAA7"/>
<stop offset="1" stop-color="#00FFE1"/>
</linearGradient>
<linearGradient id="paint4_linear" x1="34.5435" y1="85.9329" x2="122.229" y2="116.467" gradientUnits="userSpaceOnUse">
<stop stop-color="#FFEA00"/>
<stop offset="0.322695" stop-color="#81F46F"/>
<stop offset="0.645612" stop-color="#42FAA7"/>
<stop offset="1" stop-color="#00FFE1"/>
</linearGradient>
<linearGradient id="paint5_linear" x1="40.6802" y1="174.959" x2="49.8056" y2="177.502" gradientUnits="userSpaceOnUse">
<stop stop-color="#FFEA00"/>
<stop offset="0.322695" stop-color="#81F46F"/>
<stop offset="0.645612" stop-color="#42FAA7"/>
<stop offset="1" stop-color="#00FFE1"/>
</linearGradient>
</defs>
</svg>
