<svg width="188" height="180" viewBox="0 0 188 180" fill="none" xmlns="http://www.w3.org/2000/svg">
<g filter="url(#filter0_d)">
<rect width="181" height="169" rx="15" fill="white"/>
</g>
<path d="M143.448 59.811C143.446 58.5217 142.931 57.2858 142.017 56.3743C141.103 55.4628 139.863 54.95 138.571 54.9483H134.668V47.8337C134.669 46.553 134.159 45.3244 133.252 44.4181C132.345 43.5117 131.114 43.0016 129.83 43H117.711C116.429 43.0016 115.199 43.5106 114.292 44.4151C113.385 45.3197 112.875 46.5461 112.873 47.8254V83.4547C112.875 84.734 113.385 85.9604 114.292 86.8649C115.199 87.7695 116.429 88.2784 117.711 88.2801H129.83C131.113 88.2784 132.342 87.7695 133.249 86.8649C134.156 85.9604 134.666 84.734 134.668 83.4547V58.0588H138.571C139.036 58.0593 139.483 58.2441 139.813 58.5725C140.143 58.9009 140.328 59.3463 140.329 59.811V100.554H40.1186V59.811C40.1191 59.3461 40.3047 58.9004 40.6345 58.5719C40.9643 58.2433 41.4114 58.0588 41.8775 58.0588H107.1C107.305 58.0588 107.507 58.0186 107.696 57.9404C107.886 57.8623 108.058 57.7477 108.202 57.6033C108.347 57.4589 108.462 57.2874 108.54 57.0987C108.619 56.91 108.659 56.7078 108.659 56.5036C108.659 56.2993 108.619 56.0971 108.54 55.9084C108.462 55.7197 108.347 55.5483 108.202 55.4038C108.058 55.2594 107.886 55.1449 107.696 55.0667C107.507 54.9886 107.305 54.9483 107.1 54.9483H41.8775C40.5846 54.9494 39.3449 55.462 38.4305 56.3737C37.5161 57.2853 37.0017 58.5215 37 59.811V110.327C37.0017 111.616 37.5158 112.852 38.4298 113.764C39.3438 114.675 40.5829 115.188 41.8754 115.19H55.5972C54.8343 115.734 54.1256 116.35 53.4807 117.029C52.3799 118.197 51.4819 119.54 50.8237 121.002H46.9234C46.5098 121.002 46.1132 121.166 45.8208 121.458C45.5284 121.749 45.3641 122.145 45.3641 122.557C45.3641 122.97 45.5284 123.365 45.8208 123.657C46.1132 123.949 46.5098 124.113 46.9234 124.113H59.5246C59.9381 124.113 60.3347 123.949 60.6272 123.657C60.9196 123.365 61.0839 122.97 61.0839 122.557C61.0839 122.145 60.9196 121.749 60.6272 121.458C60.3347 121.166 59.9381 121.002 59.5246 121.002H54.3269C55.7469 118.688 59.0734 115.181 66.19 115.181H70.1403C70.5538 115.181 70.9504 115.018 71.2429 114.726C71.5353 114.434 71.6996 114.039 71.6996 113.626C71.6996 113.214 71.5353 112.818 71.2429 112.527C70.9504 112.235 70.5538 112.071 70.1403 112.071H41.865C41.3992 112.07 40.9527 111.886 40.6234 111.557C40.294 111.229 40.1087 110.783 40.1082 110.319V103.664H140.319V110.327C140.318 110.792 140.133 111.238 139.803 111.566C139.473 111.895 139.026 112.079 138.56 112.079H77.4357C77.0221 112.079 76.6255 112.243 76.3331 112.535C76.0407 112.826 75.8764 113.222 75.8764 113.635C75.8764 114.047 76.0407 114.443 76.3331 114.734C76.6255 115.026 77.0221 115.19 77.4357 115.19H113.293C120.412 115.19 123.736 118.696 125.156 121.01H120.923C120.51 121.01 120.113 121.174 119.821 121.466C119.528 121.758 119.364 122.153 119.364 122.566C119.364 122.978 119.528 123.374 119.821 123.665C120.113 123.957 120.51 124.121 120.923 124.121H133.525C133.938 124.121 134.335 123.957 134.627 123.665C134.92 123.374 135.084 122.978 135.084 122.566C135.084 122.153 134.92 121.758 134.627 121.466C134.335 121.174 133.938 121.01 133.525 121.01H128.655C127.606 118.686 125.961 116.679 123.886 115.19H138.564C139.857 115.189 141.097 114.676 142.011 113.764C142.926 112.853 143.44 111.617 143.442 110.327V59.811H143.448ZM131.55 83.4506C131.549 83.9052 131.368 84.3411 131.045 84.6626C130.723 84.9841 130.286 85.1649 129.83 85.1655H117.711C117.255 85.1649 116.818 84.9841 116.496 84.6626C116.174 84.3411 115.992 83.9052 115.992 83.4506V47.8337C115.991 47.6078 116.035 47.3841 116.121 47.1752C116.207 46.9663 116.333 46.7764 116.493 46.6163C116.653 46.4562 116.843 46.3291 117.052 46.2424C117.261 46.1556 117.485 46.1107 117.711 46.1105H129.83C130.286 46.111 130.723 46.2919 131.045 46.6134C131.368 46.9348 131.549 47.3707 131.55 47.8254V83.4506Z" fill="#939393"/>
<path d="M120.736 52.6105C121.597 52.6105 122.295 51.9142 122.295 51.0552C122.295 50.1963 121.597 49.5 120.736 49.5C119.875 49.5 119.177 50.1963 119.177 51.0552C119.177 51.9142 119.875 52.6105 120.736 52.6105Z" fill="#939393"/>
<path d="M126.793 52.6046C127.654 52.6046 128.352 51.9083 128.352 51.0494C128.352 50.1904 127.654 49.4941 126.793 49.4941C125.932 49.4941 125.233 50.1904 125.233 51.0494C125.233 51.9083 125.932 52.6046 126.793 52.6046Z" fill="#939393"/>
<path d="M120.734 57.9288C121.595 57.9288 122.293 57.2325 122.293 56.3736C122.293 55.5147 121.595 54.8184 120.734 54.8184C119.873 54.8184 119.175 55.5147 119.175 56.3736C119.175 57.2325 119.873 57.9288 120.734 57.9288Z" fill="#939393"/>
<path d="M126.793 57.923C127.654 57.923 128.352 57.2267 128.352 56.3677C128.352 55.5088 127.654 54.8125 126.793 54.8125C125.932 54.8125 125.233 55.5088 125.233 56.3677C125.233 57.2267 125.932 57.923 126.793 57.923Z" fill="#939393"/>
<path d="M123.77 60.957C122.701 60.957 121.656 61.2732 120.767 61.8657C119.878 62.4581 119.185 63.3001 118.776 64.2853C118.367 65.2704 118.26 66.3545 118.468 67.4003C118.677 68.4462 119.192 69.4068 119.948 70.1609C120.703 70.9149 121.667 71.4284 122.715 71.6364C123.764 71.8444 124.851 71.7376 125.838 71.3296C126.826 70.9215 127.67 70.2305 128.264 69.3438C128.858 68.4572 129.175 67.4148 129.175 66.3485C129.175 64.9186 128.606 63.5473 127.592 62.5362C126.578 61.5251 125.203 60.957 123.77 60.957ZM123.77 68.6295C123.317 68.6295 122.875 68.4957 122.499 68.2451C122.123 67.9945 121.83 67.6382 121.657 67.2214C121.484 66.8046 121.439 66.346 121.527 65.9035C121.615 65.461 121.833 65.0546 122.153 64.7356C122.473 64.4166 122.88 64.1993 123.324 64.1113C123.767 64.0233 124.227 64.0685 124.645 64.2411C125.063 64.4138 125.42 64.7061 125.671 65.0812C125.923 65.4564 126.057 65.8974 126.057 66.3485C126.058 66.6487 126 66.9463 125.885 67.224C125.771 67.5017 125.602 67.7541 125.39 67.9668C125.177 68.1795 124.925 68.3482 124.647 68.4634C124.369 68.5785 124.071 68.6378 123.77 68.6378V68.6295Z" fill="#939393"/>
<path d="M124.873 75.6863C124.728 75.5418 124.556 75.4272 124.367 75.3489C124.178 75.2707 123.975 75.2305 123.77 75.2305C123.565 75.2305 123.362 75.2707 123.173 75.3489C122.984 75.4272 122.812 75.5418 122.667 75.6863L119.341 79.0042C119.192 79.1477 119.073 79.3194 118.992 79.5092C118.91 79.6989 118.867 79.903 118.865 80.1095C118.864 80.316 118.903 80.5208 118.982 80.7119C119.06 80.903 119.176 81.0766 119.322 81.2225C119.469 81.3685 119.643 81.4839 119.835 81.562C120.026 81.6401 120.232 81.6794 120.439 81.6775C120.646 81.6756 120.85 81.6326 121.041 81.551C121.231 81.4694 121.403 81.3508 121.547 81.2022L123.765 78.9896L125.985 81.2022C126.128 81.355 126.3 81.4776 126.492 81.5626C126.683 81.6476 126.889 81.6933 127.099 81.697C127.308 81.7007 127.516 81.6622 127.71 81.584C127.904 81.5058 128.081 81.3894 128.229 81.2417C128.377 81.094 128.494 80.9181 128.572 80.7245C128.65 80.5308 128.689 80.3234 128.685 80.1146C128.682 79.9057 128.636 79.6998 128.551 79.509C128.465 79.3182 128.342 79.1465 128.189 79.0042L124.873 75.6863Z" fill="#939393"/>
<path d="M45.6755 61.9941C45.262 61.9941 44.8653 62.158 44.5729 62.4497C44.2805 62.7413 44.1162 63.1369 44.1162 63.5494V68.4224C44.1162 68.8349 44.2805 69.2305 44.5729 69.5222C44.8653 69.8138 45.262 69.9777 45.6755 69.9777C46.0891 69.9777 46.4857 69.8138 46.7781 69.5222C47.0705 69.2305 47.2348 68.8349 47.2348 68.4224V65.1046H49.9937C50.4073 65.1046 50.8039 64.9408 51.0963 64.6491C51.3887 64.3574 51.553 63.9618 51.553 63.5494C51.553 63.1369 51.3887 62.7413 51.0963 62.4497C50.8039 62.158 50.4073 61.9941 49.9937 61.9941H45.6755Z" fill="#939393"/>
<defs>
<filter id="filter0_d" x="-7" y="-3" width="195" height="183" filterUnits="userSpaceOnUse" color-interpolation-filters="sRGB">
<feFlood flood-opacity="0" result="BackgroundImageFix"/>
<feColorMatrix in="SourceAlpha" type="matrix" values="0 0 0 0 0 0 0 0 0 0 0 0 0 0 0 0 0 0 127 0" result="hardAlpha"/>
<feOffset dy="4"/>
<feGaussianBlur stdDeviation="3.5"/>
<feComposite in2="hardAlpha" operator="out"/>
<feColorMatrix type="matrix" values="0 0 0 0 0 0 0 0 0 0 0 0 0 0 0 0 0 0 0.1 0"/>
<feBlend mode="normal" in2="BackgroundImageFix" result="effect1_dropShadow"/>
<feBlend mode="normal" in="SourceGraphic" in2="effect1_dropShadow" result="shape"/>
</filter>
</defs>
</svg>
