<svg width="195" height="180" viewBox="0 0 195 180" fill="none" xmlns="http://www.w3.org/2000/svg">
<g filter="url(#filter0_d)">
<rect x="7" width="181" height="169" rx="15" fill="white"/>
</g>
<path d="M145.277 64.241L141.762 45.4753C141.43 43.6902 140.582 42.0419 139.323 40.7346C138.065 39.4273 136.451 38.5185 134.681 38.1209H134.661C109.965 32.6264 84.3649 32.6264 59.6688 38.1209H59.6482C57.8787 38.5185 56.2646 39.4273 55.006 40.7346C53.7474 42.0419 52.8996 43.6902 52.5677 45.4753L49.0526 64.241C48.9268 64.9069 49.0282 65.5959 49.3406 66.1973C49.6529 66.7986 50.158 67.2774 50.7747 67.5568L66.0024 74.4859V130.957C66.003 131.76 66.3221 132.53 66.8895 133.099C67.4569 133.667 68.2263 133.986 69.0288 133.987H125.301C126.103 133.986 126.873 133.667 127.44 133.099C128.007 132.53 128.326 131.76 128.327 130.957V74.4859L143.555 67.5568C144.172 67.2778 144.677 66.799 144.989 66.1976C145.302 65.5961 145.403 64.907 145.277 64.241ZM97.1567 36.9249C102.367 36.9249 107.583 37.1696 112.777 37.6498C109.166 42.9095 103.856 49.3126 97.1567 53.6049C90.4622 49.3034 85.145 42.8889 81.5499 37.6498C86.7392 37.1696 91.9415 36.9279 97.1567 36.9249ZM78.2472 37.986C82.13 43.8677 88.3198 51.668 96.3962 56.5824C96.6256 56.7214 96.8886 56.7949 97.1567 56.7949C97.4249 56.7949 97.6879 56.7214 97.9173 56.5824C105.991 51.6726 112.179 43.9065 116.078 37.9882C117.308 38.1255 118.538 38.2779 119.769 38.4456C115.116 45.816 107.807 55.0273 97.9539 60.3991C97.708 60.531 97.4334 60.6 97.1545 60.6C96.8755 60.6 96.6009 60.531 96.355 60.3991C86.5085 55.0205 79.1996 45.8183 74.5402 38.4456C75.7766 38.281 77.0123 38.1277 78.2472 37.986ZM142.344 64.8904L128.329 71.2684V68.3367C128.337 68.1394 128.305 67.9427 128.235 67.7582C128.165 67.5737 128.059 67.4052 127.922 67.2629C127.785 67.1206 127.621 67.0074 127.44 66.9301C127.259 66.8528 127.064 66.8129 126.866 66.8129C126.669 66.8129 126.474 66.8528 126.293 66.9301C126.111 67.0074 125.948 67.1206 125.811 67.2629C125.674 67.4052 125.568 67.5737 125.498 67.7582C125.428 67.9427 125.396 68.1394 125.403 68.3367V130.957C125.403 130.983 125.393 131.009 125.374 131.028C125.355 131.047 125.33 131.057 125.303 131.057H69.0128C68.9861 131.057 68.9606 131.047 68.9417 131.028C68.9229 131.009 68.9123 130.983 68.9123 130.957V68.3367C68.9201 68.1394 68.888 67.9427 68.818 67.7582C68.748 67.5737 68.6415 67.4052 68.5049 67.2629C68.3682 67.1206 68.2043 67.0074 68.023 66.9301C67.8416 66.8528 67.6465 66.8129 67.4494 66.8129C67.2522 66.8129 67.0571 66.8528 66.8758 66.9301C66.6944 67.0074 66.5305 67.1206 66.3939 67.2629C66.2573 67.4052 66.1507 67.5737 66.0807 67.7582C66.0107 67.9427 65.9786 68.1394 65.9864 68.3367V71.2684L51.9693 64.8904C51.9489 64.8811 51.9322 64.8652 51.9219 64.8454C51.9115 64.8255 51.9081 64.8027 51.9122 64.7806L55.4273 46.015C55.553 45.349 55.7843 44.7074 56.1125 44.1146L64.9792 55.5259C65.6316 56.369 65.9866 57.4048 65.9887 58.4713V62.073C65.9809 62.2703 66.013 62.467 66.083 62.6515C66.153 62.836 66.2595 63.0045 66.3961 63.1468C66.5328 63.2891 66.6967 63.4023 66.878 63.4796C67.0594 63.5569 67.2545 63.5968 67.4516 63.5968C67.6488 63.5968 67.8439 63.5569 68.0252 63.4796C68.2066 63.4023 68.3705 63.2891 68.5071 63.1468C68.6438 63.0045 68.7503 62.836 68.8203 62.6515C68.8903 62.467 68.9224 62.2703 68.9146 62.073V58.4713C68.9105 56.7539 68.3387 55.0862 67.2883 53.7284L58.1111 41.9193C58.7732 41.4705 59.514 41.1509 60.2946 40.9771H60.3129C63.9673 40.163 67.6561 39.4716 71.3791 38.903C76.187 46.7536 84.0646 57.0329 94.9572 62.9832C95.6318 63.3509 96.3876 63.5435 97.1556 63.5435C97.9236 63.5435 98.6794 63.3509 99.354 62.9832C110.256 57.0375 118.136 46.7468 122.934 38.903C126.647 39.4716 130.335 40.163 134.001 40.9771H134.019C134.796 41.152 135.534 41.4716 136.193 41.9193L127.018 53.7284C125.968 55.0862 125.396 56.7539 125.392 58.4713V62.0753C125.407 62.4538 125.568 62.8118 125.84 63.0742C126.113 63.3367 126.477 63.4833 126.855 63.4833C127.233 63.4833 127.597 63.3367 127.87 63.0742C128.142 62.8118 128.303 62.4538 128.318 62.0753V58.4713C128.324 57.4032 128.684 56.3672 129.341 55.5259L138.208 44.1146C138.536 44.7074 138.767 45.349 138.893 46.015L142.408 64.7806C142.412 64.8035 142.407 64.8269 142.396 64.8469C142.384 64.8669 142.366 64.8823 142.344 64.8904Z" fill="#939393"/>
<defs>
<filter id="filter0_d" x="0" y="-3" width="195" height="183" filterUnits="userSpaceOnUse" color-interpolation-filters="sRGB">
<feFlood flood-opacity="0" result="BackgroundImageFix"/>
<feColorMatrix in="SourceAlpha" type="matrix" values="0 0 0 0 0 0 0 0 0 0 0 0 0 0 0 0 0 0 127 0" result="hardAlpha"/>
<feOffset dy="4"/>
<feGaussianBlur stdDeviation="3.5"/>
<feComposite in2="hardAlpha" operator="out"/>
<feColorMatrix type="matrix" values="0 0 0 0 0 0 0 0 0 0 0 0 0 0 0 0 0 0 0.1 0"/>
<feBlend mode="normal" in2="BackgroundImageFix" result="effect1_dropShadow"/>
<feBlend mode="normal" in="SourceGraphic" in2="effect1_dropShadow" result="shape"/>
</filter>
</defs>
</svg>
