<svg width="195" height="180" viewBox="0 0 195 180" fill="none" xmlns="http://www.w3.org/2000/svg">
<g filter="url(#filter0_d)">
<rect x="7" width="181" height="169" rx="15" fill="white"/>
</g>
<path d="M149.263 56H135.358C134.88 56 134.422 56.1899 134.085 56.5279C133.747 56.8659 133.557 57.3243 133.557 57.8023C133.557 58.2803 133.747 58.7388 134.085 59.0768C134.422 59.4148 134.88 59.6047 135.358 59.6047H149.263C150.874 59.6066 152.418 60.2477 153.557 61.3875C154.696 62.5273 155.336 64.0726 155.338 65.6845V104.062C155.336 105.674 154.696 107.219 153.557 108.359C152.418 109.499 150.874 110.14 149.263 110.142H148.356L143.887 99.8998C143.251 98.446 142.206 97.209 140.88 96.3397C139.553 95.4704 138.003 95.0065 136.417 95.0047H58.535C56.9494 95.0065 55.3986 95.4704 54.0721 96.3397C52.7455 97.209 51.7006 98.446 51.0649 99.8998L46.5964 110.142H45.6887C44.0781 110.14 42.534 109.499 41.3952 108.359C40.2563 107.219 39.6157 105.674 39.6138 104.062V65.6845C39.6157 64.0726 40.2563 62.5273 41.3952 61.3875C42.534 60.2477 44.0781 59.6066 45.6887 59.6047H126.928C127.405 59.6047 127.863 59.4148 128.201 59.0768C128.539 58.7388 128.728 58.2803 128.728 57.8023C128.728 57.3243 128.539 56.8659 128.201 56.5279C127.863 56.1899 127.405 56 126.928 56H45.6767C43.1113 56.0032 40.6518 57.0245 38.8378 58.84C37.0237 60.6555 36.0032 63.117 36 65.6845V104.062C36.0025 106.63 37.0229 109.092 38.8371 110.907C40.6512 112.723 43.1111 113.744 45.6767 113.747H129.37V119.468C129.37 120.459 129.764 121.41 130.464 122.111C131.164 122.812 132.113 123.206 133.103 123.208H137.666C138.656 123.206 139.605 122.811 140.305 122.11C141.004 121.409 141.398 120.459 141.399 119.468V113.747H149.273C151.839 113.744 154.298 112.723 156.113 110.907C157.927 109.092 158.947 106.63 158.95 104.062V65.6845C158.946 63.117 157.926 60.6555 156.112 58.84C154.298 57.0245 151.838 56.0032 149.273 56H149.263ZM137.788 119.468C137.788 119.504 137.774 119.537 137.75 119.563C137.725 119.588 137.691 119.602 137.656 119.603H133.094C133.076 119.603 133.059 119.599 133.043 119.593C133.026 119.586 133.012 119.576 133 119.563C132.987 119.551 132.978 119.536 132.971 119.52C132.965 119.503 132.961 119.486 132.962 119.468V113.747H137.783L137.788 119.468ZM50.5127 110.142L52.2439 106.179H68.7448C69.2224 106.179 69.6805 105.989 70.0182 105.651C70.3559 105.313 70.5457 104.855 70.5457 104.377C70.5457 103.899 70.3559 103.44 70.0182 103.102C69.6805 102.764 69.2224 102.574 68.7448 102.574H53.8143L54.3522 101.342C54.7084 100.529 55.2938 99.837 56.0368 99.3517C56.7797 98.8665 57.6478 98.6085 58.535 98.6094H136.429C137.314 98.6091 138.18 98.8676 138.921 99.353C139.661 99.8383 140.244 100.53 140.597 101.342L141.135 102.574H77.1777C76.7001 102.574 76.242 102.764 75.9043 103.102C75.5666 103.44 75.3768 103.899 75.3768 104.377C75.3768 104.855 75.5666 105.313 75.9043 105.651C76.242 105.989 76.7001 106.179 77.1777 106.179H142.696L144.425 110.142H50.5127Z" fill="#939393"/>
<path d="M88.5498 76.293C87.1743 76.293 85.855 76.8398 84.8824 77.8133C83.9097 78.7867 83.3633 80.107 83.3633 81.4837C83.3633 82.8603 83.9097 84.1806 84.8824 85.1541C85.855 86.1275 87.1743 86.6744 88.5498 86.6744H106.4C107.776 86.6744 109.095 86.1275 110.068 85.1541C111.04 84.1806 111.587 82.8603 111.587 81.4837C111.587 80.107 111.04 78.7867 110.068 77.8133C109.095 76.8398 107.776 76.293 106.4 76.293H88.5498ZM107.985 81.4837C107.984 81.9041 107.817 82.3072 107.52 82.6045C107.223 82.9018 106.82 83.0691 106.4 83.0697H88.5498C88.1295 83.0697 87.7264 82.9026 87.4292 82.6052C87.132 82.3077 86.965 81.9043 86.965 81.4837C86.965 81.063 87.132 80.6596 87.4292 80.3622C87.7264 80.0647 88.1295 79.8976 88.5498 79.8976H106.4C106.819 79.8995 107.221 80.0674 107.517 80.3646C107.813 80.6617 107.979 81.0641 107.98 81.4837H107.985Z" fill="#939393"/>
<path d="M143.296 86.6789C144.291 86.6789 145.097 85.8719 145.097 84.8765C145.097 83.8811 144.291 83.0742 143.296 83.0742C142.302 83.0742 141.496 83.8811 141.496 84.8765C141.496 85.8719 142.302 86.6789 143.296 86.6789Z" fill="#939393"/>
<path d="M143.357 79.9054C144.351 79.9054 145.157 79.0985 145.157 78.1031C145.157 77.1077 144.351 76.3008 143.357 76.3008C142.362 76.3008 141.556 77.1077 141.556 78.1031C141.556 79.0985 142.362 79.9054 143.357 79.9054Z" fill="#939393"/>
<defs>
<filter id="filter0_d" x="0" y="-3" width="195" height="183" filterUnits="userSpaceOnUse" color-interpolation-filters="sRGB">
<feFlood flood-opacity="0" result="BackgroundImageFix"/>
<feColorMatrix in="SourceAlpha" type="matrix" values="0 0 0 0 0 0 0 0 0 0 0 0 0 0 0 0 0 0 127 0" result="hardAlpha"/>
<feOffset dy="4"/>
<feGaussianBlur stdDeviation="3.5"/>
<feComposite in2="hardAlpha" operator="out"/>
<feColorMatrix type="matrix" values="0 0 0 0 0 0 0 0 0 0 0 0 0 0 0 0 0 0 0.1 0"/>
<feBlend mode="normal" in2="BackgroundImageFix" result="effect1_dropShadow"/>
<feBlend mode="normal" in="SourceGraphic" in2="effect1_dropShadow" result="shape"/>
</filter>
</defs>
</svg>
