<svg width="195" height="180" viewBox="0 0 195 180" fill="none" xmlns="http://www.w3.org/2000/svg">
<g filter="url(#filter0_d)">
<rect x="7" width="181" height="169" rx="15" fill="white"/>
</g>
<path d="M59.5195 68.0255C60.0088 68.0255 60.478 67.831 60.824 67.4848C61.1699 67.1386 61.3643 66.6691 61.3643 66.1795V65.1409H62.4023C62.8916 65.1409 63.3608 64.9464 63.7068 64.6002C64.0528 64.254 64.2471 63.7845 64.2471 63.295C64.2471 62.8054 64.0528 62.3359 63.7068 61.9897C63.3608 61.6435 62.8916 61.449 62.4023 61.449H61.3766V60.4104C61.3766 59.9208 61.1822 59.4513 60.8363 59.1051C60.4903 58.7589 60.0211 58.5645 59.5318 58.5645C59.0425 58.5645 58.5733 58.7589 58.2273 59.1051C57.8814 59.4513 57.687 59.9208 57.687 60.4104V61.449H56.649C56.1597 61.449 55.6905 61.6435 55.3445 61.9897C54.9986 62.3359 54.8042 62.8054 54.8042 63.295C54.8042 63.7845 54.9986 64.254 55.3445 64.6002C55.6905 64.9464 56.1597 65.1409 56.649 65.1409H57.687V66.1795C57.687 66.667 57.8797 67.1346 58.223 67.4805C58.5663 67.8263 59.0324 68.0222 59.5195 68.0255Z" fill="url(#paint0_linear)"/>
<path d="M81.8145 58.5645C81.3253 58.5645 80.856 58.7589 80.5101 59.1051C80.1641 59.4513 79.9697 59.9208 79.9697 60.4104V61.449H78.9317C78.4424 61.449 77.9732 61.6435 77.6272 61.9897C77.2813 62.3359 77.0869 62.8054 77.0869 63.295C77.0869 63.7845 77.2813 64.254 77.6272 64.6002C77.9732 64.9464 78.4424 65.1409 78.9317 65.1409H79.9697V66.1795C79.9697 66.6691 80.1641 67.1386 80.5101 67.4848C80.856 67.831 81.3253 68.0255 81.8145 68.0255C82.3038 68.0255 82.773 67.831 83.119 67.4848C83.465 67.1386 83.6593 66.6691 83.6593 66.1795V65.1409H84.6973C85.1866 65.1409 85.6558 64.9464 86.0018 64.6002C86.3478 64.254 86.5421 63.7845 86.5421 63.295C86.5421 62.8054 86.3478 62.3359 86.0018 61.9897C85.6558 61.6435 85.1866 61.449 84.6973 61.449H83.6593V60.4104C83.6593 59.9208 83.465 59.4513 83.119 59.1051C82.773 58.7589 82.3038 58.5645 81.8145 58.5645Z" fill="url(#paint1_linear)"/>
<path d="M114.999 61.449H113.961V60.4104C113.961 59.9208 113.767 59.4513 113.421 59.1051C113.075 58.7589 112.605 58.5645 112.116 58.5645C111.627 58.5645 111.158 58.7589 110.812 59.1051C110.466 59.4513 110.271 59.9208 110.271 60.4104V61.449H109.243C108.754 61.449 108.285 61.6435 107.939 61.9897C107.593 62.3359 107.398 62.8054 107.398 63.295C107.398 63.7845 107.593 64.254 107.939 64.6002C108.285 64.9464 108.754 65.1409 109.243 65.1409H110.281V66.1795C110.281 66.6691 110.476 67.1386 110.822 67.4848C111.168 67.831 111.637 68.0255 112.126 68.0255C112.615 68.0255 113.085 67.831 113.431 67.4848C113.776 67.1386 113.971 66.6691 113.971 66.1795V65.1409H114.999C115.488 65.1409 115.958 64.9464 116.303 64.6002C116.649 64.254 116.844 63.7845 116.844 63.295C116.844 62.8054 116.649 62.3359 116.303 61.9897C115.958 61.6435 115.488 61.449 114.999 61.449Z" fill="url(#paint2_linear)"/>
<path d="M137.304 61.449H136.266V60.4104C136.266 59.9208 136.071 59.4513 135.725 59.1051C135.379 58.7589 134.91 58.5645 134.421 58.5645C133.932 58.5645 133.462 58.7589 133.117 59.1051C132.771 59.4513 132.576 59.9208 132.576 60.4104V61.449H131.538C131.049 61.449 130.58 61.6435 130.234 61.9897C129.888 62.3359 129.693 62.8054 129.693 63.295C129.693 63.7845 129.888 64.254 130.234 64.6002C130.58 64.9464 131.049 65.1409 131.538 65.1409H132.576V66.1795C132.576 66.6691 132.771 67.1386 133.117 67.4848C133.462 67.831 133.932 68.0255 134.421 68.0255C134.91 68.0255 135.379 67.831 135.725 67.4848C136.071 67.1386 136.266 66.6691 136.266 66.1795V65.1409H137.304C137.793 65.1409 138.262 64.9464 138.608 64.6002C138.954 64.254 139.149 63.7845 139.149 63.295C139.149 62.8054 138.954 62.3359 138.608 61.9897C138.262 61.6435 137.793 61.449 137.304 61.449Z" fill="url(#paint3_linear)"/>
<path d="M155.585 95.5866C156.074 95.5866 156.543 95.3921 156.889 95.0459C157.235 94.6998 157.43 94.2302 157.43 93.7407V87.7205C158.618 86.3364 159.42 84.6628 159.755 82.8688C160.089 81.0749 159.944 79.2244 159.335 77.5046C158.725 75.7847 157.672 74.2566 156.282 73.0749C154.892 71.8931 153.215 71.0997 151.42 70.7748V57.6909C151.417 54.5915 150.184 51.6201 147.994 49.4285C145.804 47.2369 142.834 46.0039 139.737 46H106.808C104.847 46.0017 102.919 46.497 101.199 47.4402C99.4798 48.3834 98.0252 49.7443 96.9693 51.3975C95.9139 49.7438 94.4594 48.3826 92.7399 47.4393C91.0204 46.496 89.0913 46.001 87.1303 46H69.5088C69.0195 46 68.5503 46.1945 68.2043 46.5407C67.8583 46.8868 67.664 47.3564 67.664 47.8459C67.664 48.3355 67.8583 48.805 68.2043 49.1512C68.5503 49.4974 69.0195 49.6919 69.5088 49.6919H87.1303C89.2497 49.6945 91.2815 50.5381 92.7802 52.0376C94.2788 53.5371 95.1219 55.5702 95.1245 57.6909V90.8192H52.2218V87.7205C53.4104 86.3361 54.2125 84.662 54.5468 82.8678C54.881 81.0735 54.7355 79.2227 54.1251 77.5028C53.5147 75.7829 52.461 74.2548 51.0707 73.0734C49.6804 71.8919 48.0028 71.099 46.2077 70.7748V57.6909C46.2103 55.5702 47.0534 53.5371 48.552 52.0376C50.0506 50.5381 52.0825 49.6945 54.2018 49.6919H61.9107C62.3999 49.6919 62.8692 49.4974 63.2151 49.1512C63.5611 48.805 63.7555 48.3355 63.7555 47.8459C63.7555 47.3564 63.5611 46.8868 63.2151 46.5407C62.8692 46.1945 62.3999 46 61.9107 46H54.2018C51.1043 46.0039 48.1348 47.2369 45.9445 49.4285C43.7542 51.6201 42.522 54.5915 42.5181 57.6909V70.7748C40.7219 71.0981 39.0431 71.8909 37.6519 73.0727C36.2606 74.2545 35.2064 75.7834 34.596 77.5044C33.9857 79.2254 33.8409 81.0772 34.1764 82.8722C34.5119 84.6672 35.3158 86.3415 36.5065 87.7254V106.593C36.5104 110.408 38.0266 114.066 40.7224 116.764C43.4181 119.462 47.0734 120.98 50.8861 120.984H54.4281L50.7066 128.86C50.356 129.604 50.199 130.425 50.2501 131.246C50.3012 132.067 50.5589 132.862 50.999 133.557C51.4392 134.252 52.0477 134.824 52.7681 135.22C53.4884 135.617 54.2972 135.825 55.1193 135.825H58.5925C59.5726 135.826 60.5357 135.569 61.3858 135.081C62.236 134.593 62.9436 133.891 63.4382 133.044L70.4041 120.984H123.534L130.495 133.044C130.988 133.893 131.695 134.599 132.545 135.089C133.396 135.58 134.36 135.839 135.341 135.84H138.814C139.639 135.843 140.451 135.636 141.174 135.239C141.897 134.842 142.508 134.268 142.95 133.571C143.391 132.874 143.648 132.076 143.698 131.252C143.747 130.428 143.587 129.605 143.232 128.86L139.51 120.984H143.055C146.867 120.98 150.522 119.462 153.218 116.765C155.913 114.067 157.43 110.41 157.435 106.596V101.085C157.435 100.595 157.24 100.126 156.894 99.7798C156.548 99.4336 156.079 99.2391 155.59 99.2391C155.1 99.2391 154.631 99.4336 154.285 99.7798C153.939 100.126 153.745 100.595 153.745 101.085V106.588C153.744 109.426 152.617 112.146 150.613 114.153C148.609 116.16 145.89 117.289 143.055 117.292H50.8861C48.052 117.289 45.3348 116.161 43.3307 114.156C41.3267 112.15 40.1994 109.432 40.1961 106.596V90.4648C41.509 91.0438 42.9281 91.3429 44.3629 91.3429C45.7977 91.3429 47.2168 91.0438 48.5297 90.4648V98.4859C48.5316 100.014 49.1393 101.479 50.2193 102.559C51.2993 103.639 52.7634 104.246 54.2904 104.248H109.88C110.37 104.248 110.839 104.053 111.185 103.707C111.531 103.361 111.725 102.891 111.725 102.402C111.725 101.912 111.531 101.443 111.185 101.097C110.839 100.75 110.37 100.556 109.88 100.556H98.8116V94.511H141.719V98.4835C141.719 99.0323 141.5 99.5584 141.113 99.9464C140.725 100.334 140.199 100.553 139.651 100.553H117.326C116.837 100.553 116.368 100.748 116.022 101.094C115.676 101.44 115.481 101.91 115.481 102.399C115.481 102.889 115.676 103.358 116.022 103.705C116.368 104.051 116.837 104.245 117.326 104.245H139.651C141.177 104.244 142.641 103.636 143.721 102.556C144.8 101.476 145.408 100.011 145.409 98.4835V90.4648C146.722 91.0442 148.142 91.3434 149.577 91.3434C151.012 91.3434 152.432 91.0442 153.745 90.4648V93.7431C153.745 94.2327 153.939 94.7022 154.285 95.0484C154.631 95.3946 155.1 95.5891 155.59 95.5891L155.585 95.5866ZM60.2454 131.184C60.0774 131.473 59.8366 131.713 59.5471 131.88C59.2575 132.047 58.9292 132.135 58.5949 132.136H55.1193C54.9188 132.136 54.7214 132.086 54.5457 131.989C54.3699 131.892 54.2214 131.753 54.1141 131.583C54.0068 131.414 53.9442 131.22 53.932 131.02C53.9198 130.819 53.9585 130.619 54.0444 130.438L58.5088 120.984H66.134L60.2454 131.184ZM139.897 130.445C139.982 130.627 140.02 130.826 140.007 131.027C139.995 131.227 139.932 131.42 139.825 131.59C139.718 131.759 139.57 131.898 139.394 131.995C139.219 132.092 139.022 132.143 138.822 132.143H135.346C135.012 132.143 134.683 132.055 134.394 131.888C134.104 131.721 133.863 131.48 133.696 131.191L127.79 120.984H135.415L139.897 130.445ZM37.6896 80.9742C37.6896 79.6536 38.081 78.3626 38.8143 77.2645C39.5475 76.1664 40.5898 75.3106 41.8092 74.8052C43.0285 74.2998 44.3703 74.1675 45.6648 74.4252C46.9593 74.6828 48.1483 75.3188 49.0816 76.2526C50.0149 77.1865 50.6504 78.3763 50.9079 79.6715C51.1654 80.9668 51.0333 82.3094 50.5282 83.5295C50.0231 84.7497 49.1678 85.7925 48.0704 86.5262C46.973 87.2599 45.6827 87.6516 44.3629 87.6516C42.5932 87.6496 40.8966 86.9451 39.6455 85.6928C38.3944 84.4404 37.6909 82.7425 37.6896 80.9718V80.9742ZM95.1245 100.556H54.2929C53.7444 100.555 53.2186 100.337 52.8308 99.9489C52.443 99.5608 52.2249 99.0347 52.2242 98.4859V94.511H95.1245V100.556ZM98.8141 90.8216V57.6909C98.8167 55.5702 99.6598 53.5371 101.158 52.0376C102.657 50.5381 104.689 49.6945 106.808 49.6919H139.737C141.856 49.6945 143.888 50.5381 145.387 52.0376C146.885 53.5371 147.728 55.5702 147.731 57.6909V70.7748C145.935 71.0981 144.256 71.8909 142.865 73.0727C141.473 74.2545 140.419 75.7834 139.809 77.5044C139.198 79.2254 139.054 81.0772 139.389 82.8722C139.725 84.6672 140.529 86.3415 141.719 87.7254V90.8241L98.8141 90.8216ZM142.902 80.9767C142.902 79.656 143.294 78.365 144.027 77.267C144.76 76.1689 145.803 75.313 147.022 74.8076C148.241 74.3022 149.583 74.17 150.878 74.4276C152.172 74.6853 153.361 75.3212 154.294 76.2551C155.228 77.1889 155.863 78.3787 156.121 79.674C156.378 80.9693 156.246 82.3119 155.741 83.532C155.236 84.7521 154.381 85.795 153.283 86.5287C152.186 87.2624 150.896 87.654 149.576 87.654C147.806 87.6521 146.109 86.9473 144.857 85.6944C143.606 84.4415 142.903 82.743 142.902 80.9718V80.9767Z" fill="url(#paint4_linear)"/>
<path d="M59.5195 68.0255C60.0088 68.0255 60.478 67.831 60.824 67.4848C61.1699 67.1386 61.3643 66.6691 61.3643 66.1795V65.1409H62.4023C62.8916 65.1409 63.3608 64.9464 63.7068 64.6002C64.0528 64.254 64.2471 63.7845 64.2471 63.295C64.2471 62.8054 64.0528 62.3359 63.7068 61.9897C63.3608 61.6435 62.8916 61.449 62.4023 61.449H61.3766V60.4104C61.3766 59.9208 61.1822 59.4513 60.8363 59.1051C60.4903 58.7589 60.0211 58.5645 59.5318 58.5645C59.0425 58.5645 58.5733 58.7589 58.2273 59.1051C57.8814 59.4513 57.687 59.9208 57.687 60.4104V61.449H56.649C56.1597 61.449 55.6905 61.6435 55.3445 61.9897C54.9986 62.3359 54.8042 62.8054 54.8042 63.295C54.8042 63.7845 54.9986 64.254 55.3445 64.6002C55.6905 64.9464 56.1597 65.1409 56.649 65.1409H57.687V66.1795C57.687 66.667 57.8797 67.1346 58.223 67.4805C58.5663 67.8263 59.0324 68.0222 59.5195 68.0255Z" fill="#939393"/>
<path d="M81.8145 58.5645C81.3253 58.5645 80.856 58.7589 80.5101 59.1051C80.1641 59.4513 79.9697 59.9208 79.9697 60.4104V61.449H78.9317C78.4424 61.449 77.9732 61.6435 77.6272 61.9897C77.2813 62.3359 77.0869 62.8054 77.0869 63.295C77.0869 63.7845 77.2813 64.254 77.6272 64.6002C77.9732 64.9464 78.4424 65.1409 78.9317 65.1409H79.9697V66.1795C79.9697 66.6691 80.1641 67.1386 80.5101 67.4848C80.856 67.831 81.3253 68.0255 81.8145 68.0255C82.3038 68.0255 82.773 67.831 83.119 67.4848C83.465 67.1386 83.6593 66.6691 83.6593 66.1795V65.1409H84.6973C85.1866 65.1409 85.6558 64.9464 86.0018 64.6002C86.3478 64.254 86.5421 63.7845 86.5421 63.295C86.5421 62.8054 86.3478 62.3359 86.0018 61.9897C85.6558 61.6435 85.1866 61.449 84.6973 61.449H83.6593V60.4104C83.6593 59.9208 83.465 59.4513 83.119 59.1051C82.773 58.7589 82.3038 58.5645 81.8145 58.5645Z" fill="#939393"/>
<path d="M114.999 61.449H113.961V60.4104C113.961 59.9208 113.767 59.4513 113.421 59.1051C113.075 58.7589 112.605 58.5645 112.116 58.5645C111.627 58.5645 111.158 58.7589 110.812 59.1051C110.466 59.4513 110.271 59.9208 110.271 60.4104V61.449H109.243C108.754 61.449 108.285 61.6435 107.939 61.9897C107.593 62.3359 107.398 62.8054 107.398 63.295C107.398 63.7845 107.593 64.254 107.939 64.6002C108.285 64.9464 108.754 65.1409 109.243 65.1409H110.281V66.1795C110.281 66.6691 110.476 67.1386 110.822 67.4848C111.168 67.831 111.637 68.0255 112.126 68.0255C112.615 68.0255 113.085 67.831 113.431 67.4848C113.776 67.1386 113.971 66.6691 113.971 66.1795V65.1409H114.999C115.488 65.1409 115.958 64.9464 116.303 64.6002C116.649 64.254 116.844 63.7845 116.844 63.295C116.844 62.8054 116.649 62.3359 116.303 61.9897C115.958 61.6435 115.488 61.449 114.999 61.449Z" fill="#939393"/>
<path d="M137.304 61.449H136.266V60.4104C136.266 59.9208 136.071 59.4513 135.725 59.1051C135.379 58.7589 134.91 58.5645 134.421 58.5645C133.932 58.5645 133.462 58.7589 133.117 59.1051C132.771 59.4513 132.576 59.9208 132.576 60.4104V61.449H131.538C131.049 61.449 130.58 61.6435 130.234 61.9897C129.888 62.3359 129.693 62.8054 129.693 63.295C129.693 63.7845 129.888 64.254 130.234 64.6002C130.58 64.9464 131.049 65.1409 131.538 65.1409H132.576V66.1795C132.576 66.6691 132.771 67.1386 133.117 67.4848C133.462 67.831 133.932 68.0255 134.421 68.0255C134.91 68.0255 135.379 67.831 135.725 67.4848C136.071 67.1386 136.266 66.6691 136.266 66.1795V65.1409H137.304C137.793 65.1409 138.262 64.9464 138.608 64.6002C138.954 64.254 139.149 63.7845 139.149 63.295C139.149 62.8054 138.954 62.3359 138.608 61.9897C138.262 61.6435 137.793 61.449 137.304 61.449Z" fill="#939393"/>
<path d="M155.585 95.5866C156.074 95.5866 156.543 95.3921 156.889 95.0459C157.235 94.6998 157.43 94.2302 157.43 93.7407V87.7205C158.618 86.3364 159.42 84.6628 159.755 82.8688C160.089 81.0749 159.944 79.2244 159.335 77.5046C158.725 75.7847 157.672 74.2566 156.282 73.0749C154.892 71.8931 153.215 71.0997 151.42 70.7748V57.6909C151.417 54.5915 150.184 51.6201 147.994 49.4285C145.804 47.2369 142.834 46.0039 139.737 46H106.808C104.847 46.0017 102.919 46.497 101.199 47.4402C99.4798 48.3834 98.0252 49.7443 96.9693 51.3975C95.9139 49.7438 94.4594 48.3826 92.7399 47.4393C91.0204 46.496 89.0913 46.001 87.1303 46H69.5088C69.0195 46 68.5503 46.1945 68.2043 46.5407C67.8583 46.8868 67.664 47.3564 67.664 47.8459C67.664 48.3355 67.8583 48.805 68.2043 49.1512C68.5503 49.4974 69.0195 49.6919 69.5088 49.6919H87.1303C89.2497 49.6945 91.2815 50.5381 92.7802 52.0376C94.2788 53.5371 95.1219 55.5702 95.1245 57.6909V90.8192H52.2218V87.7205C53.4104 86.3361 54.2125 84.662 54.5468 82.8678C54.881 81.0735 54.7355 79.2227 54.1251 77.5028C53.5147 75.7829 52.461 74.2548 51.0707 73.0734C49.6804 71.8919 48.0028 71.099 46.2077 70.7748V57.6909C46.2103 55.5702 47.0534 53.5371 48.552 52.0376C50.0506 50.5381 52.0825 49.6945 54.2018 49.6919H61.9107C62.3999 49.6919 62.8692 49.4974 63.2151 49.1512C63.5611 48.805 63.7555 48.3355 63.7555 47.8459C63.7555 47.3564 63.5611 46.8868 63.2151 46.5407C62.8692 46.1945 62.3999 46 61.9107 46H54.2018C51.1043 46.0039 48.1348 47.2369 45.9445 49.4285C43.7542 51.6201 42.522 54.5915 42.5181 57.6909V70.7748C40.7219 71.0981 39.0431 71.8909 37.6519 73.0727C36.2606 74.2545 35.2064 75.7834 34.596 77.5044C33.9857 79.2254 33.8409 81.0772 34.1764 82.8722C34.5119 84.6672 35.3158 86.3415 36.5065 87.7254V106.593C36.5104 110.408 38.0266 114.066 40.7224 116.764C43.4181 119.462 47.0734 120.98 50.8861 120.984H54.4281L50.7066 128.86C50.356 129.604 50.199 130.425 50.2501 131.246C50.3012 132.067 50.5589 132.862 50.999 133.557C51.4392 134.252 52.0477 134.824 52.7681 135.22C53.4884 135.617 54.2972 135.825 55.1193 135.825H58.5925C59.5726 135.826 60.5357 135.569 61.3858 135.081C62.236 134.593 62.9436 133.891 63.4382 133.044L70.4041 120.984H123.534L130.495 133.044C130.988 133.893 131.695 134.599 132.545 135.089C133.396 135.58 134.36 135.839 135.341 135.84H138.814C139.639 135.843 140.451 135.636 141.174 135.239C141.897 134.842 142.508 134.268 142.95 133.571C143.391 132.874 143.648 132.076 143.698 131.252C143.747 130.428 143.587 129.605 143.232 128.86L139.51 120.984H143.055C146.867 120.98 150.522 119.462 153.218 116.765C155.913 114.067 157.43 110.41 157.435 106.596V101.085C157.435 100.595 157.24 100.126 156.894 99.7798C156.548 99.4336 156.079 99.2391 155.59 99.2391C155.1 99.2391 154.631 99.4336 154.285 99.7798C153.939 100.126 153.745 100.595 153.745 101.085V106.588C153.744 109.426 152.617 112.146 150.613 114.153C148.609 116.16 145.89 117.289 143.055 117.292H50.8861C48.052 117.289 45.3348 116.161 43.3307 114.156C41.3267 112.15 40.1994 109.432 40.1961 106.596V90.4648C41.509 91.0438 42.9281 91.3429 44.3629 91.3429C45.7977 91.3429 47.2168 91.0438 48.5297 90.4648V98.4859C48.5316 100.014 49.1393 101.479 50.2193 102.559C51.2993 103.639 52.7634 104.246 54.2904 104.248H109.88C110.37 104.248 110.839 104.053 111.185 103.707C111.531 103.361 111.725 102.891 111.725 102.402C111.725 101.912 111.531 101.443 111.185 101.097C110.839 100.75 110.37 100.556 109.88 100.556H98.8116V94.511H141.719V98.4835C141.719 99.0323 141.5 99.5584 141.113 99.9464C140.725 100.334 140.199 100.553 139.651 100.553H117.326C116.837 100.553 116.368 100.748 116.022 101.094C115.676 101.44 115.481 101.91 115.481 102.399C115.481 102.889 115.676 103.358 116.022 103.705C116.368 104.051 116.837 104.245 117.326 104.245H139.651C141.177 104.244 142.641 103.636 143.721 102.556C144.8 101.476 145.408 100.011 145.409 98.4835V90.4648C146.722 91.0442 148.142 91.3434 149.577 91.3434C151.012 91.3434 152.432 91.0442 153.745 90.4648V93.7431C153.745 94.2327 153.939 94.7022 154.285 95.0484C154.631 95.3946 155.1 95.5891 155.59 95.5891L155.585 95.5866ZM60.2454 131.184C60.0774 131.473 59.8366 131.713 59.5471 131.88C59.2575 132.047 58.9292 132.135 58.5949 132.136H55.1193C54.9188 132.136 54.7214 132.086 54.5457 131.989C54.3699 131.892 54.2214 131.753 54.1141 131.583C54.0068 131.414 53.9442 131.22 53.932 131.02C53.9198 130.819 53.9585 130.619 54.0444 130.438L58.5088 120.984H66.134L60.2454 131.184ZM139.897 130.445C139.982 130.627 140.02 130.826 140.007 131.027C139.995 131.227 139.932 131.42 139.825 131.59C139.718 131.759 139.57 131.898 139.394 131.995C139.219 132.092 139.022 132.143 138.822 132.143H135.346C135.012 132.143 134.683 132.055 134.394 131.888C134.104 131.721 133.863 131.48 133.696 131.191L127.79 120.984H135.415L139.897 130.445ZM37.6896 80.9742C37.6896 79.6536 38.081 78.3626 38.8143 77.2645C39.5475 76.1664 40.5898 75.3106 41.8092 74.8052C43.0285 74.2998 44.3703 74.1675 45.6648 74.4252C46.9593 74.6828 48.1483 75.3188 49.0816 76.2526C50.0149 77.1865 50.6504 78.3763 50.9079 79.6715C51.1654 80.9668 51.0333 82.3094 50.5282 83.5295C50.0231 84.7497 49.1678 85.7925 48.0704 86.5262C46.973 87.2599 45.6827 87.6516 44.3629 87.6516C42.5932 87.6496 40.8966 86.9451 39.6455 85.6928C38.3944 84.4404 37.6909 82.7425 37.6896 80.9718V80.9742ZM95.1245 100.556H54.2929C53.7444 100.555 53.2186 100.337 52.8308 99.9489C52.443 99.5608 52.2249 99.0347 52.2242 98.4859V94.511H95.1245V100.556ZM98.8141 90.8216V57.6909C98.8167 55.5702 99.6598 53.5371 101.158 52.0376C102.657 50.5381 104.689 49.6945 106.808 49.6919H139.737C141.856 49.6945 143.888 50.5381 145.387 52.0376C146.885 53.5371 147.728 55.5702 147.731 57.6909V70.7748C145.935 71.0981 144.256 71.8909 142.865 73.0727C141.473 74.2545 140.419 75.7834 139.809 77.5044C139.198 79.2254 139.054 81.0772 139.389 82.8722C139.725 84.6672 140.529 86.3415 141.719 87.7254V90.8241L98.8141 90.8216ZM142.902 80.9767C142.902 79.656 143.294 78.365 144.027 77.267C144.76 76.1689 145.803 75.313 147.022 74.8076C148.241 74.3022 149.583 74.17 150.878 74.4276C152.172 74.6853 153.361 75.3212 154.294 76.2551C155.228 77.1889 155.863 78.3787 156.121 79.674C156.378 80.9693 156.246 82.3119 155.741 83.532C155.236 84.7521 154.381 85.795 153.283 86.5287C152.186 87.2624 150.896 87.654 149.576 87.654C147.806 87.6521 146.109 86.9473 144.857 85.6944C143.606 84.4415 142.903 82.743 142.902 80.9718V80.9767Z" fill="#939393"/>
<defs>
<filter id="filter0_d" x="0" y="-3" width="195" height="183" filterUnits="userSpaceOnUse" color-interpolation-filters="sRGB">
<feFlood flood-opacity="0" result="BackgroundImageFix"/>
<feColorMatrix in="SourceAlpha" type="matrix" values="0 0 0 0 0 0 0 0 0 0 0 0 0 0 0 0 0 0 127 0" result="hardAlpha"/>
<feOffset dy="4"/>
<feGaussianBlur stdDeviation="3.5"/>
<feComposite in2="hardAlpha" operator="out"/>
<feColorMatrix type="matrix" values="0 0 0 0 0 0 0 0 0 0 0 0 0 0 0 0 0 0 0.1 0"/>
<feBlend mode="normal" in2="BackgroundImageFix" result="effect1_dropShadow"/>
<feBlend mode="normal" in="SourceGraphic" in2="effect1_dropShadow" result="shape"/>
</filter>
<linearGradient id="paint0_linear" x1="54.7135" y1="58.5645" x2="66.001" y2="61.7543" gradientUnits="userSpaceOnUse">
<stop stop-color="#FFEA00"/>
<stop offset="0.322695" stop-color="#81F46F"/>
<stop offset="0.645612" stop-color="#42FAA7"/>
<stop offset="1" stop-color="#00FFE1"/>
</linearGradient>
<linearGradient id="paint1_linear" x1="76.9961" y1="58.5645" x2="88.2962" y2="61.762" gradientUnits="userSpaceOnUse">
<stop stop-color="#FFEA00"/>
<stop offset="0.322695" stop-color="#81F46F"/>
<stop offset="0.645612" stop-color="#42FAA7"/>
<stop offset="1" stop-color="#00FFE1"/>
</linearGradient>
<linearGradient id="paint2_linear" x1="107.308" y1="58.5645" x2="118.598" y2="61.7558" gradientUnits="userSpaceOnUse">
<stop stop-color="#FFEA00"/>
<stop offset="0.322695" stop-color="#81F46F"/>
<stop offset="0.645612" stop-color="#42FAA7"/>
<stop offset="1" stop-color="#00FFE1"/>
</linearGradient>
<linearGradient id="paint3_linear" x1="129.603" y1="58.5645" x2="140.903" y2="61.762" gradientUnits="userSpaceOnUse">
<stop stop-color="#FFEA00"/>
<stop offset="0.322695" stop-color="#81F46F"/>
<stop offset="0.645612" stop-color="#42FAA7"/>
<stop offset="1" stop-color="#00FFE1"/>
</linearGradient>
<linearGradient id="paint4_linear" x1="32.7904" y1="46" x2="173.222" y2="101.735" gradientUnits="userSpaceOnUse">
<stop stop-color="#FFEA00"/>
<stop offset="0.322695" stop-color="#81F46F"/>
<stop offset="0.645612" stop-color="#42FAA7"/>
<stop offset="1" stop-color="#00FFE1"/>
</linearGradient>
</defs>
</svg>
