<svg width="188" height="180" viewBox="0 0 188 180" fill="none" xmlns="http://www.w3.org/2000/svg">
<g filter="url(#filter0_d)">
<rect x="7" width="181" height="169" rx="15" fill="white"/>
</g>
<path d="M129.766 50.6469C125.427 46.32 120.275 42.8878 114.606 40.5463C108.937 38.2047 102.861 36.9997 96.7245 37C90.5882 37.0003 84.5121 38.2059 78.8431 40.548C73.1741 42.8901 68.0231 46.3228 63.6843 50.6501C59.3456 54.9774 55.904 60.1146 53.556 65.7684C51.208 71.4222 49.9997 77.4818 50 83.6012C50.0003 89.7207 51.2092 95.7802 53.5577 101.434C55.9062 107.087 59.3484 112.224 63.6875 116.551C68.0267 120.878 73.178 124.31 78.8473 126.652C84.5165 128.993 90.5927 130.198 96.729 130.198C102.865 130.198 108.941 128.992 114.61 126.65C120.279 124.308 125.43 120.875 129.769 116.548C134.108 112.22 137.549 107.083 139.897 101.43C142.245 95.7758 143.454 89.7162 143.453 83.5967C143.453 77.4772 142.244 71.4178 139.896 65.7642C137.547 60.1107 134.105 54.9738 129.766 50.6469ZM140.713 83.5084C129.694 84.0958 119.243 88.5703 111.226 96.1328L98.6634 83.6022L128.783 53.5653C136.451 61.6586 140.72 72.3735 140.713 83.5084ZM94.0718 39.8068C93.9421 41.9855 93.6505 44.1517 93.1996 46.2874C93.1623 46.4628 93.1601 46.6438 93.193 46.8201C93.2259 46.9964 93.2933 47.1644 93.3913 47.3147C93.4894 47.465 93.6162 47.5945 93.7645 47.6959C93.9128 47.7972 94.0797 47.8684 94.2556 47.9054C94.3492 47.9249 94.4444 47.9349 94.5399 47.9353C94.8536 47.9348 95.1575 47.827 95.4011 47.6299C95.6446 47.4328 95.813 47.1583 95.8781 46.8523C96.3739 44.5042 96.6891 42.1218 96.8208 39.7258C107.986 39.7183 118.73 43.9757 126.846 51.6233L96.7267 81.6665L84.1639 69.138C88.6279 64.4451 92.0511 58.8675 94.2107 52.768C94.3318 52.4268 94.3119 52.0516 94.1556 51.725C93.9992 51.3984 93.7192 51.1471 93.3771 51.0264C93.0349 50.9057 92.6587 50.9254 92.3312 51.0814C92.0037 51.2373 91.7517 51.5166 91.6306 51.8578C89.6055 57.5734 86.4014 62.8021 82.2251 67.2066L66.6054 51.6297C74.0778 44.5841 83.8054 40.3968 94.0718 39.8068ZM64.6709 53.5589L80.2905 69.1359C72.8078 76.1672 63.0833 80.3494 52.8198 80.9502C53.4109 70.7125 57.608 61.0118 64.6709 53.5589ZM52.7408 83.6917C63.7599 83.1043 74.2108 78.6298 82.2272 71.0673L94.79 83.5958L64.6709 113.635C57.0023 105.541 52.7332 94.8266 52.7408 83.6917ZM99.3817 127.393C99.5111 125.214 99.8026 123.048 100.254 120.913C100.291 120.737 100.293 120.556 100.26 120.38C100.227 120.204 100.16 120.036 100.062 119.886C99.9638 119.735 99.837 119.606 99.6888 119.504C99.5405 119.403 99.3737 119.332 99.1978 119.295C99.022 119.258 98.8405 119.255 98.6638 119.288C98.487 119.321 98.3185 119.388 98.1679 119.486C98.0172 119.584 97.8874 119.71 97.7857 119.858C97.684 120.006 97.6126 120.172 97.5754 120.348C97.0794 122.696 96.7642 125.078 96.6327 127.474C85.467 127.481 74.7226 123.223 66.6075 115.575L96.7267 85.5378L109.29 98.0663C104.826 102.759 101.403 108.336 99.2427 114.434C99.1826 114.603 99.1565 114.782 99.1658 114.961C99.1752 115.14 99.2198 115.316 99.2971 115.477C99.3744 115.639 99.4829 115.784 99.6165 115.904C99.75 116.024 99.9059 116.117 100.075 116.177C100.245 116.237 100.424 116.263 100.604 116.254C100.783 116.244 100.959 116.2 101.122 116.123C101.284 116.046 101.429 115.937 101.55 115.804C101.67 115.671 101.763 115.515 101.823 115.347C103.849 109.631 107.053 104.403 111.228 99.9977L126.848 115.575C119.373 122.615 109.646 126.796 99.3817 127.383V127.393ZM128.783 113.645L113.163 98.0684C120.645 91.0363 130.37 86.854 140.634 86.2541C140.04 96.4879 135.843 106.184 128.783 113.635V113.645Z" fill="#939393"/>
<defs>
<filter id="filter0_d" x="0" y="-3" width="195" height="183" filterUnits="userSpaceOnUse" color-interpolation-filters="sRGB">
<feFlood flood-opacity="0" result="BackgroundImageFix"/>
<feColorMatrix in="SourceAlpha" type="matrix" values="0 0 0 0 0 0 0 0 0 0 0 0 0 0 0 0 0 0 127 0" result="hardAlpha"/>
<feOffset dy="4"/>
<feGaussianBlur stdDeviation="3.5"/>
<feComposite in2="hardAlpha" operator="out"/>
<feColorMatrix type="matrix" values="0 0 0 0 0 0 0 0 0 0 0 0 0 0 0 0 0 0 0.1 0"/>
<feBlend mode="normal" in2="BackgroundImageFix" result="effect1_dropShadow"/>
<feBlend mode="normal" in="SourceGraphic" in2="effect1_dropShadow" result="shape"/>
</filter>
</defs>
</svg>
