<svg width="195" height="180" viewBox="0 0 195 180" fill="none" xmlns="http://www.w3.org/2000/svg">
<g filter="url(#filter0_d)">
<rect x="7" width="181" height="169" rx="15" fill="white"/>
</g>
<path d="M149.37 45H66.5847C66.1362 45 65.7061 45.1776 65.3889 45.4938C65.0718 45.81 64.8936 46.2389 64.8936 46.686C64.8936 47.1332 65.0718 47.5621 65.3889 47.8783C65.7061 48.1945 66.1362 48.3721 66.5847 48.3721H120.171V59.7473C120.171 60.1945 120.349 60.6233 120.667 60.9395C120.984 61.2557 121.414 61.4333 121.862 61.4333C122.311 61.4333 122.741 61.2557 123.058 60.9395C123.375 60.6233 123.553 60.1945 123.553 59.7473V48.3721H149.37C149.819 48.3721 150.249 48.5497 150.566 48.8659C150.883 49.1821 151.061 49.611 151.061 50.0581V117.5C151.061 117.947 150.883 118.375 150.566 118.692C150.249 119.008 149.819 119.185 149.37 119.186H123.553V67.0962C123.553 66.649 123.375 66.2202 123.058 65.904C122.741 65.5878 122.311 65.4102 121.862 65.4102C121.414 65.4102 120.984 65.5878 120.667 65.904C120.349 66.2202 120.171 66.649 120.171 67.0962V119.186H44.0732C43.6251 119.185 43.1956 119.007 42.8788 118.691C42.5619 118.375 42.3833 117.947 42.3821 117.5V50.0581C42.3827 49.6112 42.5611 49.1826 42.8781 48.8666C43.1951 48.5505 43.6249 48.3727 44.0732 48.3721H59.2162C59.6647 48.3721 60.0948 48.1945 60.4119 47.8783C60.7291 47.5621 60.9072 47.1332 60.9072 46.686C60.9072 46.2389 60.7291 45.81 60.4119 45.4938C60.0948 45.1776 59.6647 45 59.2162 45H44.0732C42.7283 45.0018 41.4389 45.5353 40.4879 46.4835C39.5369 47.4317 39.0018 48.7172 39 50.0581V117.5C39.0018 118.841 39.5369 120.126 40.4879 121.075C41.4389 122.023 42.7283 122.556 44.0732 122.558H47.2862V123.12C47.2886 124.759 47.9427 126.33 49.105 127.489C50.2673 128.648 51.8431 129.3 53.4868 129.302H60.2511C61.895 129.301 63.4711 128.649 64.6336 127.49C65.796 126.331 66.4499 124.759 66.4517 123.12V122.558H127.001V123.12C127.003 124.759 127.657 126.33 128.82 127.489C129.982 128.648 131.558 129.3 133.202 129.302H139.966C141.61 129.301 143.186 128.649 144.348 127.49C145.511 126.331 146.165 124.759 146.166 123.12V122.558H149.379C150.724 122.556 152.014 122.023 152.965 121.075C153.916 120.126 154.451 118.841 154.453 117.5V50.0581C154.452 49.3933 154.32 48.7351 154.064 48.1211C153.809 47.5071 153.434 46.9493 152.962 46.4796C152.49 46.0099 151.93 45.6375 151.314 45.3837C150.698 45.1298 150.037 44.9994 149.37 45ZM63.0695 123.12C63.069 123.865 62.7718 124.58 62.2434 125.107C61.715 125.633 60.9984 125.93 60.2511 125.93H53.4958C52.7487 125.929 52.0325 125.633 51.5042 125.106C50.9759 124.579 50.6786 123.865 50.6774 123.12V122.558H63.0786L63.0695 123.12ZM142.775 123.12C142.775 123.865 142.478 124.58 141.949 125.107C141.421 125.633 140.704 125.93 139.957 125.93H133.193C132.445 125.929 131.729 125.633 131.201 125.106C130.673 124.579 130.375 123.865 130.374 123.12V122.558H142.775V123.12Z" fill="#939393"/>
<path d="M48.019 55.6782V111.88C48.019 112.327 48.1972 112.756 48.5143 113.072C48.8315 113.388 49.2616 113.566 49.7101 113.566H112.843C113.292 113.566 113.722 113.388 114.039 113.072C114.356 112.756 114.534 112.327 114.534 111.88V55.6782C114.535 55.4567 114.491 55.2374 114.406 55.0327C114.321 54.828 114.197 54.642 114.04 54.4854C113.883 54.3287 113.696 54.2046 113.491 54.1199C113.286 54.0353 113.066 53.9919 112.843 53.9922H49.7101C49.2616 53.9922 48.8315 54.1698 48.5143 54.486C48.1972 54.8022 48.019 55.2311 48.019 55.6782ZM51.4012 110.194V103.189H111.152V110.194H51.4012ZM111.152 57.3643V99.8167H97.5087C98.3228 98.7362 98.8641 97.4763 99.0871 96.1434L100.395 88.2909C100.447 87.1219 99.8913 86.4677 98.7263 86.3283H84.9723C84.5238 86.3283 84.0936 86.506 83.7765 86.8221C83.4594 87.1383 83.2812 87.5672 83.2812 88.0144C83.2812 88.4615 83.4594 88.8904 83.7765 89.2066C84.0936 89.5228 84.5238 89.7004 84.9723 89.7004H96.7399L95.7523 95.5881C95.5587 96.7709 94.9488 97.8463 94.0318 98.6212C93.1149 99.3962 91.951 99.82 90.749 99.8167H71.8158C70.6138 99.8196 69.4502 99.3956 68.5333 98.6207C67.6165 97.8458 67.0064 96.7707 66.8125 95.5881L65.8271 89.7004H77.5925C78.041 89.7004 78.4711 89.5228 78.7882 89.2066C79.1054 88.8904 79.2835 88.4615 79.2835 88.0144C79.2835 87.5672 79.1054 87.1383 78.7882 86.8221C78.4711 86.506 78.041 86.3283 77.5925 86.3283H63.8384C62.675 86.4677 62.1195 87.1219 62.1722 88.2909L63.4867 96.1434C63.7072 97.475 64.2446 98.7346 65.0537 99.8167H51.4012V57.3643H111.152Z" fill="#939393"/>
<path d="M142.944 77.5968C143.393 77.5968 143.823 77.4192 144.14 77.103C144.457 76.7868 144.635 76.358 144.635 75.9108V55.6782C144.636 55.4567 144.592 55.2374 144.507 55.0327C144.422 54.828 144.298 54.642 144.141 54.4854C143.984 54.3287 143.797 54.2046 143.592 54.1199C143.387 54.0353 143.167 53.9919 142.944 53.9922H131.671C131.222 53.9922 130.792 54.1698 130.475 54.486C130.158 54.8022 129.979 55.2311 129.979 55.6782V75.9108C129.979 76.358 130.158 76.7868 130.475 77.103C130.792 77.4192 131.222 77.5968 131.671 77.5968H142.944ZM133.362 57.3643H141.253V74.2248H133.362V57.3643Z" fill="#939393"/>
<path d="M137.307 96.7062C138.757 96.7062 140.174 96.2777 141.379 95.4749C142.584 94.672 143.523 93.531 144.078 92.1959C144.632 90.8609 144.777 89.3919 144.495 87.9746C144.212 86.5573 143.514 85.2555 142.489 84.2337C141.464 83.2119 140.159 82.5161 138.737 82.2341C137.316 81.9522 135.842 82.0969 134.503 82.6499C133.164 83.2029 132.02 84.1394 131.214 85.3409C130.409 86.5423 129.979 87.9549 129.979 89.4C129.982 91.337 130.755 93.1939 132.128 94.5636C133.502 95.9333 135.365 96.7038 137.307 96.7062ZM137.307 85.4658C138.088 85.4658 138.851 85.6966 139.5 86.1289C140.149 86.5612 140.654 87.1756 140.953 87.8944C141.252 88.6133 141.33 89.4043 141.177 90.1675C141.025 90.9306 140.649 91.6316 140.098 92.1818C139.546 92.732 138.843 93.1067 138.077 93.2585C137.312 93.4103 136.518 93.3324 135.797 93.0346C135.076 92.7368 134.46 92.2326 134.027 91.5856C133.593 90.9387 133.362 90.1781 133.362 89.4C133.363 88.3569 133.779 87.357 134.519 86.6194C135.258 85.8819 136.261 85.467 137.307 85.4658Z" fill="#939393"/>
<path d="M131.671 105.437H142.944C143.393 105.437 143.823 105.259 144.14 104.943C144.457 104.627 144.635 104.198 144.635 103.75C144.635 103.303 144.457 102.874 144.14 102.558C143.823 102.242 143.393 102.064 142.944 102.064H131.671C131.222 102.064 130.792 102.242 130.475 102.558C130.158 102.874 129.979 103.303 129.979 103.75C129.979 104.198 130.158 104.627 130.475 104.943C130.792 105.259 131.222 105.437 131.671 105.437Z" fill="#939393"/>
<path d="M131.671 113.565H142.944C143.393 113.565 143.823 113.388 144.14 113.072C144.457 112.755 144.635 112.327 144.635 111.879C144.635 111.432 144.457 111.003 144.14 110.687C143.823 110.371 143.393 110.193 142.944 110.193H131.671C131.222 110.193 130.792 110.371 130.475 110.687C130.158 111.003 129.979 111.432 129.979 111.879C129.979 112.327 130.158 112.755 130.475 113.072C130.792 113.388 131.222 113.565 131.671 113.565Z" fill="#939393"/>
<path d="M85.3574 73.1254C87.531 75.0003 87.4002 75.5691 85.425 77.3068C85.0891 77.6031 84.8847 78.0202 84.8568 78.4665C84.8289 78.9128 84.9797 79.352 85.2762 79.6875C86.0519 80.3934 86.8471 80.4429 87.6618 79.8359C91.1476 76.7718 91.0011 73.5413 87.5738 70.5761C85.3687 68.672 85.5919 68.1033 87.6392 66.3678C87.8084 66.2243 87.9477 66.049 88.0489 65.8519C88.1502 65.6547 88.2115 65.4397 88.2294 65.2189C88.2473 64.9982 88.2215 64.776 88.1533 64.5653C88.0851 64.3545 87.9759 64.1592 87.832 63.9904C87.6881 63.8217 87.5123 63.6829 87.3146 63.5819C87.1169 63.481 86.9011 63.4198 86.6797 63.402C86.4583 63.3841 86.2355 63.4099 86.0241 63.4779C85.8127 63.5459 85.6168 63.6548 85.4476 63.7982C81.8625 66.8399 81.8513 70.0928 85.3574 73.1254Z" fill="#939393"/>
<path d="M74.9629 73.1254C77.1365 75.0003 77.0057 75.5691 75.0305 77.3068C74.8639 77.4534 74.7279 77.6312 74.6302 77.8302C74.5325 78.0291 74.4751 78.2453 74.4613 78.4664C74.4475 78.6875 74.4775 78.9092 74.5496 79.1187C74.6218 79.3282 74.7346 79.5215 74.8817 79.6875C75.6558 80.3934 76.451 80.4429 77.2672 79.8359C80.7531 76.7718 80.6088 73.5413 77.177 70.5761C74.9742 68.672 75.1974 68.1033 77.2447 66.3678C77.5864 66.078 77.7988 65.6647 77.8349 65.2189C77.8711 64.7731 77.7281 64.3312 77.4375 63.9904C77.1468 63.6497 76.7324 63.438 76.2852 63.402C75.838 63.3659 75.3948 63.5085 75.0531 63.7982C71.4703 66.8399 71.4455 70.0928 74.9629 73.1254Z" fill="#939393"/>
<defs>
<filter id="filter0_d" x="0" y="-3" width="195" height="183" filterUnits="userSpaceOnUse" color-interpolation-filters="sRGB">
<feFlood flood-opacity="0" result="BackgroundImageFix"/>
<feColorMatrix in="SourceAlpha" type="matrix" values="0 0 0 0 0 0 0 0 0 0 0 0 0 0 0 0 0 0 127 0" result="hardAlpha"/>
<feOffset dy="4"/>
<feGaussianBlur stdDeviation="3.5"/>
<feComposite in2="hardAlpha" operator="out"/>
<feColorMatrix type="matrix" values="0 0 0 0 0 0 0 0 0 0 0 0 0 0 0 0 0 0 0.1 0"/>
<feBlend mode="normal" in2="BackgroundImageFix" result="effect1_dropShadow"/>
<feBlend mode="normal" in="SourceGraphic" in2="effect1_dropShadow" result="shape"/>
</filter>
</defs>
</svg>
