<svg width="17" height="18" viewBox="0 0 17 18" fill="none" xmlns="http://www.w3.org/2000/svg">
<path fill-rule="evenodd" clip-rule="evenodd" d="M8.49376 1.28571C7.65068 1.28571 6.84213 1.62436 6.24598 2.22716C5.64983 2.82995 5.31492 3.64752 5.31492 4.5V5.14286H11.6726V4.5C11.6726 3.64752 11.3377 2.82995 10.7415 2.22716C10.1454 1.62436 9.33685 1.28571 8.49376 1.28571ZM12.9442 5.14286V4.5C12.9442 3.30653 12.4753 2.16193 11.6407 1.31802C10.8061 0.474106 9.67408 0 8.49376 0C7.31345 0 6.18148 0.474106 5.34687 1.31802C4.51226 2.16193 4.04338 3.30653 4.04338 4.5V5.14286H1.5003C1.16307 5.14286 0.839645 5.27832 0.601185 5.51943C0.362726 5.76055 0.22876 6.08758 0.22876 6.42857V15.1071C0.22876 16.6772 1.53699 18 3.08972 18H13.8978C15.4318 18 16.7588 16.7461 16.7588 15.1574V6.42857C16.7588 6.08758 16.6248 5.76055 16.3863 5.51943C16.1479 5.27832 15.8245 5.14286 15.4872 5.14286H12.9442ZM1.5003 6.42857L1.5003 15.1071C1.5003 15.9671 2.23924 16.7143 3.08972 16.7143H13.8978C14.767 16.7143 15.4872 15.9987 15.4872 15.1574V6.42857H1.5003ZM4.67915 7.07143C5.03027 7.07143 5.31492 7.35925 5.31492 7.71429V8.35714C5.31492 9.20962 5.64983 10.0272 6.24598 10.63C6.84213 11.2328 7.65068 11.5714 8.49376 11.5714C9.33685 11.5714 10.1454 11.2328 10.7415 10.63C11.3377 10.0272 11.6726 9.20963 11.6726 8.35714V7.71429C11.6726 7.35925 11.9573 7.07143 12.3084 7.07143C12.6595 7.07143 12.9442 7.35925 12.9442 7.71429V8.35714C12.9442 9.55062 12.4753 10.6952 11.6407 11.5391C10.8061 12.383 9.67408 12.8571 8.49376 12.8571C7.31345 12.8571 6.18148 12.383 5.34687 11.5391C4.51226 10.6952 4.04338 9.55062 4.04338 8.35714V7.71429C4.04338 7.35925 4.32802 7.07143 4.67915 7.07143Z" fill="#696969"/>
</svg>
