<svg width="34" height="37" viewBox="0 0 34 37" fill="none" xmlns="http://www.w3.org/2000/svg">
<path fill-rule="evenodd" clip-rule="evenodd" d="M16.6503 2.59014C14.9518 2.59014 13.323 3.27236 12.122 4.48672C10.921 5.70108 10.2463 7.34811 10.2463 9.06548V10.3605H23.0542V9.06548C23.0542 7.34811 22.3795 5.70108 21.1786 4.48672C19.9776 3.27236 18.3487 2.59014 16.6503 2.59014ZM25.6158 10.3605V9.06548C25.6158 6.66117 24.6712 4.35533 22.9899 2.65522C21.3085 0.955111 19.0281 0 16.6503 0C14.2725 0 11.9921 0.955111 10.3107 2.65522C8.62932 4.35533 7.68474 6.66117 7.68474 9.06548V10.3605H2.56158C1.88221 10.3605 1.23066 10.6334 0.75027 11.1192C0.269881 11.6049 0 12.2637 0 12.9507V30.4341C0 33.597 2.6355 36.2619 5.76356 36.2619H27.537C30.6273 36.2619 33.3006 33.7358 33.3006 30.5353V12.9507C33.3006 12.2637 33.0307 11.6049 32.5503 11.1192C32.0699 10.6334 31.4183 10.3605 30.739 10.3605H25.6158ZM2.56158 12.9507L2.56158 30.4341C2.56158 32.1665 4.05023 33.6718 5.76356 33.6718H27.537C29.2881 33.6718 30.739 32.2301 30.739 30.5353V12.9507H2.56158ZM8.96553 14.2458C9.6729 14.2458 10.2463 14.8256 10.2463 15.5408V16.8359C10.2463 18.5533 10.921 20.2003 12.122 21.4147C13.323 22.629 14.9518 23.3112 16.6503 23.3112C18.3487 23.3112 19.9776 22.629 21.1786 21.4147C22.3795 20.2003 23.0542 18.5533 23.0542 16.8359V15.5408C23.0542 14.8256 23.6277 14.2458 24.335 14.2458C25.0424 14.2458 25.6158 14.8256 25.6158 15.5408V16.8359C25.6158 19.2402 24.6712 21.546 22.9899 23.2462C21.3085 24.9463 19.0281 25.9014 16.6503 25.9014C14.2725 25.9014 11.9921 24.9463 10.3107 23.2462C8.62932 21.546 7.68474 19.2402 7.68474 16.8359V15.5408C7.68474 14.8256 8.25817 14.2458 8.96553 14.2458Z" fill="#696969"/>
</svg>
