<svg width="37" height="32" viewBox="0 0 37 32" fill="none" xmlns="http://www.w3.org/2000/svg">
<path d="M17.6269 6.11142L18.5 7.67447L19.373 6.11144C19.9437 5.08982 20.8978 3.71568 22.3048 2.64966L21.7111 1.86606L22.3048 2.64966C23.7561 1.55006 25.3854 1 27.1719 1C32.1661 1 36 4.98391 36 10.4435C36 13.3453 34.8251 15.8326 32.6035 18.4588C30.3567 21.1149 27.1217 23.8199 23.1087 27.1702L23.1087 27.1702L23.1084 27.1704C21.7531 28.302 20.2125 29.5882 18.6105 30.9607L18.6101 30.961C18.5832 30.9842 18.5445 31 18.5 31C18.4555 31 18.4169 30.9842 18.39 30.9611L18.3895 30.9606C16.7886 29.5892 15.249 28.3037 13.895 27.1733L13.8922 27.1709L13.8921 27.1709C9.87871 23.8203 6.64355 21.1151 4.3966 18.4589C2.17491 15.8326 1 13.3453 1 10.4435C1 4.98391 4.83385 1 9.82812 1C11.6146 1 13.2439 1.55006 14.6952 2.64966L15.2991 1.8526L14.6952 2.64966C16.1022 3.71569 17.0563 5.08976 17.6269 6.11142Z" stroke="#696969" stroke-width="2"/>
</svg>
