<svg width="201" height="63" viewBox="0 0 201 63" fill="none" xmlns="http://www.w3.org/2000/svg">
<path d="M95.28 11.68C94.14 10.18 92.18 9.48 90.32 9.48C85.96 9.48 82.94 12.64 82.94 17.04C82.94 20.6 85.72 24.36 90.22 24.36C93.46 24.36 95.16 22.46 95.58 21.88L93.96 20.66C93.12 21.84 91.88 22.56 90.26 22.56C86.96 22.56 84.98 20.02 84.98 17.04C84.98 13.82 87.08 11.28 90.26 11.28C91.56 11.28 92.88 11.86 93.68 12.9L95.28 11.68ZM98.902 19.26C98.902 17.34 100.102 15.96 102.022 15.96C103.942 15.96 105.142 17.34 105.142 19.26C105.142 21.18 103.942 22.56 102.022 22.56C100.102 22.56 98.902 21.18 98.902 19.26ZM96.982 19.26C96.982 22.02 99.202 24.24 102.022 24.24C104.842 24.24 107.062 22.02 107.062 19.26C107.062 16.5 104.842 14.28 102.022 14.28C99.202 14.28 96.982 16.5 96.982 19.26ZM109.317 24H111.117V19.08C111.117 16.94 112.277 15.96 113.577 15.96C115.317 15.96 115.577 17.24 115.577 19.04V24H117.377V18.82C117.377 17.14 118.057 15.96 119.797 15.96C121.537 15.96 121.837 17.28 121.837 18.72V24H123.637V18.48C123.637 16.36 122.957 14.28 120.037 14.28C118.897 14.28 117.657 14.88 117.037 16.04C116.437 14.88 115.477 14.28 114.077 14.28C112.377 14.28 111.217 15.44 111.037 16H110.997V14.52H109.317V24ZM126.348 29.64H128.148V22.64H128.188C128.828 23.62 130.128 24.24 131.488 24.24C134.408 24.24 136.308 22.1 136.308 19.26C136.308 16.46 134.428 14.28 131.488 14.28C130.208 14.28 128.888 14.86 128.188 15.88H128.148V14.52H126.348V29.64ZM131.268 15.96C133.188 15.96 134.388 17.34 134.388 19.26C134.388 21.18 133.188 22.56 131.268 22.56C129.348 22.56 128.148 21.18 128.148 19.26C128.148 17.34 129.348 15.96 131.268 15.96ZM138.575 24H140.375V19.24C140.375 17.16 141.335 16.2 143.095 16.2C143.375 16.2 143.675 16.26 143.975 16.34L144.055 14.4C143.815 14.32 143.535 14.28 143.255 14.28C142.075 14.28 140.875 14.98 140.415 15.98H140.375V14.52H138.575V24ZM147.097 16.8C147.757 16.3 148.417 15.72 149.797 15.72C151.337 15.72 152.057 16.74 152.057 17.72V18.12H150.737C147.857 18.12 145.517 18.96 145.517 21.4C145.517 23.24 147.037 24.24 148.797 24.24C150.237 24.24 151.317 23.78 152.117 22.56H152.157C152.157 23.04 152.177 23.52 152.217 24H153.817C153.757 23.5 153.737 22.94 153.737 22.28V17.44C153.737 15.8 152.577 14.28 149.777 14.28C148.457 14.28 147.017 14.74 146.017 15.68L147.097 16.8ZM152.057 19.44V20.04C152.057 21.32 151.357 22.8 149.357 22.8C148.117 22.8 147.317 22.34 147.317 21.26C147.317 19.74 149.397 19.44 151.097 19.44H152.057ZM90.32 48.36C94.64 48.36 97.7 45.12 97.7 40.92C97.7 36.72 94.64 33.48 90.32 33.48C86 33.48 82.94 36.72 82.94 40.92C82.94 45.12 86 48.36 90.32 48.36ZM90.32 46.56C87.08 46.56 84.98 44.02 84.98 40.92C84.98 37.82 87.08 35.28 90.32 35.28C93.56 35.28 95.66 37.82 95.66 40.92C95.66 44.02 93.56 46.56 90.32 46.56ZM100.001 48H101.801V43.12C101.801 40.92 102.941 39.96 104.441 39.96C105.581 39.96 106.601 40.62 106.601 42.4V48H108.401V41.9C108.401 39.38 106.801 38.28 104.961 38.28C103.501 38.28 102.301 38.98 101.841 39.98H101.801V38.52H100.001V48ZM111.254 48H113.054V32.88H111.254V48ZM116.059 48H117.859V38.52H116.059V48ZM115.639 35.12C115.639 35.84 116.239 36.44 116.959 36.44C117.679 36.44 118.279 35.84 118.279 35.12C118.279 34.4 117.679 33.8 116.959 33.8C116.239 33.8 115.639 34.4 115.639 35.12ZM120.723 48H122.523V43.12C122.523 40.92 123.663 39.96 125.163 39.96C126.303 39.96 127.323 40.62 127.323 42.4V48H129.123V41.9C129.123 39.38 127.523 38.28 125.683 38.28C124.223 38.28 123.023 38.98 122.563 39.98H122.523V38.52H120.723V48ZM140.797 43.92V43.28C140.797 40.84 139.517 38.28 136.177 38.28C133.337 38.28 131.277 40.42 131.277 43.26C131.277 46.08 133.157 48.24 136.157 48.24C137.977 48.24 139.357 47.6 140.357 46.3L138.997 45.26C138.297 46.12 137.497 46.68 136.397 46.68C134.737 46.68 133.197 45.58 133.197 43.92H140.797ZM133.197 42.48C133.197 41.22 134.357 39.72 136.137 39.72C137.957 39.72 138.837 40.9 138.877 42.48H133.197Z" fill="#696969"/>
<path d="M57.9116 61.3984V62.2231H55.5554V56.1058H57.9116V56.8678H56.4905V58.7528H57.6979V59.4713H56.4874V61.4028L57.9116 61.3984Z" fill="black"/>
<path d="M60.9876 56.1706C60.9876 56.1706 60.6903 55.9901 59.9907 55.9964C59.291 56.0026 58.647 56.6122 58.6719 57.6137C58.6719 57.6137 58.5421 58.2793 59.217 59.0446C59.892 59.8099 60.6784 60.4379 60.2513 61.1409C59.9541 61.6137 59.3874 61.5111 58.8518 60.973L58.8396 62.1113C58.8396 62.1113 59.1615 62.3354 59.8982 62.3354C60.635 62.3354 61.2978 61.6324 61.2978 60.6246C61.2978 59.6168 60.567 59.3307 59.7682 58.1674C59.4525 57.7001 59.6124 57.141 59.8858 57.0042C60.1592 56.8673 60.5867 56.8549 61.0005 57.3089" fill="black"/>
<path d="M28.4343 56.1706C28.4343 56.1706 28.1371 55.9901 27.4375 55.9964C26.7378 56.0026 26.0938 56.6122 26.1184 57.6137C26.1184 57.6137 25.9886 58.2793 26.6636 59.0446C27.3386 59.8099 28.1249 60.4379 27.6978 61.1409C27.4006 61.6137 26.8339 61.5111 26.2983 60.973L26.2859 62.1113C26.2859 62.1113 26.608 62.3354 27.3448 62.3354C28.0815 62.3354 28.744 61.6324 28.744 60.6246C28.744 59.6168 28.0135 59.3307 27.2147 58.1674C26.899 57.7001 27.059 57.141 27.3323 57.0042C27.6057 56.8673 28.0333 56.8549 28.4471 57.3089" fill="black"/>
<path d="M53.6263 59.2711C54.233 59.0141 54.4051 58.3884 54.4051 57.9564C54.4051 57.5245 54.4918 57.0813 54.1037 56.5837C53.7156 56.086 52.8778 56.1026 52.8778 56.1026H51.9282V62.2238H52.8158V60.1127L53.6743 62.2238H54.6899C54.6899 62.2238 53.8285 59.8726 53.6263 59.2711ZM52.8142 58.8004V56.8409C52.8142 56.8409 53.415 56.7973 53.415 57.8549C53.415 58.9126 52.8142 58.8004 52.8142 58.8004Z" fill="black"/>
<path d="M49.207 55.9705C47.9892 55.9705 47.5598 57.3949 47.5598 59.1524C47.5598 60.9099 47.8737 62.3344 49.207 62.3344C50.4824 62.3344 50.8539 60.9097 50.8539 59.1524C50.8534 57.2809 50.3827 55.9705 49.207 55.9705ZM49.2379 61.5112C48.7672 61.5112 48.5424 60.4658 48.5424 59.1747C48.5424 57.8837 48.7597 56.8399 49.2358 56.8399C49.6958 56.8399 49.8303 57.8004 49.8303 59.1747C49.83 60.4658 49.7361 61.5112 49.2374 61.5112H49.2379Z" fill="black"/>
<path d="M24.018 55.9705C22.8002 55.9705 22.3708 57.3949 22.3708 59.1524C22.3708 60.9099 22.6847 62.3344 24.018 62.3344C25.2935 62.3344 25.665 60.9097 25.665 59.1524C25.665 57.2809 25.1943 55.9705 24.018 55.9705ZM24.0489 61.5112C23.5783 61.5112 23.3535 60.4658 23.3535 59.1747C23.3535 57.8837 23.5707 56.8399 24.0469 56.8399C24.5069 56.8399 24.6413 57.8004 24.6413 59.1747C24.6413 60.4658 24.5476 61.5112 24.0489 61.5112Z" fill="black"/>
<path d="M46.4202 57.4551C46.2055 56.4598 45.4706 55.9705 44.7847 55.9705H43.571L43.5877 62.2246H45.3501C45.3501 62.2246 46.1964 62.0917 46.4854 60.5325C46.6017 59.9019 46.6346 58.4505 46.4202 57.4551ZM45.2849 61.1503C45.0253 61.4904 44.5295 61.3868 44.5295 61.3868V56.9409C45.3221 57.032 45.6689 57.4801 45.6689 58.9813C45.6689 60.4826 45.5451 60.8102 45.2849 61.1503Z" fill="black"/>
<path d="M39.2622 62.2253H40.3024L41.0579 58.2728L41.7762 62.2253H42.8598L41.4356 56.0332H40.6368L39.2622 62.2253Z" fill="black"/>
<path d="M30.0029 62.2253H31.0432L31.7986 58.2728L32.5169 62.2253H33.6005L32.1763 56.0332H31.3775L30.0029 62.2253Z" fill="black"/>
<path d="M38.3744 56.1155H37.4497V62.2245H38.3744V56.1155Z" fill="black"/>
<path d="M33.5237 56.1155H34.498L35.0922 59.7774L35.7609 56.1155H36.661L35.4637 62.2245H34.7044L33.5237 56.1155Z" fill="black"/>
<path d="M19.8237 55.9705H20.7092V61.2581H21.966V62.2246H19.8237V55.9705Z" fill="black"/>
<path d="M16.1597 55.9983L18.0213 55.9962V56.5435H16.6425V58.754H18.0213V59.3015H16.655V61.7856H18.0213V62.2254V62.3331H16.1555L16.1597 55.9983Z" fill="black"/>
<path d="M15.0595 56.0991C15.0595 56.097 15.0595 56.095 15.0595 56.0929H14.5551C14.5552 56.0948 14.5552 56.0967 14.5551 56.0986C14.5551 56.7027 14.5499 57.786 14.5499 58.6653C14.5499 60.4008 14.7285 61.8636 13.7638 61.8636C12.7719 61.8636 12.9627 60.4008 12.9627 58.6653C12.9627 57.6227 12.9887 56.7198 12.9887 56.1274C12.9887 56.1157 12.9887 56.1043 12.9887 56.0929H12.4832C12.4832 56.1054 12.4832 56.1189 12.4832 56.1305C12.4832 56.7772 12.4391 57.7627 12.4391 58.9005C12.4391 60.7956 12.2441 62.3917 13.7579 62.3917C15.2503 62.3917 15.052 60.7948 15.052 58.9005C15.0507 57.941 15.0595 56.7585 15.0595 56.0991Z" fill="black"/>
<path d="M11.7464 59.078C11.7464 57.2799 11.3749 55.9801 10.2768 55.9801C9.17033 55.9801 8.76587 57.2799 8.76587 59.078C8.76587 60.876 8.92163 62.3336 10.2768 62.3336C10.5457 62.3336 10.7656 62.2724 10.946 62.1607L11.2882 62.7153L11.6906 62.3949L11.3113 61.7937C11.6859 61.2109 11.7464 60.2124 11.7464 59.078ZM10.2799 61.9811C9.4925 61.9811 9.30896 60.7443 9.30896 59.2184C9.30896 57.6924 9.45538 56.456 10.2799 56.456C11.0846 56.456 11.2508 57.6927 11.2508 59.2184C11.2508 60.0639 11.1989 60.8204 11.0172 61.3272L10.5701 60.6187L10.1675 60.8988L10.728 61.8074C10.6069 61.922 10.4457 61.9844 10.2791 61.9811H10.2799Z" fill="black"/>
<path d="M7.08641 59.3061C7.08641 59.3061 8.29175 59.389 8.29175 57.7799C8.29175 56.1709 7.49918 55.9801 5.93896 55.9801V62.3253H6.49971V59.3477L7.7876 62.3253H8.39871L7.08641 59.3061ZM6.50023 58.9167V56.4949C6.50023 56.4949 7.78812 56.1465 7.78812 57.8054C7.78812 59.0793 6.49971 58.9162 6.49971 58.9162L6.50023 58.9167Z" fill="black"/>
<path d="M0.964168 59.3565C1.03891 59.3583 1.11357 59.3506 1.18639 59.3337C1.25804 59.3171 1.35435 59.2945 1.44314 59.2724C1.80009 59.1834 2.35305 58.8698 2.35305 57.7799C2.35305 56.1704 1.56048 55.9801 0 55.9801V62.3253H0.561523V59.3477L0.964168 59.3565ZM0.561523 56.4944C0.561523 56.4944 1.84942 56.146 1.84942 57.8049C1.84942 59.0793 0.561523 58.9162 0.561523 58.9162V56.4944Z" fill="black"/>
<path d="M3.96822 55.951H3.47913L2.30884 62.2236H2.85401L3.05831 61.0022H4.40202L4.6123 62.2236H5.1881L3.96822 55.951ZM3.17929 60.5102L3.74834 56.9536L4.31817 60.5102H3.17929Z" fill="black"/>
<path d="M53.2914 43.4547C53.2914 42.5461 53.8352 41.9043 54.5375 41.5933V35.6388L4.06714 35.1733V50.9053H54.5377V45.2719C53.9056 44.9651 53.2914 44.3254 53.2914 43.4547Z" fill="#7EBE00"/>
<path d="M4.06714 33.6701V0H54.7976L54.5377 35.6316L4.06714 35.1649V33.6701Z" fill="#0073CD"/>
<path d="M55.7408 34.0507C53.8278 32.7696 51.584 31.322 45.1838 28.8306C39.5719 26.646 33.5426 26.2128 32.1423 26.1393L30.5881 15.9701H28.2854L26.7324 26.111C26.2016 26.1289 19.4708 26.4023 13.3275 28.7937C6.92728 31.2859 4.68275 32.7324 2.77051 34.0138V36.1493L25.1912 36.1753L22.9326 50.9055H24.8116L29.5014 20.502L34.1314 50.9044H35.9263L33.6776 36.1865H55.7408V34.0507ZM5.62822 34.4661L5.6046 34.1338C5.6046 34.1338 15.3693 27.9957 26.4674 27.8415L25.4529 34.4674L5.62822 34.4661ZM52.8831 34.5029L33.4128 34.4559L32.4089 27.8833C43.2796 28.1987 52.907 33.9502 52.907 34.1693C52.9067 34.3952 52.8831 34.5016 52.8831 34.5016V34.5029Z" fill="black"/>
<path d="M5.6062 34.1162L5.62983 34.4483L25.4545 34.4498L26.469 27.824C15.3709 27.9782 5.6062 34.1162 5.6062 34.1162Z" fill="#F2F2F2"/>
<path d="M52.8829 34.4827C52.8829 34.4827 52.9065 34.3758 52.9065 34.1504C52.9065 33.9311 43.2791 28.1795 32.4084 27.8644L33.4129 34.4357L52.8829 34.4827Z" fill="#F2F2F2"/>
<path d="M29.5034 20.4828L24.8142 50.9021H34.1335L29.5034 20.4828Z" fill="#F2F2F2"/>
<path d="M42.303 40.3855C40.6007 40.3855 39.2209 41.8224 39.2209 43.5947C39.2209 45.367 40.6007 46.8037 42.303 46.8037C44.0052 46.8037 45.385 45.367 45.385 43.5945C45.385 41.8219 44.0052 40.3855 42.303 40.3855ZM42.303 45.6599C41.2316 45.6599 40.3598 44.7333 40.3598 43.5947C40.3598 42.4561 41.2316 41.5298 42.303 41.5298C43.3743 41.5298 44.2461 42.4561 44.2461 43.5947C44.2461 44.7333 43.3746 45.6599 42.303 45.6599Z" fill="black"/>
<path d="M65.9973 44.3108V39.1629C65.9973 37.7273 64.8348 36.5596 63.406 36.5596C61.9771 36.5596 60.8146 37.7278 60.8146 39.1629V39.586C60.5646 39.2109 60.2786 38.8611 59.9605 38.5416C59.2312 37.8106 58.3458 37.2543 57.3708 36.9143C56.3957 36.5744 55.3563 36.4597 54.3306 36.5789C53.3049 36.698 52.3195 37.0479 51.4484 37.6023C50.5772 38.1567 49.843 38.9012 49.3006 39.78V39.4204C49.3132 39.0112 49.2564 38.6028 49.1327 38.2125C48.8077 37.2164 48.0478 36.6029 47.0478 36.53C46.9621 36.5237 46.8765 36.5206 46.7934 36.5206C45.9847 36.5206 45.4341 36.808 45.0746 37.1177C44.1501 36.7351 43.2262 36.5417 42.317 36.5417C39.6816 36.5417 37.8599 38.1426 37.0084 39.0972C36.3706 39.8124 35.6271 41.193 35.4542 42.9219C35.3179 44.2836 35.4962 46.3209 37.1208 48.2939C37.3851 48.6159 37.6776 48.9135 37.9949 49.1833C37.9102 49.2522 37.8299 49.3263 37.7543 49.405C37.2218 49.9582 36.9716 50.6633 37.05 51.3902C37.1038 51.8853 37.2987 52.3546 37.6115 52.7422C37.849 53.0278 38.4002 53.5114 39.1709 53.9296C40.1868 54.4826 41.3245 54.7738 42.4811 54.777C42.6138 54.777 42.7485 54.7731 42.8814 54.7653C44.2054 54.6892 45.3853 54.298 46.3895 53.6049C47.1459 53.0818 47.7913 52.4006 48.3663 51.5218C48.783 50.8835 49.0706 50.1033 49.221 49.2033C49.2873 48.8189 49.3221 48.4296 49.3248 48.0395V47.6241L49.3476 47.662C50.3715 49.3204 51.8274 50.3637 53.5579 50.6789C53.9104 50.743 54.6853 50.8014 55.184 50.8014C55.2926 50.8014 55.3865 50.7988 55.4714 50.7936C56.4613 50.7324 58.2648 50.3656 59.9514 48.6846C60.1168 48.7342 60.2884 48.7597 60.461 48.7604C60.6258 48.7604 60.7895 48.7342 60.9459 48.6825C61.1632 49.8744 62.2037 50.7804 63.4516 50.7804C64.8566 50.7804 65.9999 49.6322 65.9999 48.2204C66.0001 47.8508 65.9202 47.4855 65.7657 47.1496C65.6113 46.8138 65.3859 46.5154 65.1051 46.275C65.3856 46.0304 65.6104 45.7285 65.7643 45.3897C65.9182 45.0509 65.9977 44.683 65.9973 44.3108ZM47.4128 50.8954C46.6176 52.1135 45.2872 53.4818 42.8152 53.6241C42.7019 53.6307 42.5902 53.6339 42.4801 53.6337C40.1974 53.6337 38.7106 52.2822 38.4856 52.0107C38.2493 51.7251 37.8812 50.9203 38.572 50.2015C38.869 49.8928 39.2169 49.7674 39.5447 49.7674C39.9796 49.7674 40.3783 49.9883 40.5736 50.2962C40.8687 50.7056 41.6011 51.0021 42.6283 51.0021C43.6556 51.0021 45.3619 50.2547 45.3619 48.6532C44.9069 49.1163 43.7106 49.594 42.3163 49.594C40.8885 49.594 39.2555 49.0935 37.9972 47.5655C35.5097 44.5442 36.7693 41.0798 37.8558 39.862C38.6154 39.0102 40.152 37.6868 42.316 37.687C43.2467 37.687 44.2939 37.9318 45.4448 38.5647C45.4448 38.5647 45.6454 37.6644 46.7924 37.6644C46.8474 37.6644 46.9047 37.6666 46.9642 37.6709C48.2622 37.7659 48.1607 39.3952 48.1607 39.3952L48.1844 48.0481C48.1844 48.0481 48.208 49.6784 47.4128 50.8964V50.8954ZM55.7419 45.3658C55.5666 45.4162 55.3851 45.4416 55.2027 45.4414C54.8133 45.4414 54.3201 45.2129 53.9416 44.8591C53.6986 44.6317 53.291 44.1517 53.291 43.4931C53.291 42.3752 54.1477 41.4656 55.2027 41.4656C56.2578 41.4656 57.1145 42.3742 57.1145 43.4931C57.1145 43.5234 57.1145 43.5564 57.1119 43.5935C57.1086 43.6675 57.1125 43.7415 57.1235 43.8147C56.7609 44.0232 55.7069 44.4624 55.7419 45.3661V45.3658ZM60.6549 43.0346C60.6313 42.8529 60.6194 42.5798 60.3912 42.5086C60.3544 42.4973 60.316 42.4916 60.2775 42.4918C60.0908 42.4918 59.9267 42.6153 59.9267 42.6153L58.25 43.6462C58.2523 43.5943 58.2539 43.5447 58.2539 43.4933C58.2539 41.7418 56.8881 40.3217 55.2033 40.3217C53.5184 40.3217 52.1527 41.7418 52.1527 43.4933C52.1527 45.2449 53.8372 46.586 55.2033 46.586C55.6122 46.5868 56.0172 46.5056 56.3943 46.3474C55.9322 46.7957 55.007 47.1236 53.9823 47.1236C53.2747 47.1236 52.5195 46.9679 51.8378 46.586C50.5989 45.8931 49.7788 44.5774 49.4382 43.9453C49.4219 43.7675 49.4123 43.5878 49.4123 43.4058C49.4123 40.2387 51.9673 37.672 55.1194 37.672C58.1474 37.672 60.623 40.0414 60.8143 43.0356V43.5639L60.7336 43.6159C60.6962 43.3422 60.6632 43.1024 60.6549 43.0346ZM63.4496 49.6389C63.1693 49.6402 62.8949 49.5583 62.6612 49.4035C62.4275 49.2487 62.245 49.028 62.1368 48.7694C62.0287 48.5108 61.9997 48.2259 62.0536 47.9508C62.1075 47.6757 62.2418 47.4228 62.4396 47.2242C62.6374 47.0255 62.8896 46.89 63.1645 46.8349C63.4393 46.7797 63.7243 46.8074 63.9834 46.9143C64.2425 47.0213 64.464 47.2028 64.6199 47.4358C64.7757 47.6687 64.8589 47.9427 64.859 48.223C64.8594 48.4086 64.8233 48.5924 64.7527 48.764C64.682 48.9356 64.5783 49.0916 64.4474 49.2231C64.3164 49.3546 64.1609 49.459 63.9896 49.5303C63.8183 49.6017 63.6346 49.6386 63.449 49.6389H63.4496ZM64.859 44.3119C64.8593 44.6181 64.7633 44.9167 64.5845 45.1653C64.4057 45.414 64.1533 45.6001 63.8629 45.6974C63.6936 45.7711 63.3314 45.8344 62.9802 45.7072C62.6822 45.6149 62.4216 45.4295 62.2367 45.1781C62.0518 44.9268 61.9524 44.6228 61.953 44.3108V43.808C61.9607 43.673 61.9649 43.5382 61.9649 43.4048C61.9649 43.2714 61.9607 43.133 61.953 42.9983V39.1629C61.9525 38.9717 61.9897 38.7823 62.0625 38.6055C62.1352 38.4287 62.2421 38.2679 62.377 38.1324C62.5119 37.9969 62.6721 37.8893 62.8486 37.8158C63.025 37.7422 63.2142 37.7041 63.4054 37.7036C63.5967 37.7039 63.7861 37.7419 63.9627 37.8154C64.1393 37.8889 64.2997 37.9965 64.4347 38.132C64.5697 38.2675 64.6767 38.4283 64.7496 38.6052C64.8224 38.7821 64.8597 38.9716 64.8592 39.1629L64.859 44.3119Z" fill="black"/>
<path d="M42.4794 53.6358C42.5893 53.6358 42.701 53.6326 42.8145 53.6262C45.2865 53.4839 46.6169 52.1155 47.4121 50.8975C48.2073 49.6794 48.1837 48.0501 48.1837 48.0501L48.16 39.3973C48.16 39.3973 48.2623 37.768 46.9635 37.673C46.904 37.6685 46.8467 37.6663 46.7917 37.6665C45.6447 37.6665 45.4441 38.5668 45.4441 38.5668C44.2932 37.9339 43.246 37.6891 42.3153 37.6888C40.1513 37.6888 38.6147 39.0128 37.8551 39.8641C36.7686 41.0819 35.509 44.5463 37.9965 47.5675C39.2548 49.0956 40.8888 49.5961 42.3156 49.5961C43.7099 49.5961 44.9062 49.1184 45.3612 48.6553C45.3612 50.2568 43.6551 51.0042 42.6276 51.0042C41.6001 51.0042 40.868 50.7077 40.5729 50.2983C40.3776 49.9904 39.9789 49.7695 39.544 49.7695C39.2162 49.7695 38.8691 49.8949 38.5713 50.2036C37.8805 50.9211 38.2486 51.7279 38.4849 52.0127C38.7099 52.2843 40.1975 53.6358 42.4794 53.6358ZM42.3029 46.804C40.6006 46.804 39.2208 45.3674 39.2208 43.5948C39.2208 41.8222 40.6006 40.3856 42.3029 40.3856C44.0051 40.3856 45.3849 41.8225 45.3849 43.5948C45.3849 45.3671 44.0051 46.804 42.3029 46.804Z" fill="url(#paint0_linear_2945_1710)"/>
<path d="M63.4475 49.6413C64.2257 49.6413 64.8566 49.0074 64.8566 48.2254C64.8566 47.4435 64.2257 46.8096 63.4475 46.8096C62.6692 46.8096 62.0383 47.4435 62.0383 48.2254C62.0383 49.0074 62.6692 49.6413 63.4475 49.6413Z" fill="url(#paint1_linear_2945_1710)"/>
<path d="M63.412 37.7036C63.2208 37.7041 63.0315 37.7422 62.8551 37.8157C62.6786 37.8893 62.5184 37.9969 62.3835 38.1324C62.2486 38.2679 62.1418 38.4287 62.069 38.6055C61.9962 38.7823 61.959 38.9717 61.9595 39.1628V44.3108C61.9595 45.1156 62.6111 45.784 63.4133 45.784C64.2154 45.784 64.8644 45.1169 64.8644 44.3108V39.1628C64.8649 38.9717 64.8277 38.7823 64.7549 38.6055C64.6822 38.4287 64.5753 38.2679 64.4404 38.1324C64.3055 37.9969 64.1453 37.8893 63.9688 37.8157C63.7924 37.7422 63.6031 37.7041 63.412 37.7036Z" fill="url(#paint2_linear_2945_1710)"/>
<path d="M51.8373 46.587C52.519 46.9681 53.2742 47.1246 53.9819 47.1246C55.0065 47.1246 55.9318 46.7967 56.3939 46.3484C56.0167 46.5066 55.6118 46.5878 55.2028 46.587C53.8368 46.587 52.1522 45.2459 52.1522 43.4943C52.1522 41.7428 53.518 40.3227 55.2028 40.3227C56.8876 40.3227 58.2534 41.7428 58.2534 43.4943C58.2534 43.5462 58.2518 43.5966 58.2495 43.6472L59.9263 42.6163C59.9263 42.6163 60.0904 42.4928 60.277 42.4928C60.3155 42.4926 60.3539 42.4983 60.3907 42.5096C60.6189 42.5808 60.6309 42.8536 60.6545 43.0356C60.6677 43.1374 60.7352 43.6267 60.7923 44.0374C60.815 43.828 60.8265 43.6175 60.8266 43.4068C60.8266 40.2397 58.2716 37.673 55.1197 37.673C51.9679 37.673 49.4126 40.2402 49.4126 43.4068C49.4126 43.5886 49.4214 43.7685 49.4386 43.9463C49.7776 44.5784 50.5985 45.8954 51.8373 46.587Z" fill="url(#paint3_linear_2945_1710)"/>
<path d="M60.2532 43.4603C60.2532 43.4603 60.2652 43.2945 60.1234 43.241C60.1019 43.2328 60.0792 43.2286 60.0562 43.2285C59.9435 43.2285 59.8446 43.3305 59.7447 43.3952C59.6268 43.4731 56.9578 45.1511 56.9578 45.1511C56.9578 45.1511 56.7761 45.229 56.834 45.4832C56.8633 45.6018 56.8397 45.6613 57.5365 46.0764C56.9757 46.5748 55.8124 47.7197 53.8761 47.7197C51.9397 47.7197 50.4358 46.5213 49.4438 45.0502C49.4438 45.0502 50.3229 48.9442 53.7582 49.5691C54.0139 49.6155 54.7169 49.6729 55.1813 49.6729C55.2623 49.6729 55.3371 49.6711 55.3989 49.6672C56.347 49.6085 58.1247 49.215 59.6938 47.2789L60.2649 47.5992C60.3275 47.6195 60.3928 47.6301 60.4586 47.6306C60.5041 47.6328 60.5495 47.6258 60.5923 47.6102C60.6351 47.5946 60.6744 47.5707 60.7078 47.5398C60.8672 47.3796 60.8376 47.1799 60.7844 46.8201C60.7312 46.4603 60.2532 43.4603 60.2532 43.4603Z" fill="url(#paint4_linear_2945_1710)"/>
<defs>
<linearGradient id="paint0_linear_2945_1710" x1="36.5544" y1="45.6511" x2="48.1837" y2="45.6511" gradientUnits="userSpaceOnUse">
<stop stop-color="#00FDD0"/>
<stop offset="1" stop-color="#00F580"/>
</linearGradient>
<linearGradient id="paint1_linear_2945_1710" x1="62.0383" y1="48.2254" x2="64.8568" y2="48.2254" gradientUnits="userSpaceOnUse">
<stop stop-color="#C7ED00"/>
<stop offset="1" stop-color="#E8EA17"/>
</linearGradient>
<linearGradient id="paint2_linear_2945_1710" x1="7322.26" y1="14131.1" x2="7647.33" y2="14131.1" gradientUnits="userSpaceOnUse">
<stop stop-color="#C7ED00"/>
<stop offset="1" stop-color="#E8EA17"/>
</linearGradient>
<linearGradient id="paint3_linear_2945_1710" x1="49.4126" y1="42.3988" x2="60.8266" y2="42.3988" gradientUnits="userSpaceOnUse">
<stop stop-color="#02F573"/>
<stop offset="1" stop-color="#A1EE1E"/>
</linearGradient>
<linearGradient id="paint4_linear_2945_1710" x1="23010.6" y1="12451.3" x2="28001.6" y2="12451.3" gradientUnits="userSpaceOnUse">
<stop stop-color="#02F573"/>
<stop offset="1" stop-color="#A1EE1E"/>
</linearGradient>
</defs>
</svg>
