<svg width="25" height="16" viewBox="0 0 25 16" fill="none" xmlns="http://www.w3.org/2000/svg">
<path d="M0 14.8571C0 15.4888 1.0258 15.9999 2.2885 15.9999H20.7115C21.3184 15.9999 21.9005 15.8795 22.3297 15.6652C22.7589 15.4509 23 15.1602 23 14.8571C23 14.554 22.7589 14.2633 22.3297 14.049C21.9005 13.8346 21.3184 13.7142 20.7115 13.7142H2.2885C1.0235 13.7142 0 14.2254 0 14.8571Z" fill="#3E3E3E"/>
<path d="M0 8.00006C0 8.62863 0.512901 9.1372 1.14425 9.1372H21.8558C22.1592 9.1372 22.4503 9.0174 22.6649 8.80414C22.8794 8.59088 23 8.30165 23 8.00006C23 7.69847 22.8794 7.40923 22.6649 7.19598C22.4503 6.98272 22.1592 6.86292 21.8558 6.86292H1.14425C0.511751 6.86292 0 7.37263 0 8.00006Z" fill="#3E3E3E"/>
<path d="M1.71628 2.28571C1.26107 2.28571 0.824501 2.16531 0.502619 1.95098C0.180735 1.73665 -9.72748e-05 1.44596 -9.72748e-05 1.14286C-9.72748e-05 0.839753 0.180735 0.549062 0.502619 0.334735C0.824501 0.120408 1.26107 9.03322e-09 1.71628 0H22.4335C22.6589 -4.4728e-09 22.8821 0.0295609 23.0904 0.0869948C23.2986 0.144429 23.4878 0.228611 23.6472 0.334735C23.8066 0.440859 23.933 0.566847 24.0193 0.705505C24.1055 0.844163 24.1499 0.992775 24.1499 1.14286C24.1499 1.29294 24.1055 1.44155 24.0193 1.58021C23.933 1.71887 23.8066 1.84486 23.6472 1.95098C23.4878 2.0571 23.2986 2.14129 23.0904 2.19872C22.8821 2.25615 22.6589 2.28571 22.4335 2.28571H1.71628Z" fill="#3E3E3E"/>
</svg>
