<svg width="33" height="22" viewBox="0 0 33 22" fill="none" xmlns="http://www.w3.org/2000/svg">
<path d="M0 20.4288C0 21.2975 1.3826 22.0003 3.0845 22.0003H27.9155C28.7336 22.0003 29.5181 21.8347 30.0966 21.54C30.675 21.2453 31 20.8456 31 20.4288C31 20.0121 30.675 19.6124 30.0966 19.3177C29.5181 19.023 28.7336 18.8574 27.9155 18.8574H3.0845C1.3795 18.8574 0 19.5602 0 20.4288Z" fill="#3E3E3E"/>
<path d="M0 11.0011C0 11.8654 0.691301 12.5646 1.54225 12.5646H29.4578C29.8668 12.5646 30.2591 12.3999 30.5483 12.1067C30.8375 11.8135 31 11.4158 31 11.0011C31 10.5864 30.8375 10.1887 30.5483 9.89546C30.2591 9.60223 29.8668 9.4375 29.4578 9.4375H1.54225C0.689753 9.4375 0 10.1384 0 11.0011Z" fill="#3E3E3E"/>
<path d="M2.31343 3.14286C1.69988 3.14286 1.11146 2.9773 0.677622 2.6826C0.243778 2.3879 4.95911e-05 1.9882 4.95911e-05 1.57143C4.95911e-05 1.15466 0.243778 0.754961 0.677622 0.460261C1.11146 0.16556 1.69988 1.24207e-08 2.31343 0H30.2367C30.5405 -6.1501e-09 30.8413 0.0406462 31.122 0.119618C31.4026 0.19859 31.6577 0.31434 31.8725 0.460261C32.0873 0.606181 32.2577 0.779415 32.374 0.970069C32.4902 1.16072 32.55 1.36507 32.55 1.57143C32.55 1.77779 32.4902 1.98213 32.374 2.17279C32.2577 2.36344 32.0873 2.53668 31.8725 2.6826C31.6577 2.82852 31.4026 2.94427 31.122 3.02324C30.8413 3.10221 30.5405 3.14286 30.2367 3.14286H2.31343Z" fill="#3E3E3E"/>
</svg>
