<svg width="18" height="18" viewBox="0 0 18 18" fill="none" xmlns="http://www.w3.org/2000/svg">
<path d="M17.4129 16.3859C17.4014 16.2997 17.3843 16.2143 17.3618 16.1303C17.0131 14.6034 16.1459 13.2447 14.9077 12.2856C11.6919 9.75485 6.44633 9.58102 3.04645 11.8919C1.61456 12.7979 0.571858 14.2052 0.122035 15.8389C-0.266524 17.2857 0.2703 17.9913 1.7683 17.9913C6.30829 17.9913 10.8432 17.9913 15.3832 17.9913C15.649 17.9913 16.4824 18.0935 16.9681 17.5976C17.1228 17.4379 17.2424 17.2476 17.319 17.0389C17.3956 16.8302 17.4276 16.6077 17.4129 16.3859ZM15.8229 16.933H1.58424C1.07298 16.933 1.0014 16.7233 1.11899 16.2734C1.68649 14.1006 3.16404 12.8122 5.16307 11.9942C6.31735 11.558 7.53876 11.3262 8.77257 11.3091C11.1857 11.4267 13.4557 12.0606 15.1633 14.0341C15.7188 14.6916 16.1065 15.4741 16.2932 16.3143C16.3955 16.7438 16.2728 16.933 15.8229 16.933Z" fill="#6F6F6F"/>
<path d="M9.63649 0.127815L9.43199 0.0664639C9.29202 0.0356857 9.15031 0.0134897 9.00764 0C8.89516 0 8.74178 0 8.56284 0C8.05863 0.0308626 7.56126 0.132403 7.0853 0.301644C6.28909 0.619187 5.5957 1.14985 5.08115 1.83543C4.57417 2.57052 4.31451 3.44799 4.33983 4.34061C4.34764 5.32656 4.65567 6.28673 5.22287 7.09323C5.79007 7.89974 6.58953 8.51429 7.51476 8.85504C9.5598 9.52479 11.7633 8.37957 12.6938 6.15558C13.8186 3.44079 12.474 0.792455 9.63649 0.127815ZM8.71622 7.97056C6.96771 7.97056 5.40836 6.19648 5.41347 4.2179C5.41347 2.40804 6.80922 1.09921 8.72133 1.10432C9.14615 1.08259 9.5709 1.14828 9.9693 1.29732C10.3677 1.44636 10.7313 1.67559 11.0375 1.97081C11.3438 2.26603 11.5862 2.62096 11.7497 3.01363C11.9132 3.40631 11.9944 3.82837 11.9883 4.25369C11.9832 6.21693 10.4341 7.97056 8.71622 7.97056Z" fill="#6D6D6D"/>
</svg>
