<svg width="35" height="36" viewBox="0 0 35 36" fill="none" xmlns="http://www.w3.org/2000/svg">
<path d="M34.0587 32.05C34.0362 31.8814 34.0028 31.7143 33.9587 31.55C33.2768 28.5635 31.5805 25.9059 29.1587 24.03C22.8687 19.08 12.6087 18.74 5.95869 23.26C3.15799 25.0321 1.11852 27.7847 0.238693 30.98C-0.521307 33.81 0.528693 35.19 3.45869 35.19C12.3387 35.19 21.2087 35.19 30.0887 35.19C30.6087 35.19 32.2387 35.39 33.1887 34.42C33.4913 34.1078 33.7251 33.7355 33.875 33.3273C34.0249 32.919 34.0874 32.4839 34.0587 32.05ZM30.9487 33.12H3.09869C2.09869 33.12 1.95869 32.71 2.18869 31.83C3.29869 27.58 6.18869 25.06 10.0987 23.46C12.3564 22.6069 14.7454 22.1535 17.1587 22.12C21.8787 22.35 26.3187 23.59 29.6587 27.45C30.7452 28.7361 31.5035 30.2665 31.8687 31.91C32.0687 32.75 31.8287 33.12 30.9487 33.12Z" fill="#6F6F6F"/>
<path d="M18.8487 0.25L18.4487 0.13C18.1749 0.0697994 17.8977 0.0263852 17.6187 0C17.3987 0 17.0987 0 16.7487 0C15.7624 0.0603657 14.7896 0.258973 13.8587 0.59C12.3013 1.2111 10.9451 2.24904 9.93866 3.59C8.94702 5.0278 8.43913 6.7441 8.48866 8.49C8.50395 10.4185 9.10643 12.2965 10.2158 13.874C11.3253 15.4515 12.889 16.6535 14.6987 17.32C18.6987 18.63 23.0087 16.39 24.8287 12.04C27.0287 6.73 24.3987 1.55 18.8487 0.25ZM17.0487 15.59C13.6287 15.59 10.5787 12.12 10.5887 8.25C10.5887 4.71 13.3187 2.15 17.0587 2.16C17.8896 2.11749 18.7204 2.24597 19.4996 2.53749C20.2789 2.82901 20.99 3.27736 21.589 3.85479C22.188 4.43223 22.6621 5.12646 22.982 5.89451C23.3019 6.66256 23.4607 7.48809 23.4487 8.32C23.4387 12.16 20.4087 15.59 17.0487 15.59Z" fill="#6D6D6D"/>
</svg>
