<svg width="17" height="19" viewBox="0 0 17 19" fill="none" xmlns="http://www.w3.org/2000/svg">
    <path fill-rule="evenodd" clip-rule="evenodd" d="M6.44446 1.35714C6.40013 1.35701 6.35621 1.36565 6.31523 1.38256C6.27425 1.39946 6.23701 1.4243 6.20567 1.45565C6.17432 1.48699 6.14948 1.52423 6.13257 1.56521C6.11567 1.60619 6.10703 1.65011 6.10716 1.69445L6.10717 1.69643V2.71429H10.1786V1.69643L10.1786 1.69445C10.1787 1.65011 10.1701 1.60619 10.1532 1.56521C10.1363 1.52423 10.1114 1.48699 10.0801 1.45565C10.0487 1.4243 10.0115 1.39946 9.97053 1.38256C9.92955 1.36565 9.88563 1.35701 9.8413 1.35714L9.83931 1.35715H6.44645L6.44446 1.35714ZM6.44732 4.35455e-06C6.22448 -0.000500978 6.00372 0.0429802 5.79771 0.127959C5.59136 0.213081 5.40386 0.33816 5.24602 0.496003C5.08818 0.653846 4.9631 0.841337 4.87798 1.04769C4.793 1.2537 4.74952 1.47446 4.75002 1.6973V2.71447H2.03664C2.03646 2.71447 2.03629 2.71447 2.03611 2.71447H0.678572C0.303807 2.71447 0 3.01827 0 3.39304C0 3.7678 0.303807 4.07161 0.678572 4.07161H1.39824L2.20648 17.0034C2.26543 18.1132 3.10242 19.0002 4.24108 19.0002H12.0447C13.1941 19.0002 14.0119 18.1053 14.0791 17.006L14.0791 17.0059L14.8875 4.07161H15.6071C15.9819 4.07161 16.2857 3.7678 16.2857 3.39304C16.2857 3.01827 15.9819 2.71447 15.6071 2.71447H14.2496C14.2495 2.71447 14.2493 2.71447 14.2491 2.71447H11.5357V1.69744C11.5363 1.47455 11.4928 1.25375 11.4078 1.04769C11.3227 0.841339 11.1976 0.653847 11.0397 0.496003C10.8819 0.338159 10.6944 0.21308 10.488 0.127959C10.282 0.0429804 10.0613 -0.000500978 9.83844 4.35455e-06H6.44732ZM13.5277 4.07161H2.75803L3.56119 16.9222L3.56162 16.9297C3.58508 17.3864 3.88828 17.6431 4.24108 17.6431H12.0447C12.394 17.6431 12.6958 17.3921 12.7245 16.9231L13.5277 4.07161ZM5.06509 5.42901C5.43962 5.41563 5.75407 5.7084 5.76745 6.08293L6.10673 15.5829C6.12011 15.9575 5.82734 16.2719 5.45281 16.2853C5.07829 16.2987 4.76383 16.0059 4.75046 15.6314L4.41117 6.13137C4.39779 5.75684 4.69056 5.44239 5.06509 5.42901ZM11.2207 5.42901C11.5952 5.44239 11.888 5.75684 11.8746 6.13137L11.5353 15.6314C11.5219 16.0059 11.2075 16.2987 10.8329 16.2853C10.4584 16.2719 10.1657 15.9575 10.179 15.5829L10.5183 6.08293C10.5317 5.7084 10.8461 5.41563 11.2207 5.42901ZM8.14288 5.42858C8.51764 5.42858 8.82145 5.73238 8.82145 6.10715V15.6071C8.82145 15.9819 8.51764 16.2857 8.14288 16.2857C7.76812 16.2857 7.46431 15.9819 7.46431 15.6071V6.10715C7.46431 5.73238 7.76812 5.42858 8.14288 5.42858Z" fill="#787878"/>
</svg>
