<svg width="22" height="18" viewBox="0 0 22 18" fill="none" xmlns="http://www.w3.org/2000/svg">
<path fill-rule="evenodd" clip-rule="evenodd" d="M10.8225 5.4704L9.84033 3.71197C9.54133 3.17663 9.05054 2.47513 8.34264 1.93878L9.01421 1.05241L8.34264 1.93878C7.62257 1.39322 6.82501 1.125 5.94458 1.125C3.47765 1.125 1.54126 3.08144 1.54126 5.87445C1.54126 7.33001 2.12176 8.6048 3.3188 10.0198C4.54425 11.4685 6.32035 12.9561 8.59109 14.8518L8.59111 14.8519L8.59367 14.854C9.26904 15.4179 10.0288 16.0522 10.8225 16.7286C11.6168 16.0517 12.3771 15.417 13.0531 14.8525L13.0544 14.8514L13.0544 14.8514C15.3249 12.9559 17.1009 11.4684 18.3263 10.0198C19.5233 8.60481 20.1038 7.33001 20.1038 5.87445C20.1038 3.08144 18.1674 1.125 15.7004 1.125C14.82 1.125 14.0224 1.39322 13.3024 1.93878L12.623 1.04209C13.5357 0.350602 14.5711 0 15.7004 0C18.8521 0 21.2288 2.52546 21.2288 5.87445C21.2288 9.49253 18.2637 11.968 13.7754 15.715C13.0127 16.3518 12.1487 17.0731 11.2506 17.8426C11.1323 17.9441 10.9802 18 10.8225 18C10.6648 18 10.5128 17.9441 10.3944 17.8425C9.49662 17.0734 8.63286 16.3523 7.87077 15.716L7.8701 15.7154C3.38135 11.968 0.41626 9.49253 0.41626 5.87445C0.41626 2.52546 2.79295 0 5.94458 0C7.07394 0 8.10936 0.350602 9.02203 1.04209C9.46383 1.37682 9.83107 1.7578 10.1306 2.13203C10.4242 2.49896 10.6527 2.85939 10.8225 3.16338C10.9923 2.85941 11.2208 2.49897 11.5145 2.13203C11.814 1.7578 12.1812 1.37682 12.623 1.04209L13.3024 1.93878C12.5945 2.47512 12.1037 3.17666 11.8047 3.71199L10.8225 5.4704ZM11.1263 16.9882C11.1261 16.988 11.1258 16.9878 11.1256 16.9876L11.1263 16.9882Z" fill="#696969"/>
</svg>
