<svg width="37" height="38" viewBox="0 0 37 38" fill="none" xmlns="http://www.w3.org/2000/svg">
<path d="M14.5574 0.839406C9.94929 0.85526 6.24219 4.56502 6.24219 9.16258C6.24219 13.7681 9.97571 17.4963 14.5733 17.4858C19.184 17.4752 22.9149 13.7311 22.8885 9.14408C22.8594 4.53067 19.1417 0.823552 14.5574 0.839406ZM16.769 9.12559C16.2881 9.12559 15.8231 9.12559 15.3342 9.12559C15.3342 10.8378 15.3342 12.5368 15.3342 14.2516C14.6129 14.2516 13.9127 14.2516 13.194 14.2516V9.13352C12.8479 9.13352 12.5202 9.13352 12.182 9.13352C12.182 8.52315 12.182 7.93392 12.182 7.32091C12.5096 7.32091 12.8373 7.32091 13.1861 7.32091C13.1861 6.94835 13.1755 6.60221 13.1887 6.25343C13.1993 5.99977 13.2125 5.74083 13.2706 5.49246C13.4714 4.63107 14.0818 4.07884 14.9775 4.01014C15.6143 3.96258 16.259 3.99957 16.9143 3.99957C16.9143 4.57559 16.9143 5.1516 16.9143 5.7514C16.5682 5.7514 16.2273 5.7514 15.8865 5.7514C15.469 5.7514 15.3263 5.89144 15.3237 6.31156C15.321 6.63392 15.3237 6.95892 15.3237 7.3077C15.8706 7.3077 16.4017 7.3077 16.9539 7.3077C16.8932 7.92599 16.8324 8.51258 16.769 9.12559Z" fill="#3D4246"/>
<path d="M28.2988 17.027C32.8938 17.027 36.6183 20.7596 36.621 25.3614C36.621 29.9658 32.8885 33.7038 28.2935 33.6958C23.6958 33.6906 19.9739 29.9579 19.9766 25.3588C19.9766 20.7544 23.7011 17.027 28.2988 17.027ZM28.2856 30.3858C28.7736 30.3858 29.2642 30.3911 29.7522 30.3832C30.2006 30.3779 30.649 30.3753 31.0895 30.2749C32.2185 30.0213 32.9254 29.3345 33.1945 28.2065C33.3053 27.7415 33.3105 27.266 33.3132 26.7905C33.3185 25.829 33.3185 24.8674 33.3132 23.9059C33.3105 23.4515 33.3053 22.9971 33.2077 22.5507C32.9729 21.4729 32.3346 20.7676 31.2663 20.4664C30.8416 20.3449 30.4011 20.3238 29.9658 20.3211C28.8474 20.3132 27.729 20.3132 26.6079 20.3211C26.2281 20.3238 25.8456 20.3396 25.4711 20.4268C24.4265 20.6645 23.7328 21.2853 23.4241 22.3209C23.2975 22.7514 23.2712 23.1952 23.2685 23.639C23.2606 24.7802 23.2632 25.9214 23.2685 27.0626C23.2712 27.4351 23.2896 27.8076 23.374 28.1721C23.6299 29.2922 24.3131 29.9922 25.4289 30.2643C25.8878 30.3753 26.3574 30.3779 26.8269 30.3858C27.3122 30.3911 27.7976 30.3858 28.2856 30.3858Z" fill="#3D4246"/>
<path d="M24.1406 25.3513C24.1565 24.6486 24.167 23.946 24.1881 23.2433C24.196 22.9712 24.2382 22.7017 24.3305 22.4429C24.5495 21.83 24.9874 21.4707 25.6099 21.3201C25.9079 21.2488 26.2139 21.2303 26.5173 21.2277C27.4062 21.2198 28.2951 21.2092 29.1841 21.2118C29.651 21.2145 30.1152 21.2303 30.5795 21.2594C30.9567 21.2832 31.3154 21.3835 31.6293 21.6081C32.054 21.9092 32.2703 22.3372 32.3468 22.8417C32.4233 23.3463 32.4206 23.8535 32.4206 24.3607C32.4233 25.2509 32.418 26.1412 32.4075 27.0314C32.4022 27.3907 32.3916 27.7499 32.2967 28.0986C32.0962 28.8304 31.6108 29.2583 30.8749 29.3957C30.6164 29.4432 30.35 29.467 30.0888 29.4697C28.8886 29.4776 27.6858 29.4749 26.4856 29.4697C26.1691 29.467 25.8499 29.4459 25.5413 29.3613C24.8159 29.1606 24.3939 28.6824 24.2488 27.9507C24.1591 27.5095 24.1696 27.0631 24.1591 26.6167C24.1512 26.194 24.1565 25.7713 24.1565 25.346C24.1512 25.3513 24.1459 25.3513 24.1406 25.3513ZM28.2846 22.7651C26.876 22.7599 25.7101 23.9116 25.7022 25.3223C25.6943 26.7646 26.8364 27.9322 28.2635 27.9401C29.6984 27.9481 30.8617 26.7989 30.8696 25.3672C30.8775 23.9301 29.7275 22.7704 28.2846 22.7651ZM30.9804 23.267C31.318 23.2591 31.5818 22.9844 31.5739 22.6489C31.566 22.3161 31.2864 22.0519 30.9514 22.0598C30.6243 22.0677 30.3552 22.3504 30.3658 22.678C30.3764 23.0108 30.6507 23.2776 30.9804 23.267Z" fill="#3D4246"/>
<path d="M26.6016 25.3484C26.5989 26.2757 27.3481 27.0312 28.2792 27.0365C29.2104 27.0417 29.9648 26.2915 29.9674 25.3564C29.9727 24.4291 29.2235 23.6736 28.2924 23.6657C27.3665 23.6578 26.6068 24.4159 26.6016 25.3484Z" fill="#3D4246"/>
<path d="M26.6016 25.3484C26.6042 24.4159 27.3665 23.6578 28.2924 23.6657C29.2235 23.6736 29.97 24.4265 29.9674 25.3564C29.9621 26.2942 29.2103 27.0417 28.2792 27.0365C27.3507 27.0312 26.5989 26.2757 26.6016 25.3484Z" fill="#3D4246"/>
<path d="M8.32054 20.3989C12.9128 20.3936 16.6279 24.1062 16.6464 28.7238C16.6649 33.3228 12.934 37.0671 8.32583 37.0697C3.72298 37.0724 -0.00791422 33.336 1.26079e-05 28.729C0.00793944 24.1194 3.7177 20.4042 8.32054 20.3989ZM3.41648 32.4072C3.47196 32.4416 3.52745 32.4787 3.58558 32.5131C4.83009 33.2222 6.16709 33.4524 7.57278 33.2249C10.7858 32.7115 12.461 29.9119 12.5112 27.488C12.5165 27.181 12.5905 26.9773 12.8362 26.7841C13.1004 26.5751 13.3092 26.2946 13.5443 26.0458C13.5311 26.0379 13.5205 26.0273 13.5073 26.0194C13.1585 26.1146 12.8071 26.2099 12.4583 26.3052C12.4504 26.2893 12.4425 26.2734 12.4372 26.2575C12.8203 25.9797 13.1189 25.6383 13.259 25.1991C12.8864 25.334 12.5165 25.4637 12.1492 25.6013C12.0144 25.6516 11.9246 25.6119 11.8189 25.5193C11.2006 24.9874 10.4925 24.8365 9.72623 25.1064C8.9679 25.3737 8.50022 25.9268 8.36546 26.7259C8.32054 26.9905 8.35753 27.2684 8.35753 27.5621C6.61099 27.4404 5.18944 26.7021 4.04005 25.3605C3.53274 26.4719 3.75469 27.3874 4.64778 28.1575C4.63985 28.1707 4.63192 28.1839 4.624 28.1972C4.33863 28.1178 4.05591 28.0384 3.75733 27.9537C3.75469 28.43 3.90794 28.8587 4.20387 29.2371C4.50509 29.6208 4.90144 29.8616 5.37176 29.9886C5.36912 30.0045 5.36648 30.0204 5.36383 30.0362C5.08111 30.0362 4.79839 30.0362 4.48924 30.0362C4.63985 30.4782 4.88294 30.8089 5.22115 31.0682C5.56465 31.3329 5.96099 31.4625 6.4366 31.4996C5.5118 32.1902 4.52095 32.4601 3.41648 32.4072Z" fill="#3D4246"/>
</svg>
