<svg width="46" height="46" viewBox="0 0 46 46" fill="none" xmlns="http://www.w3.org/2000/svg">
<g clip-path="url(#clip0)">
<path d="M10.7135 9.92383H13.009C11.7411 9.92383 10.7135 10.9532 10.7135 12.2234V33.6853C10.7135 34.9554 11.741 35.9848 13.009 35.9848H10.7135C9.44564 35.9848 8.41797 34.9555 8.41797 33.6853V12.2234C8.41797 10.9533 9.44564 9.92383 10.7135 9.92383Z" fill="white"/>
<path d="M23.2152 23.0689C25.2145 24.9882 28.3462 24.9882 30.3456 23.0689L43.1979 10.7306C43.0846 10.7046 42.9676 10.6907 42.8489 10.6907H10.7125C10.5932 10.6907 10.4762 10.7046 10.3629 10.7306L23.2152 23.0689ZM26.7807 26.0421C25.1165 26.0421 23.4531 25.4205 22.1562 24.1757L8.57553 11.1384C8.42557 10.9943 8.34067 10.7965 8.33986 10.5888C8.33834 10.3818 8.42099 10.1825 8.56862 10.0377C9.1455 9.46967 9.9069 9.15771 10.7125 9.15771H42.8489C43.6547 9.15771 44.416 9.46967 44.9921 10.0377C45.1398 10.1833 45.2224 10.3818 45.2209 10.5895C45.2194 10.7965 45.1345 10.9943 44.9852 11.1383L31.4046 24.1757C30.1084 25.4206 28.4442 26.0421 26.7807 26.0421Z" fill="#3D4246"/>
<path d="M10.3637 35.178C10.4769 35.2048 10.594 35.2186 10.7126 35.2186H42.8497C42.9683 35.2186 43.0854 35.2048 43.1987 35.178L31.5714 24.0162L31.4054 24.1756C28.8123 26.6652 24.7493 26.6652 22.157 24.1756L21.9909 24.0162L10.3637 35.178ZM42.8497 36.7516H10.7126C9.90769 36.7516 9.14639 36.4388 8.56942 35.8709C8.42179 35.726 8.33913 35.5267 8.33985 35.3198C8.34137 35.1128 8.42627 34.9143 8.57624 34.771L21.4615 22.4012C21.7575 22.1168 22.2243 22.1168 22.5204 22.4012L23.216 23.0696C25.2146 24.9882 28.347 24.9873 30.3464 23.0688L31.0419 22.4012C31.338 22.1168 31.8047 22.1168 32.1009 22.4012L44.986 34.771C45.1353 34.9143 45.2202 35.1121 45.2217 35.3198C45.2232 35.5267 45.1406 35.7252 44.9929 35.8709C44.416 36.4389 43.6555 36.7516 42.8497 36.7516Z" fill="#3D4246"/>
<path d="M5.35698 17.5889H2.29641C1.87408 17.5889 1.53125 17.2456 1.53125 16.8224C1.53125 16.3993 1.87408 16.0559 2.29641 16.0559H5.35698C5.77932 16.0559 6.12215 16.3993 6.12215 16.8224C6.12215 17.2456 5.77932 17.5889 5.35698 17.5889Z" fill="#3D4246"/>
<path d="M5.35606 12.2233H0.765165C0.342826 12.2233 0 11.88 0 11.4568C0 11.0337 0.342826 10.6903 0.765165 10.6903H5.35606C5.7784 10.6903 6.12123 11.0337 6.12123 11.4568C6.12123 11.88 5.7784 12.2233 5.35606 12.2233Z" fill="#3D4246"/>
<path d="M5.35409 22.9544H3.82376C3.40142 22.9544 3.05859 22.611 3.05859 22.1879C3.05859 21.7648 3.40142 21.4214 3.82376 21.4214H5.35409C5.77643 21.4214 6.11925 21.7648 6.11925 22.1879C6.11925 22.611 5.77643 22.9544 5.35409 22.9544Z" fill="#3D4246"/>
<path d="M9.18267 23.7209C9.18267 24.144 8.83985 24.4874 8.41751 24.4874C7.99517 24.4874 7.65234 24.144 7.65234 23.7209C7.65234 23.2977 7.99517 22.9543 8.41751 22.9543C8.83985 22.9543 9.18267 23.2977 9.18267 23.7209Z" fill="#3D4246"/>
<path d="M42.8494 36.7514H10.713C9.02508 36.7514 7.65243 35.3763 7.65243 33.6854V26.7869C7.65243 26.3637 7.99526 26.0204 8.4176 26.0204C8.83994 26.0204 9.18276 26.3637 9.18276 26.7869V33.6854C9.18276 34.5309 9.86913 35.2184 10.7131 35.2184H42.8495C43.6934 35.2184 44.3798 34.5309 44.3798 33.6854V12.2234C44.3798 11.3779 43.6934 10.6904 42.8495 10.6904H10.713C9.86904 10.6904 9.18267 11.3779 9.18267 12.2234V20.655C9.18267 21.0781 8.83985 21.4215 8.41751 21.4215C7.99517 21.4215 7.65234 21.0781 7.65234 20.655V12.2234C7.65234 10.5325 9.02499 9.15747 10.7129 9.15747H42.8493C44.5372 9.15747 45.9099 10.5325 45.9099 12.2234V33.6854C45.91 35.3763 44.5373 36.7514 42.8494 36.7514Z" fill="#3D4246"/>
</g>
<defs>
<clipPath id="clip0">
<rect width="45.9091" height="45.9091" fill="white"/>
</clipPath>
</defs>
</svg>
