<svg width="46" height="46" viewBox="0 0 46 46" fill="none" xmlns="http://www.w3.org/2000/svg">
<g clip-path="url(#clip0)">
<path d="M31.5643 0.717285H14.3484C13.3975 0.718353 12.4858 1.09657 11.8134 1.76897C11.141 2.44136 10.7628 3.35302 10.7617 4.30393V41.6051C10.7628 42.556 11.141 43.4676 11.8134 44.14C12.4858 44.8124 13.3975 45.1906 14.3484 45.1917H31.5643C32.5152 45.1906 33.4268 44.8124 34.0992 44.14C34.7716 43.4676 35.1499 42.556 35.1509 41.6051V4.30393C35.1499 3.35302 34.7716 2.44136 34.0992 1.76897C33.4268 1.09657 32.5152 0.718353 31.5643 0.717285ZM27.82 2.15194L27.3896 4.30393H18.5231L18.0927 2.15194H27.82ZM33.7163 41.6051C33.7156 42.1756 33.4887 42.7226 33.0853 43.126C32.6818 43.5295 32.1348 43.7564 31.5643 43.7571H14.3484C13.7778 43.7564 13.2308 43.5295 12.8274 43.126C12.424 42.7226 12.197 42.1756 12.1964 41.6051V4.30393C12.197 3.73339 12.424 3.18639 12.8274 2.78295C13.2308 2.37952 13.7778 2.15258 14.3484 2.15194H16.6296L17.2316 5.16195C17.2641 5.32456 17.352 5.47088 17.4802 5.57602C17.6085 5.68115 17.7692 5.7386 17.935 5.73859H27.9776C28.1435 5.7386 28.3042 5.68115 28.4324 5.57602C28.5607 5.47088 28.6485 5.32456 28.6811 5.16195L29.2831 2.15194H31.5643C32.1348 2.15258 32.6818 2.37952 33.0853 2.78295C33.4887 3.18639 33.7156 3.73339 33.7163 4.30393V41.6051Z" fill="#3D4246"/>
<path d="M18.6541 40.8877H14.3501C14.1599 40.8877 13.9774 40.9633 13.8429 41.0978C13.7084 41.2323 13.6328 41.4148 13.6328 41.605C13.6328 41.7953 13.7084 41.9777 13.8429 42.1123C13.9774 42.2468 14.1599 42.3224 14.3501 42.3224H18.6541C18.8444 42.3224 19.0268 42.2468 19.1613 42.1123C19.2959 41.9777 19.3714 41.7953 19.3714 41.605C19.3714 41.4148 19.2959 41.2323 19.1613 41.0978C19.0268 40.9633 18.8444 40.8877 18.6541 40.8877Z" fill="#3D4246"/>
<path d="M21.5206 40.8877H20.8033C20.613 40.8877 20.4306 40.9633 20.296 41.0978C20.1615 41.2323 20.0859 41.4148 20.0859 41.605C20.0859 41.7953 20.1615 41.9777 20.296 42.1123C20.4306 42.2468 20.613 42.3224 20.8033 42.3224H21.5206C21.7108 42.3224 21.8933 42.2468 22.0278 42.1123C22.1624 41.9777 22.2379 41.7953 22.2379 41.605C22.2379 41.4148 22.1624 41.2323 22.0278 41.0978C21.8933 40.9633 21.7108 40.8877 21.5206 40.8877Z" fill="#3D4246"/>
</g>
<defs>
<clipPath id="clip0">
<rect width="45.9091" height="45.9091" fill="white"/>
</clipPath>
</defs>
</svg>
