<svg width="38" height="39" viewBox="0 0 38 39" fill="none" xmlns="http://www.w3.org/2000/svg">
<path d="M5.32993 3.28847C5.46353 3.15094 5.53032 3.08218 5.58917 3.02652C7.03615 1.65783 9.26028 1.65783 10.7073 3.02652C10.7661 3.08218 10.8329 3.15094 10.9665 3.28847L13.7241 6.12715C15.2408 7.68851 15.6746 10.0464 14.8175 12.0706C13.9604 14.0948 14.3942 16.4527 15.9109 18.014L20.4435 22.6799C21.9603 24.2413 24.2508 24.6878 26.2171 23.8055C28.1835 22.9232 30.474 23.3697 31.9908 24.9311L34.7483 27.7698C34.8819 27.9073 34.9487 27.9761 35.0028 28.0366C36.3324 29.5262 36.3324 31.8157 35.0028 33.3053C34.9487 33.3658 34.8819 33.4346 34.7483 33.5721L33.0722 35.2976C31.7072 36.7027 29.7395 37.2926 27.8551 36.8615C15.0154 33.9243 4.98782 23.6018 2.13455 10.3845C1.7158 8.44465 2.2888 6.41904 3.65378 5.01392L5.32993 3.28847Z" stroke="#2D264B" stroke-width="3"/>
</svg>
