<svg width="26" height="26" viewBox="0 0 26 26" fill="none" xmlns="http://www.w3.org/2000/svg">
<path d="M25.4994 17.5762C25.4994 17.5705 25.5 17.565 25.5 17.5593L25.4998 17.5555C25.4997 17.5463 25.4991 17.5372 25.4984 17.5279C25.4981 17.5234 25.4978 17.519 25.4974 17.5145C25.4965 17.5066 25.4951 17.4987 25.4937 17.4908C25.4928 17.4851 25.492 17.4794 25.4907 17.4738C25.4894 17.4677 25.4876 17.4616 25.486 17.4555C25.4841 17.4482 25.4822 17.4409 25.4799 17.4339C25.4784 17.4292 25.4765 17.4246 25.4748 17.4199C25.4718 17.4117 25.4687 17.4035 25.4652 17.3955L25.4637 17.3917L21.1804 7.96831V6.73316H21.2074C21.6689 6.73316 22.0443 6.35773 22.0443 5.89623V5.83208C22.0443 5.41912 21.7484 5.07166 21.3407 5.00584L14.2689 3.86464V3.13954C14.5373 2.83873 14.7009 2.44245 14.7009 2.00854C14.7009 1.07069 13.9379 0.307678 13 0.307678C12.0622 0.307678 11.2992 1.07069 11.2992 2.00854C11.2992 2.44245 11.4627 2.83873 11.7311 3.13954V3.82528L4.65507 5.00465C4.24988 5.0722 3.95577 5.41939 3.95577 5.83019V5.89623C3.95577 6.35773 4.3312 6.73316 4.7927 6.73316H4.8197V7.96831L0.536339 17.3917L0.534827 17.3955C0.531317 17.4035 0.52824 17.4117 0.525216 17.4199C0.523488 17.4245 0.521652 17.4292 0.520086 17.4339C0.517765 17.4409 0.515875 17.4482 0.513985 17.4555C0.512365 17.4616 0.510637 17.4677 0.509287 17.4738C0.508099 17.4794 0.507235 17.4851 0.506263 17.4908C0.504914 17.4987 0.50351 17.5066 0.502646 17.5145C0.50216 17.519 0.501998 17.5235 0.50162 17.528C0.500918 17.5372 0.500324 17.5463 0.500216 17.5555L0.5 17.5592C0.5 17.565 0.500594 17.5705 0.500648 17.5763C0.500864 17.5808 0.50081 17.5854 0.501188 17.5899C0.526458 19.2556 2.59157 20.5561 5.22467 20.5561C7.85776 20.5561 9.92287 19.2556 9.94809 17.59C9.94847 17.5854 9.94841 17.5808 9.94863 17.5763C9.94868 17.5706 9.94928 17.565 9.94928 17.5593L9.94906 17.5556C9.94901 17.5464 9.94836 17.5372 9.94766 17.528C9.94733 17.5235 9.94712 17.519 9.94663 17.5146C9.94577 17.5067 9.94436 17.4988 9.94302 17.4908C9.94204 17.4852 9.94123 17.4794 9.93999 17.4738C9.93864 17.4677 9.93691 17.4617 9.93529 17.4556C9.93335 17.4483 9.93151 17.441 9.92919 17.4339C9.92768 17.4293 9.92579 17.4246 9.92412 17.42C9.92109 17.4117 9.91801 17.4036 9.91445 17.3956L9.91294 17.3917L5.62963 7.96831V6.73316H11.7311V15.5315C11.4738 15.6744 11.2992 15.9488 11.2992 16.2634V22.2292L8.73384 23.0308C8.20128 23.1973 7.84345 23.684 7.84345 24.242V24.9027C7.84345 25.1264 8.02471 25.3077 8.24842 25.3077H17.7516C17.9753 25.3077 18.1566 25.1264 18.1566 24.9027V24.242C18.1566 23.684 17.7988 23.1973 17.2662 23.0308L14.7009 22.2292V16.2634C14.7009 15.9488 14.5262 15.6744 14.2689 15.5315V6.73316H20.3704V7.96831L16.0871 17.3917L16.0856 17.3956C16.082 17.4035 16.079 17.4117 16.0759 17.4199C16.0742 17.4246 16.0724 17.4292 16.0708 17.4339C16.0685 17.441 16.0666 17.4483 16.0647 17.4556C16.0631 17.4617 16.0614 17.4677 16.06 17.4738C16.0588 17.4794 16.058 17.4852 16.057 17.4908C16.0556 17.4988 16.0542 17.5067 16.0534 17.5146C16.0529 17.519 16.0527 17.5236 16.0523 17.528C16.0516 17.5372 16.051 17.5464 16.0509 17.5555L16.0507 17.5593C16.0507 17.565 16.0513 17.5706 16.0514 17.5763C16.0516 17.5808 16.0515 17.5854 16.0519 17.59C16.0772 19.2556 18.1423 20.5561 20.7754 20.5561C23.4085 20.5561 25.4736 19.2556 25.4988 17.59C25.4992 17.5854 25.4991 17.5808 25.4994 17.5762ZM5.22467 9.03473L8.91537 17.1543H1.53396L5.22467 9.03473ZM5.22467 19.7461C3.34951 19.7461 1.73158 18.9642 1.38051 17.9643H9.06888C8.71775 18.9642 7.09982 19.7461 5.22467 19.7461ZM13.891 16.2634V22.1219H12.1091V16.2634C12.1091 16.2485 12.1213 16.2364 12.1361 16.2364H13.864C13.8788 16.2364 13.891 16.2485 13.891 16.2634ZM12.5411 15.4265V3.64596C12.6872 3.687 12.841 3.70941 13 3.70941C13.159 3.70941 13.3129 3.687 13.459 3.64596V15.4265H12.5411ZM13 1.11761C13.4913 1.11761 13.891 1.51729 13.891 2.00854C13.891 2.49979 13.4913 2.89947 13 2.89947C12.5088 2.89947 12.1091 2.49979 12.1091 2.00854C12.1091 1.51729 12.5088 1.11761 13 1.11761ZM4.7927 5.92323C4.77785 5.92323 4.7657 5.91113 4.7657 5.89623V5.83019C4.7657 5.81691 4.77521 5.80573 4.78827 5.80357L11.7311 4.64645V5.92323H4.7927ZM17.3467 24.242V24.4977H8.65338V24.242C8.65338 24.0401 8.78281 23.864 8.97547 23.8039L11.766 22.9319H14.2341L17.0246 23.8039C17.2172 23.8641 17.3467 24.0401 17.3467 24.242ZM14.2689 4.68511L21.2116 5.80546C21.2248 5.80757 21.2344 5.8188 21.2344 5.83214V5.89628C21.2344 5.91119 21.2222 5.92328 21.2074 5.92328H14.2689V4.68511ZM20.7754 9.03473L24.4661 17.1543H17.0847L20.7754 9.03473ZM20.7754 19.7461C18.9002 19.7461 17.2823 18.9642 16.9312 17.9643H24.6196C24.2685 18.9642 22.6505 19.7461 20.7754 19.7461Z" fill="#3D4246"/>
</svg>
