<svg width="16" height="28" viewBox="0 0 16 28" fill="none" xmlns="http://www.w3.org/2000/svg">
<path d="M13.2941 0.307678H2.70588C2.12105 0.308335 1.56035 0.540951 1.14681 0.954492C0.733272 1.36803 0.500657 1.92873 0.5 2.51356V25.4547C0.500657 26.0396 0.733272 26.6003 1.14681 27.0138C1.56035 27.4273 2.12105 27.66 2.70588 27.6606H13.2941C13.879 27.66 14.4396 27.4273 14.8532 27.0138C15.2667 26.6003 15.4993 26.0396 15.5 25.4547V2.51356C15.4993 1.92873 15.2667 1.36803 14.8532 0.954492C14.4396 0.540951 13.879 0.308335 13.2941 0.307678ZM10.9913 1.19003L10.7266 2.51356H5.27347L5.00877 1.19003H10.9913ZM14.6176 25.4547C14.6173 25.8056 14.4777 26.1421 14.2296 26.3902C13.9814 26.6383 13.645 26.7779 13.2941 26.7783H2.70588C2.35498 26.7779 2.01857 26.6383 1.77044 26.3902C1.52232 26.1421 1.38275 25.8056 1.38235 25.4547V2.51356C1.38275 2.16266 1.52232 1.82624 1.77044 1.57812C2.01857 1.32999 2.35498 1.19043 2.70588 1.19003H4.10888L4.47914 3.04126C4.49914 3.14127 4.55318 3.23127 4.63205 3.29593C4.71093 3.36058 4.80977 3.39592 4.91176 3.39591H11.0882C11.1902 3.39592 11.2891 3.36058 11.3679 3.29593C11.4468 3.23127 11.5009 3.14127 11.5209 3.04126L11.8911 1.19003H13.2941C13.645 1.19043 13.9814 1.32999 14.2296 1.57812C14.4777 1.82624 14.6173 2.16266 14.6176 2.51356V25.4547Z" fill="#3D4246"/>
<path d="M5.35294 25.0136H2.70589C2.58888 25.0136 2.47666 25.06 2.39393 25.1428C2.31119 25.2255 2.26471 25.3377 2.26471 25.4547C2.26471 25.5717 2.31119 25.684 2.39393 25.7667C2.47666 25.8494 2.58888 25.8959 2.70589 25.8959H5.35294C5.46995 25.8959 5.58217 25.8494 5.6649 25.7667C5.74764 25.684 5.79412 25.5717 5.79412 25.4547C5.79412 25.3377 5.74764 25.2255 5.6649 25.1428C5.58217 25.06 5.46995 25.0136 5.35294 25.0136Z" fill="#3D4246"/>
<path d="M7.11764 25.0136H6.67647C6.55946 25.0136 6.44724 25.06 6.36451 25.1428C6.28177 25.2255 6.23529 25.3377 6.23529 25.4547C6.23529 25.5717 6.28177 25.684 6.36451 25.7667C6.44724 25.8494 6.55946 25.8959 6.67647 25.8959H7.11764C7.23465 25.8959 7.34687 25.8494 7.4296 25.7667C7.51234 25.684 7.55882 25.5717 7.55882 25.4547C7.55882 25.3377 7.51234 25.2255 7.4296 25.1428C7.34687 25.06 7.23465 25.0136 7.11764 25.0136Z" fill="#3D4246"/>
</svg>
