<svg width="30" height="24" viewBox="0 0 30 24" fill="none" xmlns="http://www.w3.org/2000/svg">
<path d="M29.696 5.60617L19.6179 0.0722694C19.4424 -0.0240898 19.2295 -0.0240898 19.054 0.0722694L15.2641 2.15326C15.1785 2.17707 15.0986 2.22078 15.0309 2.28121L8.97583 5.60617C8.78838 5.70917 8.67188 5.90601 8.67188 6.11979V7.31775H1.91162C1.58798 7.31775 1.32568 7.58028 1.32568 7.90369C1.32568 8.22733 1.58798 8.48963 1.91162 8.48963H8.67188V10.599H5.31258C4.98894 10.599 4.72664 10.8615 4.72664 11.1849C4.72664 11.5086 4.98894 11.7709 5.31258 11.7709H8.67188V14.8178H3.75C3.42636 14.8178 3.16406 15.0803 3.16406 15.4037C3.16406 15.7273 3.42636 15.9896 3.75 15.9896H8.67188V17.1878C8.67188 17.4016 8.78838 17.5984 8.97583 17.7014L19.054 23.2353C19.1418 23.2836 19.2389 23.3077 19.3359 23.3077C19.433 23.3077 19.53 23.2836 19.6179 23.2353L29.696 17.7014C29.8835 17.5984 30 17.4016 30 17.1878V14.5639C30 14.2405 29.7377 13.978 29.4141 13.978C29.0904 13.978 28.8281 14.2405 28.8281 14.5639V16.8411L19.9219 21.7316V12.0004L22.7543 10.4452V12.9135C22.7543 13.1208 22.8637 13.3126 23.042 13.4179C23.1338 13.4722 23.237 13.4994 23.3402 13.4994C23.4373 13.4994 23.5345 13.4754 23.6227 13.4268L25.7824 12.2383C25.9694 12.1353 26.0857 11.9386 26.0857 11.7249V8.61597L28.8281 7.11016V9.87642C28.8281 10.2001 29.0904 10.4624 29.4141 10.4624C29.7377 10.4624 30 10.2001 30 9.87642V6.11979C30 5.90601 29.8835 5.70917 29.696 5.60617ZM18.75 21.7316L9.84375 16.8411V7.11016L18.75 12.0004V21.7316ZM19.3359 10.9854L10.4752 6.11979L13.26 4.59063L22.121 9.4562L19.3359 10.9854ZM23.3384 8.78763L14.4775 3.92206L15.4381 3.39472L24.2988 8.26029L23.3384 8.78763ZM24.9138 11.3786L23.9262 11.9222V9.80181L24.9138 9.25936V11.3786ZM25.5162 7.59172L16.6555 2.72615L19.3359 1.25444L28.1966 6.11979L25.5162 7.59172Z" fill="#3D4246"/>
<path d="M29.4141 11.6344C29.26 11.6344 29.1087 11.6964 28.9998 11.806C28.8908 11.915 28.8281 12.0656 28.8281 12.2203C28.8281 12.3744 28.8908 12.5256 28.9998 12.6346C29.1087 12.7435 29.26 12.8063 29.4141 12.8063C29.5681 12.8063 29.7194 12.7435 29.8283 12.6346C29.9373 12.5256 30 12.3744 30 12.2203C30 12.0656 29.9373 11.915 29.8283 11.806C29.7194 11.6964 29.5681 11.6344 29.4141 11.6344Z" fill="#3D4246"/>
<path d="M1.4257 14.8178H0.585938C0.262299 14.8178 0 15.0803 0 15.4037C0 15.7273 0.262299 15.9896 0.585938 15.9896H1.4257C1.74934 15.9896 2.01164 15.7273 2.01164 15.4037C2.01164 15.0803 1.74934 14.8178 1.4257 14.8178Z" fill="#3D4246"/>
<path d="M3.55487 11.185C3.55487 11.0309 3.49216 10.8799 3.38298 10.7709C3.27403 10.6617 3.12297 10.599 2.96893 10.599C2.81467 10.599 2.6636 10.6617 2.55466 10.7709C2.44502 10.8799 2.383 11.0309 2.383 11.185C2.383 11.3392 2.44502 11.4903 2.55466 11.5992C2.6636 11.7082 2.81467 11.7709 2.96893 11.7709C3.12297 11.7709 3.27403 11.7084 3.38298 11.5992C3.49216 11.4903 3.55487 11.3392 3.55487 11.185Z" fill="#3D4246"/>
</svg>
