<svg width="18" height="25" viewBox="0 0 18 25" fill="none" xmlns="http://www.w3.org/2000/svg">
<path d="M5.33516 10.092H12.882V8.2951H5.33516V10.092Z" fill="#393536"/>
<path d="M5.33516 13.542H12.882V11.7451H5.33516V13.542Z" fill="#393536"/>
<path d="M5.33516 16.9201H12.882V15.1232H5.33516V16.9201Z" fill="#393536"/>
<path fill-rule="evenodd" clip-rule="evenodd" d="M16.943 23.9767V1.02295L13.7929 2.41252L11.3605 1.42567L9.1215 2.41436L6.71565 1.42479L4.4732 2.41292L1.05859 1.03353V23.9661L4.4732 22.5867L6.71574 23.5749L9.12149 22.5849L11.3604 23.574L13.7929 22.5871L16.943 23.9767ZM2.85547 21.3023V3.69736L4.50355 4.36314L6.73989 3.3777L9.1465 4.36758L11.3902 3.37683L13.8222 4.36354L15.1461 3.77954V21.2201L13.8222 20.6361L11.3903 21.6228L9.1465 20.6315L6.73981 21.6219L4.50355 20.6365L2.85547 21.3023Z" fill="#393536"/>
<path d="M5.33516 10.092H12.882V8.2951H5.33516V10.092Z" stroke="white" stroke-width="0.75" stroke-miterlimit="10"/>
<path d="M5.33516 13.542H12.882V11.7451H5.33516V13.542Z" stroke="white" stroke-width="0.75" stroke-miterlimit="10"/>
<path d="M5.33516 16.9201H12.882V15.1232H5.33516V16.9201Z" stroke="white" stroke-width="0.75" stroke-miterlimit="10"/>
<path fill-rule="evenodd" clip-rule="evenodd" d="M16.943 23.9767V1.02295L13.7929 2.41252L11.3605 1.42567L9.1215 2.41436L6.71565 1.42479L4.4732 2.41292L1.05859 1.03353V23.9661L4.4732 22.5867L6.71574 23.5749L9.12149 22.5849L11.3604 23.574L13.7929 22.5871L16.943 23.9767ZM2.85547 21.3023V3.69736L4.50355 4.36314L6.73989 3.3777L9.1465 4.36758L11.3902 3.37683L13.8222 4.36354L15.1461 3.77954V21.2201L13.8222 20.6361L11.3903 21.6228L9.1465 20.6315L6.73981 21.6219L4.50355 20.6365L2.85547 21.3023Z" stroke="white" stroke-width="0.75" stroke-miterlimit="10"/>
</svg>
