<svg width="26" height="25" viewBox="0 0 26 25" fill="none" xmlns="http://www.w3.org/2000/svg">
<g clip-path="url(#clip0)">
<path d="M25.5 16.9189C25.5 13.275 23.0447 10.0912 19.5823 9.13181C19.3646 4.0596 15.1708 0 10.0459 0C4.78219 0 0.5 4.28219 0.5 9.5459C0.5 11.2614 0.956619 12.9316 1.8237 14.398L0.535095 19.0565L5.19379 17.7681C6.54172 18.5652 8.06226 19.0142 9.63162 19.0819C10.5908 22.5445 13.7748 25 17.4189 25C18.8735 25 20.288 24.6126 21.5308 23.8766L25.4647 24.9647L24.3766 21.0308C25.1126 19.788 25.5 18.3735 25.5 16.9189ZM5.42496 16.1842L2.63604 16.9558L3.40756 14.1668L3.2317 13.8918C2.40296 12.5952 1.96484 11.0924 1.96484 9.5459C1.96484 5.08995 5.58995 1.46484 10.0459 1.46484C14.5018 1.46484 18.127 5.08995 18.127 9.5459C18.127 14.0018 14.5018 17.627 10.0459 17.627C8.49942 17.627 6.99681 17.1888 5.7 16.3601L5.42496 16.1842ZM23.364 22.864L21.2945 22.2914L21.0181 22.4712C19.9468 23.1672 18.702 23.5352 17.4189 23.5352C14.5549 23.5352 12.0381 21.6833 11.1464 19.0279C15.5322 18.5223 19.0223 15.0322 19.5281 10.6462C22.1833 11.5381 24.0352 14.0549 24.0352 16.9189C24.0352 18.202 23.6672 19.4468 22.9712 20.5181L22.7914 20.7945L23.364 22.864Z" fill="#3D4246"/>
<path d="M9.31348 13.2324H10.7783V14.6973H9.31348V13.2324Z" fill="#3D4246"/>
<path d="M11.5107 7.32422C11.5107 7.74021 11.3414 8.12416 11.0339 8.40549L9.31348 9.9802V11.7676H10.7783V10.6253L12.0229 9.4862C12.6283 8.93211 12.9756 8.14419 12.9756 7.32422C12.9756 5.70869 11.6614 4.39453 10.0459 4.39453C8.43037 4.39453 7.11621 5.70869 7.11621 7.32422H8.58105C8.58105 6.51646 9.23814 5.85938 10.0459 5.85938C10.8537 5.85938 11.5107 6.51646 11.5107 7.32422Z" fill="#3D4246"/>
</g>
<defs>
<clipPath id="clip0">
<rect width="25" height="25" fill="white" transform="translate(0.5)"/>
</clipPath>
</defs>
</svg>
