<svg width="30" height="30" viewBox="0 0 30 30" fill="none" xmlns="http://www.w3.org/2000/svg">
<path d="M28.9072 7.06575L25.964 3.81277C25.8588 3.69673 25.7098 3.63029 25.5531 3.63029H16.4869V1.47715C16.4869 1.1709 16.2389 0.922852 15.933 0.922852H13.0681C12.7622 0.922852 12.5138 1.1709 12.5138 1.47715V3.63029H7.33258C7.02651 3.63029 6.77846 3.87852 6.77846 4.18459V5.43068C6.77846 5.92678 7.47764 6.12213 7.83847 6.30203C7.51918 6.56519 6.77846 6.96791 6.77846 7.4374V10.6904C6.77846 10.9963 7.02651 11.2445 7.33258 11.2445H12.5138V13.0258H4.44558C4.28903 13.0258 4.13986 13.0921 4.03463 13.2083L1.09149 16.4613C0.900777 16.6724 0.900777 16.9938 1.09149 17.2048L4.03463 20.4577C4.13986 20.5738 4.28903 20.64 4.44558 20.64H7.16624C7.87778 20.64 7.87881 19.5318 7.16624 19.5318H4.69157L2.24986 16.8331L4.69157 14.1343H22.1119V16.5717L20.7968 17.6562C20.4959 17.9044 20.551 18.4048 20.9021 18.5798L22.1119 19.1826V19.5318H11.6559C10.9443 19.5318 10.9431 20.64 11.6559 20.64H12.5138V28.4936C12.5138 28.7998 12.7619 29.0478 13.0681 29.0478H15.9328C16.2389 29.0478 16.4869 28.7998 16.4869 28.4936V20.64H22.6659C22.9721 20.64 23.2202 20.392 23.2202 20.0861V18.8398C23.2202 18.6297 23.1014 18.4375 22.9131 18.3439L22.1602 17.9687L23.0185 17.2607C23.1462 17.1553 23.2202 16.9986 23.2202 16.8331V13.5803C23.2202 13.2741 22.9721 13.026 22.6659 13.026H16.4869V11.2447H25.5531C25.7098 11.2447 25.8588 11.1782 25.964 11.0622L28.9072 7.80922C29.0979 7.59807 29.0979 7.27672 28.9072 7.06575ZM15.3787 27.9396H13.6224V20.64H15.3787V27.9396ZM13.6224 2.0311H15.3787V3.63029H13.6224V2.0311ZM15.3787 13.0258H13.6224V11.2445H15.3787V13.0258ZM25.3072 10.1363H7.88671V7.69867L9.20198 6.61428C9.50273 6.36606 9.44762 5.86584 9.09658 5.69075L7.88671 5.0877V4.73871H25.3072L27.7488 7.4374L25.3072 10.1363Z" fill="#3D4246"/>
<path d="M6.88917 16.4786H11.918C12.6295 16.4786 12.6306 15.3702 11.918 15.3702H6.88917C6.17764 15.3702 6.17661 16.4786 6.88917 16.4786Z" fill="#3D4246"/>
<path d="M17.3667 16.4786C18.0783 16.4786 18.0795 15.3702 17.3667 15.3702H14.499C13.7874 15.3702 13.7866 16.4786 14.499 16.4786H17.3667Z" fill="#3D4246"/>
<path d="M6.88917 18.4561H17.3667C18.0782 18.4561 18.0794 17.3477 17.3667 17.3477H6.88917C6.17764 17.3477 6.17661 18.4561 6.88917 18.4561Z" fill="#3D4246"/>
<path d="M12.0173 7.05052H17.0461C17.7576 7.05052 17.7586 5.94209 17.0461 5.94209H12.0173C11.3057 5.94209 11.3045 7.05052 12.0173 7.05052Z" fill="#3D4246"/>
<path d="M22.4948 7.91963H12.0173C11.3057 7.91963 11.3045 9.02788 12.0173 9.02788H22.4948C23.2063 9.02788 23.2073 7.91963 22.4948 7.91963Z" fill="#3D4246"/>
<path d="M19.3124 7.05084C19.6137 7.05084 19.8667 6.79713 19.8665 6.49586C19.8665 6.19477 19.6131 5.94226 19.3124 5.94226C19.02 5.94226 18.7723 6.18018 18.7593 6.47183C18.7456 6.78185 19.0013 7.05084 19.3124 7.05084Z" fill="#3D4246"/>
<path d="M9.42091 19.5626C9.11981 19.5626 8.86661 19.8156 8.86661 20.1165C8.86661 20.4178 9.11981 20.6708 9.42091 20.6708C9.71325 20.6708 9.96097 20.4324 9.97384 20.1407C9.98757 19.8311 9.73162 19.5626 9.42091 19.5626Z" fill="#3D4246"/>
</svg>
