<svg width="27" height="27" viewBox="0 0 27 27" fill="none" xmlns="http://www.w3.org/2000/svg">
<path d="M26.0894 9.05487L15.6465 4.01347C15.5539 3.96882 15.4461 3.96882 15.3536 4.01347L4.91064 9.05487C4.7942 9.11107 4.72021 9.22899 4.72021 9.35827V21.6017C4.72021 21.731 4.7942 21.8489 4.91064 21.9051L15.3535 26.9465C15.3998 26.9688 15.4499 26.98 15.5 26.98C15.5501 26.98 15.6002 26.9688 15.6465 26.9465L26.0894 21.9051C26.2059 21.8489 26.2798 21.731 26.2798 21.6017V9.35832C26.2798 9.22894 26.2058 9.11111 26.0894 9.05487ZM15.5 4.69103L25.168 9.35827L22.3654 10.7112C22.3477 10.6977 22.329 10.6852 22.3084 10.6753L12.7061 6.03981L15.5 4.69103ZM11.9452 6.42074L21.5991 11.0812L19.6219 12.0358L9.97199 7.37718L11.9452 6.42074ZM21.825 11.7204V15.2488L19.9781 16.1404V12.612L21.825 11.7204ZM25.606 21.3903L15.8369 26.1063V14.6111L18.1672 13.4862C18.3347 13.4053 18.405 13.2039 18.3241 13.0363C18.2432 12.8688 18.0418 12.7984 17.8742 12.8794L15.5 14.0256L14.5658 13.5746C14.3982 13.4936 14.1968 13.5639 14.1159 13.7315C14.035 13.899 14.1053 14.1005 14.2729 14.1814L15.1631 14.6111V26.1063L5.39404 21.3902V9.89505L12.8331 13.4863C12.8803 13.5091 12.9302 13.5199 12.9793 13.5199C13.1046 13.5199 13.2249 13.4498 13.283 13.3294C13.3639 13.1619 13.2936 12.9604 13.126 12.8795L5.83208 9.35827L9.17898 7.74252L19.2996 12.6284C19.3011 12.6304 19.3028 12.6323 19.3043 12.6343V16.6772C19.3043 16.7932 19.3639 16.9009 19.4621 16.9626C19.5166 16.9968 19.5788 17.0141 19.6412 17.0141C19.6912 17.0141 19.7413 17.003 19.7877 16.9806L22.3084 15.7637C22.4248 15.7075 22.4988 15.5897 22.4988 15.4603V11.3951L25.606 9.89509V21.3903Z" fill="#3D4246"/>
<path d="M8.17444 20.0835L6.64193 19.3437C6.47428 19.2627 6.27294 19.333 6.19204 19.5006C6.11113 19.6682 6.18139 19.8696 6.34895 19.9505L7.88146 20.6903C7.92867 20.7131 7.97858 20.7239 8.02768 20.7239C8.15292 20.7239 8.27322 20.6537 8.33131 20.5334C8.41226 20.3658 8.342 20.1645 8.17444 20.0835Z" fill="#3D4246"/>
<path d="M9.58466 19.1657L6.64385 17.746C6.47625 17.6651 6.27487 17.7353 6.19396 17.9029C6.1131 18.0705 6.18336 18.2719 6.35092 18.3528L9.29173 19.7726C9.33894 19.7953 9.38885 19.8062 9.43795 19.8062C9.56319 19.8062 9.68349 19.736 9.74158 19.6156C9.82248 19.448 9.75222 19.2466 9.58466 19.1657Z" fill="#3D4246"/>
<path d="M6.06437 3.58522C1.50436 6.63319 0.0127711 12.8159 2.57999 17.4414L0.636802 17.055L0.501752 17.7343L3.21856 18.2744C3.40599 18.3117 3.5884 18.1898 3.62567 18.0024L4.16586 15.2855L3.48668 15.1505L3.12163 16.9865C0.814165 12.6819 2.22326 6.98446 6.44913 4.16091C10.8933 1.19091 16.9267 2.39053 19.8967 6.83471L20.4724 6.44999C17.2902 1.68756 10.8263 0.40232 6.06437 3.58522Z" fill="#3D4246"/>
</svg>
