<svg width="32" height="30" viewBox="0 0 32 30" fill="none" xmlns="http://www.w3.org/2000/svg">
<path d="M0.967623 16.7773L1.70771 16.0375C2.00892 19.5316 3.57949 22.7944 6.12264 25.2093C8.6658 27.6243 12.0054 29.0241 15.5104 29.1443C19.0154 29.2645 22.443 28.0967 25.1457 25.8617C27.8483 23.6266 29.6387 20.4791 30.1785 17.0139C30.2 16.8746 30.1653 16.7325 30.0821 16.6188C29.9988 16.5051 29.8738 16.4291 29.7345 16.4076C29.5952 16.3861 29.4531 16.4208 29.3394 16.5041C29.2257 16.5874 29.1498 16.7124 29.1283 16.8517C28.6315 20.0425 26.9895 22.9431 24.5093 25.0111C22.0291 27.0791 18.8805 28.173 15.6524 28.0881C12.4242 28.0031 9.33755 26.7453 6.9695 24.5498C4.60144 22.3542 3.11418 19.3713 2.7858 16.1588L3.40421 16.7773C3.50386 16.8769 3.63901 16.9329 3.77994 16.9329C3.92086 16.9329 4.05601 16.8769 4.15566 16.7773C4.25531 16.6776 4.31129 16.5425 4.31129 16.4016C4.31129 16.2606 4.25531 16.1255 4.15566 16.0258L2.56164 14.4318C2.5123 14.3825 2.45373 14.3433 2.38926 14.3166C2.32479 14.2899 2.2557 14.2762 2.18592 14.2762C2.11614 14.2762 2.04704 14.2899 1.98258 14.3166C1.91811 14.3433 1.85953 14.3825 1.81019 14.4318L0.216177 16.0258C0.166836 16.0752 0.127697 16.1338 0.100994 16.1982C0.0742908 16.2627 0.0605469 16.3318 0.0605469 16.4016C0.0605469 16.4713 0.0742908 16.5404 0.100994 16.6049C0.127697 16.6694 0.166836 16.7279 0.216177 16.7773C0.265517 16.8266 0.324093 16.8658 0.38856 16.8925C0.453027 16.9192 0.522122 16.9329 0.5919 16.9329C0.661678 16.9329 0.730773 16.9192 0.79524 16.8925C0.859706 16.8658 0.918282 16.8266 0.967623 16.7773Z" fill="#494949"/>
<path d="M31.0322 12.8379L30.2923 13.5778C29.9911 10.0837 28.4206 6.82093 25.8774 4.40602C23.3343 1.99111 19.9947 0.5913 16.4897 0.471105C12.9847 0.350909 9.55711 1.51865 6.85451 3.75367C4.1519 5.98869 2.36152 9.1362 1.82166 12.6014C1.80015 12.7407 1.83485 12.8828 1.91812 12.9965C2.00139 13.1102 2.12642 13.1862 2.26569 13.2077C2.40496 13.2292 2.54708 13.1945 2.66077 13.1112C2.77445 13.0279 2.85041 12.9029 2.87192 12.7636C3.36911 9.57308 5.01133 6.67283 7.49155 4.60512C9.97176 2.53741 13.1202 1.44382 16.3481 1.52879C19.576 1.61377 22.6625 2.8715 25.0305 5.06683C27.3985 7.26216 28.8859 10.2448 29.2145 13.4571L28.5956 12.8382C28.5463 12.7888 28.4877 12.7497 28.4233 12.723C28.3588 12.6963 28.2897 12.6825 28.2199 12.6825C28.1501 12.6825 28.081 12.6963 28.0166 12.723C27.9521 12.7497 27.8935 12.7888 27.8442 12.8382C27.7949 12.8875 27.7557 12.9461 27.729 13.0105C27.7023 13.075 27.6886 13.1441 27.6886 13.2139C27.6886 13.2837 27.7023 13.3528 27.729 13.4172C27.7557 13.4817 27.7949 13.5403 27.8442 13.5896L29.4382 15.1836C29.4876 15.233 29.5461 15.2721 29.6106 15.2988C29.6751 15.3255 29.7442 15.3393 29.8139 15.3393C29.8837 15.3393 29.9528 15.3255 30.0173 15.2988C30.0817 15.2721 30.1403 15.233 30.1897 15.1836L31.7837 13.5896C31.8833 13.49 31.9393 13.3548 31.9393 13.2139C31.9393 13.073 31.8833 12.9378 31.7837 12.8382C31.684 12.7385 31.5489 12.6825 31.408 12.6825C31.267 12.6825 31.1319 12.7385 31.0322 12.8382V12.8379Z" fill="#494949"/>
<path d="M24.4923 9.25555L16.2155 5.25988C16.1422 5.22449 16.0567 5.22449 15.9834 5.25988L7.70659 9.25555C7.6143 9.30009 7.55566 9.39355 7.55566 9.49602V19.1998C7.55566 19.3023 7.6143 19.3957 7.70659 19.4403L15.9833 23.4359C16.02 23.4536 16.0597 23.4625 16.0994 23.4625C16.1391 23.4625 16.1788 23.4536 16.2155 23.4359L24.4923 19.4403C24.5846 19.3957 24.6432 19.3023 24.6432 19.1998V9.49606C24.6432 9.39352 24.5845 9.30013 24.4923 9.25555ZM16.0994 5.79689L23.762 9.49602L21.5408 10.5683C21.5267 10.5576 21.5119 10.5477 21.4956 10.5399L13.8851 6.8659L16.0994 5.79689ZM13.282 7.16782L20.9334 10.8616L19.3663 11.6181L11.7181 7.92586L13.282 7.16782ZM21.1124 11.3681V14.1647L19.6486 14.8713V12.0748L21.1124 11.3681ZM24.1092 19.0323L16.3665 22.77V13.6593L18.2133 12.7677C18.3461 12.7036 18.4018 12.544 18.3377 12.4111C18.2736 12.2784 18.114 12.2226 17.9811 12.2868L16.0994 13.1952L15.359 12.8377C15.2262 12.7735 15.0666 12.8293 15.0025 12.9621C14.9383 13.0949 14.994 13.2545 15.1268 13.3187L15.8324 13.6593V22.77L8.08972 19.0322V9.92145L13.9857 12.7678C14.0231 12.7859 14.0627 12.7944 14.1016 12.7944C14.2009 12.7944 14.2962 12.7388 14.3422 12.6434C14.4064 12.5106 14.3507 12.351 14.2179 12.2869L8.43689 9.49602L11.0896 8.21542L19.1109 12.0878C19.1121 12.0894 19.1134 12.0909 19.1146 12.0925V15.2968C19.1146 15.3887 19.1618 15.4741 19.2397 15.523C19.2829 15.5501 19.3322 15.5638 19.3816 15.5638C19.4212 15.5638 19.4609 15.555 19.4977 15.5373L21.4956 14.5728C21.5878 14.5283 21.6465 14.4348 21.6465 14.3323V11.1104L24.1092 9.92149V19.0323Z" fill="#494949"/>
<path d="M10.2931 17.9966L9.07851 17.4102C8.94563 17.346 8.78606 17.4018 8.72193 17.5346C8.65781 17.6674 8.7135 17.827 8.8463 17.8911L10.0609 18.4775C10.0983 18.4956 10.1379 18.5041 10.1768 18.5041C10.2761 18.5041 10.3714 18.4485 10.4175 18.3531C10.4816 18.2203 10.4259 18.0607 10.2931 17.9966Z" fill="#494949"/>
<path d="M11.4112 17.269L9.08044 16.1437C8.9476 16.0796 8.78799 16.1353 8.72387 16.2681C8.65978 16.4009 8.71546 16.5606 8.84827 16.6247L11.1791 17.7499C11.2165 17.768 11.256 17.7766 11.295 17.7766C11.3942 17.7766 11.4896 17.7209 11.5356 17.6256C11.5997 17.4927 11.544 17.333 11.4112 17.269Z" fill="#494949"/>
</svg>
