<svg width="26" height="25" viewBox="0 0 26 25" fill="none" xmlns="http://www.w3.org/2000/svg">
<g clip-path="url(#clip0)">
<path d="M23.0315 4.30578L15.3994 0.172968C14.6754 -0.219197 13.6799 0.0824681 13.2877 0.806465L8.82306 9.10227H3.39308C2.69925 9.10227 2.15625 9.64526 2.15625 10.3391V12.5111V23.7632C2.15625 24.457 2.69925 25 3.39308 25H20.7388C21.4327 25 21.9757 24.457 21.9757 23.7632V20.6259H22.4885C22.76 20.6259 22.9712 20.4147 22.9712 20.1432V16.5534C22.9712 16.2819 22.76 16.0707 22.4885 16.0707H21.9757V12.5413C21.9757 11.9681 21.5533 11.4553 21.0103 11.3346L23.665 6.41744C24.0572 5.66328 23.7857 4.72812 23.0315 4.30578ZM17.6015 2.46563L12.8352 11.3044H11.4777L16.5759 1.92263L17.6015 2.46563ZM14.1625 1.25896C14.3134 0.987465 14.6754 0.866798 14.9469 1.01763L15.701 1.43996L10.3917 11.3044H8.73256L14.1625 1.25896ZM3.09141 10.3089C3.09141 10.2184 3.21208 10.0676 3.36291 10.0676H8.28006L7.6164 11.2743H3.36291C3.27241 11.2743 3.18191 11.2743 3.09141 11.3044V10.3089ZM20.9802 23.7632C20.9802 23.914 20.8595 24.0347 20.7087 24.0347H3.36291C3.21208 24.0347 3.09141 23.914 3.09141 23.7632V12.5413C3.09141 12.3904 3.21208 12.2698 3.36291 12.2698H7.91806H9.84872H13.3782H20.1657H20.6785C20.8293 12.2698 20.95 12.3904 20.95 12.5413V16.0707H19.1099C18.2954 16.0707 17.6619 16.7344 17.6619 17.5187V19.1779C17.6619 19.9924 18.3255 20.6259 19.1099 20.6259H20.9802V23.7632ZM21.9455 17.0361H21.9757V19.6606H21.9455H19.1099C18.8384 19.6606 18.6272 19.4494 18.6272 19.1779V17.5187C18.6272 17.2472 18.8384 17.0361 19.1099 17.0361H21.9455ZM22.7902 5.93478L19.8942 11.3044H13.9212L18.4462 2.94829L22.5488 5.18061C22.8505 5.30128 22.941 5.66328 22.7902 5.93478Z" fill="#3D4246"/>
<path d="M20.9499 5.48228L20.7086 5.36161C20.1052 5.02978 19.2907 5.27111 18.9589 5.87444L18.6572 6.4476C18.5064 6.74927 18.4461 7.11127 18.5667 7.4431C18.6572 7.77493 18.8986 8.04643 19.2002 8.19726L19.4416 8.31793C19.6226 8.40843 19.8337 8.46876 20.0449 8.46876C20.5276 8.46876 20.9499 8.19726 21.1912 7.8051L21.4929 7.23193C21.7946 6.59844 21.5532 5.81411 20.9499 5.48228ZM20.6181 6.77944L20.3164 7.3526C20.2259 7.50343 20.0147 7.56376 19.8639 7.47327L19.6226 7.32243C19.5622 7.29227 19.5019 7.20177 19.4717 7.14143C19.4416 7.05093 19.4416 6.96043 19.5019 6.9001L19.8036 6.32694C19.8639 6.23644 19.9846 6.14594 20.1052 6.14594C20.1656 6.14594 20.1957 6.14594 20.2561 6.17611L20.4974 6.29677C20.6181 6.41744 20.6784 6.59844 20.6181 6.77944Z" fill="#3D4246"/>
</g>
<defs>
<clipPath id="clip0">
<rect width="25" height="25" fill="white" transform="translate(0.5)"/>
</clipPath>
</defs>
</svg>
