<svg width="56" height="55" viewBox="0 0 56 55" fill="none" xmlns="http://www.w3.org/2000/svg">
<path d="M1.13272 2.49997H9.55673C9.80959 2.49977 10.0552 2.59294 10.2546 2.76465C10.4539 2.93635 10.5954 3.17672 10.6566 3.44746L20.1001 45.2283C19.2961 45.4929 18.5746 45.9992 18.0165 46.6904C17.4583 47.3817 17.0855 48.2306 16.9396 49.1424C16.7937 50.0541 16.8805 50.9927 17.1904 51.8531C17.5003 52.7135 18.021 53.4618 18.6943 54.0142C19.3675 54.5667 20.1668 54.9016 21.0026 54.9814C21.8385 55.0612 22.678 54.8829 23.4273 54.4662C24.1765 54.0496 24.806 53.4112 25.2452 52.6223C25.6844 51.8335 25.9161 50.9253 25.9143 49.9995C25.9096 49.1312 25.6975 48.2796 25.2992 47.5308L44.8035 47.4995C44.3964 48.2563 44.1797 49.1194 44.1759 49.9995C44.1759 50.9884 44.4417 51.9551 44.9395 52.7773C45.4374 53.5995 46.145 54.2404 46.9729 54.6188C47.8008 54.9973 48.7118 55.0963 49.5907 54.9034C50.4696 54.7104 51.277 54.2342 51.9106 53.535C52.5443 52.8357 52.9758 51.9448 53.1506 50.9749C53.3254 50.005 53.2357 48.9997 52.8928 48.0861C52.5499 47.1725 51.9691 46.3916 51.224 45.8422C50.4789 45.2928 49.6029 44.9995 48.7068 44.9995L22.3927 45.0345L21.26 39.9996H46.9375C47.6954 39.9998 48.4316 39.7204 49.0291 39.2058C49.6265 38.6912 50.0509 37.971 50.2348 37.1596L55.8984 12.1599C56.0238 11.6069 56.0332 11.0297 55.9261 10.4721C55.819 9.91454 55.5981 9.39123 55.2802 8.94198C54.9623 8.49273 54.5558 8.12936 54.0916 7.87948C53.6273 7.6296 53.1176 7.49979 52.6011 7.49992H13.9064L12.8541 2.84247C12.6706 2.03065 12.2463 1.30986 11.6488 0.794793C11.0514 0.279721 10.3149 -4.77551e-05 9.55673 6.11422e-09H1.13272C0.832301 6.11422e-09 0.54419 0.131695 0.331765 0.366113C0.119339 0.600531 0 0.91847 0 1.24999C0 1.5815 0.119339 1.89944 0.331765 2.13386C0.54419 2.36828 0.832301 2.49997 1.13272 2.49997ZM23.6489 49.9995C23.6488 50.4919 23.5169 50.9733 23.2698 51.3833C23.0228 51.7934 22.6715 52.1137 22.26 52.3043C21.8486 52.4948 21.3953 52.547 20.9571 52.4543C20.5188 52.3616 20.1151 52.1282 19.7967 51.7833C19.4782 51.4384 19.2591 50.9974 19.1669 50.5157C19.0747 50.0339 19.1134 49.5328 19.2783 49.0752C19.4432 48.6177 19.7269 48.224 20.0937 47.9437C20.4606 47.6634 20.8943 47.5089 21.3404 47.4995C21.3951 47.5144 21.4508 47.5248 21.5069 47.5308H21.704C22.2428 47.6157 22.736 47.912 23.0931 48.3654C23.4502 48.8187 23.6475 49.3988 23.6489 49.9995ZM50.9722 49.9995C50.9722 50.4939 50.8394 50.9773 50.5905 51.3884C50.3415 51.7995 49.9877 52.1199 49.5738 52.3092C49.1598 52.4984 48.7043 52.5479 48.2648 52.4514C47.8254 52.3549 47.4217 52.1169 47.1049 51.7672C46.7881 51.4176 46.5723 50.9721 46.4849 50.4872C46.3975 50.0023 46.4424 49.4996 46.6138 49.0428C46.7853 48.586 47.0757 48.1955 47.4482 47.9208C47.8208 47.6461 48.2588 47.4995 48.7068 47.4995C49.3076 47.4995 49.8839 47.7629 50.3087 48.2317C50.7336 48.7006 50.9722 49.3364 50.9722 49.9995ZM52.6011 9.9999C52.7732 9.99976 52.9432 10.0429 53.0979 10.1261C53.2527 10.2093 53.3882 10.3303 53.4943 10.48C53.6003 10.6297 53.674 10.804 53.7098 10.9898C53.7457 11.1757 53.7426 11.368 53.701 11.5524L48.0374 36.5521C47.9762 36.8229 47.8347 37.0632 47.6353 37.2349C47.436 37.4066 47.1904 37.4998 46.9375 37.4996H20.6879L14.4716 9.9999H52.6011ZM22.3791 15.0373C22.6705 14.9568 22.9789 15.0073 23.2366 15.1777C23.4943 15.3481 23.6801 15.6245 23.7531 15.9461L27.1512 30.9459C27.2242 31.2675 27.1785 31.6079 27.024 31.8922C26.8696 32.1766 26.6191 32.3816 26.3277 32.4622C26.2378 32.4874 26.1453 32.5 26.0525 32.4997C25.8002 32.4994 25.5551 32.4061 25.3563 32.2347C25.1575 32.0633 25.0162 31.8235 24.9549 31.5534L21.5567 16.5536C21.4837 16.2322 21.5293 15.8919 21.6835 15.6076C21.8377 15.3233 22.0879 15.1182 22.3791 15.0373ZM40.8118 30.9459L44.2099 15.9461C44.2847 15.6266 44.4708 15.3527 44.7279 15.184C44.9849 15.0154 45.2919 14.9658 45.582 15.046C45.872 15.1262 46.1216 15.3296 46.2762 15.6121C46.4308 15.8945 46.478 16.2329 46.4074 16.5536L43.0092 31.5534C42.9479 31.8237 42.8064 32.0637 42.6074 32.2351C42.4083 32.4065 42.163 32.4997 41.9105 32.4997C41.8173 32.5001 41.7245 32.4875 41.6341 32.4622C41.3429 32.3813 41.0928 32.1762 40.9385 31.8919C40.7843 31.6076 40.7387 31.2673 40.8118 30.9459ZM32.8488 31.2497V16.2498C32.8488 15.9183 32.9681 15.6004 33.1805 15.366C33.393 15.1315 33.6811 14.9998 33.9815 14.9998C34.2819 14.9998 34.57 15.1315 34.7824 15.366C34.9949 15.6004 35.1142 15.9183 35.1142 16.2498V31.2497C35.1142 31.5812 34.9949 31.8991 34.7824 32.1335C34.57 32.368 34.2819 32.4997 33.9815 32.4997C33.6811 32.4997 33.393 32.368 33.1805 32.1335C32.9681 31.8991 32.8488 31.5812 32.8488 31.2497Z" fill="#5A5A5A"/>
</svg>
