<svg width="51" height="55" viewBox="0 0 51 55" fill="none" xmlns="http://www.w3.org/2000/svg">
<path d="M46.5566 0H3.58128C2.63147 0 1.72055 0.413902 1.04893 1.15065C0.377312 1.8874 0 2.88665 0 3.92857V51.0714C0 52.1133 0.377312 53.1126 1.04893 53.8493C1.72055 54.5861 2.63147 55 3.58128 55H46.5566C47.5065 55 48.4174 54.5861 49.089 53.8493C49.7606 53.1126 50.1379 52.1133 50.1379 51.0714V3.92857C50.1379 2.88665 49.7606 1.8874 49.089 1.15065C48.4174 0.413902 47.5065 0 46.5566 0ZM3.58128 2.61905H46.5566C46.8732 2.61905 47.1769 2.75701 47.4008 3.0026C47.6246 3.24818 47.7504 3.58126 47.7504 3.92857V10.4487H2.38752V3.92857C2.38752 3.58126 2.51329 3.24818 2.73716 3.0026C2.96104 2.75701 3.26468 2.61905 3.58128 2.61905ZM46.5566 52.381H3.58128C3.26468 52.381 2.96104 52.243 2.73716 51.9974C2.51329 51.7518 2.38752 51.4187 2.38752 51.0714V13.0677H47.7504V51.0714C47.7504 51.4187 47.6246 51.7518 47.4008 51.9974C47.1769 52.243 46.8732 52.381 46.5566 52.381Z" fill="#5A5A5A"/>
<path d="M5.96719 7.85722C6.62648 7.85722 7.16094 7.27092 7.16094 6.54769C7.16094 5.82446 6.62648 5.23816 5.96719 5.23816C5.3079 5.23816 4.77344 5.82446 4.77344 6.54769C4.77344 7.27092 5.3079 7.85722 5.96719 7.85722Z" fill="#5A5A5A"/>
<path d="M11.9359 7.85722C12.5952 7.85722 13.1297 7.27092 13.1297 6.54769C13.1297 5.82446 12.5952 5.23816 11.9359 5.23816C11.2767 5.23816 10.7422 5.82446 10.7422 6.54769C10.7422 7.27092 11.2767 7.85722 11.9359 7.85722Z" fill="#5A5A5A"/>
<path d="M17.9086 7.85722C18.5679 7.85722 19.1024 7.27092 19.1024 6.54769C19.1024 5.82446 18.5679 5.23816 17.9086 5.23816C17.2493 5.23816 16.7148 5.82446 16.7148 6.54769C16.7148 7.27092 17.2493 7.85722 17.9086 7.85722Z" fill="#5A5A5A"/>
<path d="M36.0525 27.0406C35.9499 26.0852 35.5313 25.2043 34.8761 24.5649C34.2208 23.9255 33.3745 23.5721 32.4975 23.5717H31.0387C31.0387 21.8351 30.4099 20.1697 29.2905 18.9418C28.1711 17.7139 26.653 17.024 25.0699 17.024C23.4869 17.024 21.9687 17.7139 20.8493 18.9418C19.73 20.1697 19.1011 21.8351 19.1011 23.5717H17.5409C16.6602 23.5718 15.8104 23.9279 15.1539 24.5719C14.4974 25.216 14.0803 26.1028 13.9823 27.0629L12.243 44.0867C12.1869 44.636 12.2371 45.1922 12.3903 45.7188C12.5436 46.2453 12.7964 46.7305 13.1322 47.1426C13.4681 47.5547 13.8795 47.8844 14.3395 48.1101C14.7994 48.3359 15.2977 48.4526 15.8016 48.4526H34.3228C34.8284 48.4526 35.3283 48.335 35.7895 48.1078C36.2508 47.8806 36.6629 47.5488 36.9989 47.1342C37.3348 46.7197 37.5869 46.2318 37.7386 45.7027C37.8903 45.1736 37.9382 44.6153 37.879 44.0644L36.0525 27.0406ZM25.0699 19.6431C26.0197 19.6431 26.9307 20.057 27.6023 20.7937C28.2739 21.5305 28.6512 22.5297 28.6512 23.5717H21.4886C21.4886 22.5297 21.866 21.5305 22.5376 20.7937C23.2092 20.057 24.1201 19.6431 25.0699 19.6431ZM34.3228 45.8336H15.8016C15.6337 45.8334 15.4678 45.7945 15.3146 45.7192C15.1614 45.6439 15.0244 45.534 14.9125 45.3967C14.8006 45.2594 14.7164 45.0978 14.6654 44.9224C14.6143 44.747 14.5975 44.5617 14.6162 44.3787L16.3555 27.3549C16.3881 27.0349 16.5269 26.7393 16.7456 26.5246C16.9643 26.3098 17.2474 26.191 17.5409 26.1907H19.1011V28.8098C19.1011 29.1571 19.2269 29.4902 19.4508 29.7357C19.6746 29.9813 19.9783 30.1193 20.2949 30.1193C20.6115 30.1193 20.9151 29.9813 21.139 29.7357C21.3629 29.4902 21.4886 29.1571 21.4886 28.8098V26.1907H28.6512V28.8098C28.6512 29.1571 28.777 29.4902 29.0009 29.7357C29.2247 29.9813 29.5284 30.1193 29.845 30.1193C30.1616 30.1193 30.4652 29.9813 30.6891 29.7357C30.913 29.4902 31.0387 29.1571 31.0387 28.8098V26.1907H32.4975C32.7901 26.1908 33.0725 26.3087 33.291 26.5221C33.5095 26.7356 33.649 27.0296 33.6829 27.3483L35.5082 44.3722C35.5277 44.5557 35.5116 44.7416 35.461 44.9179C35.4103 45.0941 35.3263 45.2565 35.2143 45.3946C35.1024 45.5326 34.965 45.6431 34.8114 45.7187C34.6577 45.7944 34.4912 45.8335 34.3228 45.8336Z" fill="#5A5A5A"/>
</svg>
