<svg width="62" height="46" viewBox="0 0 62 46" fill="none" xmlns="http://www.w3.org/2000/svg">
<path d="M61.9655 45.1415C61.6066 45.7882 61.0618 46 60.3197 46C40.757 45.9849 21.1943 45.9806 1.6316 45.9871C1.45046 45.9946 1.26903 45.9908 1.08837 45.9757C0.788954 45.9443 0.51215 45.802 0.312491 45.5766C0.112832 45.3513 0.0047943 45.0594 0.00966253 44.7584C0.0145308 44.4573 0.131952 44.1691 0.338793 43.9503C0.545634 43.7315 0.826897 43.5982 1.12717 43.5765C1.30663 43.5587 1.48933 43.5684 1.6704 43.5684H9.10746C7.94207 42.2221 7.28835 40.5083 7.26113 38.7278H4.01308C3.68892 38.7412 3.36423 38.725 3.04302 38.6793C2.18965 38.5371 1.41491 38.0954 0.857859 37.4334C0.300805 36.7715 -0.00209173 35.9327 0.00353089 35.0675C0.00353089 34.9867 0.00353089 34.9058 0.00353089 34.825C0.00353089 24.5198 0.00353089 14.2141 0.00353089 3.90787C-0.0220179 3.3018 0.0913489 2.69791 0.334965 2.14238C0.981666 0.805322 2.05196 0.103652 3.52643 0.00502989C3.70589 -0.00628737 3.88859 0.00502989 4.06966 0.00502989H37.8274C38.3517 -0.0173436 38.876 0.0465605 39.3795 0.19419C40.1139 0.43449 40.752 0.903669 41.2003 1.53298C41.6487 2.16229 41.8837 2.91864 41.8709 3.69122C41.8839 6.25216 41.8709 8.81471 41.8709 11.3756V12.0223C42.1086 12.184 42.3366 12.1113 42.55 12.1113C45.5749 12.1113 48.5999 12.1355 51.6248 12.1113C53.3871 12.0935 54.6142 12.8437 55.3951 14.42C57.3804 18.4247 59.3917 22.4181 61.3916 26.4163C61.5872 26.8108 61.7715 27.2117 61.9607 27.6094V35.7175C61.7748 36.0731 61.7214 36.4773 61.5226 36.833C61.0819 37.6151 60.3837 38.2202 59.5469 38.5452C59.5677 40.3956 58.9064 42.189 57.6892 43.583C58.6415 43.583 59.4806 43.6218 60.3165 43.5716C61.0634 43.528 61.6099 43.777 61.9607 44.4301L61.9655 45.1415ZM39.4555 36.2801V4.03398C39.4555 3.8917 39.4555 3.75104 39.4555 3.61039C39.4475 3.29385 39.3163 2.99292 39.0899 2.7716C38.8634 2.55029 38.5596 2.42605 38.2429 2.42531C38.0635 2.41399 37.8808 2.42531 37.6997 2.42531H4.18445C3.98236 2.42531 3.78026 2.42531 3.57979 2.42531C3.29453 2.43657 3.02318 2.55154 2.81668 2.74866C2.47554 3.06069 2.42057 3.46811 2.42057 3.90787C2.42057 11.3061 2.42057 18.7055 2.42057 26.1059C2.42057 26.2675 2.37369 26.4292 2.48686 26.5909C2.67851 26.6359 2.87643 26.648 3.07213 26.6265C4.00014 26.6265 4.92816 26.6265 5.85456 26.6265C6.78095 26.6265 7.25305 27.0856 7.2579 28.0476C7.26436 29.5188 7.26436 30.9906 7.2579 32.4629C7.2579 33.4217 6.80197 33.8776 5.85294 33.8841C4.8651 33.8841 3.87727 33.8841 2.88943 33.8841C2.73746 33.8841 2.56608 33.8242 2.41896 34.0005C2.41896 34.2785 2.41896 34.5793 2.41896 34.8816C2.43028 35.8387 2.87488 36.293 3.82715 36.2995C4.97504 36.3076 6.12455 36.2995 7.27406 36.2995C7.4131 36.2995 7.55861 36.327 7.66208 36.2478C8.9377 33.3279 11.0977 31.5802 14.2908 31.4929C17.7134 31.3975 20.0124 33.1824 21.3932 36.2752L39.4555 36.2801ZM41.8806 36.2558H45.4181C46.7018 33.315 48.8941 31.5673 52.1454 31.4929C55.3967 31.4185 57.6423 33.1096 59.0538 36.0036C59.4935 35.7061 59.5388 35.3003 59.5388 34.8719C59.5388 33.0789 59.5388 31.2843 59.5388 29.4897C59.5388 29.3555 59.5841 29.2068 59.4256 29.05H58.8113C54.4557 29.05 50.1007 29.05 45.7463 29.05C44.7973 29.05 44.2993 28.6118 44.2912 27.7404C44.2815 24.5748 44.2912 21.4092 44.2912 18.2452C44.2802 17.9402 44.3788 17.6414 44.5693 17.4029C44.8619 17.0456 45.2532 16.9454 45.701 16.947C48.2016 16.9534 50.7016 16.9534 53.2011 16.947C53.4299 16.9739 53.6618 16.9586 53.885 16.9017C53.7039 16.3633 53.4 15.8912 53.1656 15.3836C52.8956 14.7773 52.4429 14.5202 51.78 14.5235C48.6354 14.5364 45.4892 14.5235 42.3446 14.5315C42.1927 14.5315 42.0213 14.4717 41.8839 14.635L41.8806 36.2558ZM19.9704 43.5442H46.8602C45.6976 42.2196 45.0397 40.5271 45.0026 38.765H21.7957C21.7612 40.5218 21.1158 42.2116 19.9704 43.5442ZM46.7454 26.5812H58.7725L55.1752 19.3931H46.7454V26.5812ZM9.68626 38.6971C9.68054 39.6535 9.95838 40.5902 10.4847 41.3888C11.011 42.1874 11.7621 42.8121 12.6432 43.184C13.5244 43.556 14.496 43.6585 15.4353 43.4786C16.3747 43.2987 17.2396 42.8445 17.921 42.1733C18.6023 41.5021 19.0695 40.644 19.2635 39.7075C19.4575 38.7709 19.3696 37.7979 19.0109 36.9113C18.6522 36.0247 18.0388 35.2642 17.2482 34.726C16.4576 34.1878 15.5252 33.8959 14.5688 33.8873C13.2839 33.8787 12.048 34.3804 11.1325 35.2821C10.2171 36.1839 9.69694 37.4122 9.68626 38.6971ZM47.4439 38.7052C47.4397 39.6617 47.7192 40.598 48.2469 41.3957C48.7746 42.1935 49.5268 42.817 50.4087 43.1874C51.2905 43.5578 52.2624 43.6586 53.2015 43.477C54.1406 43.2954 55.0048 42.8396 55.685 42.1671C56.3651 41.4946 56.8307 40.6356 57.023 39.6987C57.2152 38.7617 57.1254 37.7887 56.765 36.9028C56.4046 36.0168 55.7897 35.2575 54.998 34.7207C54.2063 34.184 53.2732 33.894 52.3168 33.8873C51.0321 33.8813 49.7975 34.3852 48.8839 35.2884C47.9703 36.1917 47.4524 37.4205 47.4439 38.7052ZM2.45938 29.0564V31.4234H4.7972V29.0564H2.45938Z" fill="#5A5A5A"/>
<path d="M25.7731 9.68129H18.5834C18.4023 9.68777 18.221 9.68453 18.0402 9.67159C17.7408 9.64325 17.4628 9.5039 17.2609 9.28094C17.059 9.05799 16.9478 8.76756 16.9492 8.46679C16.9507 8.16601 17.0646 7.87665 17.2685 7.65561C17.4725 7.43457 17.7518 7.29785 18.0515 7.27233C18.2129 7.26011 18.3748 7.25687 18.5366 7.26263H33.0372C33.2179 7.25478 33.399 7.26072 33.5788 7.28041C33.8656 7.32279 34.1275 7.4672 34.3164 7.68713C34.5054 7.90706 34.6086 8.18775 34.6072 8.47768C34.6059 8.7676 34.4999 9.0473 34.309 9.26543C34.118 9.48356 33.8547 9.62547 33.5675 9.66512C33.3876 9.68348 33.2066 9.68888 33.0259 9.68129H25.7731Z" fill="#5A5A5A"/>
<path d="M28.1939 12.1018H32.9051C33.0069 12.1018 33.1072 12.1018 33.2074 12.1018C34.1629 12.0355 34.6302 12.7808 34.6124 13.337C34.5946 13.9627 34.0546 14.5398 33.2204 14.5318C30.3409 14.5075 27.4631 14.5237 24.5837 14.5221C24.0809 14.5221 23.578 14.5334 23.0752 14.5221C22.3057 14.501 21.7818 13.9869 21.7931 13.2901C21.8061 12.6191 22.3218 12.1147 23.0623 12.1099C24.7728 12.0953 26.485 12.1099 28.1955 12.1099L28.1939 12.1018Z" fill="#5A5A5A"/>
<path d="M13.2944 9.67812C13.0572 9.67398 12.8265 9.59999 12.6312 9.46539C12.4358 9.3308 12.2845 9.14159 12.1962 8.92143C12.1078 8.70127 12.0863 8.45995 12.1344 8.22765C12.1825 7.99535 12.2981 7.7824 12.4666 7.61543C12.6351 7.44847 12.8491 7.3349 13.0819 7.28895C13.3146 7.24301 13.5557 7.26671 13.775 7.3571C13.9944 7.44749 14.1822 7.60056 14.315 7.79714C14.4477 7.99373 14.5196 8.22511 14.5215 8.46233C14.5213 8.62288 14.4894 8.78181 14.4275 8.92997C14.3656 9.07812 14.275 9.21257 14.161 9.32557C14.0469 9.43857 13.9116 9.5279 13.7629 9.5884C13.6142 9.64891 13.455 9.6794 13.2944 9.67812Z" fill="#5A5A5A"/>
<path d="M14.4976 41.1448C14.0175 41.1406 13.5494 40.994 13.1526 40.7235C12.7559 40.4529 12.4484 40.0707 12.2691 39.6253C12.0898 39.1798 12.0468 38.6912 12.1456 38.2212C12.2443 37.7513 12.4803 37.3213 12.8237 36.9856C13.167 36.6499 13.6023 36.4238 14.0744 36.3358C14.5464 36.2478 15.034 36.3018 15.4752 36.4912C15.9165 36.6806 16.2916 36.9967 16.5531 37.3994C16.8145 37.8022 16.9505 38.2735 16.9438 38.7537C16.9348 39.3946 16.6725 40.0059 16.2141 40.454C15.7557 40.9021 15.1386 41.1505 14.4976 41.1448Z" fill="#5A5A5A"/>
<path d="M52.3047 41.1449C51.8246 41.1516 51.3532 41.0157 50.9505 40.7542C50.5477 40.4928 50.2316 40.1177 50.0422 39.6764C49.8529 39.2351 49.7988 38.7476 49.8868 38.2755C49.9748 37.8035 50.201 37.3682 50.5366 37.0248C50.8723 36.6814 51.3023 36.4454 51.7723 36.3467C52.2422 36.248 52.7308 36.291 53.1763 36.4703C53.6218 36.6496 54.004 36.9571 54.2745 37.3538C54.545 37.7505 54.6917 38.2186 54.6959 38.6988C54.7015 39.3398 54.4531 39.9569 54.005 40.4153C53.557 40.8737 52.9456 41.136 52.3047 41.1449Z" fill="#5A5A5A"/>
</svg>
