<svg width="39" height="55" viewBox="0 0 39 55" fill="none" xmlns="http://www.w3.org/2000/svg">
<path d="M33.6927 22.2112L26.0717 13.8446V3.3C26.0717 2.42479 25.7548 1.58542 25.1906 0.966548C24.6264 0.347678 23.8613 0 23.0634 0H3.00827C2.21043 0 1.44526 0.347678 0.881103 0.966548C0.316942 1.58542 0 2.42479 0 3.3V35.2C0 36.0752 0.316942 36.9146 0.881103 37.5335C1.44526 38.1523 2.21043 38.5 3.00827 38.5H8.02206V47.3C8.02418 49.3415 8.7644 51.2986 10.0803 52.7422C11.3962 54.1857 13.1804 54.9977 15.0414 55H35.0965C35.8944 55 36.6595 54.6523 37.2237 54.0335C37.7878 53.4146 38.1048 52.5752 38.1048 51.7V33.88C38.1096 31.7115 37.7221 29.5636 36.9647 27.5606C36.2074 25.5575 35.0952 23.7393 33.6927 22.2112ZM24.0662 3.3V24.1439L21.0579 20.8527V2.2H23.0634C23.3294 2.2 23.5844 2.31589 23.7725 2.52218C23.9605 2.72847 24.0662 3.00826 24.0662 3.3ZM16.004 18.8254V2.2H19.0524V19.1884C18.0999 18.7044 17.029 18.5769 16.004 18.8254ZM16.004 36.3V30.734L19.0524 34.0736V36.3H16.004ZM2.00552 35.2V3.3C2.00552 3.00826 2.11116 2.72847 2.29922 2.52218C2.48727 2.31589 2.74233 2.2 3.00827 2.2H13.9985V19.8352L13.9885 19.844C13.7692 20.0122 13.5713 20.2116 13.3999 20.4369C12.9191 20.9942 12.5506 21.6563 12.3185 22.3802C12.0863 23.104 11.9957 23.8733 12.0524 24.6381C12.1092 25.4029 12.3121 26.146 12.6479 26.8192C12.9837 27.4923 13.4449 28.0803 14.0015 28.545V36.3H3.00827C2.74233 36.3 2.48727 36.1841 2.29922 35.9778C2.11116 35.7715 2.00552 35.4917 2.00552 35.2ZM36.0993 51.7C36.0993 51.9917 35.9936 52.2715 35.8056 52.4778C35.6175 52.6841 35.3625 52.8 35.0965 52.8H15.0414C13.7121 52.7983 12.4378 52.2182 11.4978 51.1872C10.5579 50.1561 10.0292 48.7582 10.0276 47.3V38.5H23.0895L24.7541 40.326C24.6658 42.0486 24.744 47.256 28.6317 49.3845C28.8698 49.5149 29.1453 49.5362 29.3976 49.4438C29.5226 49.3981 29.6381 49.3258 29.7376 49.231C29.8371 49.1363 29.9186 49.021 29.9774 48.8917C30.0363 48.7624 30.0714 48.6217 30.0807 48.4775C30.0899 48.3334 30.0732 48.1886 30.0315 48.0515C29.9898 47.9145 29.9239 47.7877 29.8375 47.6786C29.7512 47.5695 29.6461 47.4801 29.5282 47.4155C26.2101 45.5961 26.7796 40.0983 26.7857 40.0455C26.8048 39.8791 26.7889 39.7102 26.7394 39.5516C26.6899 39.393 26.6079 39.2489 26.4999 39.1303C11.9739 23.1946 16.6267 28.2997 15.4495 27.0083C14.2753 25.6421 12.9927 23.9976 14.906 21.8856C15.436 21.3033 16.1447 20.9583 16.8939 20.9176C17.6431 20.877 18.3793 21.1436 18.9591 21.6656L29.1973 32.8856C29.3864 33.086 29.6397 33.1968 29.9026 33.1943C30.1656 33.1918 30.4171 33.0761 30.603 32.8722C30.7889 32.6683 30.8944 32.3924 30.8966 32.1039C30.8989 31.8155 30.7979 31.5377 30.6152 31.3302L26.0717 26.3406V16.9565L32.2798 23.7666C33.4944 25.0915 34.4574 26.6676 35.113 28.4036C35.7687 30.1396 36.1039 32.001 36.0993 33.88V51.7Z" fill="#5A5A5A"/>
<path d="M10.027 12.0999V5.4999C10.027 5.20816 9.9214 4.92837 9.73334 4.72208C9.54528 4.51579 9.29022 4.3999 9.02426 4.3999C8.75831 4.3999 8.50325 4.51579 8.31519 4.72208C8.12713 4.92837 8.02148 5.20816 8.02148 5.4999V12.0999C8.02148 12.3916 8.12713 12.6714 8.31519 12.8777C8.50325 13.084 8.75831 13.1999 9.02426 13.1999C9.29022 13.1999 9.54528 13.084 9.73334 12.8777C9.9214 12.6714 10.027 12.3916 10.027 12.0999Z" fill="#5A5A5A"/>
<path d="M5.01251 4.3999C4.74656 4.3999 4.49151 4.5158 4.30346 4.72209C4.11541 4.92838 4.00977 5.20817 4.00977 5.4999V18.6999C4.00977 18.9917 4.11541 19.2714 4.30346 19.4777C4.49151 19.684 4.74656 19.7999 5.01251 19.7999C5.27845 19.7999 5.5335 19.684 5.72155 19.4777C5.9096 19.2714 6.01524 18.9917 6.01524 18.6999V5.4999C6.01524 5.20817 5.9096 4.92838 5.72155 4.72209C5.5335 4.5158 5.27845 4.3999 5.01251 4.3999Z" fill="#5A5A5A"/>
</svg>
