<svg width="52" height="57" viewBox="0 0 52 57" fill="none" xmlns="http://www.w3.org/2000/svg">
<path d="M0.0103499 28.441C0.0103499 19.9791 0.0103499 11.5167 0.0103499 3.0538C-0.0114093 2.47898 0.125725 1.90916 0.407058 1.40538C0.919406 0.535207 1.70319 0.0914026 2.707 0.00422671C2.80658 -0.00528339 2.90616 0.00422671 3.00734 0.00422671C18.3532 0.00422671 33.7006 0.00422671 49.0496 0.00422671C49.4611 -0.0093395 49.8707 0.0649235 50.2505 0.221942C50.6302 0.37896 50.9711 0.615032 51.2499 0.914026C51.7216 1.40289 51.9894 2.04916 52 2.72411C52 2.88262 52 3.04112 52 3.19962C52 20.0663 52 36.9325 52 53.7981C52 54.421 51.9438 55.0154 51.621 55.5686C51.0974 56.4641 50.304 56.9158 49.276 56.9951C49.1154 57.0062 48.9548 56.9951 48.7942 56.9951C33.5897 56.9951 18.3821 56.9951 3.17117 56.9951C2.55763 56.9951 1.97783 56.919 1.44139 56.6115C0.535547 56.0932 0.0778069 55.307 0.00713825 54.2894C-0.00892281 54.0533 0.00713825 53.8139 0.00713825 53.5778L0.0103499 28.441ZM1.98907 7.67729V8.36836C1.98907 23.4324 1.98907 38.4958 1.98907 53.5588C1.98907 54.6683 2.35205 55.0629 3.52451 55.0614C18.5277 55.0476 33.5308 55.0444 48.534 55.0518C48.7292 55.0596 48.9247 55.0522 49.1186 55.0297C49.3411 55.0099 49.5496 54.9146 49.7087 54.7599C49.8678 54.6052 49.9675 54.4008 49.9908 54.1817C50.014 54.0243 50.0226 53.8651 50.0165 53.7062C50.0165 38.5238 50.0165 23.3415 50.0165 8.15914C50.0165 8.00063 50.0582 7.84213 49.9345 7.67571L1.98907 7.67729ZM50.0116 5.67383C50.0116 4.72282 50.0373 3.83838 50.0036 2.95236C49.9795 2.35005 49.6181 2.02512 49.011 1.96172C48.8328 1.94429 48.6497 1.96172 48.4698 1.96172H3.53736C3.4169 1.96172 3.29644 1.96172 3.17598 1.96172C2.37293 1.98867 2.00835 2.34371 1.99229 3.13463C1.97944 3.84631 1.99229 4.56115 1.99229 5.26965C1.99229 5.40279 1.95213 5.54861 2.09508 5.68017L50.0116 5.67383Z" fill="#5A5A5A"/>
<path d="M25.9977 9.49202C30.2105 9.38899 33.7696 12.9791 33.752 17.1793C33.7343 21.2053 30.2057 24.7874 25.9206 24.7589C21.8572 24.7367 18.2113 21.1879 18.2563 17.07C18.3012 12.9521 21.8411 9.38107 25.9977 9.49202ZM30.7791 20.1116C32.3932 17.7341 31.8086 14.5546 29.7335 12.8206C28.6457 11.894 27.2436 11.4067 25.8075 11.4561C24.3714 11.5055 23.0071 12.0879 21.9873 13.0868C19.9989 15.0095 19.7869 18.1589 21.1938 20.0038C21.8491 18.4933 21.8491 18.4933 23.187 17.0446C23.0264 16.4328 23.089 15.8004 23.0971 15.1727C23.1147 13.976 23.6672 13.0963 24.7738 12.5844C26.5936 11.7427 28.8999 12.9347 28.9144 15.1474C28.9144 15.7956 28.9722 16.4455 28.8132 17.0969C29.7833 17.8831 30.5012 18.8072 30.7791 20.118V20.1116ZM23.1581 21.9185C24.6678 23.0281 27.4271 22.9868 28.8244 21.9312C29.0332 20.4508 28.4213 19.0322 27.4159 18.6915C26.9764 18.9116 26.4921 19.0308 25.9993 19.0402C25.4629 19.0481 24.9907 18.8563 24.5169 18.6819C23.24 19.4665 23.0987 20.6616 23.1581 21.9249V21.9185ZM26.0202 17.0636C26.7349 16.8275 26.9148 16.5881 26.9373 15.9034C26.9373 15.7655 26.9373 15.626 26.9373 15.4881C26.918 14.7384 26.706 14.4832 25.9592 14.3089C25.2733 14.5355 25.0935 14.7685 25.071 15.4596C25.071 15.598 25.071 15.7359 25.071 15.8733C25.0903 16.6087 25.2766 16.8465 26.0202 17.07V17.0636Z" fill="#5A5A5A"/>
<path d="M35.8628 43.9695C36.3446 44.4371 36.7863 44.8761 37.2681 45.3516L35.609 46.8415C35.6186 47.1411 35.654 47.3614 35.6524 47.577C35.6524 49.078 35.6524 50.579 35.6524 52.08C35.6524 52.8725 35.3312 53.2022 34.5281 53.2054C32.6854 53.2054 30.8437 53.2054 29.0031 53.2054C28.2322 53.2054 27.9029 52.8789 27.9013 52.1244C27.8949 50.2868 27.8949 48.4493 27.9013 46.6117C27.9013 45.9048 28.2514 45.5656 28.9726 45.5608C30.4936 45.5608 32.0145 45.5608 33.5371 45.5608H34.2181L35.8628 43.9695ZM32.4369 50.1162L31.0477 48.7293L32.2458 47.5136C31.401 47.5358 30.6574 47.485 29.9121 47.5469V51.2209H33.6479V48.9512L32.4369 50.1162Z" fill="#5A5A5A"/>
<path d="M14.1408 45.3407L12.5347 46.8369C12.5347 47.1333 12.5716 47.3536 12.5716 47.5676C12.5716 49.0686 12.5716 50.5712 12.5716 52.0722C12.5716 52.879 12.2504 53.2023 11.4618 53.2055C9.62118 53.2055 7.77898 53.2055 5.93677 53.2055C5.71834 53.2055 5.49188 53.2277 5.29433 53.0882C5.01005 52.879 4.8125 52.6349 4.8125 52.2513C4.82214 50.3351 4.8125 48.4188 4.8125 46.5025C4.8125 45.9144 5.19315 45.5673 5.8115 45.5642C7.33248 45.5531 8.85346 45.5642 10.3761 45.5642H11.1261L12.7531 43.9871L14.1408 45.3407ZM8.00223 48.6898L9.1265 47.5549H6.85386C6.74946 48.3474 6.77677 50.8137 6.8908 51.2274H10.5222C10.6266 50.6045 10.6138 49.4696 10.5029 49.0242C10.0966 49.3412 9.79785 49.774 9.34654 50.0783L8.00223 48.6898Z" fill="#5A5A5A"/>
<path d="M11.2375 36.0683C11.7193 35.5437 12.2333 34.9921 12.7906 34.3914C13.3158 34.8669 13.7543 35.3091 14.2361 35.8179L12.569 37.4774V38.1225C12.569 39.6441 12.569 41.1641 12.569 42.6857C12.569 43.3641 12.2188 43.716 11.5411 43.7176C9.63943 43.725 7.7378 43.725 5.83617 43.7176C5.19373 43.7176 4.83075 43.361 4.82754 42.7254C4.8179 40.8487 4.8179 38.9721 4.82754 37.0954C4.82754 36.4233 5.18249 36.081 5.8683 36.0778C7.41016 36.0683 8.95202 36.0778 10.4923 36.0778L11.2375 36.0683ZM6.82714 41.7268H10.5629V39.4967C10.1084 39.8264 9.80647 40.2892 9.40976 40.5491L8.03975 39.1575L9.12708 38.0702H6.83035L6.82714 41.7268Z" fill="#5A5A5A"/>
<path d="M34.3053 36.1015L35.8247 34.4927L37.2493 35.878L35.6432 37.4725V38.1224C35.6432 39.644 35.6432 41.1656 35.6432 42.6872C35.6432 43.3624 35.2915 43.7095 34.6073 43.7111C32.7056 43.7185 30.804 43.7185 28.9024 43.7111C28.2599 43.7111 27.905 43.3497 27.9018 42.7126C27.8921 40.8359 27.8921 38.9593 27.9018 37.0826C27.9018 36.4153 28.2599 36.0745 28.9505 36.0698C30.4715 36.0618 31.9925 36.0698 33.5135 36.0698H34.1816L34.3053 36.1015ZM29.9094 41.7283H33.6436V39.4807C33.1939 39.8215 32.8903 40.2732 32.4904 40.5379L31.1204 39.151L32.2061 38.0701H29.9094V41.7283Z" fill="#5A5A5A"/>
<path d="M24.0995 26.6199C24.8752 26.5439 32.2151 26.5629 32.7323 26.6453C32.7797 27.2354 32.7861 27.828 32.7516 28.4189C32.2906 28.5521 25.2703 28.6028 24.0979 28.4823C24.0293 27.8633 24.0299 27.2388 24.0995 26.6199Z" fill="#5A5A5A"/>
<path d="M32.7514 32.2958H27.0642C26.9116 31.8869 26.8939 31.0579 27.0272 30.4128H32.7385C32.7865 31.0395 32.7908 31.6686 32.7514 32.2958Z" fill="#5A5A5A"/>
<path d="M41.4079 52.1971C41.3292 51.5806 41.379 50.9973 41.3773 50.4251C41.8271 50.2777 46.4526 50.2492 47.1497 50.3855C47.2153 50.9758 47.219 51.5712 47.1609 52.1623C46.6936 52.2764 42.1868 52.3049 41.4079 52.1971Z" fill="#5A5A5A"/>
<path d="M24.0646 40.8658C24.1137 41.4557 24.1255 42.0481 24.1 42.6394C23.6695 42.798 19.1082 42.8297 18.334 42.6933C18.2184 42.1037 18.3083 41.5046 18.2842 40.9229C18.7645 40.7929 23.1459 40.7549 24.0646 40.8658Z" fill="#5A5A5A"/>
<path d="M41.4113 42.7045C41.3629 42.1151 41.3543 41.5231 41.3856 40.9325C41.8337 40.7866 46.4593 40.7581 47.1547 40.8928C47.2203 41.4837 47.2241 42.0796 47.166 42.6712C46.6954 42.7854 42.1887 42.8123 41.4113 42.7045Z" fill="#5A5A5A"/>
<path d="M18.3045 50.3347H24.0656C24.1279 50.9606 24.1338 51.5908 24.0833 52.2177H18.3238C18.2745 51.5912 18.268 50.9621 18.3045 50.3347Z" fill="#5A5A5A"/>
<path d="M19.2878 32.2735C19.2059 31.6569 19.2605 31.0721 19.2541 30.4983C19.6813 30.3398 24.233 30.3065 25.0361 30.4476C25.0797 31.0373 25.084 31.6293 25.049 32.2196C24.5896 32.3464 20.2355 32.3845 19.2878 32.2735Z" fill="#5A5A5A"/>
<path d="M45.1479 37.0302C45.241 37.1487 45.2841 37.298 45.2684 37.4471C45.2684 37.9226 45.2684 38.387 45.2684 38.8435C44.8235 39.002 42.1268 39.0258 41.4137 38.8926C41.3491 38.2748 41.3442 37.6522 41.3993 37.0334C42.6745 37.0033 43.9176 37.0128 45.1479 37.0302Z" fill="#5A5A5A"/>
<path d="M22.1791 38.9338H18.3807C18.2599 38.3324 18.2491 37.7145 18.3486 37.1094C18.7694 36.9969 21.3135 36.9667 22.1551 37.0745C22.1975 37.6934 22.2055 38.314 22.1791 38.9338Z" fill="#5A5A5A"/>
<path d="M22.1671 48.4328H18.3317C18.2626 47.8061 18.2594 47.174 18.3221 46.5466H22.1543C22.1997 47.1744 22.204 47.8045 22.1671 48.4328Z" fill="#5A5A5A"/>
<path d="M41.4087 48.4061C41.3602 47.8166 41.3489 47.2248 41.375 46.634C41.807 46.4755 44.4828 46.4486 45.1815 46.577C45.2964 47.1679 45.3051 47.7741 45.2072 48.368C44.7816 48.4806 42.2552 48.5123 41.4087 48.4061Z" fill="#5A5A5A"/>
<path d="M19.2596 26.6925C19.3819 26.6029 19.5337 26.5616 19.6852 26.5768C20.4803 26.5768 21.2753 26.5768 22.1378 26.5768C22.2032 27.2089 22.2112 27.8454 22.1619 28.4788H19.2853C19.2356 27.8847 19.227 27.2878 19.2596 26.6925Z" fill="#5A5A5A"/>
<path d="M16.3699 40.828C16.4217 41.4564 16.4335 42.0874 16.4052 42.7173C15.7724 42.7827 15.1348 42.7912 14.5004 42.7427C14.3928 42.3955 14.4458 42.0817 14.4378 41.7742C14.4297 41.4667 14.4378 41.1925 14.4378 40.8502C15.0807 40.8032 15.726 40.7958 16.3699 40.828Z" fill="#5A5A5A"/>
<path d="M37.5523 42.7554C37.4904 42.1227 37.4931 41.4855 37.5603 40.8533C38.2028 40.7678 38.8019 40.8264 39.4363 40.8153C39.5359 41.4715 39.4893 42.0691 39.4732 42.7284C38.8339 42.7725 38.1926 42.7815 37.5523 42.7554Z" fill="#5A5A5A"/>
<path d="M16.384 37.0445V38.9307C15.7466 38.9821 15.1064 38.989 14.468 38.9513C14.415 38.3173 14.4407 37.7245 14.4503 37.0651C15.0928 36.999 15.7402 36.9921 16.384 37.0445Z" fill="#5A5A5A"/>
<path d="M14.4402 46.5561C15.1212 46.4705 15.7122 46.5213 16.3675 46.5165C16.4478 47.1505 16.3948 47.7671 16.4013 48.4058C15.7613 48.4773 15.1158 48.4869 14.4739 48.4344C14.3872 47.8067 14.4579 47.2091 14.4402 46.5561Z" fill="#5A5A5A"/>
<path d="M39.4521 46.5198C39.5063 47.1497 39.5197 47.7823 39.4922 48.4139C38.855 48.4783 38.2131 48.4858 37.5745 48.4361C37.4798 47.8021 37.5232 47.2013 37.5424 46.5499C38.1776 46.4985 38.8156 46.4884 39.4521 46.5198Z" fill="#5A5A5A"/>
<path d="M14.4788 52.2529C14.4287 51.6201 14.4185 50.9849 14.4483 50.3509C15.0887 50.2846 15.734 50.2782 16.3756 50.3318C16.4433 50.9512 16.4476 51.5756 16.3885 52.1958C15.7477 52.3195 15.1422 52.2339 14.4788 52.2529Z" fill="#5A5A5A"/>
<path d="M37.583 50.3445C38.2034 50.2972 38.8261 50.2866 39.4477 50.3128C39.5175 50.9371 39.5288 51.5663 39.4815 52.1927C39.1297 52.3004 38.8117 52.2529 38.5001 52.2545C38.1981 52.2812 37.8937 52.2663 37.5959 52.2101C37.4722 51.9026 37.5333 51.5872 37.53 51.2813C37.4966 50.9682 37.5145 50.6519 37.583 50.3445Z" fill="#5A5A5A"/>
<path d="M37.5524 38.9575C37.4904 38.3249 37.4931 37.6877 37.5604 37.0555C38.2029 36.9699 38.8019 37.027 39.4364 37.0175C39.5359 37.6737 39.4894 38.2712 39.4733 38.929C38.8341 38.9752 38.1927 38.9847 37.5524 38.9575Z" fill="#5A5A5A"/>
<path d="M4.84101 4.79739C4.23551 4.79739 3.84684 4.39638 3.85968 3.78773C3.85673 3.66018 3.88071 3.53341 3.93011 3.4155C3.9795 3.29759 4.05322 3.19112 4.14659 3.10286C4.23995 3.0146 4.3509 2.94648 4.4724 2.90285C4.59389 2.85921 4.72325 2.84101 4.85226 2.8494C5.45776 2.8494 5.84644 3.252 5.83359 3.85747C5.83628 3.98503 5.81213 4.11175 5.76267 4.22962C5.71321 4.3475 5.63951 4.45397 5.54623 4.5423C5.45294 4.63064 5.34211 4.69891 5.22072 4.74282C5.09934 4.78673 4.97005 4.80531 4.84101 4.79739Z" fill="#5A5A5A"/>
<path d="M7.7263 2.84924C7.92301 2.84772 8.1157 2.90419 8.27967 3.01143C8.44365 3.11867 8.57145 3.27178 8.64669 3.45115C8.72193 3.63052 8.74118 3.82797 8.70199 4.01821C8.66279 4.20845 8.56693 4.38281 8.42669 4.51894C8.28645 4.65507 8.10821 4.74678 7.91482 4.78231C7.72143 4.81784 7.52169 4.79558 7.3412 4.71837C7.16072 4.64116 7.0077 4.51253 6.90176 4.34896C6.79582 4.18538 6.74178 3.99432 6.74658 3.80025C6.74243 3.6729 6.76506 3.54608 6.81304 3.42779C6.86102 3.30951 6.93332 3.20231 7.02536 3.11296C7.11741 3.02362 7.22721 2.95406 7.34785 2.90867C7.46849 2.86328 7.59734 2.84304 7.7263 2.84924Z" fill="#5A5A5A"/>
<path d="M10.6172 4.7974C10.4875 4.80498 10.3577 4.78576 10.236 4.74097C10.1143 4.69617 10.0034 4.6268 9.91041 4.53728C9.81744 4.44776 9.74442 4.34007 9.69604 4.2211C9.64766 4.10213 9.62499 3.97451 9.62946 3.84639C9.61822 3.24092 10.0085 2.84308 10.6156 2.84308C10.7486 2.83778 10.8812 2.85906 11.0057 2.90562C11.1301 2.95218 11.2437 3.02307 11.3397 3.11404C11.4356 3.205 11.512 3.31417 11.5641 3.43498C11.6163 3.55579 11.6432 3.68575 11.6432 3.81707C11.6432 3.94839 11.6163 4.07835 11.5641 4.19916C11.512 4.31997 11.4356 4.42914 11.3397 4.5201C11.2437 4.61107 11.1301 4.68196 11.0057 4.72852C10.8812 4.77508 10.7486 4.79636 10.6156 4.79106L10.6172 4.7974Z" fill="#5A5A5A"/>
</svg>
