<svg width="17" height="12" viewBox="0 0 17 12" fill="none" xmlns="http://www.w3.org/2000/svg">
<path d="M16.4979 9.93902C16.4985 10.3031 16.4057 10.6559 16.2357 10.9363C16.1399 11.0941 16.0224 11.2245 15.8897 11.3201C15.757 11.4157 15.6118 11.4746 15.4625 11.4934C15.3131 11.5122 15.1625 11.4906 15.0193 11.4298C14.8761 11.3689 14.743 11.2701 14.6278 11.1389L8.51564 4.15795L2.39208 10.8895C2.27543 11.019 2.14122 11.1156 1.99715 11.174C1.85308 11.2323 1.702 11.2511 1.55259 11.2294C1.40317 11.2077 1.25837 11.1458 1.12651 11.0474C0.994642 10.949 0.878315 10.8159 0.784212 10.6558C0.680401 10.4946 0.602097 10.3058 0.554216 10.1012C0.506335 9.8967 0.48991 9.68085 0.505971 9.46722C0.522033 9.2536 0.570234 9.04682 0.64755 8.85986C0.724867 8.67289 0.829629 8.50979 0.955262 8.38078L7.79723 0.85448C8.00127 0.625292 8.25721 0.5 8.52134 0.5C8.78547 0.5 9.04141 0.625292 9.24545 0.85448L16.0874 8.64568C16.2254 8.802 16.3345 9.00057 16.4058 9.22528C16.4772 9.45 16.5087 9.69452 16.4979 9.93902Z" fill="#C4C4C4"/>
</svg>
