<svg width="17" height="12" viewBox="0 0 17 12" fill="none" xmlns="http://www.w3.org/2000/svg">
<path d="M0.502064 2.06086C0.501543 1.69677 0.594337 1.34393 0.764338 1.06359C0.860067 0.905801 0.977638 0.775374 1.11031 0.679773C1.24299 0.584172 1.38816 0.525276 1.53751 0.506459C1.68687 0.487642 1.83748 0.509273 1.9807 0.570114C2.12393 0.630955 2.25697 0.729808 2.3722 0.861015L8.48436 7.84193L14.6079 1.11033C14.7246 0.980898 14.8588 0.884238 15.0028 0.82591C15.1469 0.767582 15.298 0.748737 15.4474 0.770458C15.5968 0.792178 15.7416 0.854036 15.8735 0.952476C16.0054 1.05092 16.1217 1.184 16.2158 1.34407C16.3196 1.50529 16.3979 1.6941 16.4458 1.89864C16.4937 2.10318 16.5101 2.31903 16.494 2.53266C16.478 2.74628 16.4298 2.95306 16.3524 3.14002C16.2751 3.32698 16.1704 3.49009 16.0447 3.6191L9.20277 11.1454C8.99873 11.3746 8.74279 11.4999 8.47866 11.4999C8.21453 11.4999 7.95859 11.3746 7.75455 11.1454L0.912582 3.3542C0.774583 3.19788 0.665494 2.99931 0.594169 2.7746C0.522842 2.54988 0.491287 2.30536 0.502064 2.06086Z" fill="#C4C4C4"/>
</svg>
