<svg width="11" height="16" viewBox="0 0 11 16" fill="none" xmlns="http://www.w3.org/2000/svg">
<path d="M1.56098 15.9979C1.1969 15.9985 0.844055 15.9057 0.563708 15.7357C0.405923 15.6399 0.275496 15.5224 0.179895 15.3897C0.0842939 15.257 0.0253982 15.1118 0.00658111 14.9625C-0.012236 14.8131 0.00939553 14.6625 0.0702362 14.5193C0.131077 14.3761 0.22993 14.243 0.361137 14.1278L7.34205 8.01564L0.610457 1.89208C0.48102 1.77543 0.38436 1.64122 0.326032 1.49715C0.267704 1.35308 0.248859 1.202 0.27058 1.05259C0.292301 0.90317 0.354158 0.758369 0.452598 0.626506C0.551038 0.494642 0.684119 0.378315 0.844192 0.284212C1.00542 0.180401 1.19422 0.102097 1.39876 0.0542161C1.6033 0.00633482 1.81915 -0.0100901 2.03278 0.00597127C2.2464 0.0220327 2.45318 0.0702341 2.64014 0.14755C2.82711 0.224867 2.99021 0.329629 3.11922 0.455262L10.6455 7.29723C10.8747 7.50127 11 7.75721 11 8.02134C11 8.28547 10.8747 8.54141 10.6455 8.74545L2.85432 15.5874C2.698 15.7254 2.49943 15.8345 2.27472 15.9058C2.05 15.9772 1.80548 16.0087 1.56098 15.9979Z" fill="#C4C4C4"/>
</svg>
