<svg width="49" height="29" viewBox="0 0 49 29" fill="none" xmlns="http://www.w3.org/2000/svg">
<path d="M38.9792 9.1895H35.9746L36.8799 0.658134C36.8816 0.64268 36.8818 0.627455 36.8819 0.612229C36.8819 0.610929 36.8821 0.609704 36.8821 0.608404C36.8821 0.608174 36.8821 0.608022 36.8821 0.607792C36.8821 0.375589 36.7114 0.17093 36.4606 0.0819504C36.4585 0.0811853 36.4564 0.0802674 36.4543 0.0795023C36.4387 0.0741467 36.4226 0.069556 36.4064 0.0651185C36.4003 0.0635118 36.3945 0.0615225 36.3885 0.0599923C36.3752 0.0567025 36.3616 0.0541012 36.3481 0.0514234C36.3386 0.0495872 36.3295 0.0473686 36.3199 0.0458385C36.308 0.0439258 36.2957 0.0427018 36.2836 0.0412482C36.2722 0.039871 36.2611 0.0382641 36.2496 0.0374225C36.2476 0.0372695 36.2459 0.0369632 36.2439 0.0368102C36.2316 0.0358921 36.2195 0.0360452 36.2073 0.0356626C36.1991 0.0354331 36.191 0.034668 36.1828 0.034668H36.1741C36.1733 0.034668 36.1726 0.034668 36.1719 0.034668H21.8761C21.4902 0.034668 21.177 0.291736 21.177 0.60848C21.177 0.92446 21.4902 1.18229 21.8761 1.18229H35.4208L34.0296 14.2939C34.0294 14.2949 34.0294 14.2959 34.0292 14.2969L33.6782 17.6052H9.38662L9.79293 14.1625H14.4181C14.8043 14.1625 15.1172 13.9055 15.1172 13.5886C15.1172 13.2718 14.8043 13.0148 14.4181 13.0148H9.92846L10.7864 5.74693H18.1477C18.5339 5.74693 18.8468 5.49002 18.8468 5.17312C18.8468 4.85622 18.5339 4.59931 18.1477 4.59931H10.9219L11.3253 1.18229H19.0798C19.4648 1.18229 19.7789 0.92446 19.7789 0.60848C19.7789 0.291736 19.4648 0.034668 19.0798 0.034668H10.6908C10.6905 0.034668 10.6902 0.0347444 10.6898 0.0347444C10.3614 0.0346679 10.0766 0.224409 10.0077 0.487445C10.0072 0.489357 10.0064 0.491193 10.0059 0.493106C10.0024 0.507413 10 0.522026 9.99771 0.536716C9.99706 0.541383 9.99585 0.54582 9.99529 0.550487C9.9952 0.551405 9.99492 0.552247 9.99482 0.553165L9.51721 4.59931H1.04259C0.656414 4.59931 0.343506 4.85622 0.343506 5.17312C0.343506 5.49002 0.656414 5.74693 1.04259 5.74693H9.38168L8.52377 13.0148H6.02955C5.64337 13.0148 5.33047 13.2718 5.33047 13.5886C5.33047 13.9055 5.64337 14.1625 6.02955 14.1625H8.38834L7.92117 18.1195C7.92107 18.1202 7.92107 18.1208 7.92098 18.1213L7.19869 24.2404C7.1986 24.2411 7.1985 24.2418 7.19841 24.2424L7.19813 24.2446C7.1972 24.2526 7.19729 24.2604 7.19673 24.2684C7.19608 24.2789 7.19477 24.2893 7.19477 24.3C7.19477 24.3004 7.19487 24.3009 7.19487 24.3014C7.19487 24.3162 7.19617 24.3307 7.19748 24.3453C7.19804 24.3499 7.19785 24.3547 7.1985 24.3593C7.20037 24.3741 7.20344 24.3887 7.20671 24.4032C7.20764 24.4075 7.2081 24.4119 7.20913 24.4161C7.21183 24.4271 7.21565 24.4378 7.2192 24.4485C7.22162 24.4561 7.22358 24.4638 7.22637 24.4713C7.22721 24.4733 7.22833 24.4753 7.22908 24.4775C7.26291 24.5628 7.32033 24.6395 7.39527 24.7021C7.39667 24.7032 7.39779 24.7045 7.39919 24.7056C7.40664 24.7117 7.41475 24.7172 7.42258 24.7231C7.47077 24.7593 7.52521 24.7901 7.58477 24.8142C7.59717 24.8192 7.60938 24.8245 7.62205 24.8289C7.62587 24.8302 7.62998 24.8312 7.63389 24.8324C7.65141 24.8381 7.66903 24.8436 7.68721 24.8483C7.68888 24.8487 7.69047 24.8489 7.69215 24.8494C7.71284 24.8544 7.73372 24.8589 7.75506 24.8625C7.75786 24.8629 7.76075 24.8631 7.76345 24.8635C7.78377 24.8667 7.80419 24.8693 7.82497 24.871C7.82544 24.871 7.82581 24.8711 7.82628 24.8712C7.84921 24.873 7.87195 24.8739 7.89451 24.8739C7.89479 24.8739 7.89516 24.8739 7.89553 24.8739H11.0077C11.3513 27.0125 13.5851 28.6689 16.2831 28.6689C18.9809 28.6689 21.2147 27.0125 21.5584 24.8739H32.7715C33.1153 27.0125 35.349 28.6689 38.0469 28.6689C40.7447 28.6689 42.9787 27.0125 43.3224 24.8739H46.4353C46.4357 24.8739 46.4363 24.8739 46.4368 24.8739C46.4601 24.8739 46.483 24.8728 46.5057 24.8709C46.5098 24.8706 46.5138 24.87 46.5179 24.8696C46.536 24.8678 46.5541 24.8657 46.5718 24.8628C46.5795 24.8616 46.5868 24.8599 46.5944 24.8585C46.6081 24.8559 46.6219 24.8531 46.6353 24.8498C46.6444 24.8476 46.6533 24.845 46.6623 24.8425C46.6737 24.8393 46.6852 24.8359 46.6965 24.8322C46.7062 24.829 46.7154 24.8256 46.7248 24.8221C46.7351 24.8182 46.7453 24.8143 46.7553 24.81C46.7648 24.8061 46.7739 24.8019 46.7831 24.7976C46.7927 24.7931 46.8022 24.7883 46.8116 24.7834C46.8203 24.7788 46.8291 24.7742 46.8375 24.7693C46.847 24.7638 46.856 24.7581 46.8653 24.7523C46.8729 24.7473 46.8806 24.7424 46.8881 24.7372C46.8977 24.7306 46.9067 24.7236 46.9159 24.7165C46.9222 24.7115 46.9288 24.7066 46.935 24.7014C46.9447 24.6933 46.9539 24.6847 46.9631 24.6761C46.9681 24.6714 46.9732 24.6669 46.978 24.6622C46.9882 24.6517 46.9975 24.641 47.0069 24.6302C47.01 24.6265 47.0136 24.623 47.0166 24.6192C47.028 24.6052 47.0387 24.5908 47.0486 24.5759C47.0494 24.575 47.0501 24.5742 47.0506 24.5732C47.0611 24.5573 47.0708 24.541 47.0795 24.5241C47.0819 24.5193 47.0837 24.5143 47.0861 24.5095C47.0918 24.4977 47.0974 24.4858 47.1021 24.4735C47.1052 24.4655 47.1074 24.4573 47.1101 24.4493C47.1132 24.4397 47.1165 24.4303 47.1191 24.4205C47.1214 24.4119 47.1229 24.403 47.1247 24.3942C47.1263 24.3865 47.1283 24.3789 47.1295 24.371C47.1592 24.1761 47.7066 20.5711 47.9511 18.24C47.9514 18.2378 47.9514 18.2355 47.9517 18.2333C48.0221 17.5613 48.0672 16.9955 48.0672 16.6491C48.0672 12.5359 43.9904 9.1895 38.9792 9.1895ZM35.8528 10.3373H38.7128L38.3475 13.7798H35.4875L35.8528 10.3373ZM16.2833 27.5212C14.1192 27.5212 12.3586 26.0761 12.3586 24.2999C12.3586 22.5237 14.1193 21.0786 16.2833 21.0786C18.4473 21.0786 20.2078 22.5237 20.2078 24.2999C20.2078 26.0761 18.4473 27.5212 16.2833 27.5212ZM38.0469 27.5212C35.8829 27.5212 34.1224 26.0761 34.1224 24.2999C34.1224 22.5237 35.883 21.0786 38.0469 21.0786C40.2109 21.0786 41.9715 22.5237 41.9715 24.2999C41.9715 26.0761 40.2109 27.5212 38.0469 27.5212ZM45.8176 23.7258H43.3226C42.979 21.5871 40.7451 19.9306 38.0471 19.9306C35.3492 19.9306 33.1153 21.5871 32.7717 23.7258H21.5586C21.2151 21.5871 18.9813 19.9306 16.2833 19.9306C13.5853 19.9306 11.3513 21.5871 11.0077 23.7258H8.66405L9.25119 18.7525H34.3188V18.7528C34.3192 18.7528 34.3195 18.7528 34.3198 18.7528C34.3432 18.7528 34.3664 18.7517 34.3894 18.7498C34.3937 18.7495 34.3979 18.7488 34.4021 18.7483C34.4204 18.7465 34.4386 18.7444 34.4565 18.7415C34.4642 18.7402 34.4718 18.7384 34.4794 18.7369C34.4934 18.7341 34.5074 18.7315 34.521 18.7281C34.5303 18.7258 34.5392 18.723 34.5482 18.7204C34.56 18.7171 34.5717 18.7138 34.5831 18.71C34.5929 18.7067 34.6023 18.703 34.6118 18.6993C34.6221 18.6954 34.6325 18.6915 34.6424 18.6872C34.652 18.6831 34.6613 18.6787 34.6707 18.6742C34.6803 18.6696 34.6898 18.665 34.6991 18.6601C34.7082 18.6553 34.7167 18.6502 34.7254 18.6452C34.7346 18.6398 34.7436 18.6343 34.7525 18.6286C34.7605 18.6233 34.7685 18.6178 34.7763 18.6123C34.7852 18.606 34.7938 18.5996 34.8022 18.5929C34.8093 18.5873 34.8164 18.5816 34.8233 18.5757C34.8317 18.5685 34.8398 18.5611 34.8478 18.5535C34.854 18.5475 34.8602 18.5416 34.8662 18.5354C34.8739 18.5274 34.8813 18.5191 34.8885 18.5108C34.894 18.5045 34.8993 18.4983 34.9046 18.4918C34.9114 18.4832 34.9179 18.4743 34.9241 18.4653C34.9289 18.4586 34.9337 18.4518 34.938 18.4449C34.9439 18.4359 34.9489 18.4267 34.9542 18.4175C34.9583 18.41 34.9625 18.4028 34.9663 18.3951C34.9708 18.3861 34.9747 18.3768 34.9787 18.3676C34.9821 18.3594 34.9857 18.3512 34.9888 18.3428C34.9919 18.3339 34.9944 18.3248 34.9972 18.3158C34.9999 18.3067 35.0029 18.2977 35.005 18.2884C35.0072 18.2794 35.0085 18.2702 35.0102 18.261C35.0118 18.2515 35.0138 18.2422 35.0149 18.2325C35.0151 18.2312 35.0155 18.2299 35.0156 18.2285L35.3659 14.9272H38.979C41.1209 14.9272 42.0869 15.8381 43.1095 16.8025C43.9534 17.5983 44.8954 18.4862 46.4968 18.7028C46.2934 20.4678 45.9647 22.7337 45.8176 23.7258ZM46.6163 17.5529C45.5775 17.379 44.9383 16.7796 44.164 16.0494C43.1956 15.1363 42.0135 14.0219 39.7472 13.8143L40.1089 10.406C43.8153 10.8559 46.6691 13.4838 46.6691 16.6492C46.6691 16.8643 46.6495 17.1767 46.6163 17.5529Z" fill="#828282"/>
<path d="M8.26048 9.4165H5.59411C5.29283 9.4165 5.04871 9.61391 5.04871 9.85741C5.04871 10.1009 5.29283 10.2983 5.59411 10.2983H8.26048C8.56176 10.2983 8.80588 10.1009 8.80588 9.85741C8.80588 9.61391 8.56176 9.4165 8.26048 9.4165Z" fill="#828282"/>
</svg>
