<svg width="36" height="29" viewBox="0 0 36 29" fill="none" xmlns="http://www.w3.org/2000/svg">
<path d="M12.1703 13.4863C11.674 13.085 11.0168 12.8646 10.3178 12.8646C9.61868 12.8646 8.96155 13.085 8.4652 13.4863C7.44454 14.3115 7.44454 15.6566 8.4652 16.4818C8.96155 16.8831 9.61868 17.1035 10.3178 17.1035C11.0168 17.1035 11.674 16.8831 12.1703 16.4818C12.6667 16.0805 12.9393 15.5493 12.9393 14.9841C12.9393 14.4189 12.6667 13.8876 12.1703 13.4863ZM11.4293 15.8827C11.1357 16.1201 10.7372 16.2557 10.3178 16.2557C9.89831 16.2557 9.49984 16.1258 9.20622 15.8827C8.59103 15.3854 8.59103 14.5828 9.20622 14.0854C9.49984 13.848 9.89831 13.7124 10.3178 13.7124C10.7372 13.7124 11.1357 13.8424 11.4293 14.0854C11.7229 14.3228 11.8907 14.645 11.8907 14.9841C11.8907 15.3232 11.7299 15.6453 11.4293 15.8827Z" fill="#929292"/>
<path d="M19.0917 19.0825C18.5954 18.6812 17.9382 18.4608 17.2391 18.4608C16.5401 18.4608 15.8829 18.6812 15.3866 19.0825C14.3659 19.9077 14.3659 21.2528 15.3866 22.0779C15.8829 22.4792 16.5401 22.6996 17.2391 22.6996C17.9382 22.6996 18.5954 22.4792 19.0917 22.0779C19.5881 21.6767 19.8607 21.1454 19.8607 20.5802C19.8537 20.0094 19.5811 19.4781 19.0917 19.0825ZM18.3507 21.4789C18.0571 21.7162 17.6586 21.8519 17.2391 21.8519C16.8197 21.8519 16.4212 21.7219 16.1276 21.4789C15.5124 20.9815 15.5124 20.1789 16.1276 19.6816C16.4212 19.4442 16.8197 19.3086 17.2391 19.3086C17.6586 19.3086 18.0571 19.4386 18.3507 19.6816C18.6443 19.919 18.8121 20.2411 18.8121 20.5802C18.8051 20.9193 18.6443 21.2358 18.3507 21.4789Z" fill="#929292"/>
<path d="M19.092 13.4876C18.8893 13.3236 18.5537 13.3236 18.351 13.4876L8.46601 21.4792C8.26328 21.6431 8.26328 21.9144 8.46601 22.0783C8.57088 22.1631 8.7037 22.2027 8.83653 22.2027C8.96935 22.2027 9.10218 22.1631 9.20704 22.0783L19.085 14.0923C19.2948 13.9227 19.2948 13.6515 19.092 13.4876Z" fill="#929292"/>
<path d="M35.3596 0.352731C34.6535 -0.2181 33.2833 -0.0937609 31.4028 0.708794C29.7809 1.40396 27.9213 2.55693 26.2995 3.8625C25.6703 4.37116 25.0831 4.89677 24.5518 5.42804L17.2044 4.71592C17.1065 4.70461 17.0017 4.69896 16.8968 4.69896C16.4704 4.69896 16.002 4.77243 15.5476 4.91938C15.0722 5.06633 14.6877 5.26414 14.3941 5.50152L7.82972 10.8086C7.62698 10.9725 7.62698 11.2437 7.82972 11.4076C7.92759 11.4868 8.06041 11.532 8.20023 11.532C8.34005 11.532 8.47287 11.4868 8.57074 11.4076L15.1351 6.10061C15.3099 5.95366 15.6105 5.81236 15.9321 5.71063C16.2537 5.6089 16.6102 5.55238 16.8968 5.55238H16.9038C16.9667 5.55238 17.0296 5.55803 17.0856 5.56369L26.663 6.49058C26.9077 6.51319 27.1803 6.62622 27.383 6.79578C27.5928 6.95968 27.7326 7.1801 27.7605 7.37791L27.9563 8.70608C27.1523 9.20344 26.3624 9.61037 25.6283 9.90992C25.4955 9.96643 25.3487 10.0173 25.2019 10.0682C25.09 9.7008 24.8524 9.36734 24.5168 9.09606C24.0274 8.70043 23.3703 8.48001 22.6782 8.48001C21.9861 8.48001 21.329 8.70043 20.8396 9.09606C19.826 9.91557 19.826 11.2494 20.8396 12.0689C21.329 12.4645 21.9861 12.6849 22.6782 12.6849C23.3703 12.6849 24.0274 12.4645 24.5168 12.0689C24.8943 11.7637 25.139 11.385 25.2369 10.9725C25.5025 10.8933 25.7891 10.7916 26.0967 10.6673C26.7399 10.4073 27.411 10.0738 28.1031 9.67254L28.914 15.1209C28.921 15.1661 28.921 15.217 28.921 15.2678C28.921 15.4995 28.8511 15.7934 28.7253 16.0478C28.5994 16.3077 28.4247 16.5451 28.2429 16.6921L14.3941 27.8657C14.2333 27.9957 14.0096 28.0691 13.7789 28.0691C13.5412 28.0691 13.3245 27.9957 13.1637 27.8657L1.30029 18.2802C1.1395 18.1502 1.04862 17.9694 1.04862 17.7829C1.04862 17.5907 1.1395 17.4155 1.30029 17.2855L7.08869 12.6058C7.29142 12.4419 7.29142 12.1706 7.08869 12.0067C6.99082 11.9276 6.85799 11.8824 6.71818 11.8824C6.57836 11.8824 6.44554 11.9276 6.34766 12.0067L0.559265 16.6808C0.377504 16.8277 0.237688 17.0029 0.139816 17.1951C0.0489357 17.3816 0 17.5794 0 17.7772C0 17.975 0.0489357 18.1728 0.139816 18.3593C0.237688 18.5515 0.377504 18.7267 0.559265 18.8737L12.4157 28.4591C12.5975 28.6061 12.8142 28.7191 13.0519 28.7982C13.2826 28.8717 13.5272 28.9113 13.7719 28.9113H13.7789C14.0306 28.9113 14.2683 28.8717 14.499 28.7982C14.7366 28.7191 14.9534 28.6061 15.1351 28.4591L28.97 17.2742C29.2636 17.0368 29.5013 16.7203 29.69 16.3417C29.8648 15.9743 29.9626 15.5956 29.9626 15.2509C29.9626 15.1661 29.9557 15.0813 29.9417 15.0022L29.0608 9.0565C29.711 8.63261 30.3611 8.15786 30.9973 7.64355C32.6192 6.33233 34.0453 4.8346 34.9052 3.52904C35.9118 2.02566 36.0656 0.923562 35.3596 0.352731ZM22.3496 10.8538C22.6083 11.0629 23.0138 11.2381 23.6499 11.2381C23.7618 11.2381 23.8736 11.2324 23.9995 11.2211C23.9366 11.3059 23.8597 11.385 23.7688 11.4585C23.4752 11.6959 23.0837 11.8259 22.6712 11.8259C22.2588 11.8259 21.8673 11.6959 21.5737 11.4585C20.9655 10.9668 20.9655 10.1699 21.5737 9.68384C21.8673 9.44647 22.2588 9.31648 22.6712 9.31648C23.0837 9.31648 23.4752 9.44647 23.7688 9.68384C23.9925 9.8647 24.1393 10.0908 24.1952 10.3338C23.7129 10.4242 23.3004 10.4242 23.0907 10.2547C22.8879 10.0908 22.5524 10.0908 22.3496 10.2547C22.1469 10.4186 22.1469 10.6842 22.3496 10.8538ZM33.9824 3.13907C33.1644 4.37116 31.8082 5.80106 30.2563 7.05576C29.8158 7.41182 29.3614 7.75093 28.914 8.06178L28.7952 7.26488C28.7323 6.86925 28.5016 6.49058 28.1171 6.18538C27.7326 5.88019 27.2712 5.68803 26.7818 5.63716L25.7961 5.54673C26.1876 5.17936 26.6001 4.81765 27.0405 4.46159C30.7386 1.47179 34.0453 0.488374 34.6185 0.951821C34.8842 1.16094 34.7863 1.92393 33.9824 3.13907Z" fill="#929292"/>
</svg>
