<svg width="29" height="29" viewBox="0 0 29 29" fill="none" xmlns="http://www.w3.org/2000/svg">
<path fill-rule="evenodd" clip-rule="evenodd" d="M21.0431 17.3783C20.683 17.1983 18.9177 16.3307 18.589 16.2098C18.2603 16.0902 18.0211 16.031 17.7806 16.3911C17.5414 16.7488 16.8538 17.5583 16.6448 17.7976C16.4345 18.038 16.2255 18.067 15.8666 17.8882C15.5077 17.707 14.3502 17.3288 12.9787 16.1059C11.9118 15.1538 11.1904 13.978 10.9813 13.618C10.7723 13.2591 10.9584 13.0645 11.1384 12.8857C11.3003 12.725 11.4973 12.4664 11.6773 12.2574C11.8574 12.0471 11.9166 11.8973 12.0362 11.6568C12.157 11.4176 12.0966 11.2085 12.006 11.0285C11.9166 10.8485 11.1988 9.08067 10.8992 8.36172C10.608 7.66209 10.3119 7.75755 10.092 7.74547C9.88175 7.7358 9.6425 7.73338 9.40325 7.73338C9.164 7.73338 8.77492 7.8228 8.44625 8.18288C8.11637 8.54176 7.18958 9.41055 7.18958 11.1783C7.18958 12.9449 8.47525 14.6523 8.65529 14.8928C8.83533 15.132 11.1868 18.7594 14.7888 20.3145C15.6467 20.6843 16.3149 20.9054 16.8357 21.0698C17.696 21.344 18.479 21.3054 19.0977 21.2123C19.7865 21.1096 21.222 20.3435 21.5216 19.505C21.8201 18.6664 21.8201 17.9474 21.7307 17.7976C21.6413 17.6478 21.402 17.5583 21.0419 17.3783H21.0431ZM14.4915 26.3236H14.4867C12.3473 26.324 10.2471 25.7489 8.40637 24.6585L7.97138 24.3999L3.44979 25.5865L4.65692 21.1785L4.37296 20.7266C3.17688 18.8227 2.5439 16.6192 2.54717 14.3708C2.54958 7.78534 7.90733 2.42759 14.4964 2.42759C17.6864 2.42759 20.6855 3.67217 22.9402 5.92934C24.0523 7.03688 24.9338 8.35394 25.5336 9.80434C26.1334 11.2547 26.4397 12.8097 26.4347 14.3792C26.4323 20.9646 21.0745 26.3236 14.4915 26.3236ZM24.656 4.21472C23.3247 2.87458 21.7406 1.81199 19.9956 1.08852C18.2506 0.365043 16.3794 -0.00492547 14.4903 4.95145e-05C6.57092 4.95145e-05 0.12325 6.44651 0.120833 14.3695C0.119625 16.9022 0.780583 19.3745 2.03846 21.5531L0 29L7.61733 27.0015C9.72451 28.1495 12.0859 28.7511 14.4855 28.7511H14.4915C22.411 28.7511 28.8586 22.3047 28.861 14.3804C28.8669 12.4921 28.4983 10.6214 27.7765 8.87651C27.0547 7.13159 25.9941 5.54711 24.656 4.21472Z" fill="#BFBFBF"/>
</svg>
