<svg width="35" height="36" viewBox="0 0 35 36" fill="none" xmlns="http://www.w3.org/2000/svg">
<path d="M34.3286 17.4012C34.3284 17.3879 34.3277 17.3747 34.3266 17.3614C34.3262 17.3573 34.3259 17.3533 34.3254 17.3492C34.324 17.3366 34.322 17.3243 34.3197 17.3118C34.3188 17.3071 34.3181 17.3023 34.317 17.2977C34.3146 17.2865 34.3117 17.2754 34.3084 17.2644C34.3068 17.2587 34.3052 17.253 34.3034 17.2473C34.3003 17.2377 34.2966 17.2282 34.2929 17.2187C34.2903 17.212 34.2876 17.2052 34.2848 17.1987C34.2811 17.1904 34.277 17.1821 34.2728 17.1739C34.2691 17.1667 34.2654 17.1595 34.2614 17.1525C34.2594 17.149 34.2577 17.1453 34.2557 17.1418L32.2694 13.8323V11.3322C32.2694 11.0479 32.039 10.8174 31.7545 10.8174H31.7545H31.7544H21.536C22.6508 9.72614 23.3439 8.20572 23.3439 6.52622C23.3439 3.21365 20.6491 0.518799 17.3365 0.518799C14.024 0.518799 11.3292 3.21365 11.3292 6.52615C11.3292 8.20565 12.0223 9.72607 13.1371 10.8173H2.91896C2.63454 10.8173 2.40408 11.0478 2.40408 11.3322V13.8318L0.417573 17.1418C0.415994 17.1444 0.414827 17.1472 0.413317 17.1498C0.408031 17.159 0.403088 17.1683 0.398282 17.1779C0.39533 17.1838 0.39231 17.1899 0.389564 17.196C0.385513 17.2049 0.381943 17.214 0.378373 17.2232C0.375696 17.2303 0.373018 17.2373 0.370616 17.2445C0.367938 17.2528 0.365535 17.2611 0.363201 17.2694C0.360867 17.2778 0.358602 17.2862 0.356679 17.2946C0.3551 17.3019 0.353727 17.3094 0.352354 17.3169C0.350707 17.3266 0.349059 17.3362 0.347961 17.3459C0.347206 17.3526 0.346656 17.3594 0.346176 17.3662C0.345283 17.3767 0.344734 17.3872 0.344597 17.3976C0.344528 17.4007 0.344116 17.4037 0.344116 17.4067C0.344116 17.4153 0.344734 17.4238 0.344803 17.4323C0.344803 17.433 0.344803 17.4337 0.344871 17.4342C0.359769 18.8411 1.50831 19.9812 2.91869 19.9812C3.76001 19.9812 4.50825 19.5756 4.97837 18.9496C5.44843 19.5756 6.19673 19.9812 7.03806 19.9812C7.87938 19.9812 8.62761 19.5756 9.09774 18.9496C9.5678 19.5756 10.3161 19.9812 11.1574 19.9812C11.9987 19.9812 12.747 19.5756 13.2171 18.9496C13.6872 19.5756 14.4355 19.9812 15.2768 19.9812C16.1181 19.9812 16.8664 19.5756 17.3365 18.9496C17.8065 19.5756 18.5548 19.9812 19.3962 19.9812C20.2375 19.9812 20.9857 19.5756 21.4558 18.9496C21.9259 19.5756 22.6742 19.9812 23.5155 19.9812C24.3569 19.9812 25.1051 19.5756 25.5752 18.9496C26.0453 19.5756 26.7936 19.9812 27.6349 19.9812C28.4762 19.9812 29.2244 19.5756 29.6945 18.9497C30.1646 19.5757 30.9129 19.9812 31.7542 19.9812C33.1637 19.9812 34.3117 18.8425 34.3279 17.4368C34.3284 17.4321 34.3284 17.4272 34.3285 17.4223C34.3285 17.4171 34.3289 17.412 34.3289 17.4068C34.3288 17.405 34.3286 17.4031 34.3286 17.4012ZM12.359 6.52615C12.359 3.78153 14.5919 1.54857 17.3365 1.54857C20.0812 1.54857 22.3141 3.78146 22.3141 6.52615C22.3141 9.27084 20.0812 11.5037 17.3365 11.5037C14.5919 11.5037 12.359 9.27084 12.359 6.52615ZM2.91876 18.9515C2.24748 18.9515 1.67513 18.521 1.46259 17.9217H4.37499C4.16252 18.521 3.5901 18.9515 2.91876 18.9515ZM4.64562 16.8919H1.7687L3.21046 14.4895H5.72681L4.64562 16.8919ZM7.03812 18.9515C6.36685 18.9515 5.7945 18.521 5.58196 17.9217H8.49436C8.28182 18.521 7.70947 18.9515 7.03812 18.9515ZM8.71473 16.8919H5.77487L6.85613 14.4895H9.43551L8.71473 16.8919ZM11.1575 18.9515C10.4862 18.9515 9.91387 18.521 9.70132 17.9217H12.6137C12.4012 18.521 11.8288 18.9515 11.1575 18.9515ZM12.7737 16.8919H9.78989L10.5107 14.4895H13.1341L12.7737 16.8919ZM15.2769 18.9515C14.6056 18.9515 14.0332 18.521 13.8207 17.9217H16.7331C16.5206 18.521 15.9481 18.9515 15.2769 18.9515ZM16.8216 16.8919H13.8151L14.1755 14.4895H16.8216V16.8919ZM19.3962 18.9515C18.7249 18.9515 18.1525 18.521 17.94 17.9217H20.8524C20.6399 18.521 20.0675 18.9515 19.3962 18.9515ZM17.8514 16.8919V14.4895H20.4975L20.8579 16.8919H17.8514ZM10.1263 13.4596C10.1242 13.4596 10.122 13.4596 10.1197 13.4596H6.53539C6.53518 13.4596 6.53498 13.4596 6.5347 13.4596H3.43392V11.8472H14.5505C15.3838 12.2852 16.3317 12.5336 17.3365 12.5336C18.3415 12.5336 19.2893 12.2853 20.1226 11.8472H31.2396V13.4596H28.1383C28.1381 13.4596 28.1379 13.4596 28.1376 13.4596H24.5527C24.5511 13.4596 24.5495 13.4596 24.548 13.4596H10.1263ZM21.5388 14.4895H24.1622L24.8831 16.8919H21.8993L21.5388 14.4895ZM23.5155 18.9515C22.8443 18.9515 22.2719 18.521 22.0594 17.9217H24.9718C24.7592 18.521 24.1869 18.9515 23.5155 18.9515ZM25.2376 14.4895H27.817L28.8982 16.8919H25.9584L25.2376 14.4895ZM27.6349 18.9515C26.9636 18.9515 26.3913 18.521 26.1787 17.9217H29.0911C28.8786 18.521 28.3062 18.9515 27.6349 18.9515ZM28.9462 14.4895H31.4626L32.9045 16.8919H30.0274L28.9462 14.4895ZM31.7542 18.9515C31.0829 18.9515 30.5106 18.521 30.298 17.9217H33.2104C32.9978 18.521 32.4255 18.9515 31.7542 18.9515Z" fill="#828282"/>
<path d="M31.7546 21.0789C31.4702 21.0789 31.2397 21.3094 31.2397 21.5937V34.6382H29.5233V22.1082C29.5233 21.8239 29.2928 21.5933 29.0084 21.5933H22.1427C21.8583 21.5933 21.6278 21.8239 21.6278 22.1082V34.6382H19.9112V33.0932C19.9112 32.8088 19.6808 32.5783 19.3964 32.5783H19.2247V32.4067C19.2247 32.1224 18.9942 31.8918 18.7098 31.8918C18.4254 31.8918 18.1949 32.1224 18.1949 32.4067V32.5783H17.165V32.4067C17.165 32.1224 16.9346 31.8918 16.6502 31.8918C16.3657 31.8918 16.1353 32.1224 16.1353 32.4067V32.5783H15.1054V32.4067C15.1054 32.1224 14.875 31.8918 14.5905 31.8918C14.3061 31.8918 14.0757 32.1224 14.0757 32.4067V32.5783H13.0458V32.4067C13.0458 32.1224 12.8154 31.8918 12.5309 31.8918C12.2465 31.8918 12.016 32.1224 12.016 32.4067V32.5783H10.9862V32.4067C10.9862 32.1224 10.7557 31.8918 10.4713 31.8918C10.1869 31.8918 9.95643 32.1224 9.95643 32.4067V32.5783H8.92658V32.4067C8.92658 32.1224 8.69612 31.8918 8.4117 31.8918C8.12727 31.8918 7.89681 32.1224 7.89681 32.4067V32.5783H6.86697V32.4067C6.86697 32.1224 6.63651 31.8918 6.35208 31.8918C6.06766 31.8918 5.8372 32.1224 5.8372 32.4067V32.5783H5.66502C5.38059 32.5783 5.15013 32.8088 5.15013 33.0932V34.6382H3.4337V21.5937C3.4337 21.3094 3.20324 21.0789 2.91882 21.0789C2.63439 21.0789 2.40393 21.3094 2.40393 21.5937V35.1532C2.40393 35.4375 2.63439 35.6681 2.91882 35.6681H5.66502H19.3964H22.1427H29.0083H31.7546C32.039 35.6681 32.2695 35.4376 32.2695 35.1532V21.5938C32.2695 21.3094 32.039 21.0789 31.7546 21.0789ZM18.8814 34.6382H6.1799V33.608H18.8814V34.6382ZM28.4934 34.6382H22.6577V22.6231H28.4934V34.6382Z" fill="#828282"/>
<path d="M19.3964 21.593H5.66516C5.38073 21.593 5.15027 21.8235 5.15027 22.1079V29.6601C5.15027 29.9445 5.3808 30.175 5.66516 30.175H19.3964C19.6809 30.175 19.9113 29.9445 19.9113 29.6601V22.108C19.9113 21.8235 19.6809 21.593 19.3964 21.593ZM18.8815 29.1452H6.18004V22.6229H18.8815V29.1452Z" fill="#828282"/>
<path d="M26.9484 28.4592H24.2025C23.9181 28.4592 23.6876 28.6898 23.6876 28.9741C23.6876 29.2585 23.9181 29.489 24.2025 29.489H26.9484C27.2328 29.489 27.4633 29.2585 27.4633 28.9741C27.4633 28.6898 27.2329 28.4592 26.9484 28.4592Z" fill="#828282"/>
<path d="M20.2493 9.19088L19.9092 5.10982C19.8871 4.8429 19.664 4.63763 19.3961 4.63763H18.8813V4.12261C18.8813 3.27078 18.1883 2.57788 17.3366 2.57788C16.4848 2.57788 15.7919 3.27085 15.7919 4.12261V4.63763H15.2771C15.0125 4.63763 14.7911 4.83803 14.7646 5.10124L14.3527 9.22061C14.3382 9.36539 14.3856 9.50949 14.4832 9.61734C14.5809 9.72526 14.7195 9.78678 14.865 9.78678H19.7394C19.7399 9.78684 19.7404 9.78684 19.7408 9.78678C20.0252 9.78678 20.2557 9.55624 20.2557 9.27189C20.2556 9.24436 20.2535 9.21724 20.2493 9.19088ZM16.8216 4.12261C16.8216 3.83867 17.0525 3.60772 17.3365 3.60772C17.6205 3.60772 17.8514 3.83867 17.8514 4.12261V4.63763H16.8216V4.12261ZM15.4339 8.75693L15.7429 5.66741H18.9224L19.1798 8.75693H15.4339Z" fill="#828282"/>
</svg>
