<svg width="174" height="33" viewBox="0 0 174 33" fill="none" xmlns="http://www.w3.org/2000/svg">
<path d="M32.2516 4.95192C32.2403 4.74917 32.0957 4.57648 31.8933 4.52423L16.379 0.515797C16.2973 0.494734 16.2115 0.494734 16.1299 0.515797L0.639756 4.52429C0.437752 4.5766 0.293243 4.74885 0.281641 4.95129C0.270877 5.13879 0.0394161 9.60916 1.85236 15.2609C2.91788 18.5825 4.47332 21.6153 6.47557 24.275C8.98019 27.6021 12.1927 30.3491 16.0237 32.4398C16.0972 32.4799 16.1789 32.5 16.2607 32.5C16.3386 32.5 16.4165 32.4818 16.4875 32.4453C20.3249 30.4688 23.5427 27.7915 26.0514 24.4878C28.0559 21.848 29.6131 18.8064 30.6797 15.4473C32.4936 9.73466 32.2624 5.1446 32.2516 4.95192ZM29.7456 15.2031C28.7091 18.4557 27.2001 21.3979 25.2605 23.9481C22.9982 26.9225 20.1375 29.3708 16.7501 31.2351V28.8236C21.1414 26.1354 24.4533 22.33 26.5942 17.5081C28.357 13.5379 28.9314 9.76916 29.1029 7.30666C29.1185 7.08291 28.9685 6.87979 28.7449 6.8221L27.7591 6.56741C27.5012 6.50079 27.2362 6.64948 27.1675 6.89973C27.0987 7.14985 27.2521 7.40679 27.5102 7.47341L28.1088 7.6281C27.9104 10.0153 27.3254 13.4902 25.7061 17.1373C23.6553 21.7563 20.4933 25.4055 16.3049 27.9885C15.8844 27.7189 15.4709 27.4376 15.0725 27.15C14.8585 26.9954 14.5555 27.0383 14.396 27.246C14.2366 27.4536 14.2808 27.7474 14.495 27.902C14.9113 28.2026 15.3438 28.4957 15.7831 28.777V31.2198C12.3942 29.2541 9.53271 26.7408 7.26967 23.7396C5.33065 21.168 3.82226 18.2328 2.78632 15.0156C1.29527 10.3846 1.22237 6.48073 1.23784 5.33991L15.7831 1.57592V3.7171L3.79512 6.81935C3.57107 6.87735 3.42102 7.08141 3.43752 7.30572C3.56237 8.99985 3.91378 11.6357 4.87926 14.5725C6.47538 19.4276 9.15609 23.478 12.8469 26.6113C12.9386 26.6892 13.0521 26.7274 13.1652 26.7274C13.2998 26.7274 13.4336 26.6733 13.5292 26.5674C13.7051 26.3726 13.6848 26.0764 13.4839 25.9059C9.9275 22.8868 7.34244 18.9778 5.80053 14.2878C4.93437 11.6531 4.57768 9.26822 4.43323 7.62479L16.2552 4.56554L25.4205 6.9336C25.6785 7.00016 25.9434 6.85154 26.0122 6.60129C26.0809 6.35116 25.9275 6.09423 25.6694 6.0276L16.7501 3.72304V1.58198L31.2952 5.3401C31.3112 6.50041 31.2414 10.5088 29.7456 15.2031Z" fill="#363636"/>
<path d="M23.5402 11.4524C23.2538 11.1743 22.8728 11.0212 22.4674 11.0212C22.0619 11.0212 21.6809 11.1743 21.3948 11.4522L15.233 17.4267L11.8691 14.1651C11.5828 13.8871 11.2018 13.734 10.7963 13.734C10.3908 13.734 10.0099 13.887 9.72385 14.1648C9.43728 14.4426 9.2793 14.812 9.2793 15.205C9.2793 15.598 9.43715 15.9673 9.72372 16.245L14.1601 20.5468C14.4465 20.8248 14.8274 20.978 15.2329 20.978C15.6384 20.978 16.0194 20.8249 16.3055 20.547L23.5398 13.5323C23.8264 13.2546 23.9843 12.8852 23.9843 12.4922C23.9843 12.0992 23.8265 11.7298 23.5402 11.4524ZM22.8562 12.8692L15.6216 19.8842C15.518 19.9848 15.38 20.0403 15.2329 20.0403C15.0859 20.0403 14.9479 19.9848 14.8441 19.884L10.4073 15.5819C10.3035 15.4812 10.2463 15.3474 10.2463 15.2049C10.2463 15.0624 10.3035 14.9287 10.4077 14.8276C10.5113 14.727 10.6494 14.6715 10.7963 14.6715C10.9432 14.6715 11.0812 14.727 11.1852 14.8278L14.8912 18.4211C15.08 18.6042 15.3861 18.6041 15.5749 18.4211L22.0788 12.1148C22.1824 12.0142 22.3205 11.9587 22.4674 11.9587C22.6144 11.9587 22.7523 12.0142 22.8564 12.1151C22.9602 12.2157 23.0174 12.3496 23.0174 12.492C23.0174 12.6345 22.9601 12.7684 22.8562 12.8692Z" fill="#363636"/>
<path d="M48.5366 22.18C47.4666 22.18 46.4966 21.95 45.6266 21.49C44.7666 21.02 44.0866 20.375 43.5866 19.555C43.0966 18.725 42.8516 17.79 42.8516 16.75C42.8516 15.71 43.0966 14.78 43.5866 13.96C44.0866 13.13 44.7666 12.485 45.6266 12.025C46.4966 11.555 47.4716 11.32 48.5516 11.32C49.4616 11.32 50.2816 11.48 51.0116 11.8C51.7516 12.12 52.3716 12.58 52.8716 13.18L51.3116 14.62C50.6016 13.8 49.7216 13.39 48.6716 13.39C48.0216 13.39 47.4416 13.535 46.9316 13.825C46.4216 14.105 46.0216 14.5 45.7316 15.01C45.4516 15.52 45.3116 16.1 45.3116 16.75C45.3116 17.4 45.4516 17.98 45.7316 18.49C46.0216 19 46.4216 19.4 46.9316 19.69C47.4416 19.97 48.0216 20.11 48.6716 20.11C49.7216 20.11 50.6016 19.695 51.3116 18.865L52.8716 20.305C52.3716 20.915 51.7516 21.38 51.0116 21.7C50.2716 22.02 49.4466 22.18 48.5366 22.18ZM57.9093 22.12C57.0593 22.12 56.2943 21.945 55.6143 21.595C54.9443 21.235 54.4193 20.74 54.0393 20.11C53.6593 19.48 53.4693 18.765 53.4693 17.965C53.4693 17.165 53.6593 16.45 54.0393 15.82C54.4193 15.19 54.9443 14.7 55.6143 14.35C56.2943 13.99 57.0593 13.81 57.9093 13.81C58.7593 13.81 59.5193 13.99 60.1893 14.35C60.8593 14.7 61.3843 15.19 61.7643 15.82C62.1443 16.45 62.3343 17.165 62.3343 17.965C62.3343 18.765 62.1443 19.48 61.7643 20.11C61.3843 20.74 60.8593 21.235 60.1893 21.595C59.5193 21.945 58.7593 22.12 57.9093 22.12ZM57.9093 20.2C58.5093 20.2 58.9993 20 59.3793 19.6C59.7693 19.19 59.9643 18.645 59.9643 17.965C59.9643 17.285 59.7693 16.745 59.3793 16.345C58.9993 15.935 58.5093 15.73 57.9093 15.73C57.3093 15.73 56.8143 15.935 56.4243 16.345C56.0343 16.745 55.8393 17.285 55.8393 17.965C55.8393 18.645 56.0343 19.19 56.4243 19.6C56.8143 20 57.3093 20.2 57.9093 20.2ZM74.2334 13.81C75.2434 13.81 76.0434 14.11 76.6334 14.71C77.2334 15.3 77.5334 16.19 77.5334 17.38V22H75.1934V17.74C75.1934 17.1 75.0584 16.625 74.7884 16.315C74.5284 15.995 74.1534 15.835 73.6634 15.835C73.1134 15.835 72.6784 16.015 72.3584 16.375C72.0384 16.725 71.8784 17.25 71.8784 17.95V22H69.5384V17.74C69.5384 16.47 69.0284 15.835 68.0084 15.835C67.4684 15.835 67.0384 16.015 66.7184 16.375C66.3984 16.725 66.2384 17.25 66.2384 17.95V22H63.8984V13.93H66.1334V14.86C66.4334 14.52 66.7984 14.26 67.2284 14.08C67.6684 13.9 68.1484 13.81 68.6684 13.81C69.2384 13.81 69.7534 13.925 70.2134 14.155C70.6734 14.375 71.0434 14.7 71.3234 15.13C71.6534 14.71 72.0684 14.385 72.5684 14.155C73.0784 13.925 73.6334 13.81 74.2334 13.81ZM84.4008 13.81C85.1508 13.81 85.8308 13.985 86.4408 14.335C87.0608 14.675 87.5458 15.16 87.8958 15.79C88.2458 16.41 88.4208 17.135 88.4208 17.965C88.4208 18.795 88.2458 19.525 87.8958 20.155C87.5458 20.775 87.0608 21.26 86.4408 21.61C85.8308 21.95 85.1508 22.12 84.4008 22.12C83.3708 22.12 82.5608 21.795 81.9708 21.145V24.91H79.6308V13.93H81.8658V14.86C82.4458 14.16 83.2908 13.81 84.4008 13.81ZM83.9958 20.2C84.5958 20.2 85.0858 20 85.4658 19.6C85.8558 19.19 86.0508 18.645 86.0508 17.965C86.0508 17.285 85.8558 16.745 85.4658 16.345C85.0858 15.935 84.5958 15.73 83.9958 15.73C83.3958 15.73 82.9008 15.935 82.5108 16.345C82.1308 16.745 81.9408 17.285 81.9408 17.965C81.9408 18.645 82.1308 19.19 82.5108 19.6C82.9008 20 83.3958 20.2 83.9958 20.2ZM92.2222 14.995C92.5022 14.605 92.8772 14.31 93.3472 14.11C93.8272 13.91 94.3772 13.81 94.9972 13.81V15.97C94.7372 15.95 94.5622 15.94 94.4722 15.94C93.8022 15.94 93.2772 16.13 92.8972 16.51C92.5172 16.88 92.3272 17.44 92.3272 18.19V22H89.9872V13.93H92.2222V14.995ZM99.5996 13.81C100.85 13.81 101.81 14.11 102.48 14.71C103.15 15.3 103.485 16.195 103.485 17.395V22H101.295V20.995C100.855 21.745 100.035 22.12 98.8346 22.12C98.2146 22.12 97.6746 22.015 97.2146 21.805C96.7646 21.595 96.4196 21.305 96.1796 20.935C95.9396 20.565 95.8196 20.145 95.8196 19.675C95.8196 18.925 96.0996 18.335 96.6596 17.905C97.2296 17.475 98.1046 17.26 99.2846 17.26H101.145C101.145 16.75 100.99 16.36 100.68 16.09C100.37 15.81 99.9046 15.67 99.2846 15.67C98.8546 15.67 98.4296 15.74 98.0096 15.88C97.5996 16.01 97.2496 16.19 96.9596 16.42L96.1196 14.785C96.5596 14.475 97.0846 14.235 97.6946 14.065C98.3146 13.895 98.9496 13.81 99.5996 13.81ZM99.4196 20.545C99.8196 20.545 100.175 20.455 100.485 20.275C100.795 20.085 101.015 19.81 101.145 19.45V18.625H99.5396C98.5796 18.625 98.0996 18.94 98.0996 19.57C98.0996 19.87 98.2146 20.11 98.4446 20.29C98.6846 20.46 99.0096 20.545 99.4196 20.545ZM113.466 22.18C112.636 22.18 111.831 22.07 111.051 21.85C110.281 21.62 109.661 21.325 109.191 20.965L110.016 19.135C110.466 19.465 111.001 19.73 111.621 19.93C112.241 20.13 112.861 20.23 113.481 20.23C114.171 20.23 114.681 20.13 115.011 19.93C115.341 19.72 115.506 19.445 115.506 19.105C115.506 18.855 115.406 18.65 115.206 18.49C115.016 18.32 114.766 18.185 114.456 18.085C114.156 17.985 113.746 17.875 113.226 17.755C112.426 17.565 111.771 17.375 111.261 17.185C110.751 16.995 110.311 16.69 109.941 16.27C109.581 15.85 109.401 15.29 109.401 14.59C109.401 13.98 109.566 13.43 109.896 12.94C110.226 12.44 110.721 12.045 111.381 11.755C112.051 11.465 112.866 11.32 113.826 11.32C114.496 11.32 115.151 11.4 115.791 11.56C116.431 11.72 116.991 11.95 117.471 12.25L116.721 14.095C115.751 13.545 114.781 13.27 113.811 13.27C113.131 13.27 112.626 13.38 112.296 13.6C111.976 13.82 111.816 14.11 111.816 14.47C111.816 14.83 112.001 15.1 112.371 15.28C112.751 15.45 113.326 15.62 114.096 15.79C114.896 15.98 115.551 16.17 116.061 16.36C116.571 16.55 117.006 16.85 117.366 17.26C117.736 17.67 117.921 18.225 117.921 18.925C117.921 19.525 117.751 20.075 117.411 20.575C117.081 21.065 116.581 21.455 115.911 21.745C115.241 22.035 114.426 22.18 113.466 22.18ZM127.321 17.995C127.321 18.025 127.306 18.235 127.276 18.625H121.171C121.281 19.125 121.541 19.52 121.951 19.81C122.361 20.1 122.871 20.245 123.481 20.245C123.901 20.245 124.271 20.185 124.591 20.065C124.921 19.935 125.226 19.735 125.506 19.465L126.751 20.815C125.991 21.685 124.881 22.12 123.421 22.12C122.511 22.12 121.706 21.945 121.006 21.595C120.306 21.235 119.766 20.74 119.386 20.11C119.006 19.48 118.816 18.765 118.816 17.965C118.816 17.175 119.001 16.465 119.371 15.835C119.751 15.195 120.266 14.7 120.916 14.35C121.576 13.99 122.311 13.81 123.121 13.81C123.911 13.81 124.626 13.98 125.266 14.32C125.906 14.66 126.406 15.15 126.766 15.79C127.136 16.42 127.321 17.155 127.321 17.995ZM123.136 15.58C122.606 15.58 122.161 15.73 121.801 16.03C121.441 16.33 121.221 16.74 121.141 17.26H125.116C125.036 16.75 124.816 16.345 124.456 16.045C124.096 15.735 123.656 15.58 123.136 15.58ZM137.204 13.93V20.65C137.204 22.13 136.819 23.23 136.049 23.95C135.279 24.67 134.154 25.03 132.674 25.03C131.894 25.03 131.154 24.935 130.454 24.745C129.754 24.555 129.174 24.28 128.714 23.92L129.644 22.24C129.984 22.52 130.414 22.74 130.934 22.9C131.454 23.07 131.974 23.155 132.494 23.155C133.304 23.155 133.899 22.97 134.279 22.6C134.669 22.24 134.864 21.69 134.864 20.95V20.605C134.254 21.275 133.404 21.61 132.314 21.61C131.574 21.61 130.894 21.45 130.274 21.13C129.664 20.8 129.179 20.34 128.819 19.75C128.459 19.16 128.279 18.48 128.279 17.71C128.279 16.94 128.459 16.26 128.819 15.67C129.179 15.08 129.664 14.625 130.274 14.305C130.894 13.975 131.574 13.81 132.314 13.81C133.484 13.81 134.374 14.195 134.984 14.965V13.93H137.204ZM132.779 19.69C133.399 19.69 133.904 19.51 134.294 19.15C134.694 18.78 134.894 18.3 134.894 17.71C134.894 17.12 134.694 16.645 134.294 16.285C133.904 15.915 133.399 15.73 132.779 15.73C132.159 15.73 131.649 15.915 131.249 16.285C130.849 16.645 130.649 17.12 130.649 17.71C130.649 18.3 130.849 18.78 131.249 19.15C131.649 19.51 132.159 19.69 132.779 19.69ZM147.512 13.93V22H145.292V21.04C144.982 21.39 144.612 21.66 144.182 21.85C143.752 22.03 143.287 22.12 142.787 22.12C141.727 22.12 140.887 21.815 140.267 21.205C139.647 20.595 139.337 19.69 139.337 18.49V13.93H141.677V18.145C141.677 19.445 142.222 20.095 143.312 20.095C143.872 20.095 144.322 19.915 144.662 19.555C145.002 19.185 145.172 18.64 145.172 17.92V13.93H147.512ZM151.915 14.995C152.195 14.605 152.57 14.31 153.04 14.11C153.52 13.91 154.07 13.81 154.69 13.81V15.97C154.43 15.95 154.255 15.94 154.165 15.94C153.495 15.94 152.97 16.13 152.59 16.51C152.21 16.88 152.02 17.44 152.02 18.19V22H149.68V13.93H151.915V14.995ZM159.292 13.81C160.542 13.81 161.502 14.11 162.172 14.71C162.842 15.3 163.177 16.195 163.177 17.395V22H160.987V20.995C160.547 21.745 159.727 22.12 158.527 22.12C157.907 22.12 157.367 22.015 156.907 21.805C156.457 21.595 156.112 21.305 155.872 20.935C155.632 20.565 155.512 20.145 155.512 19.675C155.512 18.925 155.792 18.335 156.352 17.905C156.922 17.475 157.797 17.26 158.977 17.26H160.837C160.837 16.75 160.682 16.36 160.372 16.09C160.062 15.81 159.597 15.67 158.977 15.67C158.547 15.67 158.122 15.74 157.702 15.88C157.292 16.01 156.942 16.19 156.652 16.42L155.812 14.785C156.252 14.475 156.777 14.235 157.387 14.065C158.007 13.895 158.642 13.81 159.292 13.81ZM159.112 20.545C159.512 20.545 159.867 20.455 160.177 20.275C160.487 20.085 160.707 19.81 160.837 19.45V18.625H159.232C158.272 18.625 157.792 18.94 157.792 19.57C157.792 19.87 157.907 20.11 158.137 20.29C158.377 20.46 158.702 20.545 159.112 20.545Z" fill="#363636"/>
</svg>
