<svg width="242" height="23" viewBox="0 0 242 23" fill="none" xmlns="http://www.w3.org/2000/svg">
<path d="M26.1728 8.07461H24.1582L24.7652 2.4137C24.7663 2.40344 24.7665 2.39334 24.7666 2.38324C24.7666 2.38237 24.7667 2.38156 24.7667 2.3807C24.7667 2.38055 24.7667 2.38044 24.7667 2.38029C24.7667 2.22622 24.6523 2.09042 24.4841 2.03137C24.4826 2.03087 24.4813 2.03026 24.4798 2.02975C24.4694 2.0262 24.4586 2.02315 24.4477 2.02021C24.4436 2.01914 24.4398 2.01782 24.4357 2.0168C24.4268 2.01462 24.4177 2.01289 24.4086 2.01112C24.4023 2.0099 24.3961 2.00843 24.3897 2.00741C24.3818 2.00614 24.3735 2.00533 24.3654 2.00437C24.3578 2.00345 24.3503 2.00239 24.3426 2.00183C24.3413 2.00173 24.3401 2.00152 24.3388 2.00142C24.3305 2.00081 24.3224 2.00091 24.3142 2.00066C24.3087 2.00051 24.3033 2 24.2978 2H24.2919C24.2914 2 24.2909 2 24.2905 2H14.7048C14.446 2 14.236 2.17058 14.236 2.38075C14.236 2.59041 14.446 2.7615 14.7048 2.7615H23.7869L22.854 11.4616C22.8539 11.4623 22.8539 11.4629 22.8538 11.4636L22.6184 13.6588H6.33025L6.60269 11.3744H9.70401C9.96295 11.3744 10.1728 11.2039 10.1728 10.9936C10.1728 10.7834 9.96295 10.6129 9.70401 10.6129H6.69356L7.26882 5.79032H12.2048C12.4637 5.79032 12.6735 5.61985 12.6735 5.40958C12.6735 5.1993 12.4637 5.02883 12.2048 5.02883H7.35969L7.63019 2.7615H12.8298C13.0879 2.7615 13.2985 2.59041 13.2985 2.38075C13.2985 2.17058 13.0879 2 12.8298 2H7.20475C7.2045 2 7.20432 2.00005 7.20407 2.00005C6.98388 2 6.79288 2.1259 6.74669 2.30044C6.74638 2.30171 6.74581 2.30292 6.7455 2.30419C6.74313 2.31369 6.74156 2.32338 6.74 2.33313C6.73956 2.33623 6.73875 2.33917 6.73838 2.34227C6.73831 2.34288 6.73813 2.34343 6.73806 2.34404L6.41781 5.02883H0.735353C0.476415 5.02883 0.266602 5.1993 0.266602 5.40958C0.266602 5.61985 0.476415 5.79032 0.735353 5.79032H6.32694L5.75169 10.6129H4.07924C3.8203 10.6129 3.61049 10.7834 3.61049 10.9936C3.61049 11.2039 3.8203 11.3744 4.07924 11.3744H5.66087L5.34762 14.0001C5.34756 14.0005 5.34756 14.0009 5.3475 14.0012L4.86318 18.0615C4.86312 18.0619 4.86306 18.0624 4.86299 18.0629L4.86281 18.0643C4.86218 18.0696 4.86224 18.0748 4.86187 18.0801C4.86143 18.0871 4.86056 18.0939 4.86056 18.101C4.86056 18.1013 4.86062 18.1016 4.86062 18.102C4.86062 18.1118 4.86149 18.1214 4.86237 18.1311C4.86274 18.1342 4.86262 18.1373 4.86306 18.1404C4.86431 18.1502 4.86637 18.1599 4.86856 18.1696C4.86918 18.1724 4.86949 18.1753 4.87018 18.1781C4.87199 18.1854 4.87456 18.1925 4.87693 18.1996C4.87856 18.2046 4.87987 18.2098 4.88174 18.2147C4.88231 18.2161 4.88306 18.2174 4.88356 18.2188C4.90624 18.2755 4.94475 18.3263 4.995 18.3679C4.99593 18.3686 4.99668 18.3695 4.99762 18.3702C5.00262 18.3743 5.00806 18.3779 5.01331 18.3818C5.04562 18.4058 5.08212 18.4262 5.12206 18.4422C5.13037 18.4456 5.13856 18.4491 5.14706 18.452C5.14962 18.4529 5.15237 18.4535 5.155 18.4543C5.16675 18.4581 5.17856 18.4618 5.19075 18.4649C5.19187 18.4651 5.19293 18.4653 5.19406 18.4656C5.20793 18.4689 5.22193 18.4719 5.23625 18.4743C5.23812 18.4746 5.24006 18.4747 5.24187 18.475C5.2555 18.4771 5.26918 18.4788 5.28312 18.48C5.28343 18.48 5.28368 18.48 5.284 18.4801C5.29937 18.4813 5.31462 18.4819 5.32975 18.4819C5.32993 18.4819 5.33018 18.4818 5.33043 18.4818H7.41719C7.64763 19.9009 9.14545 21 10.9545 21C12.7635 21 14.2613 19.9009 14.4917 18.4818H22.0104C22.2409 19.9009 23.7387 21 25.5477 21C27.3566 21 28.8546 19.9009 29.0851 18.4818H31.1723C31.1727 18.4818 31.173 18.4819 31.1733 18.4819C31.189 18.4819 31.2043 18.4811 31.2196 18.4799C31.2223 18.4797 31.225 18.4792 31.2277 18.479C31.2399 18.4778 31.252 18.4764 31.2639 18.4745C31.269 18.4737 31.274 18.4726 31.279 18.4716C31.2882 18.4699 31.2975 18.4681 31.3065 18.4659C31.3126 18.4644 31.3185 18.4627 31.3245 18.461C31.3322 18.4589 31.3399 18.4567 31.3475 18.4542C31.354 18.4521 31.3602 18.4498 31.3665 18.4475C31.3734 18.4449 31.3802 18.4423 31.3869 18.4395C31.3933 18.4369 31.3994 18.4341 31.4055 18.4313C31.412 18.4282 31.4184 18.4251 31.4247 18.4218C31.4305 18.4188 31.4364 18.4157 31.442 18.4124C31.4484 18.4088 31.4545 18.405 31.4607 18.4012C31.4658 18.3979 31.471 18.3946 31.476 18.3912C31.4824 18.3867 31.4885 18.3821 31.4946 18.3774C31.4988 18.3741 31.5033 18.3709 31.5074 18.3674C31.5139 18.362 31.5201 18.3563 31.5263 18.3506C31.5296 18.3475 31.533 18.3445 31.5362 18.3414C31.5431 18.3345 31.5494 18.3273 31.5556 18.3202C31.5577 18.3177 31.5601 18.3154 31.5622 18.3128C31.5698 18.3035 31.577 18.294 31.5836 18.2841C31.5841 18.2835 31.5846 18.283 31.5849 18.2823C31.592 18.2718 31.5985 18.2609 31.6043 18.2498C31.6059 18.2466 31.6072 18.2433 31.6087 18.2401C31.6125 18.2322 31.6163 18.2243 31.6195 18.2162C31.6215 18.2109 31.623 18.2055 31.6249 18.2001C31.6269 18.1938 31.6291 18.1875 31.6308 18.181C31.6324 18.1753 31.6334 18.1694 31.6346 18.1636C31.6357 18.1584 31.637 18.1534 31.6378 18.1482C31.6577 18.0188 32.0248 15.6268 32.1887 14.08C32.1889 14.0786 32.189 14.077 32.1892 14.0756C32.2364 13.6297 32.2666 13.2542 32.2666 13.0243C32.2666 10.2951 29.533 8.07461 26.1728 8.07461ZM24.0765 8.83621H25.9942L25.7493 11.1205H23.8316L24.0765 8.83621ZM10.9546 20.2385C9.50358 20.2385 8.32307 19.2796 8.32307 18.101C8.32307 16.9224 9.50364 15.9635 10.9546 15.9635C12.4056 15.9635 13.5862 16.9224 13.5862 18.101C13.5862 19.2796 12.4056 20.2385 10.9546 20.2385ZM25.5477 20.2385C24.0967 20.2385 22.9163 19.2796 22.9163 18.101C22.9163 16.9224 24.0968 15.9635 25.5477 15.9635C26.9988 15.9635 28.1793 16.9224 28.1793 18.101C28.1793 19.2796 26.9988 20.2385 25.5477 20.2385ZM30.7582 17.7201H29.0852C28.8548 16.3009 27.357 15.2018 25.5478 15.2018C23.7388 15.2018 22.2409 16.301 22.0106 17.7201H14.4919C14.2615 16.3009 12.7637 15.2018 10.9546 15.2018C9.14557 15.2018 7.64763 16.301 7.41725 17.7201H5.84575L6.23944 14.4201H23.0479V14.4203C23.0482 14.4203 23.0484 14.4203 23.0486 14.4203C23.0643 14.4203 23.0799 14.4196 23.0953 14.4183C23.0981 14.4181 23.1009 14.4176 23.1038 14.4173C23.1161 14.4161 23.1283 14.4147 23.1403 14.4127C23.1454 14.4119 23.1505 14.4107 23.1556 14.4097C23.165 14.4079 23.1744 14.4061 23.1835 14.4039C23.1898 14.4023 23.1957 14.4005 23.2018 14.3988C23.2096 14.3966 23.2175 14.3944 23.2251 14.3918C23.2317 14.3897 23.238 14.3872 23.2444 14.3848C23.2513 14.3822 23.2583 14.3796 23.2649 14.3768C23.2713 14.374 23.2776 14.3711 23.2839 14.3681C23.2903 14.3651 23.2967 14.362 23.3029 14.3587C23.309 14.3555 23.3148 14.3522 23.3206 14.3488C23.3268 14.3453 23.3328 14.3416 23.3388 14.3378C23.3441 14.3343 23.3494 14.3307 23.3547 14.327C23.3606 14.3228 23.3664 14.3186 23.3721 14.3142C23.3768 14.3105 23.3816 14.3066 23.3862 14.3027C23.3918 14.298 23.3973 14.293 23.4026 14.288C23.4068 14.2841 23.4109 14.2801 23.4149 14.276C23.4201 14.2707 23.4251 14.2652 23.4299 14.2597C23.4336 14.2555 23.4372 14.2514 23.4407 14.2471C23.4453 14.2414 23.4496 14.2355 23.4538 14.2295C23.457 14.225 23.4603 14.2205 23.4631 14.216C23.4671 14.21 23.4704 14.2039 23.474 14.1978C23.4768 14.1928 23.4796 14.188 23.4821 14.1829C23.4851 14.1769 23.4877 14.1708 23.4904 14.1647C23.4927 14.1592 23.4951 14.1538 23.4972 14.1482C23.4993 14.1423 23.5009 14.1363 23.5028 14.1303C23.5046 14.1242 23.5066 14.1183 23.5081 14.1121C23.5095 14.1061 23.5104 14.1 23.5115 14.0939C23.5126 14.0876 23.5139 14.0814 23.5147 14.0751C23.5148 14.0741 23.5151 14.0733 23.5151 14.0724L23.7501 11.8818H26.1727C27.6089 11.8818 28.2566 12.4862 28.9423 13.1262C29.5082 13.6542 30.1398 14.2433 31.2136 14.3871C31.0772 15.5582 30.8568 17.0617 30.7582 17.7201ZM31.2937 13.624C30.5972 13.5087 30.1686 13.1109 29.6494 12.6264C29.0001 12.0205 28.2074 11.2811 26.6878 11.1433L26.9303 8.8818C29.4156 9.18036 31.3291 10.9241 31.3291 13.0244C31.3291 13.1671 31.316 13.3745 31.2937 13.624Z" fill="#363636"/>
<path d="M5.57496 8.22498H3.78709C3.58508 8.22498 3.42139 8.35596 3.42139 8.51753C3.42139 8.6791 3.58508 8.81009 3.78709 8.81009H5.57496C5.77698 8.81009 5.94067 8.6791 5.94067 8.51753C5.94067 8.35596 5.77698 8.22498 5.57496 8.22498Z" fill="#363636"/>
<path d="M51.6416 15.05V17H43.5116V6.5H51.4466V8.45H45.9266V10.73H50.8016V12.62H45.9266V15.05H51.6416ZM58.3151 8.81C59.3151 8.81 60.1201 9.11 60.7301 9.71C61.3501 10.31 61.6601 11.2 61.6601 12.38V17H59.3201V12.74C59.3201 12.1 59.1801 11.625 58.9001 11.315C58.6201 10.995 58.2151 10.835 57.6851 10.835C57.0951 10.835 56.6251 11.02 56.2751 11.39C55.9251 11.75 55.7501 12.29 55.7501 13.01V17H53.4101V8.93H55.6451V9.875C55.9551 9.535 56.3401 9.275 56.8001 9.095C57.2601 8.905 57.7651 8.81 58.3151 8.81ZM71.6447 8.93L68.2397 17H65.8247L62.4347 8.93H64.8497L67.0847 14.42L69.3947 8.93H71.6447ZM72.5995 8.93H74.9395V17H72.5995V8.93ZM74.4295 5.735H76.9495L74.2345 7.895H72.4045L74.4295 5.735ZM80.9513 17.12C80.1013 17.12 79.3363 16.945 78.6563 16.595C77.9863 16.235 77.4613 15.74 77.0813 15.11C76.7013 14.48 76.5113 13.765 76.5113 12.965C76.5113 12.165 76.7013 11.45 77.0813 10.82C77.4613 10.19 77.9863 9.7 78.6563 9.35C79.3363 8.99 80.1013 8.81 80.9513 8.81C81.8013 8.81 82.5613 8.99 83.2313 9.35C83.9013 9.7 84.4263 10.19 84.8063 10.82C85.1863 11.45 85.3763 12.165 85.3763 12.965C85.3763 13.765 85.1863 14.48 84.8063 15.11C84.4263 15.74 83.9013 16.235 83.2313 16.595C82.5613 16.945 81.8013 17.12 80.9513 17.12ZM80.9513 15.2C81.5513 15.2 82.0413 15 82.4213 14.6C82.8113 14.19 83.0063 13.645 83.0063 12.965C83.0063 12.285 82.8113 11.745 82.4213 11.345C82.0413 10.935 81.5513 10.73 80.9513 10.73C80.3513 10.73 79.8563 10.935 79.4663 11.345C79.0763 11.745 78.8813 12.285 78.8813 12.965C78.8813 13.645 79.0763 14.19 79.4663 14.6C79.8563 15 80.3513 15.2 80.9513 15.2ZM89.6554 17.12C88.9854 17.12 88.3304 17.04 87.6904 16.88C87.0504 16.71 86.5404 16.5 86.1604 16.25L86.9404 14.57C87.3004 14.8 87.7354 14.99 88.2454 15.14C88.7554 15.28 89.2554 15.35 89.7454 15.35C90.7354 15.35 91.2304 15.105 91.2304 14.615C91.2304 14.385 91.0954 14.22 90.8254 14.12C90.5554 14.02 90.1404 13.935 89.5804 13.865C88.9204 13.765 88.3754 13.65 87.9454 13.52C87.5154 13.39 87.1404 13.16 86.8204 12.83C86.5104 12.5 86.3554 12.03 86.3554 11.42C86.3554 10.91 86.5004 10.46 86.7904 10.07C87.0904 9.67 87.5204 9.36 88.0804 9.14C88.6504 8.92 89.3204 8.81 90.0904 8.81C90.6604 8.81 91.2254 8.875 91.7854 9.005C92.3554 9.125 92.8254 9.295 93.1954 9.515L92.4154 11.18C91.7054 10.78 90.9304 10.58 90.0904 10.58C89.5904 10.58 89.2154 10.65 88.9654 10.79C88.7154 10.93 88.5904 11.11 88.5904 11.33C88.5904 11.58 88.7254 11.755 88.9954 11.855C89.2654 11.955 89.6954 12.05 90.2854 12.14C90.9454 12.25 91.4854 12.37 91.9054 12.5C92.3254 12.62 92.6904 12.845 93.0004 13.175C93.3104 13.505 93.4654 13.965 93.4654 14.555C93.4654 15.055 93.3154 15.5 93.0154 15.89C92.7154 16.28 92.2754 16.585 91.6954 16.805C91.1254 17.015 90.4454 17.12 89.6554 17.12ZM106.417 11.585H108.637V15.845C108.067 16.275 107.407 16.605 106.657 16.835C105.907 17.065 105.152 17.18 104.392 17.18C103.302 17.18 102.322 16.95 101.452 16.49C100.582 16.02 99.8971 15.375 99.3971 14.555C98.9071 13.725 98.6621 12.79 98.6621 11.75C98.6621 10.71 98.9071 9.78 99.3971 8.96C99.8971 8.13 100.587 7.485 101.467 7.025C102.347 6.555 103.337 6.32 104.437 6.32C105.357 6.32 106.192 6.475 106.942 6.785C107.692 7.095 108.322 7.545 108.832 8.135L107.272 9.575C106.522 8.785 105.617 8.39 104.557 8.39C103.887 8.39 103.292 8.53 102.772 8.81C102.252 9.09 101.847 9.485 101.557 9.995C101.267 10.505 101.122 11.09 101.122 11.75C101.122 12.4 101.267 12.98 101.557 13.49C101.847 14 102.247 14.4 102.757 14.69C103.277 14.97 103.867 15.11 104.527 15.11C105.227 15.11 105.857 14.96 106.417 14.66V11.585ZM112.964 9.995C113.244 9.605 113.619 9.31 114.089 9.11C114.569 8.91 115.119 8.81 115.739 8.81V10.97C115.479 10.95 115.304 10.94 115.214 10.94C114.544 10.94 114.019 11.13 113.639 11.51C113.259 11.88 113.069 12.44 113.069 13.19V17H110.729V8.93H112.964V9.995ZM120.342 8.81C121.592 8.81 122.552 9.11 123.222 9.71C123.892 10.3 124.227 11.195 124.227 12.395V17H122.037V15.995C121.597 16.745 120.777 17.12 119.577 17.12C118.957 17.12 118.417 17.015 117.957 16.805C117.507 16.595 117.162 16.305 116.922 15.935C116.682 15.565 116.562 15.145 116.562 14.675C116.562 13.925 116.842 13.335 117.402 12.905C117.972 12.475 118.847 12.26 120.027 12.26H121.887C121.887 11.75 121.732 11.36 121.422 11.09C121.112 10.81 120.647 10.67 120.027 10.67C119.597 10.67 119.172 10.74 118.752 10.88C118.342 11.01 117.992 11.19 117.702 11.42L116.862 9.785C117.302 9.475 117.827 9.235 118.437 9.065C119.057 8.895 119.692 8.81 120.342 8.81ZM120.162 15.545C120.562 15.545 120.917 15.455 121.227 15.275C121.537 15.085 121.757 14.81 121.887 14.45V13.625H120.282C119.322 13.625 118.842 13.94 118.842 14.57C118.842 14.87 118.957 15.11 119.187 15.29C119.427 15.46 119.752 15.545 120.162 15.545ZM131.55 16.61C131.32 16.78 131.035 16.91 130.695 17C130.365 17.08 130.015 17.12 129.645 17.12C128.685 17.12 127.94 16.875 127.41 16.385C126.89 15.895 126.63 15.175 126.63 14.225V10.91H125.385V9.11H126.63V7.145H128.97V9.11H130.98V10.91H128.97V14.195C128.97 14.535 129.055 14.8 129.225 14.99C129.405 15.17 129.655 15.26 129.975 15.26C130.345 15.26 130.66 15.16 130.92 14.96L131.55 16.61ZM132.863 8.93H135.203V17H132.863V8.93ZM134.033 7.805C133.603 7.805 133.253 7.68 132.983 7.43C132.713 7.18 132.578 6.87 132.578 6.5C132.578 6.13 132.713 5.82 132.983 5.57C133.253 5.32 133.603 5.195 134.033 5.195C134.463 5.195 134.813 5.315 135.083 5.555C135.353 5.795 135.488 6.095 135.488 6.455C135.488 6.845 135.353 7.17 135.083 7.43C134.813 7.68 134.463 7.805 134.033 7.805ZM140.09 17.12C139.42 17.12 138.765 17.04 138.125 16.88C137.485 16.71 136.975 16.5 136.595 16.25L137.375 14.57C137.735 14.8 138.17 14.99 138.68 15.14C139.19 15.28 139.69 15.35 140.18 15.35C141.17 15.35 141.665 15.105 141.665 14.615C141.665 14.385 141.53 14.22 141.26 14.12C140.99 14.02 140.575 13.935 140.015 13.865C139.355 13.765 138.81 13.65 138.38 13.52C137.95 13.39 137.575 13.16 137.255 12.83C136.945 12.5 136.79 12.03 136.79 11.42C136.79 10.91 136.935 10.46 137.225 10.07C137.525 9.67 137.955 9.36 138.515 9.14C139.085 8.92 139.755 8.81 140.525 8.81C141.095 8.81 141.66 8.875 142.22 9.005C142.79 9.125 143.26 9.295 143.63 9.515L142.85 11.18C142.14 10.78 141.365 10.58 140.525 10.58C140.025 10.58 139.65 10.65 139.4 10.79C139.15 10.93 139.025 11.11 139.025 11.33C139.025 11.58 139.16 11.755 139.43 11.855C139.7 11.955 140.13 12.05 140.72 12.14C141.38 12.25 141.92 12.37 142.34 12.5C142.76 12.62 143.125 12.845 143.435 13.175C143.745 13.505 143.9 13.965 143.9 14.555C143.9 15.055 143.75 15.5 143.45 15.89C143.15 16.28 142.71 16.585 142.13 16.805C141.56 17.015 140.88 17.12 140.09 17.12ZM152.847 8.81C154.097 8.81 155.057 9.11 155.727 9.71C156.397 10.3 156.732 11.195 156.732 12.395V17H154.542V15.995C154.102 16.745 153.282 17.12 152.082 17.12C151.462 17.12 150.922 17.015 150.462 16.805C150.012 16.595 149.667 16.305 149.427 15.935C149.187 15.565 149.067 15.145 149.067 14.675C149.067 13.925 149.347 13.335 149.907 12.905C150.477 12.475 151.352 12.26 152.532 12.26H154.392C154.392 11.75 154.237 11.36 153.927 11.09C153.617 10.81 153.152 10.67 152.532 10.67C152.102 10.67 151.677 10.74 151.257 10.88C150.847 11.01 150.497 11.19 150.207 11.42L149.367 9.785C149.807 9.475 150.332 9.235 150.942 9.065C151.562 8.895 152.197 8.81 152.847 8.81ZM152.667 15.545C153.067 15.545 153.422 15.455 153.732 15.275C154.042 15.085 154.262 14.81 154.392 14.45V13.625H152.787C151.827 13.625 151.347 13.94 151.347 14.57C151.347 14.87 151.462 15.11 151.692 15.29C151.932 15.46 152.257 15.545 152.667 15.545ZM163.263 6.5H168.033C169.173 6.5 170.178 6.72 171.048 7.16C171.928 7.59 172.608 8.2 173.088 8.99C173.578 9.78 173.823 10.7 173.823 11.75C173.823 12.8 173.578 13.72 173.088 14.51C172.608 15.3 171.928 15.915 171.048 16.355C170.178 16.785 169.173 17 168.033 17H163.263V6.5ZM167.913 15.005C168.963 15.005 169.798 14.715 170.418 14.135C171.048 13.545 171.363 12.75 171.363 11.75C171.363 10.75 171.048 9.96 170.418 9.38C169.798 8.79 168.963 8.495 167.913 8.495H165.693V15.005H167.913ZM179.33 17.12C178.48 17.12 177.715 16.945 177.035 16.595C176.365 16.235 175.84 15.74 175.46 15.11C175.08 14.48 174.89 13.765 174.89 12.965C174.89 12.165 175.08 11.45 175.46 10.82C175.84 10.19 176.365 9.7 177.035 9.35C177.715 8.99 178.48 8.81 179.33 8.81C180.18 8.81 180.94 8.99 181.61 9.35C182.28 9.7 182.805 10.19 183.185 10.82C183.565 11.45 183.755 12.165 183.755 12.965C183.755 13.765 183.565 14.48 183.185 15.11C182.805 15.74 182.28 16.235 181.61 16.595C180.94 16.945 180.18 17.12 179.33 17.12ZM179.33 15.2C179.93 15.2 180.42 15 180.8 14.6C181.19 14.19 181.385 13.645 181.385 12.965C181.385 12.285 181.19 11.745 180.8 11.345C180.42 10.935 179.93 10.73 179.33 10.73C178.73 10.73 178.235 10.935 177.845 11.345C177.455 11.745 177.26 12.285 177.26 12.965C177.26 13.645 177.455 14.19 177.845 14.6C178.235 15 178.73 15.2 179.33 15.2ZM195.654 8.81C196.664 8.81 197.464 9.11 198.054 9.71C198.654 10.3 198.954 11.19 198.954 12.38V17H196.614V12.74C196.614 12.1 196.479 11.625 196.209 11.315C195.949 10.995 195.574 10.835 195.084 10.835C194.534 10.835 194.099 11.015 193.779 11.375C193.459 11.725 193.299 12.25 193.299 12.95V17H190.959V12.74C190.959 11.47 190.449 10.835 189.429 10.835C188.889 10.835 188.459 11.015 188.139 11.375C187.819 11.725 187.659 12.25 187.659 12.95V17H185.319V8.93H187.554V9.86C187.854 9.52 188.219 9.26 188.649 9.08C189.089 8.9 189.569 8.81 190.089 8.81C190.659 8.81 191.174 8.925 191.634 9.155C192.094 9.375 192.464 9.7 192.744 10.13C193.074 9.71 193.489 9.385 193.989 9.155C194.499 8.925 195.054 8.81 195.654 8.81ZM201.052 8.93H203.392V17H201.052V8.93ZM202.222 7.805C201.792 7.805 201.442 7.68 201.172 7.43C200.902 7.18 200.767 6.87 200.767 6.5C200.767 6.13 200.902 5.82 201.172 5.57C201.442 5.32 201.792 5.195 202.222 5.195C202.652 5.195 203.002 5.315 203.272 5.555C203.542 5.795 203.677 6.095 203.677 6.455C203.677 6.845 203.542 7.17 203.272 7.43C203.002 7.68 202.652 7.805 202.222 7.805ZM209.463 17.12C208.603 17.12 207.828 16.945 207.138 16.595C206.458 16.235 205.923 15.74 205.533 15.11C205.153 14.48 204.963 13.765 204.963 12.965C204.963 12.165 205.153 11.45 205.533 10.82C205.923 10.19 206.458 9.7 207.138 9.35C207.828 8.99 208.603 8.81 209.463 8.81C210.313 8.81 211.053 8.99 211.683 9.35C212.323 9.7 212.788 10.205 213.078 10.865L211.263 11.84C210.843 11.1 210.238 10.73 209.448 10.73C208.838 10.73 208.333 10.93 207.933 11.33C207.533 11.73 207.333 12.275 207.333 12.965C207.333 13.655 207.533 14.2 207.933 14.6C208.333 15 208.838 15.2 209.448 15.2C210.248 15.2 210.853 14.83 211.263 14.09L213.078 15.08C212.788 15.72 212.323 16.22 211.683 16.58C211.053 16.94 210.313 17.12 209.463 17.12ZM214.426 8.93H216.766V17H214.426V8.93ZM215.596 7.805C215.166 7.805 214.816 7.68 214.546 7.43C214.276 7.18 214.141 6.87 214.141 6.5C214.141 6.13 214.276 5.82 214.546 5.57C214.816 5.32 215.166 5.195 215.596 5.195C216.026 5.195 216.376 5.315 216.646 5.555C216.916 5.795 217.051 6.095 217.051 6.455C217.051 6.845 216.916 7.17 216.646 7.43C216.376 7.68 216.026 7.805 215.596 7.805ZM218.937 5.87H221.277V17H218.937V5.87ZM223.449 8.93H225.789V17H223.449V8.93ZM224.619 7.805C224.189 7.805 223.839 7.68 223.569 7.43C223.299 7.18 223.164 6.87 223.164 6.5C223.164 6.13 223.299 5.82 223.569 5.57C223.839 5.32 224.189 5.195 224.619 5.195C225.049 5.195 225.399 5.315 225.669 5.555C225.939 5.795 226.074 6.095 226.074 6.455C226.074 6.845 225.939 7.17 225.669 7.43C225.399 7.68 225.049 7.805 224.619 7.805ZM231.801 17.12C230.951 17.12 230.186 16.945 229.506 16.595C228.836 16.235 228.311 15.74 227.931 15.11C227.551 14.48 227.361 13.765 227.361 12.965C227.361 12.165 227.551 11.45 227.931 10.82C228.311 10.19 228.836 9.7 229.506 9.35C230.186 8.99 230.951 8.81 231.801 8.81C232.651 8.81 233.411 8.99 234.081 9.35C234.751 9.7 235.276 10.19 235.656 10.82C236.036 11.45 236.226 12.165 236.226 12.965C236.226 13.765 236.036 14.48 235.656 15.11C235.276 15.74 234.751 16.235 234.081 16.595C233.411 16.945 232.651 17.12 231.801 17.12ZM231.801 15.2C232.401 15.2 232.891 15 233.271 14.6C233.661 14.19 233.856 13.645 233.856 12.965C233.856 12.285 233.661 11.745 233.271 11.345C232.891 10.935 232.401 10.73 231.801 10.73C231.201 10.73 230.706 10.935 230.316 11.345C229.926 11.745 229.731 12.285 229.731 12.965C229.731 13.645 229.926 14.19 230.316 14.6C230.706 15 231.201 15.2 231.801 15.2Z" fill="#363636"/>
</svg>
