<svg width="286" height="27" viewBox="0 0 286 27" fill="none" xmlns="http://www.w3.org/2000/svg">
<path d="M11.1466 12.6334C10.7028 12.2747 10.1154 12.0776 9.4904 12.0776C8.86543 12.0776 8.27796 12.2747 7.83424 12.6334C6.92179 13.3711 6.92179 14.5737 7.83424 15.3113C8.27796 15.6701 8.86543 15.8671 9.4904 15.8671C10.1154 15.8671 10.7028 15.6701 11.1466 15.3113C11.5903 14.9526 11.834 14.4777 11.834 13.9724C11.834 13.4671 11.5903 12.9922 11.1466 12.6334ZM10.4841 14.7758C10.2216 14.988 9.86537 15.1092 9.4904 15.1092C9.11542 15.1092 8.75919 14.993 8.4967 14.7758C7.94673 14.3311 7.94673 13.6136 8.4967 13.169C8.75919 12.9568 9.11542 12.8355 9.4904 12.8355C9.86537 12.8355 10.2216 12.9517 10.4841 13.169C10.7466 13.3812 10.8966 13.6692 10.8966 13.9724C10.8966 14.2755 10.7528 14.5636 10.4841 14.7758Z" fill="#363636"/>
<path d="M17.3341 17.6363C16.8903 17.2776 16.3029 17.0806 15.6779 17.0806C15.0529 17.0806 14.4655 17.2776 14.0217 17.6363C13.1093 18.374 13.1093 19.5765 14.0217 20.3142C14.4655 20.6729 15.0529 20.87 15.6779 20.87C16.3029 20.87 16.8903 20.6729 17.3341 20.3142C17.7778 19.9555 18.0215 19.4805 18.0215 18.9753C18.0153 18.465 17.7715 17.99 17.3341 17.6363ZM16.6716 19.7786C16.4091 19.9908 16.0529 20.1121 15.6779 20.1121C15.3029 20.1121 14.9467 19.9959 14.6842 19.7786C14.1342 19.334 14.1342 18.6165 14.6842 18.1719C14.9467 17.9597 15.3029 17.8385 15.6779 17.8385C16.0529 17.8385 16.4091 17.9547 16.6716 18.1719C16.9341 18.3841 17.0841 18.6721 17.0841 18.9753C17.0778 19.2784 16.9341 19.5614 16.6716 19.7786Z" fill="#363636"/>
<path d="M17.3346 12.6344C17.1534 12.4879 16.8534 12.4879 16.6722 12.6344L7.83515 19.7789C7.65391 19.9254 7.65391 20.1679 7.83515 20.3144C7.92889 20.3902 8.04764 20.4256 8.16638 20.4256C8.28512 20.4256 8.40387 20.3902 8.49761 20.3144L17.3284 13.1751C17.5159 13.0235 17.5159 12.781 17.3346 12.6344Z" fill="#363636"/>
<path d="M31.8774 0.89224C31.2462 0.381926 30.0213 0.493084 28.3401 1.21055C26.8902 1.83202 25.2278 2.86276 23.7779 4.02991C23.2154 4.48464 22.6904 4.95453 22.2154 5.42948L15.647 4.79285C15.5595 4.78275 15.4658 4.77769 15.3721 4.77769C14.9908 4.77769 14.5721 4.84338 14.1659 4.97475C13.7409 5.10611 13.3972 5.28295 13.1347 5.49516L7.26623 10.2396C7.08499 10.3861 7.08499 10.6286 7.26623 10.7751C7.35373 10.8459 7.47247 10.8863 7.59746 10.8863C7.72246 10.8863 7.8412 10.8459 7.9287 10.7751L13.7971 6.03074C13.9534 5.89937 14.2221 5.77306 14.5096 5.68211C14.7971 5.59116 15.1158 5.54064 15.3721 5.54064H15.3783C15.4346 5.54064 15.4908 5.54569 15.5408 5.55074L24.1028 6.37937C24.3216 6.39958 24.5653 6.50063 24.7466 6.65221C24.934 6.79874 25.059 6.99579 25.084 7.17263L25.259 8.35999C24.5403 8.80462 23.8341 9.16841 23.1779 9.4362C23.0591 9.48672 22.9279 9.5322 22.7967 9.57767C22.6967 9.24925 22.4842 8.95115 22.1842 8.70862C21.7467 8.35494 21.1592 8.15789 20.5405 8.15789C19.9218 8.15789 19.3343 8.35494 18.8969 8.70862C17.9907 9.44125 17.9907 10.6337 18.8969 11.3663C19.3343 11.72 19.9218 11.917 20.5405 11.917C21.1592 11.917 21.7467 11.72 22.1842 11.3663C22.5217 11.0935 22.7404 10.7549 22.8279 10.3861C23.0654 10.3153 23.3216 10.2244 23.5966 10.1132C24.1716 9.88083 24.7716 9.58272 25.3903 9.22399L26.1152 14.0947C26.1215 14.1351 26.1215 14.1806 26.1215 14.2261C26.1215 14.4332 26.059 14.696 25.9465 14.9233C25.834 15.1557 25.6778 15.368 25.5153 15.4993L13.1347 25.4883C12.9909 25.6045 12.7909 25.6702 12.5847 25.6702C12.3722 25.6702 12.1785 25.6045 12.0347 25.4883L1.42904 16.9191C1.2853 16.8029 1.20405 16.6412 1.20405 16.4745C1.20405 16.3027 1.2853 16.1461 1.42904 16.0298L6.60377 11.8463C6.78501 11.6998 6.78501 11.4572 6.60377 11.3107C6.51627 11.24 6.39753 11.1996 6.27253 11.1996C6.14754 11.1996 6.0288 11.24 5.9413 11.3107L0.766575 15.4892C0.604084 15.6206 0.47909 15.7772 0.391595 15.949C0.310349 16.1157 0.266602 16.2926 0.266602 16.4694C0.266602 16.6463 0.310349 16.8231 0.391595 16.9898C0.47909 17.1616 0.604084 17.3183 0.766575 17.4496L11.366 26.0189C11.5285 26.1502 11.7222 26.2513 11.9347 26.322C12.141 26.3877 12.3597 26.4231 12.5785 26.4231H12.5847C12.8097 26.4231 13.0222 26.3877 13.2284 26.322C13.4409 26.2513 13.6346 26.1502 13.7971 26.0189L26.1652 16.0197C26.4277 15.8075 26.6402 15.5246 26.809 15.1861C26.9652 14.8576 27.0527 14.5191 27.0527 14.2109C27.0527 14.1351 27.0464 14.0593 27.0339 13.9886L26.2465 8.67325C26.8277 8.29431 27.4089 7.86989 27.9776 7.4101C29.4276 6.2379 30.7025 4.89896 31.4712 3.7318C32.3712 2.38781 32.5086 1.40255 31.8774 0.89224ZM20.2468 10.28C20.478 10.4669 20.8405 10.6236 21.4092 10.6236C21.5092 10.6236 21.6092 10.6185 21.7217 10.6084C21.6655 10.6842 21.5967 10.7549 21.5155 10.8206C21.253 11.0328 20.903 11.149 20.5343 11.149C20.1656 11.149 19.8156 11.0328 19.5531 10.8206C19.0094 10.381 19.0094 9.66862 19.5531 9.23409C19.8156 9.02188 20.1656 8.90567 20.5343 8.90567C20.903 8.90567 21.253 9.02188 21.5155 9.23409C21.7155 9.39577 21.8467 9.59788 21.8967 9.81514C21.4655 9.89598 21.0968 9.89598 20.9093 9.7444C20.728 9.59788 20.428 9.59788 20.2468 9.7444C20.0656 9.89093 20.0656 10.1284 20.2468 10.28ZM30.6462 3.38317C29.915 4.48464 28.7026 5.76295 27.3152 6.88463C26.9214 7.20294 26.5152 7.5061 26.1152 7.78399L26.009 7.07158C25.9527 6.71789 25.7465 6.37937 25.4028 6.10653C25.059 5.83369 24.6466 5.6619 24.2091 5.61643L23.3279 5.53558C23.6779 5.20716 24.0466 4.8838 24.4403 4.56548C27.7464 1.89266 30.7025 1.0135 31.215 1.42782C31.4525 1.61476 31.365 2.29686 30.6462 3.38317Z" fill="#363636"/>
<path d="M53.1416 8.5V19H51.1466L45.9116 12.625V19H43.5116V8.5H45.5216L50.7416 14.875V8.5H53.1416ZM63.5909 10.93V19H61.3709V18.04C61.0609 18.39 60.6909 18.66 60.2609 18.85C59.8309 19.03 59.3659 19.12 58.8659 19.12C57.8059 19.12 56.9659 18.815 56.3459 18.205C55.7259 17.595 55.4159 16.69 55.4159 15.49V10.93H57.7559V15.145C57.7559 16.445 58.3009 17.095 59.3909 17.095C59.9509 17.095 60.4009 16.915 60.7409 16.555C61.0809 16.185 61.2509 15.64 61.2509 14.92V10.93H63.5909ZM73.6637 14.995C73.6637 15.025 73.6487 15.235 73.6187 15.625H67.5137C67.6237 16.125 67.8837 16.52 68.2937 16.81C68.7037 17.1 69.2137 17.245 69.8237 17.245C70.2437 17.245 70.6137 17.185 70.9337 17.065C71.2637 16.935 71.5687 16.735 71.8487 16.465L73.0937 17.815C72.3337 18.685 71.2237 19.12 69.7637 19.12C68.8537 19.12 68.0487 18.945 67.3487 18.595C66.6487 18.235 66.1087 17.74 65.7287 17.11C65.3487 16.48 65.1587 15.765 65.1587 14.965C65.1587 14.175 65.3437 13.465 65.7137 12.835C66.0937 12.195 66.6087 11.7 67.2587 11.35C67.9187 10.99 68.6537 10.81 69.4637 10.81C70.2537 10.81 70.9687 10.98 71.6087 11.32C72.2487 11.66 72.7487 12.15 73.1087 12.79C73.4787 13.42 73.6637 14.155 73.6637 14.995ZM69.4787 12.58C68.9487 12.58 68.5037 12.73 68.1437 13.03C67.7837 13.33 67.5637 13.74 67.4837 14.26H71.4587C71.3787 13.75 71.1587 13.345 70.7987 13.045C70.4387 12.735 69.9987 12.58 69.4787 12.58ZM83.0851 10.93L79.6801 19H77.2651L73.8751 10.93H76.2901L78.5251 16.42L80.8351 10.93H83.0851ZM87.0313 10.81C88.2813 10.81 89.2413 11.11 89.9113 11.71C90.5813 12.3 90.9163 13.195 90.9163 14.395V19H88.7263V17.995C88.2863 18.745 87.4663 19.12 86.2663 19.12C85.6463 19.12 85.1063 19.015 84.6463 18.805C84.1963 18.595 83.8513 18.305 83.6113 17.935C83.3713 17.565 83.2513 17.145 83.2513 16.675C83.2513 15.925 83.5313 15.335 84.0913 14.905C84.6613 14.475 85.5363 14.26 86.7163 14.26H88.5763C88.5763 13.75 88.4213 13.36 88.1113 13.09C87.8013 12.81 87.3363 12.67 86.7163 12.67C86.2863 12.67 85.8613 12.74 85.4413 12.88C85.0313 13.01 84.6813 13.19 84.3913 13.42L83.5513 11.785C83.9913 11.475 84.5163 11.235 85.1263 11.065C85.7463 10.895 86.3813 10.81 87.0313 10.81ZM86.8513 17.545C87.2513 17.545 87.6063 17.455 87.9163 17.275C88.2263 17.085 88.4463 16.81 88.5763 16.45V15.625H86.9713C86.0113 15.625 85.5313 15.94 85.5313 16.57C85.5313 16.87 85.6463 17.11 85.8763 17.29C86.1163 17.46 86.4413 17.545 86.8513 17.545ZM95.7491 19.12C95.0791 19.12 94.4241 19.04 93.7841 18.88C93.1441 18.71 92.6341 18.5 92.2541 18.25L93.0341 16.57C93.3941 16.8 93.8291 16.99 94.3391 17.14C94.8491 17.28 95.3491 17.35 95.8391 17.35C96.8291 17.35 97.3241 17.105 97.3241 16.615C97.3241 16.385 97.1891 16.22 96.9191 16.12C96.6491 16.02 96.2341 15.935 95.6741 15.865C95.0141 15.765 94.4691 15.65 94.0391 15.52C93.6091 15.39 93.2341 15.16 92.9141 14.83C92.6041 14.5 92.4491 14.03 92.4491 13.42C92.4491 12.91 92.5941 12.46 92.8841 12.07C93.1841 11.67 93.6141 11.36 94.1741 11.14C94.7441 10.92 95.4141 10.81 96.1841 10.81C96.7541 10.81 97.3191 10.875 97.8791 11.005C98.4491 11.125 98.9191 11.295 99.2891 11.515L98.5091 13.18C97.7991 12.78 97.0241 12.58 96.1841 12.58C95.6841 12.58 95.3091 12.65 95.0591 12.79C94.8091 12.93 94.6841 13.11 94.6841 13.33C94.6841 13.58 94.8191 13.755 95.0891 13.855C95.3591 13.955 95.7891 14.05 96.3791 14.14C97.0391 14.25 97.5791 14.37 97.9991 14.5C98.4191 14.62 98.7841 14.845 99.0941 15.175C99.4041 15.505 99.5591 15.965 99.5591 16.555C99.5591 17.055 99.4091 17.5 99.1091 17.89C98.8091 18.28 98.3691 18.585 97.7891 18.805C97.2191 19.015 96.5391 19.12 95.7491 19.12ZM110.501 19.18C109.411 19.18 108.426 18.945 107.546 18.475C106.676 18.005 105.991 17.36 105.491 16.54C105.001 15.71 104.756 14.78 104.756 13.75C104.756 12.72 105.001 11.795 105.491 10.975C105.991 10.145 106.676 9.495 107.546 9.025C108.426 8.555 109.411 8.32 110.501 8.32C111.591 8.32 112.571 8.555 113.441 9.025C114.311 9.495 114.996 10.145 115.496 10.975C115.996 11.795 116.246 12.72 116.246 13.75C116.246 14.78 115.996 15.71 115.496 16.54C114.996 17.36 114.311 18.005 113.441 18.475C112.571 18.945 111.591 19.18 110.501 19.18ZM110.501 17.11C111.121 17.11 111.681 16.97 112.181 16.69C112.681 16.4 113.071 16 113.351 15.49C113.641 14.98 113.786 14.4 113.786 13.75C113.786 13.1 113.641 12.52 113.351 12.01C113.071 11.5 112.681 11.105 112.181 10.825C111.681 10.535 111.121 10.39 110.501 10.39C109.881 10.39 109.321 10.535 108.821 10.825C108.321 11.105 107.926 11.5 107.636 12.01C107.356 12.52 107.216 13.1 107.216 13.75C107.216 14.4 107.356 14.98 107.636 15.49C107.926 16 108.321 16.4 108.821 16.69C109.321 16.97 109.881 17.11 110.501 17.11ZM120.472 11.11H122.542V12.91H120.532V19H118.192V12.91H116.947V11.11H118.192V10.75C118.192 9.83 118.462 9.1 119.002 8.56C119.552 8.02 120.322 7.75 121.312 7.75C121.662 7.75 121.992 7.79 122.302 7.87C122.622 7.94 122.887 8.045 123.097 8.185L122.482 9.88C122.212 9.69 121.897 9.595 121.537 9.595C120.827 9.595 120.472 9.985 120.472 10.765V11.11ZM131.51 14.995C131.51 15.025 131.495 15.235 131.465 15.625H125.36C125.47 16.125 125.73 16.52 126.14 16.81C126.55 17.1 127.06 17.245 127.67 17.245C128.09 17.245 128.46 17.185 128.78 17.065C129.11 16.935 129.415 16.735 129.695 16.465L130.94 17.815C130.18 18.685 129.07 19.12 127.61 19.12C126.7 19.12 125.895 18.945 125.195 18.595C124.495 18.235 123.955 17.74 123.575 17.11C123.195 16.48 123.005 15.765 123.005 14.965C123.005 14.175 123.19 13.465 123.56 12.835C123.94 12.195 124.455 11.7 125.105 11.35C125.765 10.99 126.5 10.81 127.31 10.81C128.1 10.81 128.815 10.98 129.455 11.32C130.095 11.66 130.595 12.15 130.955 12.79C131.325 13.42 131.51 14.155 131.51 14.995ZM127.325 12.58C126.795 12.58 126.35 12.73 125.99 13.03C125.63 13.33 125.41 13.74 125.33 14.26H129.305C129.225 13.75 129.005 13.345 128.645 13.045C128.285 12.735 127.845 12.58 127.325 12.58ZM135.303 11.995C135.583 11.605 135.958 11.31 136.428 11.11C136.908 10.91 137.458 10.81 138.078 10.81V12.97C137.818 12.95 137.643 12.94 137.553 12.94C136.883 12.94 136.358 13.13 135.978 13.51C135.598 13.88 135.408 14.44 135.408 15.19V19H133.068V10.93H135.303V11.995ZM144.953 18.61C144.723 18.78 144.438 18.91 144.098 19C143.768 19.08 143.418 19.12 143.048 19.12C142.088 19.12 141.343 18.875 140.813 18.385C140.293 17.895 140.033 17.175 140.033 16.225V12.91H138.788V11.11H140.033V9.145H142.373V11.11H144.383V12.91H142.373V16.195C142.373 16.535 142.458 16.8 142.628 16.99C142.808 17.17 143.058 17.26 143.378 17.26C143.748 17.26 144.063 17.16 144.323 16.96L144.953 18.61ZM149.522 10.81C150.772 10.81 151.732 11.11 152.402 11.71C153.072 12.3 153.407 13.195 153.407 14.395V19H151.217V17.995C150.777 18.745 149.957 19.12 148.757 19.12C148.137 19.12 147.597 19.015 147.137 18.805C146.687 18.595 146.342 18.305 146.102 17.935C145.862 17.565 145.742 17.145 145.742 16.675C145.742 15.925 146.022 15.335 146.582 14.905C147.152 14.475 148.027 14.26 149.207 14.26H151.067C151.067 13.75 150.912 13.36 150.602 13.09C150.292 12.81 149.827 12.67 149.207 12.67C148.777 12.67 148.352 12.74 147.932 12.88C147.522 13.01 147.172 13.19 146.882 13.42L146.042 11.785C146.482 11.475 147.007 11.235 147.617 11.065C148.237 10.895 148.872 10.81 149.522 10.81ZM149.342 17.545C149.742 17.545 150.097 17.455 150.407 17.275C150.717 17.085 150.937 16.81 151.067 16.45V15.625H149.462C148.502 15.625 148.022 15.94 148.022 16.57C148.022 16.87 148.137 17.11 148.367 17.29C148.607 17.46 148.932 17.545 149.342 17.545ZM158.239 19.12C157.569 19.12 156.914 19.04 156.274 18.88C155.634 18.71 155.124 18.5 154.744 18.25L155.524 16.57C155.884 16.8 156.319 16.99 156.829 17.14C157.339 17.28 157.839 17.35 158.329 17.35C159.319 17.35 159.814 17.105 159.814 16.615C159.814 16.385 159.679 16.22 159.409 16.12C159.139 16.02 158.724 15.935 158.164 15.865C157.504 15.765 156.959 15.65 156.529 15.52C156.099 15.39 155.724 15.16 155.404 14.83C155.094 14.5 154.939 14.03 154.939 13.42C154.939 12.91 155.084 12.46 155.374 12.07C155.674 11.67 156.104 11.36 156.664 11.14C157.234 10.92 157.904 10.81 158.674 10.81C159.244 10.81 159.809 10.875 160.369 11.005C160.939 11.125 161.409 11.295 161.779 11.515L160.999 13.18C160.289 12.78 159.514 12.58 158.674 12.58C158.174 12.58 157.799 12.65 157.549 12.79C157.299 12.93 157.174 13.11 157.174 13.33C157.174 13.58 157.309 13.755 157.579 13.855C157.849 13.955 158.279 14.05 158.869 14.14C159.529 14.25 160.069 14.37 160.489 14.5C160.909 14.62 161.274 14.845 161.584 15.175C161.894 15.505 162.049 15.965 162.049 16.555C162.049 17.055 161.899 17.5 161.599 17.89C161.299 18.28 160.859 18.585 160.279 18.805C159.709 19.015 159.029 19.12 158.239 19.12ZM170.081 10.48H166.721V8.5H175.871V10.48H172.511V19H170.081V10.48ZM180.033 19.12C179.183 19.12 178.418 18.945 177.738 18.595C177.068 18.235 176.543 17.74 176.163 17.11C175.783 16.48 175.593 15.765 175.593 14.965C175.593 14.165 175.783 13.45 176.163 12.82C176.543 12.19 177.068 11.7 177.738 11.35C178.418 10.99 179.183 10.81 180.033 10.81C180.883 10.81 181.643 10.99 182.313 11.35C182.983 11.7 183.508 12.19 183.888 12.82C184.268 13.45 184.458 14.165 184.458 14.965C184.458 15.765 184.268 16.48 183.888 17.11C183.508 17.74 182.983 18.235 182.313 18.595C181.643 18.945 180.883 19.12 180.033 19.12ZM180.033 17.2C180.633 17.2 181.123 17 181.503 16.6C181.893 16.19 182.088 15.645 182.088 14.965C182.088 14.285 181.893 13.745 181.503 13.345C181.123 12.935 180.633 12.73 180.033 12.73C179.433 12.73 178.938 12.935 178.548 13.345C178.158 13.745 177.963 14.285 177.963 14.965C177.963 15.645 178.158 16.19 178.548 16.6C178.938 17 179.433 17.2 180.033 17.2ZM194.242 7.87V19H192.007V18.07C191.427 18.77 190.587 19.12 189.487 19.12C188.727 19.12 188.037 18.95 187.417 18.61C186.807 18.27 186.327 17.785 185.977 17.155C185.627 16.525 185.452 15.795 185.452 14.965C185.452 14.135 185.627 13.405 185.977 12.775C186.327 12.145 186.807 11.66 187.417 11.32C188.037 10.98 188.727 10.81 189.487 10.81C190.517 10.81 191.322 11.135 191.902 11.785V7.87H194.242ZM189.892 17.2C190.482 17.2 190.972 17 191.362 16.6C191.752 16.19 191.947 15.645 191.947 14.965C191.947 14.285 191.752 13.745 191.362 13.345C190.972 12.935 190.482 12.73 189.892 12.73C189.292 12.73 188.797 12.935 188.407 13.345C188.017 13.745 187.822 14.285 187.822 14.965C187.822 15.645 188.017 16.19 188.407 16.6C188.797 17 189.292 17.2 189.892 17.2ZM200.248 19.12C199.398 19.12 198.633 18.945 197.953 18.595C197.283 18.235 196.758 17.74 196.378 17.11C195.998 16.48 195.808 15.765 195.808 14.965C195.808 14.165 195.998 13.45 196.378 12.82C196.758 12.19 197.283 11.7 197.953 11.35C198.633 10.99 199.398 10.81 200.248 10.81C201.098 10.81 201.858 10.99 202.528 11.35C203.198 11.7 203.723 12.19 204.103 12.82C204.483 13.45 204.673 14.165 204.673 14.965C204.673 15.765 204.483 16.48 204.103 17.11C203.723 17.74 203.198 18.235 202.528 18.595C201.858 18.945 201.098 19.12 200.248 19.12ZM200.248 17.2C200.848 17.2 201.338 17 201.718 16.6C202.108 16.19 202.303 15.645 202.303 14.965C202.303 14.285 202.108 13.745 201.718 13.345C201.338 12.935 200.848 12.73 200.248 12.73C199.648 12.73 199.153 12.935 198.763 13.345C198.373 13.745 198.178 14.285 198.178 14.965C198.178 15.645 198.373 16.19 198.763 16.6C199.153 17 199.648 17.2 200.248 17.2ZM208.952 19.12C208.282 19.12 207.627 19.04 206.987 18.88C206.347 18.71 205.837 18.5 205.457 18.25L206.237 16.57C206.597 16.8 207.032 16.99 207.542 17.14C208.052 17.28 208.552 17.35 209.042 17.35C210.032 17.35 210.527 17.105 210.527 16.615C210.527 16.385 210.392 16.22 210.122 16.12C209.852 16.02 209.437 15.935 208.877 15.865C208.217 15.765 207.672 15.65 207.242 15.52C206.812 15.39 206.437 15.16 206.117 14.83C205.807 14.5 205.652 14.03 205.652 13.42C205.652 12.91 205.797 12.46 206.087 12.07C206.387 11.67 206.817 11.36 207.377 11.14C207.947 10.92 208.617 10.81 209.387 10.81C209.957 10.81 210.522 10.875 211.082 11.005C211.652 11.125 212.122 11.295 212.492 11.515L211.712 13.18C211.002 12.78 210.227 12.58 209.387 12.58C208.887 12.58 208.512 12.65 208.262 12.79C208.012 12.93 207.887 13.11 207.887 13.33C207.887 13.58 208.022 13.755 208.292 13.855C208.562 13.955 208.992 14.05 209.582 14.14C210.242 14.25 210.782 14.37 211.202 14.5C211.622 14.62 211.987 14.845 212.297 15.175C212.607 15.505 212.762 15.965 212.762 16.555C212.762 17.055 212.612 17.5 212.312 17.89C212.012 18.28 211.572 18.585 210.992 18.805C210.422 19.015 209.742 19.12 208.952 19.12ZM218.454 7.87H220.794V19H218.454V7.87ZM226.806 19.12C225.956 19.12 225.191 18.945 224.511 18.595C223.841 18.235 223.316 17.74 222.936 17.11C222.556 16.48 222.366 15.765 222.366 14.965C222.366 14.165 222.556 13.45 222.936 12.82C223.316 12.19 223.841 11.7 224.511 11.35C225.191 10.99 225.956 10.81 226.806 10.81C227.656 10.81 228.416 10.99 229.086 11.35C229.756 11.7 230.281 12.19 230.661 12.82C231.041 13.45 231.231 14.165 231.231 14.965C231.231 15.765 231.041 16.48 230.661 17.11C230.281 17.74 229.756 18.235 229.086 18.595C228.416 18.945 227.656 19.12 226.806 19.12ZM226.806 17.2C227.406 17.2 227.896 17 228.276 16.6C228.666 16.19 228.861 15.645 228.861 14.965C228.861 14.285 228.666 13.745 228.276 13.345C227.896 12.935 227.406 12.73 226.806 12.73C226.206 12.73 225.711 12.935 225.321 13.345C224.931 13.745 224.736 14.285 224.736 14.965C224.736 15.645 224.931 16.19 225.321 16.6C225.711 17 226.206 17.2 226.806 17.2ZM235.51 19.12C234.84 19.12 234.185 19.04 233.545 18.88C232.905 18.71 232.395 18.5 232.015 18.25L232.795 16.57C233.155 16.8 233.59 16.99 234.1 17.14C234.61 17.28 235.11 17.35 235.6 17.35C236.59 17.35 237.085 17.105 237.085 16.615C237.085 16.385 236.95 16.22 236.68 16.12C236.41 16.02 235.995 15.935 235.435 15.865C234.775 15.765 234.23 15.65 233.8 15.52C233.37 15.39 232.995 15.16 232.675 14.83C232.365 14.5 232.21 14.03 232.21 13.42C232.21 12.91 232.355 12.46 232.645 12.07C232.945 11.67 233.375 11.36 233.935 11.14C234.505 10.92 235.175 10.81 235.945 10.81C236.515 10.81 237.08 10.875 237.64 11.005C238.21 11.125 238.68 11.295 239.05 11.515L238.27 13.18C237.56 12.78 236.785 12.58 235.945 12.58C235.445 12.58 235.07 12.65 234.82 12.79C234.57 12.93 234.445 13.11 234.445 13.33C234.445 13.58 234.58 13.755 234.85 13.855C235.12 13.955 235.55 14.05 236.14 14.14C236.8 14.25 237.34 14.37 237.76 14.5C238.18 14.62 238.545 14.845 238.855 15.175C239.165 15.505 239.32 15.965 239.32 16.555C239.32 17.055 239.17 17.5 238.87 17.89C238.57 18.28 238.13 18.585 237.55 18.805C236.98 19.015 236.3 19.12 235.51 19.12ZM245.177 8.5H249.947C251.087 8.5 252.092 8.72 252.962 9.16C253.842 9.59 254.522 10.2 255.002 10.99C255.492 11.78 255.737 12.7 255.737 13.75C255.737 14.8 255.492 15.72 255.002 16.51C254.522 17.3 253.842 17.915 252.962 18.355C252.092 18.785 251.087 19 249.947 19H245.177V8.5ZM249.827 17.005C250.877 17.005 251.712 16.715 252.332 16.135C252.962 15.545 253.277 14.75 253.277 13.75C253.277 12.75 252.962 11.96 252.332 11.38C251.712 10.79 250.877 10.495 249.827 10.495H247.607V17.005H249.827ZM257.404 10.93H259.744V19H257.404V10.93ZM259.234 7.735H261.754L259.039 9.895H257.209L259.234 7.735ZM265.171 10.81C266.421 10.81 267.381 11.11 268.051 11.71C268.721 12.3 269.056 13.195 269.056 14.395V19H266.866V17.995C266.426 18.745 265.606 19.12 264.406 19.12C263.786 19.12 263.246 19.015 262.786 18.805C262.336 18.595 261.991 18.305 261.751 17.935C261.511 17.565 261.391 17.145 261.391 16.675C261.391 15.925 261.671 15.335 262.231 14.905C262.801 14.475 263.676 14.26 264.856 14.26H266.716C266.716 13.75 266.561 13.36 266.251 13.09C265.941 12.81 265.476 12.67 264.856 12.67C264.426 12.67 264.001 12.74 263.581 12.88C263.171 13.01 262.821 13.19 262.531 13.42L261.691 11.785C262.131 11.475 262.656 11.235 263.266 11.065C263.886 10.895 264.521 10.81 265.171 10.81ZM264.991 17.545C265.391 17.545 265.746 17.455 266.056 17.275C266.366 17.085 266.586 16.81 266.716 16.45V15.625H265.111C264.151 15.625 263.671 15.94 263.671 16.57C263.671 16.87 263.786 17.11 264.016 17.29C264.256 17.46 264.581 17.545 264.991 17.545ZM273.889 19.12C273.219 19.12 272.564 19.04 271.924 18.88C271.284 18.71 270.774 18.5 270.394 18.25L271.174 16.57C271.534 16.8 271.969 16.99 272.479 17.14C272.989 17.28 273.489 17.35 273.979 17.35C274.969 17.35 275.464 17.105 275.464 16.615C275.464 16.385 275.329 16.22 275.059 16.12C274.789 16.02 274.374 15.935 273.814 15.865C273.154 15.765 272.609 15.65 272.179 15.52C271.749 15.39 271.374 15.16 271.054 14.83C270.744 14.5 270.589 14.03 270.589 13.42C270.589 12.91 270.734 12.46 271.024 12.07C271.324 11.67 271.754 11.36 272.314 11.14C272.884 10.92 273.554 10.81 274.324 10.81C274.894 10.81 275.459 10.875 276.019 11.005C276.589 11.125 277.059 11.295 277.429 11.515L276.649 13.18C275.939 12.78 275.164 12.58 274.324 12.58C273.824 12.58 273.449 12.65 273.199 12.79C272.949 12.93 272.824 13.11 272.824 13.33C272.824 13.58 272.959 13.755 273.229 13.855C273.499 13.955 273.929 14.05 274.519 14.14C275.179 14.25 275.719 14.37 276.139 14.5C276.559 14.62 276.924 14.845 277.234 15.175C277.544 15.505 277.699 15.965 277.699 16.555C277.699 17.055 277.549 17.5 277.249 17.89C276.949 18.28 276.509 18.585 275.929 18.805C275.359 19.015 274.679 19.12 273.889 19.12Z" fill="#363636"/>
</svg>
