<svg width="278" height="43" viewBox="0 0 278 43" fill="none" xmlns="http://www.w3.org/2000/svg">
<path d="M83.106 18.75H84.87V11.148H84.898L89.798 18.75H92.038V8.838H90.274V16.202H90.246L85.444 8.838H83.106V18.75ZM100.227 12.03H98.5466V15.698C98.5466 16.594 98.1126 17.406 97.0066 17.406C95.8306 17.406 95.7746 16.174 95.7746 15.432V12.03H94.0946V16.272C94.0946 17.644 94.7386 18.918 96.5446 18.918C97.6646 18.918 98.2946 18.344 98.6026 17.672H98.6306V18.75H100.227V12.03ZM108.602 15.978V15.516C108.602 13.178 107.328 11.862 105.452 11.862C103.422 11.862 101.798 13.276 101.798 15.39C101.798 17.504 103.422 18.918 105.452 18.918C106.516 18.918 107.51 18.54 108.294 17.574L107.09 16.664C106.67 17.182 106.124 17.574 105.284 17.574C104.346 17.574 103.59 16.972 103.478 15.978H108.602ZM103.478 14.718C103.604 13.752 104.22 13.122 105.214 13.122C106.264 13.122 106.908 13.738 106.922 14.718H103.478ZM112.007 18.75H113.799L116.445 12.03H114.723L112.917 16.734H112.889L111.097 12.03H109.263L112.007 18.75ZM121.632 18.75H123.144V14.886C123.144 13.934 123.144 11.862 120.274 11.862C119.21 11.862 118.16 12.184 117.418 12.94L118.3 13.822C118.748 13.402 119.392 13.122 120.092 13.122C120.988 13.122 121.632 13.556 121.632 14.382V14.564H121.212C119.532 14.564 116.984 14.718 116.984 16.902C116.984 18.232 118.188 18.918 119.434 18.918C120.33 18.918 121.114 18.582 121.59 17.826H121.632V18.75ZM121.534 16.118C121.534 17.056 120.988 17.658 119.84 17.658C119.294 17.658 118.664 17.392 118.664 16.776C118.664 15.81 120.26 15.74 121.184 15.74H121.534V16.118ZM129.656 12.884C129.11 12.142 128.158 11.862 127.262 11.862C125.904 11.862 124.56 12.534 124.56 14.032C124.56 16.594 128.186 15.502 128.186 16.888C128.186 17.42 127.556 17.658 127.066 17.658C126.352 17.658 125.904 17.308 125.47 16.832L124.35 17.882C125.036 18.652 125.932 18.918 126.968 18.918C128.34 18.918 129.866 18.358 129.866 16.762C129.866 14.144 126.24 15.124 126.24 13.92C126.24 13.416 126.772 13.206 127.22 13.206C127.794 13.206 128.214 13.444 128.536 13.892L129.656 12.884ZM134.979 15.39C134.979 17.504 136.603 18.918 138.633 18.918C140.663 18.918 142.287 17.504 142.287 15.39C142.287 13.276 140.663 11.862 138.633 11.862C136.603 11.862 134.979 13.276 134.979 15.39ZM136.659 15.39C136.659 14.34 137.401 13.374 138.633 13.374C139.865 13.374 140.607 14.34 140.607 15.39C140.607 16.44 139.865 17.406 138.633 17.406C137.401 17.406 136.659 16.44 136.659 15.39ZM144.462 18.75H146.142V13.458H147.696V12.03H146.142V10.812C146.142 10.07 146.282 9.426 147.22 9.426C147.458 9.426 147.682 9.468 147.92 9.524L148.032 8.096C147.682 8.026 147.332 7.998 146.968 7.998C144.882 7.998 144.462 9.216 144.462 11.078V12.03H143.076V13.458H144.462V18.75ZM155.25 15.978V15.516C155.25 13.178 153.976 11.862 152.1 11.862C150.07 11.862 148.446 13.276 148.446 15.39C148.446 17.504 150.07 18.918 152.1 18.918C153.164 18.918 154.158 18.54 154.942 17.574L153.738 16.664C153.318 17.182 152.772 17.574 151.932 17.574C150.994 17.574 150.238 16.972 150.126 15.978H155.25ZM150.126 14.718C150.252 13.752 150.868 13.122 151.862 13.122C152.912 13.122 153.556 13.738 153.57 14.718H150.126ZM156.821 18.75H158.501V15.152C158.501 14.788 158.725 13.458 160.307 13.458C160.573 13.458 160.839 13.514 161.119 13.584V11.96C160.923 11.904 160.727 11.862 160.517 11.862C159.635 11.862 158.893 12.324 158.529 13.094H158.501V12.03H156.821V18.75ZM162.865 13.458V16.538C162.865 18.12 163.285 18.918 165.063 18.918C165.455 18.918 166.043 18.862 166.393 18.694V17.28C166.183 17.434 165.777 17.49 165.483 17.49C164.741 17.49 164.545 17.07 164.545 16.398V13.458H166.393V12.03H164.545V10.084H162.865V12.03H161.479V13.458H162.865ZM171.904 18.75H173.416V14.886C173.416 13.934 173.416 11.862 170.546 11.862C169.482 11.862 168.432 12.184 167.69 12.94L168.572 13.822C169.02 13.402 169.664 13.122 170.364 13.122C171.26 13.122 171.904 13.556 171.904 14.382V14.564H171.484C169.804 14.564 167.256 14.718 167.256 16.902C167.256 18.232 168.46 18.918 169.706 18.918C170.602 18.918 171.386 18.582 171.862 17.826H171.904V18.75ZM171.806 16.118C171.806 17.056 171.26 17.658 170.112 17.658C169.566 17.658 168.936 17.392 168.936 16.776C168.936 15.81 170.532 15.74 171.456 15.74H171.806V16.118ZM179.927 12.884C179.381 12.142 178.429 11.862 177.533 11.862C176.175 11.862 174.831 12.534 174.831 14.032C174.831 16.594 178.457 15.502 178.457 16.888C178.457 17.42 177.827 17.658 177.337 17.658C176.623 17.658 176.175 17.308 175.741 16.832L174.621 17.882C175.307 18.652 176.203 18.918 177.239 18.918C178.611 18.918 180.137 18.358 180.137 16.762C180.137 14.144 176.511 15.124 176.511 13.92C176.511 13.416 177.043 13.206 177.491 13.206C178.065 13.206 178.485 13.444 178.807 13.892L179.927 12.884ZM83.554 29.458V32.538C83.554 34.12 83.974 34.918 85.752 34.918C86.144 34.918 86.732 34.862 87.082 34.694V33.28C86.872 33.434 86.466 33.49 86.172 33.49C85.43 33.49 85.234 33.07 85.234 32.398V29.458H87.082V28.03H85.234V26.084H83.554V28.03H82.168V29.458H83.554ZM88.0574 31.39C88.0574 33.504 89.6814 34.918 91.7114 34.918C93.7414 34.918 95.3654 33.504 95.3654 31.39C95.3654 29.276 93.7414 27.862 91.7114 27.862C89.6814 27.862 88.0574 29.276 88.0574 31.39ZM89.7374 31.39C89.7374 30.34 90.4794 29.374 91.7114 29.374C92.9434 29.374 93.6854 30.34 93.6854 31.39C93.6854 32.44 92.9434 33.406 91.7114 33.406C90.4794 33.406 89.7374 32.44 89.7374 31.39ZM102.258 34.75H103.854V24.166H102.174V28.884H102.132C101.782 28.45 101.11 27.862 99.8503 27.862C97.9323 27.862 96.6023 29.402 96.6023 31.39C96.6023 33.378 97.8483 34.918 99.9203 34.918C100.858 34.918 101.74 34.554 102.23 33.742H102.258V34.75ZM98.2823 31.39C98.2823 30.34 99.0243 29.374 100.256 29.374C101.488 29.374 102.23 30.34 102.23 31.39C102.23 32.44 101.488 33.406 100.256 33.406C99.0243 33.406 98.2823 32.44 98.2823 31.39ZM105.421 31.39C105.421 33.504 107.045 34.918 109.075 34.918C111.105 34.918 112.729 33.504 112.729 31.39C112.729 29.276 111.105 27.862 109.075 27.862C107.045 27.862 105.421 29.276 105.421 31.39ZM107.101 31.39C107.101 30.34 107.843 29.374 109.075 29.374C110.307 29.374 111.049 30.34 111.049 31.39C111.049 32.44 110.307 33.406 109.075 33.406C107.843 33.406 107.101 32.44 107.101 31.39ZM119.006 28.884C118.46 28.142 117.508 27.862 116.612 27.862C115.254 27.862 113.91 28.534 113.91 30.032C113.91 32.594 117.536 31.502 117.536 32.888C117.536 33.42 116.906 33.658 116.416 33.658C115.702 33.658 115.254 33.308 114.82 32.832L113.7 33.882C114.386 34.652 115.282 34.918 116.318 34.918C117.69 34.918 119.216 34.358 119.216 32.762C119.216 30.144 115.59 31.124 115.59 29.92C115.59 29.416 116.122 29.206 116.57 29.206C117.144 29.206 117.564 29.444 117.886 29.892L119.006 28.884ZM124.693 34.75H126.373V24.166H124.693V34.75ZM127.966 31.39C127.966 33.504 129.59 34.918 131.62 34.918C133.65 34.918 135.274 33.504 135.274 31.39C135.274 29.276 133.65 27.862 131.62 27.862C129.59 27.862 127.966 29.276 127.966 31.39ZM129.646 31.39C129.646 30.34 130.388 29.374 131.62 29.374C132.852 29.374 133.594 30.34 133.594 31.39C133.594 32.44 132.852 33.406 131.62 33.406C130.388 33.406 129.646 32.44 129.646 31.39ZM141.551 28.884C141.005 28.142 140.053 27.862 139.157 27.862C137.799 27.862 136.455 28.534 136.455 30.032C136.455 32.594 140.081 31.502 140.081 32.888C140.081 33.42 139.451 33.658 138.961 33.658C138.247 33.658 137.799 33.308 137.365 32.832L136.245 33.882C136.931 34.652 137.827 34.918 138.863 34.918C140.235 34.918 141.761 34.358 141.761 32.762C141.761 30.144 138.135 31.124 138.135 29.92C138.135 29.416 138.667 29.206 139.115 29.206C139.689 29.206 140.109 29.444 140.431 29.892L141.551 28.884ZM152.53 34.75H154.126V24.166H152.446V28.884H152.404C152.054 28.45 151.382 27.862 150.122 27.862C148.204 27.862 146.874 29.402 146.874 31.39C146.874 33.378 148.12 34.918 150.192 34.918C151.13 34.918 152.012 34.554 152.502 33.742H152.53V34.75ZM148.554 31.39C148.554 30.34 149.296 29.374 150.528 29.374C151.76 29.374 152.502 30.34 152.502 31.39C152.502 32.44 151.76 33.406 150.528 33.406C149.296 33.406 148.554 32.44 148.554 31.39ZM156.056 34.75H157.736V28.03H156.056V34.75ZM156.07 26.854H157.386L159.36 24.838H157.456L156.07 26.854ZM163.865 34.75H165.377V30.886C165.377 29.934 165.377 27.862 162.507 27.862C161.443 27.862 160.393 28.184 159.651 28.94L160.533 29.822C160.981 29.402 161.625 29.122 162.325 29.122C163.221 29.122 163.865 29.556 163.865 30.382V30.564H163.445C161.765 30.564 159.217 30.718 159.217 32.902C159.217 34.232 160.421 34.918 161.667 34.918C162.563 34.918 163.347 34.582 163.823 33.826H163.865V34.75ZM163.767 32.118C163.767 33.056 163.221 33.658 162.073 33.658C161.527 33.658 160.897 33.392 160.897 32.776C160.897 31.81 162.493 31.74 163.417 31.74H163.767V32.118ZM171.888 28.884C171.342 28.142 170.39 27.862 169.494 27.862C168.136 27.862 166.792 28.534 166.792 30.032C166.792 32.594 170.418 31.502 170.418 32.888C170.418 33.42 169.788 33.658 169.298 33.658C168.584 33.658 168.136 33.308 167.702 32.832L166.582 33.882C167.268 34.652 168.164 34.918 169.2 34.918C170.572 34.918 172.098 34.358 172.098 32.762C172.098 30.144 168.472 31.124 168.472 29.92C168.472 29.416 169.004 29.206 169.452 29.206C170.026 29.206 170.446 29.444 170.768 29.892L171.888 28.884Z" fill="#828282"/>
<path d="M17.6801 20.3426C16.959 19.7597 16.0044 19.4395 14.9888 19.4395C13.9733 19.4395 13.0186 19.7597 12.2976 20.3426C10.8149 21.5414 10.8149 23.4955 12.2976 24.6942C13.0186 25.2772 13.9733 25.5974 14.9888 25.5974C16.0044 25.5974 16.959 25.2772 17.6801 24.6942C18.4012 24.1113 18.7972 23.3395 18.7972 22.5184C18.7972 21.6974 18.4012 20.9256 17.6801 20.3426ZM16.6036 23.8239C16.1771 24.1688 15.5982 24.3658 14.9888 24.3658C14.3795 24.3658 13.8006 24.177 13.3741 23.8239C12.4804 23.1014 12.4804 21.9355 13.3741 21.2129C13.8006 20.8681 14.3795 20.671 14.9888 20.671C15.5982 20.671 16.1771 20.8599 16.6036 21.2129C17.0301 21.5578 17.2739 22.0258 17.2739 22.5184C17.2739 23.0111 17.0403 23.4791 16.6036 23.8239Z" fill="#6E6E6E"/>
<path d="M27.7348 28.4715C27.0137 27.8886 26.0591 27.5684 25.0435 27.5684C24.028 27.5684 23.0733 27.8886 22.3523 28.4715C20.8696 29.6702 20.8696 31.6243 22.3523 32.823C23.0733 33.406 24.028 33.7262 25.0435 33.7262C26.0591 33.7262 27.0137 33.406 27.7348 32.823C28.4558 32.2401 28.8519 31.4683 28.8519 30.6473C28.8418 29.818 28.4457 29.0462 27.7348 28.4715ZM26.6583 31.9527C26.2317 32.2976 25.6529 32.4946 25.0435 32.4946C24.4342 32.4946 23.8553 32.3058 23.4288 31.9527C22.5351 31.2302 22.5351 30.0643 23.4288 29.3418C23.8553 28.997 24.4342 28.7999 25.0435 28.7999C25.6529 28.7999 26.2317 28.9888 26.6583 29.3418C27.0848 29.6866 27.3286 30.1546 27.3286 30.6473C27.3184 31.1399 27.0848 31.5997 26.6583 31.9527Z" fill="#6E6E6E"/>
<path d="M27.7357 20.3426C27.4412 20.1045 26.9537 20.1045 26.6592 20.3426L12.299 31.9523C12.0045 32.1904 12.0045 32.5846 12.299 32.8227C12.4513 32.9458 12.6443 33.0033 12.8373 33.0033C13.0302 33.0033 13.2232 32.9458 13.3755 32.8227L27.7255 21.2212C28.0302 20.9749 28.0302 20.5807 27.7357 20.3426Z" fill="#6E6E6E"/>
<path d="M51.3676 1.26242C50.3419 0.433161 48.3514 0.613792 45.6195 1.77968C43.2633 2.78957 40.5619 4.46451 38.2058 6.36113C37.2918 7.10007 36.4387 7.86365 35.6669 8.63543L24.9932 7.60091C24.851 7.58449 24.6987 7.57628 24.5464 7.57628C23.9269 7.57628 23.2464 7.68302 22.5863 7.89649C21.8957 8.10996 21.3372 8.39733 20.9106 8.74217L11.3744 16.4518C11.0799 16.6899 11.0799 17.084 11.3744 17.3221C11.5166 17.4371 11.7095 17.5028 11.9127 17.5028C12.1158 17.5028 12.3087 17.4371 12.4509 17.3221L21.9871 9.61248C22.241 9.39901 22.6777 9.19375 23.1449 9.04596C23.612 8.89817 24.13 8.81607 24.5464 8.81607H24.5565C24.6479 8.81607 24.7393 8.82428 24.8206 8.83249L38.7339 10.179C39.0893 10.2118 39.4854 10.3761 39.7799 10.6224C40.0846 10.8605 40.2877 11.1807 40.3283 11.4681L40.6127 13.3975C39.4448 14.12 38.2972 14.7112 37.2308 15.1463C37.0379 15.2285 36.8246 15.3023 36.6113 15.3762C36.4489 14.8426 36.1036 14.3581 35.6161 13.964C34.9052 13.3893 33.9506 13.0691 32.9451 13.0691C31.9397 13.0691 30.9851 13.3893 30.2742 13.964C28.8016 15.1546 28.8016 17.0922 30.2742 18.2828C30.9851 18.8575 31.9397 19.1777 32.9451 19.1777C33.9506 19.1777 34.9052 18.8575 35.6161 18.2828C36.1645 17.8394 36.5199 17.2893 36.6621 16.6899C37.048 16.575 37.4644 16.4272 37.9113 16.2466C38.8456 15.8689 39.8206 15.3845 40.826 14.8015L42.004 22.7164C42.0142 22.7821 42.0142 22.856 42.0142 22.9299C42.0142 23.2665 41.9126 23.6935 41.7298 24.0629C41.547 24.4406 41.2931 24.7855 41.0291 24.9989L20.9106 41.2311C20.677 41.4199 20.3521 41.5266 20.0169 41.5266C19.6716 41.5266 19.3568 41.4199 19.1232 41.2311L1.88896 27.3061C1.65538 27.1172 1.52336 26.8545 1.52336 26.5836C1.52336 26.3044 1.65538 26.0499 1.88896 25.861L10.2979 19.0628C10.5924 18.8246 10.5924 18.4305 10.2979 18.1924C10.1557 18.0775 9.96276 18.0118 9.75964 18.0118C9.55653 18.0118 9.36357 18.0775 9.22139 18.1924L0.812457 24.9825C0.548409 25.196 0.345294 25.4505 0.203114 25.7297C0.07109 26.0006 0 26.288 0 26.5753C0 26.8627 0.07109 27.1501 0.203114 27.421C0.345294 27.7002 0.548409 27.9547 0.812457 28.1682L18.0365 42.0932C18.3006 42.3066 18.6154 42.4708 18.9607 42.5858C19.2959 42.6925 19.6513 42.75 20.0068 42.75H20.0169C20.3825 42.75 20.7278 42.6925 21.063 42.5858C21.4082 42.4708 21.7231 42.3066 21.9871 42.0932L42.0853 25.8446C42.5118 25.4998 42.8571 25.04 43.1313 24.4899C43.3852 23.9562 43.5274 23.4061 43.5274 22.9053C43.5274 22.7821 43.5172 22.6589 43.4969 22.544L42.2173 13.9066C43.1618 13.2908 44.1063 12.6011 45.0304 11.8539C47.3866 9.94911 49.4583 7.77333 50.7075 5.87671C52.1699 3.69272 52.3933 2.09168 51.3676 1.26242ZM32.4678 16.5175C32.8436 16.8213 33.4326 17.0758 34.3568 17.0758C34.5193 17.0758 34.6818 17.0676 34.8646 17.0512C34.7732 17.1743 34.6614 17.2893 34.5294 17.396C34.1029 17.7409 33.5342 17.9297 32.935 17.9297C32.3358 17.9297 31.7671 17.7409 31.3405 17.396C30.457 16.6817 30.457 15.524 31.3405 14.8179C31.7671 14.4731 32.3358 14.2842 32.935 14.2842C33.5342 14.2842 34.1029 14.4731 34.5294 14.8179C34.8544 15.0807 35.0677 15.4091 35.1489 15.7621C34.4482 15.8935 33.849 15.8935 33.5443 15.6472C33.2498 15.4091 32.7623 15.4091 32.4678 15.6472C32.1733 15.8853 32.1733 16.2712 32.4678 16.5175ZM49.3669 5.31019C48.1787 7.10007 46.2085 9.17733 43.9539 11.0001C43.3141 11.5173 42.654 12.0099 42.004 12.4615L41.8314 11.3038C41.74 10.7291 41.4048 10.179 40.8463 9.73564C40.2877 9.29227 39.6174 9.01312 38.9065 8.93922L37.4746 8.80785C38.0433 8.27417 38.6425 7.7487 39.2823 7.23144C44.6547 2.8881 49.4583 1.45947 50.2911 2.13273C50.677 2.43652 50.5348 3.54493 49.3669 5.31019Z" fill="#6E6E6E"/>
</svg>
