<svg width="276" height="45" viewBox="0 0 276 45" fill="none" xmlns="http://www.w3.org/2000/svg">
<path d="M81.106 15.75H87.924V14.154H82.87V11.466H87.42V9.87H82.87V7.434H87.672V5.838H81.106V15.75ZM89.5106 15.75H91.1906V12.082C91.1906 11.186 91.6246 10.374 92.7306 10.374C93.9066 10.374 93.9626 11.606 93.9626 12.348V15.75H95.6426V11.508C95.6426 10.136 94.9986 8.862 93.1926 8.862C92.0726 8.862 91.4426 9.436 91.1346 10.108H91.1066V9.03H89.5106V15.75ZM99.3837 15.75H101.176L103.822 9.03H102.1L100.294 13.734H100.266L98.4737 9.03H96.6397L99.3837 15.75ZM104.837 15.75H106.517V9.03H104.837V15.75ZM104.851 7.854H106.167L108.141 5.838H106.237L104.851 7.854ZM108.11 12.39C108.11 14.504 109.734 15.918 111.764 15.918C113.794 15.918 115.418 14.504 115.418 12.39C115.418 10.276 113.794 8.862 111.764 8.862C109.734 8.862 108.11 10.276 108.11 12.39ZM109.79 12.39C109.79 11.34 110.532 10.374 111.764 10.374C112.996 10.374 113.738 11.34 113.738 12.39C113.738 13.44 112.996 14.406 111.764 14.406C110.532 14.406 109.79 13.44 109.79 12.39ZM121.695 9.884C121.149 9.142 120.197 8.862 119.301 8.862C117.943 8.862 116.599 9.534 116.599 11.032C116.599 13.594 120.225 12.502 120.225 13.888C120.225 14.42 119.595 14.658 119.105 14.658C118.391 14.658 117.943 14.308 117.509 13.832L116.389 14.882C117.075 15.652 117.971 15.918 119.007 15.918C120.379 15.918 121.905 15.358 121.905 13.762C121.905 11.144 118.279 12.124 118.279 10.92C118.279 10.416 118.811 10.206 119.259 10.206C119.833 10.206 120.253 10.444 120.575 10.892L121.695 9.884ZM131.554 15.75H133.066V11.886C133.066 10.934 133.066 8.862 130.196 8.862C129.132 8.862 128.082 9.184 127.34 9.94L128.222 10.822C128.67 10.402 129.314 10.122 130.014 10.122C130.91 10.122 131.554 10.556 131.554 11.382V11.564H131.134C129.454 11.564 126.906 11.718 126.906 13.902C126.906 15.232 128.11 15.918 129.356 15.918C130.252 15.918 131.036 15.582 131.512 14.826H131.554V15.75ZM131.456 13.118C131.456 14.056 130.91 14.658 129.762 14.658C129.216 14.658 128.586 14.392 128.586 13.776C128.586 12.81 130.182 12.74 131.106 12.74H131.456V13.118ZM81.106 31.75H84.802C87.182 31.75 90.052 30.182 90.052 26.794C90.052 23.434 87.616 21.838 85.012 21.838H81.106V31.75ZM82.87 30.154V23.434H84.48C86.636 23.434 88.204 24.386 88.204 26.794C88.204 29.202 86.398 30.154 84.186 30.154H82.87ZM91.239 28.39C91.239 30.504 92.863 31.918 94.893 31.918C96.923 31.918 98.547 30.504 98.547 28.39C98.547 26.276 96.923 24.862 94.893 24.862C92.863 24.862 91.239 26.276 91.239 28.39ZM92.919 28.39C92.919 27.34 93.661 26.374 94.893 26.374C96.125 26.374 96.867 27.34 96.867 28.39C96.867 29.44 96.125 30.406 94.893 30.406C93.661 30.406 92.919 29.44 92.919 28.39ZM100.05 31.75H101.73V28.082C101.73 27.186 102.164 26.374 103.27 26.374C104.082 26.374 104.418 26.92 104.418 27.746V31.75H106.098V28.11C106.098 27.242 106.49 26.374 107.54 26.374C108.534 26.374 108.786 27.102 108.786 27.942V31.75H110.466V27.746C110.466 26.136 109.836 24.862 108.044 24.862C107.036 24.862 106.322 25.254 105.832 26.108C105.482 25.268 104.768 24.862 103.732 24.862C102.612 24.862 101.968 25.45 101.674 26.08H101.646V25.03H100.05V31.75ZM112.33 31.75H114.01V25.03H112.33V31.75ZM112.092 22.748C112.092 23.28 112.54 23.756 113.156 23.756C113.772 23.756 114.248 23.322 114.248 22.748C114.248 22.174 113.772 21.74 113.156 21.74C112.54 21.74 112.092 22.216 112.092 22.748ZM121.692 25.884C121.048 25.17 120.11 24.862 119.256 24.862C117.226 24.862 115.602 26.276 115.602 28.39C115.602 30.504 117.226 31.918 119.256 31.918C119.844 31.918 120.992 31.666 121.678 30.98L120.558 29.776C120.25 30.182 119.774 30.406 119.256 30.406C118.024 30.406 117.282 29.44 117.282 28.39C117.282 27.34 118.024 26.374 119.256 26.374C119.704 26.374 120.138 26.64 120.53 27.046L121.692 25.884ZM122.72 31.75H124.4V25.03H122.72V31.75ZM122.482 22.748C122.482 23.28 122.93 23.756 123.546 23.756C124.162 23.756 124.638 23.322 124.638 22.748C124.638 22.174 124.162 21.74 123.546 21.74C122.93 21.74 122.482 22.216 122.482 22.748ZM126.357 31.75H128.037V21.166H126.357V31.75ZM129.994 31.75H131.674V25.03H129.994V31.75ZM129.756 22.748C129.756 23.28 130.204 23.756 130.82 23.756C131.436 23.756 131.912 23.322 131.912 22.748C131.912 22.174 131.436 21.74 130.82 21.74C130.204 21.74 129.756 22.216 129.756 22.748ZM133.266 28.39C133.266 30.504 134.89 31.918 136.92 31.918C138.95 31.918 140.574 30.504 140.574 28.39C140.574 26.276 138.95 24.862 136.92 24.862C134.89 24.862 133.266 26.276 133.266 28.39ZM134.946 28.39C134.946 27.34 135.688 26.374 136.92 26.374C138.152 26.374 138.894 27.34 138.894 28.39C138.894 29.44 138.152 30.406 136.92 30.406C135.688 30.406 134.946 29.44 134.946 28.39Z" fill="#828282"/>
<path d="M57.4794 15.4129H53.0095L54.3563 2.72052C54.3588 2.69753 54.3592 2.67488 54.3593 2.65222C54.3593 2.65029 54.3596 2.64847 54.3596 2.64653C54.3596 2.64619 54.3596 2.64596 54.3596 2.64562C54.3596 2.30017 54.1057 1.99569 53.7325 1.86331C53.7293 1.86217 53.7263 1.86081 53.7231 1.85967C53.6999 1.8517 53.6759 1.84487 53.6518 1.83827C53.6428 1.83588 53.6342 1.83292 53.6252 1.83064C53.6055 1.82575 53.5852 1.82188 53.5651 1.8179C53.551 1.81516 53.5374 1.81186 53.5231 1.80959C53.5055 1.80674 53.4872 1.80492 53.4692 1.80276C53.4523 1.80071 53.4356 1.79832 53.4186 1.79707C53.4156 1.79684 53.413 1.79638 53.4101 1.79616C53.3918 1.79479 53.3738 1.79502 53.3556 1.79445C53.3434 1.79411 53.3315 1.79297 53.3193 1.79297H53.3062C53.3051 1.79297 53.304 1.79297 53.303 1.79297H32.0347C31.4606 1.79297 30.9947 2.17542 30.9947 2.64665C30.9947 3.11674 31.4606 3.50032 32.0347 3.50032H52.1856L50.1158 23.0069C50.1155 23.0083 50.1155 23.0098 50.1152 23.0113L49.593 27.9331H13.4537L14.0582 22.8113H20.9393C21.5138 22.8113 21.9793 22.4291 21.9793 21.9576C21.9793 21.4862 21.5138 21.104 20.9393 21.104H14.2598L15.5362 10.2913H26.4878C27.0623 10.2913 27.5279 9.90905 27.5279 9.4376C27.5279 8.96614 27.0623 8.58392 26.4878 8.58392H15.7378L16.338 3.50032H27.8745C28.4473 3.50032 28.9146 3.11674 28.9146 2.64665C28.9146 2.17542 28.4473 1.79297 27.8745 1.79297H15.394C15.3935 1.79297 15.3931 1.79308 15.3925 1.79308C14.904 1.79297 14.4802 2.07525 14.3777 2.46658C14.377 2.46942 14.3758 2.47216 14.3751 2.475C14.3698 2.49629 14.3663 2.51803 14.3629 2.53988C14.3619 2.54682 14.3601 2.55343 14.3593 2.56037C14.3591 2.56173 14.3587 2.56299 14.3586 2.56435L13.648 8.58392H1.04004C0.465523 8.58392 0 8.96614 0 9.4376C0 9.90905 0.465523 10.2913 1.04004 10.2913H13.4464L12.17 21.104H8.4593C7.88478 21.104 7.41925 21.4862 7.41925 21.9576C7.41925 22.4291 7.88478 22.8113 8.4593 22.8113H11.9685L11.2735 28.6984C11.2734 28.6993 11.2734 28.7002 11.2732 28.701L10.1987 37.8045C10.1985 37.8055 10.1984 37.8067 10.1982 37.8076L10.1978 37.8109C10.1964 37.8227 10.1966 37.8343 10.1958 37.8462C10.1948 37.8619 10.1928 37.8772 10.1928 37.8932C10.1928 37.8939 10.193 37.8945 10.193 37.8953C10.193 37.9173 10.1949 37.9389 10.1969 37.9606C10.1977 37.9675 10.1974 37.9746 10.1984 37.9814C10.2012 38.0035 10.2057 38.0252 10.2106 38.0468C10.212 38.0532 10.2127 38.0597 10.2142 38.066C10.2182 38.0824 10.2239 38.0982 10.2292 38.1142C10.2328 38.1255 10.2357 38.137 10.2399 38.148C10.2411 38.1511 10.2428 38.1541 10.2439 38.1572C10.2942 38.2843 10.3796 38.3983 10.4911 38.4914C10.4932 38.4931 10.4949 38.4951 10.4969 38.4967C10.508 38.5058 10.5201 38.514 10.5318 38.5226C10.6034 38.5766 10.6844 38.6223 10.773 38.6582C10.7915 38.6657 10.8097 38.6736 10.8285 38.68C10.8342 38.6821 10.8403 38.6835 10.8461 38.6853C10.8722 38.6938 10.8984 38.702 10.9254 38.709C10.9279 38.7095 10.9303 38.7099 10.9328 38.7105C10.9636 38.7181 10.9946 38.7247 11.0264 38.73C11.0306 38.7307 11.0349 38.7309 11.0389 38.7316C11.0691 38.7363 11.0995 38.7403 11.1304 38.7428C11.1311 38.7428 11.1317 38.7429 11.1323 38.743C11.1665 38.7457 11.2003 38.7471 11.2339 38.7471C11.2343 38.7471 11.2348 38.747 11.2354 38.747H15.8654C16.3767 41.9287 19.6999 44.393 23.7138 44.393C27.7274 44.393 31.0507 41.9287 31.562 38.747H48.2441C48.7556 41.9287 52.0787 44.393 56.0924 44.393C60.106 44.393 63.4296 41.9287 63.941 38.747H68.5721C68.5728 38.747 68.5737 38.7471 68.5743 38.7471C68.609 38.7471 68.6431 38.7454 68.677 38.7426C68.6831 38.7422 68.6889 38.7412 68.695 38.7406C68.722 38.738 68.7489 38.7349 68.7753 38.7306C68.7867 38.7288 68.7976 38.7263 68.8088 38.7241C68.8292 38.7202 68.8497 38.7161 68.8697 38.7112C68.8833 38.7079 68.8965 38.7041 68.9098 38.7003C68.9268 38.6955 68.9439 38.6905 68.9607 38.6849C68.9751 38.6803 68.9888 38.6751 69.0028 38.67C69.0181 38.6642 69.0334 38.6583 69.0482 38.652C69.0623 38.6461 69.0759 38.64 69.0895 38.6336C69.1038 38.6268 69.1179 38.6197 69.132 38.6124C69.145 38.6056 69.158 38.5987 69.1705 38.5914C69.1846 38.5833 69.1981 38.5748 69.2118 38.5661C69.2232 38.5587 69.2347 38.5514 69.2458 38.5437C69.2601 38.5338 69.2735 38.5234 69.2871 38.5128C69.2966 38.5054 69.3064 38.4982 69.3156 38.4904C69.33 38.4783 69.3437 38.4656 69.3574 38.4527C69.3648 38.4458 69.3724 38.4391 69.3795 38.432C69.3947 38.4165 69.4086 38.4006 69.4225 38.3846C69.4272 38.379 69.4324 38.3737 69.437 38.368C69.4539 38.3472 69.4699 38.3258 69.4846 38.3037C69.4857 38.3024 69.4868 38.3011 69.4875 38.2996C69.5032 38.276 69.5176 38.2517 69.5305 38.2267C69.5341 38.2195 69.5369 38.2121 69.5403 38.2049C69.5488 38.1873 69.5571 38.1697 69.5642 38.1513C69.5688 38.1395 69.5721 38.1273 69.5761 38.1154C69.5807 38.1011 69.5855 38.087 69.5894 38.0726C69.5929 38.0597 69.5951 38.0465 69.5977 38.0334C69.6001 38.0219 69.6032 38.0106 69.605 37.9989C69.6491 37.7089 70.4635 32.3456 70.8272 28.8777C70.8276 28.8744 70.8278 28.8709 70.8282 28.8676C70.9329 27.8679 71 27.0261 71 26.5107C71 20.3914 64.9347 15.4129 57.4794 15.4129ZM52.8282 17.1205H57.0831L56.5397 22.2421H52.2848L52.8282 17.1205ZM23.7141 42.6855C20.4945 42.6855 17.8753 40.5356 17.8753 37.8931C17.8753 35.2505 20.4947 33.1006 23.7141 33.1006C26.9335 33.1006 29.5528 35.2505 29.5528 37.8931C29.5528 40.5356 26.9335 42.6855 23.7141 42.6855ZM56.0924 42.6855C52.873 42.6855 50.2539 40.5356 50.2539 37.8931C50.2539 35.2505 52.8732 33.1006 56.0924 33.1006C59.312 33.1006 61.9312 35.2505 61.9312 37.8931C61.9312 40.5356 59.312 42.6855 56.0924 42.6855ZM67.6531 37.039H63.9413C63.4302 33.8571 60.1067 31.3927 56.0927 31.3927C52.079 31.3927 48.7556 33.8572 48.2444 37.039H31.5624C31.0513 33.8571 27.728 31.3927 23.7141 31.3927C19.7002 31.3927 16.3767 33.8572 15.8655 37.039H12.3787L13.2522 29.6401H50.5461V29.6405C50.5467 29.6405 50.5471 29.6405 50.5476 29.6405C50.5824 29.6405 50.617 29.6389 50.6511 29.6361C50.6575 29.6356 50.6637 29.6345 50.6701 29.6338C50.6973 29.6312 50.7243 29.628 50.7509 29.6237C50.7624 29.6217 50.7737 29.6191 50.785 29.6168C50.8058 29.6127 50.8266 29.6087 50.8469 29.6037C50.8607 29.6003 50.8739 29.5962 50.8874 29.5924C50.9048 29.5873 50.9223 29.5825 50.9392 29.5768C50.9538 29.5719 50.9678 29.5664 50.9819 29.5609C50.9973 29.5551 51.0127 29.5493 51.0276 29.543C51.0417 29.5368 51.0556 29.5302 51.0696 29.5236C51.0839 29.5168 51.098 29.5098 51.1119 29.5026C51.1253 29.4954 51.1381 29.4879 51.151 29.4804C51.1647 29.4724 51.178 29.4642 51.1913 29.4557C51.2033 29.4478 51.2151 29.4397 51.2267 29.4314C51.2399 29.4221 51.2528 29.4125 51.2653 29.4026C51.2758 29.3943 51.2863 29.3858 51.2966 29.377C51.3091 29.3663 51.3211 29.3553 51.3331 29.344C51.3424 29.3351 51.3515 29.3262 51.3604 29.3171C51.3719 29.3052 51.3829 29.2929 51.3937 29.2805C51.4018 29.2711 51.4098 29.2618 51.4175 29.2523C51.4276 29.2394 51.4373 29.2262 51.4466 29.2128C51.4537 29.2027 51.4609 29.1927 51.4673 29.1825C51.476 29.169 51.4835 29.1554 51.4914 29.1416C51.4975 29.1306 51.5038 29.1198 51.5093 29.1084C51.5161 29.0949 51.5218 29.0812 51.5278 29.0674C51.5329 29.0552 51.5383 29.043 51.5429 29.0305C51.5475 29.0173 51.5512 29.0038 51.5554 28.9903C51.5594 28.9768 51.5638 28.9634 51.567 28.9496C51.5702 28.9362 51.5721 28.9225 51.5746 28.9088C51.5771 28.8947 51.58 28.8808 51.5817 28.8665C51.582 28.8645 51.5825 28.8625 51.5827 28.8605L52.1039 23.949H57.4792C60.6657 23.949 62.1029 25.3042 63.6243 26.739C64.8797 27.9229 66.2813 29.2438 68.6637 29.5661C68.3611 32.192 67.872 35.563 67.6531 37.039ZM68.8414 27.8553C67.2959 27.5967 66.345 26.7049 65.1931 25.6185C63.7524 24.2601 61.9936 22.6022 58.6221 22.2933L59.1602 17.2227C64.6743 17.8921 68.9199 21.8017 68.9199 26.5109C68.9199 26.8309 68.8908 27.2957 68.8414 27.8553Z" fill="#6E6E6E"/>
<path d="M11.7782 15.75H7.81141C7.36319 15.75 7 16.0437 7 16.4059C7 16.7682 7.36319 17.0619 7.81141 17.0619H11.7782C12.2265 17.0619 12.5897 16.7682 12.5897 16.4059C12.5897 16.0437 12.2265 15.75 11.7782 15.75Z" fill="#6E6E6E"/>
</svg>
