<svg width="262" height="45" viewBox="0 0 262 45" fill="none" xmlns="http://www.w3.org/2000/svg">
<path d="M75.282 8.53681C74.302 7.40281 73.154 6.96881 71.81 6.96881C68.758 6.96881 66.574 9.04081 66.574 12.2188C66.574 15.3128 68.758 17.3848 71.81 17.3848C73.266 17.3848 74.61 16.8528 75.506 15.6208L74.05 14.5848C73.392 15.4248 72.622 15.7888 71.824 15.7888C69.78 15.7888 68.422 14.2208 68.422 12.1068C68.422 10.1328 69.78 8.56481 71.824 8.56481C72.51 8.56481 73.182 8.77481 73.91 9.54481L75.282 8.53681ZM76.2 13.7728C76.2 15.8868 77.824 17.3008 79.854 17.3008C81.884 17.3008 83.508 15.8868 83.508 13.7728C83.508 11.6588 81.884 10.2448 79.854 10.2448C77.824 10.2448 76.2 11.6588 76.2 13.7728ZM77.88 13.7728C77.88 12.7228 78.622 11.7568 79.854 11.7568C81.086 11.7568 81.828 12.7228 81.828 13.7728C81.828 14.8228 81.086 15.7888 79.854 15.7888C78.622 15.7888 77.88 14.8228 77.88 13.7728ZM85.0109 17.1328H86.6909V13.4648C86.6909 12.5688 87.1249 11.7568 88.2309 11.7568C89.0429 11.7568 89.3789 12.3028 89.3789 13.1288V17.1328H91.0589V13.4928C91.0589 12.6248 91.4509 11.7568 92.5009 11.7568C93.4949 11.7568 93.7469 12.4848 93.7469 13.3248V17.1328H95.4269V13.1288C95.4269 11.5188 94.7969 10.2448 93.0049 10.2448C91.9969 10.2448 91.2829 10.6368 90.7929 11.4908C90.4429 10.6508 89.7289 10.2448 88.6929 10.2448C87.5729 10.2448 86.9289 10.8328 86.6349 11.4628H86.6069V10.4128H85.0109V17.1328ZM97.2625 20.3248H98.9425V16.2788H98.9845C99.3345 16.7128 100.007 17.3008 101.267 17.3008C103.185 17.3008 104.515 15.7608 104.515 13.7728C104.515 11.7848 103.269 10.2448 101.197 10.2448C100.259 10.2448 99.3765 10.6088 98.8865 11.4208H98.8585V10.4128H97.2625V20.3248ZM102.835 13.7728C102.835 14.8228 102.093 15.7888 100.861 15.7888C99.6285 15.7888 98.8865 14.8228 98.8865 13.7728C98.8865 12.7228 99.6285 11.7568 100.861 11.7568C102.093 11.7568 102.835 12.7228 102.835 13.7728ZM106.081 17.1328H107.761V13.5348C107.761 13.1708 107.985 11.8408 109.567 11.8408C109.833 11.8408 110.099 11.8968 110.379 11.9668V10.3428C110.183 10.2868 109.987 10.2448 109.777 10.2448C108.895 10.2448 108.153 10.7068 107.789 11.4768H107.761V10.4128H106.081V17.1328ZM115.722 17.1328H117.234V13.2688C117.234 12.3168 117.234 10.2448 114.364 10.2448C113.3 10.2448 112.25 10.5668 111.508 11.3228L112.39 12.2048C112.838 11.7848 113.482 11.5048 114.182 11.5048C115.078 11.5048 115.722 11.9388 115.722 12.7648V12.9468H115.302C113.622 12.9468 111.074 13.1008 111.074 15.2848C111.074 16.6148 112.278 17.3008 113.524 17.3008C114.42 17.3008 115.204 16.9648 115.68 16.2088H115.722V17.1328ZM115.624 14.5008C115.624 15.4388 115.078 16.0408 113.93 16.0408C113.384 16.0408 112.754 15.7748 112.754 15.1588C112.754 14.1928 114.35 14.1228 115.274 14.1228H115.624V14.5008ZM123.746 11.2668C123.2 10.5248 122.248 10.2448 121.352 10.2448C119.994 10.2448 118.65 10.9168 118.65 12.4148C118.65 14.9768 122.276 13.8848 122.276 15.2708C122.276 15.8028 121.646 16.0408 121.156 16.0408C120.442 16.0408 119.994 15.6908 119.56 15.2148L118.44 16.2648C119.126 17.0348 120.022 17.3008 121.058 17.3008C122.43 17.3008 123.956 16.7408 123.956 15.1448C123.956 12.5268 120.33 13.5068 120.33 12.3028C120.33 11.7988 120.862 11.5888 121.31 11.5888C121.884 11.5888 122.304 11.8268 122.626 12.2748L123.746 11.2668ZM71.656 27.2668C71.11 26.5248 70.158 26.2448 69.262 26.2448C67.904 26.2448 66.56 26.9168 66.56 28.4148C66.56 30.9768 70.186 29.8848 70.186 31.2708C70.186 31.8028 69.556 32.0408 69.066 32.0408C68.352 32.0408 67.904 31.6908 67.47 31.2148L66.35 32.2648C67.036 33.0348 67.932 33.3008 68.968 33.3008C70.34 33.3008 71.866 32.7408 71.866 31.1448C71.866 28.5268 68.24 29.5068 68.24 28.3028C68.24 27.7988 68.772 27.5888 69.22 27.5888C69.794 27.5888 70.214 27.8268 70.536 28.2748L71.656 27.2668ZM79.6407 30.3608V29.8988C79.6407 27.5608 78.3667 26.2448 76.4907 26.2448C74.4607 26.2448 72.8367 27.6588 72.8367 29.7728C72.8367 31.8868 74.4607 33.3008 76.4907 33.3008C77.5547 33.3008 78.5487 32.9228 79.3327 31.9568L78.1287 31.0468C77.7087 31.5648 77.1627 31.9568 76.3227 31.9568C75.3847 31.9568 74.6287 31.3548 74.5167 30.3608H79.6407ZM74.5167 29.1008C74.6427 28.1348 75.2587 27.5048 76.2527 27.5048C77.3027 27.5048 77.9467 28.1208 77.9607 29.1008H74.5167ZM86.5318 26.4128V27.4208H86.5038C86.0138 26.6088 85.1318 26.2448 84.1938 26.2448C82.1218 26.2448 80.8758 27.7848 80.8758 29.7728C80.8758 31.6768 82.2058 33.2168 84.2218 33.2168C85.0618 33.2168 85.9298 32.8948 86.4198 32.2368H86.4478V32.7268C86.4478 34.0568 85.9438 34.9808 84.3198 34.9808C83.3818 34.9808 82.6818 34.6308 82.0098 34.0148L81.0018 35.3868C81.9538 36.2268 83.0878 36.4928 84.3338 36.4928C86.9518 36.4928 88.1278 34.9528 88.1278 32.5308V26.4128H86.5318ZM84.5438 27.7568C85.7618 27.7568 86.5318 28.5688 86.5318 29.7308C86.5318 30.8508 85.7758 31.7048 84.5298 31.7048C83.3958 31.7048 82.5558 30.8228 82.5558 29.7588C82.5558 28.5688 83.3678 27.7568 84.5438 27.7568ZM96.1621 26.4128H94.4821V30.0808C94.4821 30.9768 94.0481 31.7888 92.9421 31.7888C91.7661 31.7888 91.7101 30.5568 91.7101 29.8148V26.4128H90.0301V30.6548C90.0301 32.0268 90.6741 33.3008 92.4801 33.3008C93.6001 33.3008 94.2301 32.7268 94.5381 32.0548H94.5661V33.1328H96.1621V26.4128ZM98.0692 33.1328H99.7492V29.5348C99.7492 29.1708 99.9732 27.8408 101.555 27.8408C101.821 27.8408 102.087 27.8968 102.367 27.9668V26.3428C102.171 26.2868 101.975 26.2448 101.765 26.2448C100.883 26.2448 100.141 26.7068 99.7772 27.4768H99.7492V26.4128H98.0692V33.1328ZM107.711 33.1328H109.223V29.2688C109.223 28.3168 109.223 26.2448 106.353 26.2448C105.289 26.2448 104.239 26.5668 103.497 27.3228L104.379 28.2048C104.827 27.7848 105.471 27.5048 106.171 27.5048C107.067 27.5048 107.711 27.9388 107.711 28.7648V28.9468H107.291C105.611 28.9468 103.063 29.1008 103.063 31.2848C103.063 32.6148 104.267 33.3008 105.513 33.3008C106.409 33.3008 107.193 32.9648 107.669 32.2088H107.711V33.1328ZM107.613 30.5008C107.613 31.4388 107.067 32.0408 105.919 32.0408C105.373 32.0408 104.743 31.7748 104.743 31.1588C104.743 30.1928 106.339 30.1228 107.263 30.1228H107.613V30.5008ZM115.734 27.2668C115.188 26.5248 114.236 26.2448 113.34 26.2448C111.982 26.2448 110.638 26.9168 110.638 28.4148C110.638 30.9768 114.264 29.8848 114.264 31.2708C114.264 31.8028 113.634 32.0408 113.144 32.0408C112.43 32.0408 111.982 31.6908 111.548 31.2148L110.428 32.2648C111.114 33.0348 112.01 33.3008 113.046 33.3008C114.418 33.3008 115.944 32.7408 115.944 31.1448C115.944 28.5268 112.318 29.5068 112.318 28.3028C112.318 27.7988 112.85 27.5888 113.298 27.5888C113.872 27.5888 114.292 27.8268 114.614 28.2748L115.734 27.2668Z" fill="#828282"/>
<path d="M43.9794 6.87138C43.9639 6.5926 43.765 6.35516 43.4867 6.28331L22.1545 0.771721C22.0423 0.74276 21.9242 0.74276 21.812 0.771721L0.513088 6.2834C0.235332 6.35533 0.0366315 6.59217 0.0206787 6.87052C0.00587808 7.12834 -0.31238 13.2751 2.18042 21.0462C3.64551 25.6135 5.78424 29.7835 8.53734 33.4406C11.9812 38.0154 16.3983 41.7925 21.6659 44.6672C21.7671 44.7223 21.8794 44.75 21.9919 44.75C22.099 44.75 22.2061 44.7249 22.3037 44.6747C27.5802 41.957 32.0047 38.2758 35.4541 33.7333C38.2103 30.1035 40.3514 25.9213 41.818 21.3026C44.3122 13.4477 43.9942 7.13633 43.9794 6.87138ZM40.5336 20.9667C39.1084 25.4391 37.0336 29.4846 34.3667 32.9911C31.256 37.081 27.3224 40.4474 22.6649 43.0108V39.6949C28.7029 35.9987 33.2567 30.7663 36.2004 24.1361C38.6243 18.6771 39.4141 13.4951 39.6499 10.1092C39.6713 9.80151 39.4651 9.52221 39.1577 9.44289L37.8022 9.09269C37.4476 9.00108 37.0832 9.20553 36.9887 9.54962C36.8942 9.89354 37.105 10.2468 37.4599 10.3384L38.283 10.5511C38.0103 13.8336 37.2059 18.6115 34.9793 23.6263C32.1595 29.9774 27.8117 34.9951 22.0526 38.5467C21.4745 38.1761 20.906 37.7892 20.3582 37.3938C20.0638 37.1812 19.6473 37.2402 19.4279 37.5258C19.2087 37.8112 19.2696 38.2152 19.5641 38.4278C20.1365 38.8411 20.7311 39.2441 21.3352 39.6309V42.9897C16.6755 40.2868 12.7409 36.8311 9.62922 32.7044C6.96306 29.1685 4.88902 25.1326 3.46462 20.7089C1.41442 14.3413 1.31418 8.9735 1.33545 7.40488L21.3352 2.22939V5.17352L4.85171 9.43911C4.54365 9.51886 4.33732 9.79944 4.36001 10.1079C4.53168 12.4373 5.01487 16.0615 6.34241 20.0996C8.53707 26.7754 12.2231 32.3448 17.2979 36.6531C17.424 36.7601 17.5801 36.8127 17.7356 36.8127C17.9206 36.8127 18.1046 36.7382 18.2361 36.5927C18.478 36.3248 18.45 35.9175 18.1738 35.6831C13.2837 31.5318 9.72928 26.157 7.60915 19.7082C6.41819 16.0855 5.92773 12.8063 5.72912 10.5466L21.9844 6.34012L34.5866 9.5962C34.9414 9.68772 35.3057 9.48337 35.4001 9.13927C35.4946 8.79535 35.2838 8.44206 34.9289 8.35045L22.6648 5.18168V2.23773L42.6643 7.40514C42.6863 9.00057 42.5904 14.5122 40.5336 20.9667Z" fill="#6E6E6E"/>
<path d="M32.0013 15.8097C31.6075 15.4273 31.0836 15.2168 30.5262 15.2168C29.9686 15.2168 29.4448 15.4273 29.0514 15.8093L20.5789 24.0243L15.9535 19.5396C15.5599 19.1574 15.036 18.9468 14.4785 18.9468C13.9209 18.9468 13.3972 19.1573 13.0038 19.5392C12.6098 19.9212 12.3926 20.4291 12.3926 20.9694C12.3926 21.5098 12.6096 22.0176 13.0037 22.3994L19.1037 28.3145C19.4975 28.6967 20.0213 28.9073 20.5788 28.9073C21.1364 28.9073 21.6602 28.6968 22.0537 28.3147L32.0008 18.6695C32.3949 18.2877 32.612 17.7797 32.612 17.2393C32.612 16.699 32.395 16.1911 32.0013 15.8097ZM31.0608 17.7577L21.1133 27.4034C20.9707 27.5417 20.781 27.618 20.5788 27.618C20.3767 27.618 20.1869 27.5417 20.0441 27.4031L13.9436 21.4876C13.8009 21.3493 13.7222 21.1653 13.7222 20.9694C13.7222 20.7734 13.8009 20.5895 13.9441 20.4505C14.0866 20.3122 14.2764 20.236 14.4785 20.236C14.6805 20.236 14.8702 20.3122 15.0132 20.4508L20.1089 25.3916C20.3685 25.6433 20.7895 25.6432 21.049 25.3916L29.9919 16.7204C30.1344 16.5821 30.3242 16.5059 30.5263 16.5059C30.7283 16.5059 30.918 16.5821 31.061 16.7209C31.2038 16.8592 31.2825 17.0433 31.2825 17.2392C31.2825 17.435 31.2037 17.6192 31.0608 17.7577Z" fill="#6E6E6E"/>
</svg>
