<svg width="49" height="49" viewBox="0 0 49 49" fill="none" xmlns="http://www.w3.org/2000/svg">
<path fill-rule="evenodd" clip-rule="evenodd" d="M23.9624 13.4005C24.1417 13.5896 24.3048 13.7749 24.4521 13.9521C24.5993 13.7749 24.7625 13.5896 24.9418 13.4005C26.2557 12.0149 28.4327 10.4316 31.5199 10.4316C35.9405 10.4316 39.5743 14.1222 39.6203 18.6577C39.6611 22.7237 38.1829 26.4712 35.099 30.1224C32.5628 33.1308 29.2561 35.3039 26.3877 37.189C25.9496 37.4769 25.5218 37.7581 25.1084 38.0345L24.4521 38.4727L23.7958 38.0345C23.382 37.7578 22.9537 37.4763 22.5151 37.1881C19.647 35.3033 16.341 33.1306 13.8052 30.1246C10.7242 26.4734 9.24599 22.7237 9.28391 18.6599C9.32986 14.1222 12.9637 10.4316 17.3843 10.4316C20.4715 10.4316 22.6485 12.0149 23.9624 13.4005ZM10.0131 18.6671C10.0553 14.5131 13.3802 11.1619 17.3843 11.1619C20.5841 11.1619 22.7313 13.0232 23.8916 14.4192L24.4521 15.0936L25.0126 14.4192C26.1729 13.0232 28.3201 11.1619 31.5199 11.1619C35.5242 11.1619 38.849 14.5134 38.8911 18.6651C38.9298 22.5259 37.5341 26.1086 34.5422 29.6508L34.5418 29.6514C32.0797 32.5719 28.871 34.682 25.9975 36.5716C25.557 36.8613 25.1243 37.1458 24.7034 37.4272L24.4521 37.595L24.2008 37.4272C23.7794 37.1455 23.3463 36.8607 22.9053 36.5706C20.0321 34.6813 16.824 32.5716 14.3623 29.6534L14.3622 29.6533C11.3731 26.1111 9.97718 22.526 10.0131 18.6671Z" fill="#BFBFBF"/>
</svg>
